<?xml version="1.0" encoding="utf-8"?>
<!-- Generator: Adobe Illustrator 24.2.3, SVG Export Plug-In . SVG Version: 6.00 Build 0)  -->
<svg version="1.1" id="레이어_1" xmlns="http://www.w3.org/2000/svg" xmlns:xlink="http://www.w3.org/1999/xlink" x="0px"
	 y="0px" viewBox="0 0 92 92" style="enable-background:new 0 0 92 92;" xml:space="preserve">
<style type="text/css">
	.st0{fill:#EB6EA5;}
	.st1{fill:#004EA2;}
</style>
<g>
	<polygon class="st0" points="51.4,1 50.5,51.4 57.4,52.1 62.8,1.8 	"/>
	<polygon class="st1" points="7.7,5.7 17.2,51.2 22.5,50.9 20.6,3.5 	"/>
	<path class="st0" d="M37.2,26.8c0,0,12.1-4.6,7.3-16C39.6-0.6,22.2,1.5,22.2,1.5l0.7,10.9c0,0,11.9-0.9,11.6,6.3
		c-0.3,7.2-9.2,7.5-9.2,7.5l0.4,6c0,0,11.8,0.1,10.2,8.4c-1.6,8.1-11.5,7.1-11.5,7.1l-0.1,4c0,0,18.3,1.2,22.1-10.5
		C50.2,29.3,37.2,26.8,37.2,26.8z"/>
	<path class="st1" d="M64.1,3.5l-0.9,11.1c0,0,9.8,1.5,7.9,9.5c-1.2,4.9-9.4,6.7-9.4,6.7l-0.7,5.6l9.5,14.8l5.5-1.1l-6.1-15.6
		c0,0,14.2-4.3,13-17.7C81.6,3.6,64.1,3.5,64.1,3.5z"/>
	<polygon class="st1" points="81.3,76.4 81.8,76.4 81.8,77.8 82.1,77.8 82.1,76.4 82.6,76.4 82.6,76.1 81.3,76.1 	"/>
	<polygon class="st1" points="83.5,77.4 83.2,76.1 82.7,76.1 82.7,77.8 83,77.8 83,76.7 83,76.5 83,76.4 83.3,77.8 83.7,77.8 
		84,76.4 84,76.5 84,76.7 84,77.8 84.3,77.8 84.3,76.1 83.8,76.1 	"/>
	<path class="st1" d="M20.4,61.2c-1.1,0.1-2,0.5-2.8,1.1L17,57.7l-3.2,0.4l2.1,15.5l3.2-0.4l-0.2-1.1c0.9,0.3,1.9,0.5,2.9,0.3
		c3.3-0.4,5.7-3.3,5.3-6.4C26.7,63,23.7,60.8,20.4,61.2z M21.4,69.5c-1.5,0.2-3-0.9-3.2-2.3c-0.2-1.4,1-2.8,2.5-3
		c1.5-0.2,3,0.9,3.2,2.3C24.1,67.9,23,69.3,21.4,69.5z"/>
	<path class="st1" d="M36.4,74.4l3.2,0.2l0.9-12.2l-3.2-0.2l-0.1,1.1c-0.8-0.5-1.8-0.8-2.8-0.8c-3.4-0.2-6.2,2.2-6.4,5.4
		c-0.2,3.1,2.3,5.8,5.7,6c1.1,0.1,2-0.2,2.9-0.6L36.4,74.4z M33.8,70.8c-1.5-0.1-2.8-1.4-2.7-2.8c0.1-1.4,1.5-2.6,3-2.5
		c1.6,0.1,2.8,1.4,2.7,2.8C36.8,69.8,35.4,70.9,33.8,70.8z"/>
	<path class="st1" d="M47.4,68.9l-2-4.4c-0.4-1,0.5-2.1,2-2.5c0.2-0.1,0.3-0.1,0.5-0.1l-0.9-2c-0.2,0.1-0.3,0.1-0.5,0.1
		c-3.3,0.8-5.3,3.2-4.3,5.3l2,4.4c0.4,1-0.5,2.1-2,2.5c-0.2,0.1-0.3,0.1-0.5,0.1l0.9,2c0.2-0.1,0.3-0.1,0.5-0.1
		C46.5,73.3,48.4,71,47.4,68.9z"/>
	<polygon class="st1" points="58.2,71.6 60.8,69.8 57.3,65.1 60.3,62 58,59.9 52.4,65.6 53,56.2 49.9,56 48.8,73 55.1,67.3 	"/>
	<path class="st1" d="M63.9,61.3c1.1,0,1.9-0.9,1.9-1.9c0-1-0.9-1.8-2-1.7c-1.1,0-1.9,0.8-1.9,1.9C62,60.6,62.8,61.4,63.9,61.3z"/>
	<polygon class="st1" points="65.5,62.2 62.3,62.3 62.7,72.7 65.9,72.6 	"/>
	<polygon class="st1" points="71.3,67.1 78.7,75 79.4,62.3 76.2,62.3 76,67.9 68.5,60.1 67.9,72.6 71.1,72.7 	"/>
	<path class="st1" d="M23.4,80.1l-0.3-3.3l-0.4,0c-1.2,0.1-2.2,0.4-3.1,1l-0.2-1.3L16,76.8l1.1,13.2l3.6-0.3l-0.5-6.4
		c-0.1-1.6,1.2-3.1,2.9-3.2L23.4,80.1z"/>
	<path class="st1" d="M28.1,79.3c-3,0-5.4,2.3-5.4,5.1c0,2.8,2.5,5.1,5.5,5c3,0,5.4-2.3,5.4-5.2C33.6,81.5,31.1,79.3,28.1,79.3z
		 M28.2,86.8c-1.4,0-2.6-1.1-2.6-2.4c0-1.3,1.2-2.4,2.6-2.4c0,0,0,0,0,0l0,0v0c1.4,0,2.6,1.1,2.6,2.4C30.8,85.7,29.6,86.8,28.2,86.8
		z"/>
	<path class="st1" d="M40.3,80.3c-1,0-1.8,0.2-2.6,0.6l0.1-4.2l-2.9-0.1l-0.4,14.1l2.9,0.1l0.1-0.9c0.7,0.4,1.6,0.7,2.6,0.7
		c3,0.1,5.5-2.2,5.6-5C45.7,82.7,43.3,80.3,40.3,80.3z M40.1,87.8c-1.4,0-2.6-1.2-2.5-2.5c0-1.3,1.2-2.3,2.6-2.3v0l0,0
		c0,0,0,0,0.1,0c1.4,0,2.6,1.2,2.5,2.5C42.7,86.7,41.5,87.8,40.1,87.8z"/>
	<path class="st1" d="M51.9,77.8c-1,0-1.8,0.3-2.6,0.7l-0.1-4.2l-2.9,0.1l0.5,14l2.9-0.1l-0.1-0.9c0.8,0.4,1.6,0.6,2.6,0.5
		c3-0.1,5.4-2.5,5.3-5.3C57.4,79.8,54.9,77.7,51.9,77.8z M52.1,85.2c-1.4,0-2.6-1-2.7-2.3c0-1.3,1.1-2.4,2.5-2.5
		c1.4-0.1,2.6,1,2.7,2.3C54.7,84.1,53.5,85.2,52.1,85.2z"/>
	<path class="st1" d="M60.6,74c-1,0-1.8,0.6-1.8,1.5c-0.1,0.9,0.7,1.6,1.6,1.7c0.9,0,1.8-0.6,1.8-1.5C62.2,74.8,61.5,74.1,60.6,74z"
		/>
	<polygon class="st1" points="58.4,87.3 61.2,87.5 61.8,78.1 58.9,78 	"/>
	<polygon class="st1" points="71,82.9 63.9,74.7 63.8,87.1 66.7,87.2 66.7,82.1 73.6,89.6 74,77.9 71.1,77.9 	"/>
	<path class="st1" d="M79.7,76.5c-3.3,0.6-5.2,2.9-4.2,5.2l2,4.7c0.4,1-0.5,2.2-2,2.4c-0.2,0-0.3,0.1-0.5,0.1l0.9,2.1
		c0.2,0,0.3-0.1,0.5-0.1c3.3-0.6,5.2-2.9,4.2-5.2l-2-4.7c-0.4-1,0.5-2.2,2-2.4c0.2,0,0.3-0.1,0.5-0.1l-0.9-2.1
		C80,76.5,79.9,76.5,79.7,76.5z"/>
</g>
</svg>
