<?xml version="1.0" encoding="utf-8"?>
<!-- Generator: Adobe Illustrator 24.2.3, SVG Export Plug-In . SVG Version: 6.00 Build 0)  -->
<svg version="1.1" id="Capa_1" xmlns="http://www.w3.org/2000/svg" xmlns:xlink="http://www.w3.org/1999/xlink" x="0px" y="0px"
	 viewBox="0 0 483.3 485.4" style="enable-background:new 0 0 483.3 485.4;" xml:space="preserve">
<style type="text/css">
	.st0{fill:#FFFFFF;}
</style>
<g>
	<path class="st0" d="M48.1,241.3c0.7,3.8,3,7,6.3,9c76,45.3,120.6,54.7,153.2,61.5c4.2,0.9,8.3,1.7,12.2,2.6l14.1,115.9
		c0.5,25.6,21.5,46.4,47.2,46.4c25.4,0,45.9-19.6,47.2-44.8c0-0.5,0.1-0.9,0.1-1.4v-68.2l1.1-166.5l18,13.9
		c3.5,3,27.9,22.7,58.1,22.7c20.4,0,38.5-8.6,53.8-25.4c4.3-4.7,4.7-11.7,1-16.9c-1.3-1.8-32.3-45.2-80.9-89.4
		c-28.8-26.1-57.8-47-86.2-62.1C257.1,19.4,221.7,9.5,188,9.2c-0.5,0-1.1,0-1.6,0l0,0c-46,0-81.8,15.2-106.4,45.1
		C25.2,120.9,47.2,236.4,48.1,241.3z M100.9,71.3c19.2-23.4,48-35.2,85.5-35.2c0.5,0,0.9,0,1.4,0c66.9,0.5,131.1,46,173.1,84.1
		c33.5,30.4,58.8,61,70.4,76c-7.9,6.1-16.4,9.1-25.8,9.1c-21.7,0-40.5-16.1-40.6-16.3c-0.2-0.2-0.5-0.4-0.7-0.6l-39.9-30.7
		c-4.1-3.1-9.5-3.7-14.2-1.4c-4.6,2.2-7.5,6.9-7.6,12l-1.3,193.8v67.5c0,0.1,0,0.3,0,0.4c-0.3,11-9.2,19.6-20.2,19.6
		c-11.2,0-20.2-9.1-20.2-20.2c0-0.5,0-1.1-0.1-1.6l-15.1-125.9c-0.7-5.5-4.6-10-9.9-11.4c-7.2-1.9-14.6-3.5-22.5-5.1
		c-31.6-6.6-70.8-14.9-139.6-55.1C70.2,207.1,60.5,120.4,100.9,71.3z"/>
</g>
</svg>
