<?xml version="1.0" encoding="utf-8"?>
<!-- Generator: Adobe Illustrator 24.2.3, SVG Export Plug-In . SVG Version: 6.00 Build 0)  -->
<svg version="1.1" id="Layer_1" xmlns="http://www.w3.org/2000/svg" xmlns:xlink="http://www.w3.org/1999/xlink" x="0px" y="0px"
	 viewBox="0 0 16 16" style="enable-background:new 0 0 16 16;" xml:space="preserve">
<style type="text/css">
	.st0{fill:#B45151;}
</style>
<path class="st0" d="M12.8,15.8H3.2c-1.6,0-3-1.3-3-3V3.2c0-1.6,1.3-3,3-3h9.6c1.6,0,3,1.3,3,3v9.6C15.8,14.4,14.4,15.8,12.8,15.8z
	 M3.2,2.2c-0.5,0-1,0.4-1,1v9.6c0,0.5,0.4,1,1,1h9.6c0.5,0,1-0.4,1-1V3.2c0-0.5-0.4-1-1-1H3.2z"/>
<g>
	<path class="st0" d="M7,3.6l0.8,5.9l2.9-5.9h2.7l-1.5,8.5h-2l0.4-2.1l0.9-3.9l-3,5.9H6.7l-1-6.2l-0.5,4.3l-0.3,1.9h-2l1.5-8.5H7z"
		/>
</g>
</svg>
