<?xml version="1.0" encoding="utf-8"?>
<!-- Generator: Adobe Illustrator 24.2.3, SVG Export Plug-In . SVG Version: 6.00 Build 0)  -->
<svg version="1.1" id="Layer_1" xmlns="http://www.w3.org/2000/svg" xmlns:xlink="http://www.w3.org/1999/xlink" x="0px" y="0px"
	 viewBox="0 0 29 29" style="enable-background:new 0 0 29 29;" xml:space="preserve">
<style type="text/css">
	.st0{fill:#FFFFFF;}
</style>
<g>
	<path d="M26.9,5H6.7L6.6,4.4C6.4,3.2,5.4,2.3,4.4,2.3H1.3C0.9,2.3,0.6,2.6,0.6,3s0.3,0.7,0.7,0.7h3.1c0.3,0,0.7,0.4,0.8,0.9l2.3,13
		c0.2,1.2,1.2,2.1,2.2,2.1h14.7c0.4,0,0.7-0.3,0.7-0.7s-0.3-0.7-0.7-0.7H9.7c-0.3,0-0.7-0.4-0.8-0.9l-0.2-1H25
		c0.9,0,1.7-0.8,1.9-1.8L28.3,7c0.1-0.6,0-1.1-0.3-1.5C27.7,5.2,27.3,5,26.9,5z M27,6.8l-1.4,7.6C25.5,14.7,25.2,15,25,15H8.5L7,6.4
		l20,0C27,6.5,27,6.6,27,6.8z"/>
	<path d="M25,8.6h-1.7l0.1-1.1c0-0.3-0.2-0.6-0.5-0.6c-0.3,0-0.6,0.2-0.6,0.5l-0.2,1.3h-4.4V7.4c0-0.3-0.3-0.6-0.6-0.6
		c-0.3,0-0.6,0.3-0.6,0.6v1.2h-5.3l-0.2-1.3c0-0.3-0.3-0.5-0.7-0.5c-0.3,0-0.5,0.3-0.5,0.7l0.2,1.1H8.9c-0.3,0-0.6,0.3-0.6,0.6
		s0.3,0.6,0.6,0.6h1.4l0.3,2H9.2c-0.3,0-0.6,0.3-0.6,0.6S8.9,13,9.2,13h1.6l0.2,1.3c0,0.3,0.3,0.5,0.6,0.5c0,0,0.1,0,0.1,0
		c0.3,0,0.5-0.3,0.5-0.7L11.9,13h4.7v1.2c0,0.3,0.3,0.6,0.6,0.6c0.3,0,0.6-0.3,0.6-0.6V13h3.8l-0.1,1.1c0,0.3,0.2,0.6,0.5,0.6
		c0.3,0,0.6-0.2,0.6-0.5l0.2-1.3h2c0.3,0,0.6-0.3,0.6-0.6s-0.3-0.6-0.6-0.6h-1.8l0.3-2H25c0.3,0,0.6-0.3,0.6-0.6S25.3,8.6,25,8.6z
		 M22,9.8l-0.3,2h-4v-2H22z M16.6,9.8v2h-4.8l-0.3-2H16.6z"/>
	<path d="M12.9,21c-1.6,0-2.9,1.3-2.9,2.9s1.3,2.9,2.9,2.9s2.9-1.3,2.9-2.9S14.5,21,12.9,21z M12.9,25.3c-0.8,0-1.5-0.7-1.5-1.5
		c0-0.8,0.7-1.5,1.5-1.5c0.8,0,1.5,0.7,1.5,1.5C14.4,24.6,13.7,25.3,12.9,25.3z"/>
	<path d="M21,21c-1.6,0-2.9,1.3-2.9,2.9s1.3,2.9,2.9,2.9s2.9-1.3,2.9-2.9S22.6,21,21,21z M21,25.3c-0.8,0-1.5-0.7-1.5-1.5
		c0-0.8,0.7-1.5,1.5-1.5c0.8,0,1.5,0.7,1.5,1.5C22.5,24.6,21.8,25.3,21,25.3z"/>
</g>
</svg>
