<?xml version="1.0" encoding="utf-8"?>
<!-- Generator: Adobe Illustrator 24.2.3, SVG Export Plug-In . SVG Version: 6.00 Build 0)  -->
<svg version="1.1" id="Layer_1" xmlns="http://www.w3.org/2000/svg" xmlns:xlink="http://www.w3.org/1999/xlink" x="0px" y="0px"
	 viewBox="0 0 29 29" style="enable-background:new 0 0 29 29;" xml:space="preserve">
<style type="text/css">
	.st0{fill:#FFFFFF;}
</style>
<path d="M20.5,2c-3.3,0-5.1,1.8-6,3c-0.9-1.3-2.7-3-6-3c-4.7,0-8,3.2-8,7.7c0,6.2,7.5,12.3,11.6,15.6c0.8,0.6,1.5,1.2,1.9,1.6
	c0.1,0.1,0.3,0.2,0.5,0.2c0.2,0,0.4-0.1,0.5-0.2c0.4-0.4,1.1-0.9,1.9-1.6c4-3.3,11.5-9.4,11.5-15.6C28.5,5.1,25.2,2,20.5,2z M16,24
	c-0.6,0.5-1.1,0.9-1.5,1.2c-0.4-0.3-0.9-0.7-1.5-1.2C9.2,20.9,2,15.1,2,9.7c0-3.1,2-6.2,6.5-6.2c4,0,5.2,3.2,5.2,3.4
	c0.1,0.3,0.4,0.5,0.7,0.5c0.3,0,0.6-0.2,0.7-0.5c0-0.1,1.2-3.4,5.2-3.4c4.5,0,6.5,3.1,6.5,6.2C26.9,15.1,19.8,20.9,16,24z"/>
</svg>
