<?xml version="1.0" encoding="utf-8"?>
<!-- Generator: Adobe Illustrator 24.2.3, SVG Export Plug-In . SVG Version: 6.00 Build 0)  -->
<svg version="1.1" id="Layer_1" xmlns="http://www.w3.org/2000/svg" xmlns:xlink="http://www.w3.org/1999/xlink" x="0px" y="0px"
	 viewBox="0 0 29 29" style="enable-background:new 0 0 29 29;" xml:space="preserve">
<style type="text/css">
	.st0{fill:#FFFFFF;}
</style>
<g>
	<path d="M26.8,24.4H2.2c-0.4,0-0.7,0.3-0.7,0.7c0,0.4,0.3,0.7,0.7,0.7h24.6c0.4,0,0.7-0.3,0.7-0.7C27.5,24.7,27.2,24.4,26.8,24.4z"
		/>
	<path d="M2.2,4.6h24.6c0.4,0,0.7-0.3,0.7-0.7c0-0.4-0.3-0.7-0.7-0.7H2.2c-0.4,0-0.7,0.3-0.7,0.7C1.5,4.3,1.8,4.6,2.2,4.6z"/>
	<path d="M26.8,13.8H2.2c-0.4,0-0.7,0.3-0.7,0.7s0.3,0.7,0.7,0.7h24.6c0.4,0,0.7-0.3,0.7-0.7S27.2,13.8,26.8,13.8z"/>
</g>
</svg>
