<?xml version="1.0" encoding="utf-8"?>
<!-- Generator: Adobe Illustrator 24.2.3, SVG Export Plug-In . SVG Version: 6.00 Build 0)  -->
<svg version="1.1" id="Layer_1" xmlns="http://www.w3.org/2000/svg" xmlns:xlink="http://www.w3.org/1999/xlink" x="0px" y="0px"
	 viewBox="0 0 300 83" style="enable-background:new 0 0 300 83;" xml:space="preserve">
<path d="M52.9,36c-2.4-2.1-5.3-3.7-8.5-4.9c-3.2-1.2-6.6-1.8-10.2-1.8c-3.5,0-6.9,0.6-10.1,1.7c-3.2,1.2-6,2.8-8.4,4.9
	s-4.3,4.6-5.7,7.6c-1.3,2.9-2,6.1-2,9.6S8.7,60,10.1,63s3.3,5.6,5.7,7.8c2.4,2.2,5.2,3.8,8.4,5s6.6,1.8,10.1,1.8
	c3.6,0,7-0.6,10.2-1.8c3.2-1.2,6-2.9,8.5-5.1c2.4-2.2,4.4-4.8,5.8-7.7c1.4-3,2.1-6.3,2.1-9.8c0-3.4-0.7-6.7-2.1-9.6
	C57.3,40.6,55.3,38.1,52.9,36z M38.3,68.6c-1.2,0.7-2.6,1.1-4.1,1.1s-2.8-0.3-3.9-1.1c-1.2-0.7-2.2-1.8-3.1-3.1
	c-0.9-1.4-1.6-3.2-2.1-5.2c-0.5-2.1-0.8-4.5-0.8-7.1c0-2.5,0.3-4.8,0.8-6.9c0.5-2,1.2-3.8,2.1-5.2c0.9-1.3,1.9-2.4,3.2-3.1
	c1.2-0.7,2.5-1.1,3.9-1.1c1.5,0,2.8,0.4,4.1,1.1c1.2,0.7,2.3,1.8,3.2,3.2s1.7,3.2,2.2,5.2s0.8,4.3,0.8,6.8c0,2.6-0.3,4.9-0.8,7
	c-0.5,2-1.3,3.8-2.2,5.2C40.6,66.8,39.6,67.9,38.3,68.6z"/>
<path d="M124.9,70.1c-0.8-0.2-1.1-0.5-1.3-0.8c-0.2-0.3-0.5-1-0.6-2.3c-0.1-1.2-0.2-3-0.2-5.3V48.9c0-2.7-0.5-5.3-1.4-7.8
	s-2.2-4.7-3.8-6.5c-3.3-3.6-8.1-5.4-14-5.4c-6,0-10.7,3.8-12.7,5.7V5.1L69,8.7v5.7h1.5c1.2,0,2.2,0,3,0.1s1.2,0.2,1.4,0.3
	c0.3,0.2,0.4,0.3,0.5,0.4c0.1,0.2,0.3,0.6,0.5,1.3c0.2,0.9,0.4,2.3,0.4,4.1c0.1,1.9,0.1,4.5,0.1,7.7v34c0,2-0.1,3.7-0.2,4.8
	c-0.1,1-0.4,1.7-0.7,2.2c-0.3,0.4-0.8,0.6-1.4,0.8c-0.9,0.2-2.2,0.4-3.9,0.5l-1.4,0.1v6h29.8v-6l-1.4-0.1c-1.6-0.1-2.9-0.3-3.8-0.5
	c-0.8-0.2-1.1-0.5-1.3-0.8c-0.3-0.5-0.6-1.3-0.7-2.4c-0.1-1.2-0.2-3-0.2-5.2v-11c0-2.2,0.3-4.2,0.8-5.9s1.2-3.1,2-4.2
	c1.7-2.1,4-3.1,7-3.1c2.7,0,4.4,0.9,5.4,2.9c1.2,2.2,1.8,6.2,1.8,11.7v10.2c0,2-0.1,3.7-0.2,4.8c-0.1,1-0.4,1.7-0.7,2.1
	c-0.3,0.4-0.8,0.7-1.5,0.9c-0.9,0.2-2.1,0.4-3.7,0.4h-1.4v6.1H130v-6l-1.4-0.1C127.1,70.5,125.8,70.3,124.9,70.1z"/>
<path d="M183,36c-2.4-2.1-5.3-3.7-8.5-4.9c-3.2-1.2-6.6-1.8-10.2-1.8c-3.5,0-6.9,0.6-10.1,1.7c-3.2,1.2-6,2.8-8.4,4.9
	s-4.3,4.6-5.7,7.6c-1.4,2.9-2.1,6.2-2.1,9.6c0,3.5,0.7,6.9,2.1,9.9c1.4,3,3.3,5.6,5.7,7.8c2.4,2.2,5.2,3.8,8.4,5s6.6,1.8,10.1,1.8
	c3.6,0,7-0.6,10.2-1.8c3.2-1.2,6-2.9,8.5-5.1c2.4-2.2,4.4-4.8,5.8-7.7c1.4-3,2.1-6.3,2.1-9.8c0-3.4-0.7-6.7-2.1-9.6
	C187.4,40.6,185.4,38.1,183,36z M168.4,68.6c-1.2,0.7-2.6,1.1-4.1,1.1s-2.8-0.3-3.9-1.1c-1.2-0.7-2.3-1.8-3.1-3.1
	c-0.9-1.4-1.6-3.2-2.1-5.2c-0.5-2.1-0.8-4.5-0.8-7.1c0-2.5,0.3-4.8,0.8-6.9c0.5-2,1.2-3.7,2.1-5.2c0.9-1.3,1.9-2.4,3.2-3.1
	c1.2-0.7,2.5-1.1,3.9-1.1c1.5,0,2.8,0.4,4.1,1.1c1.2,0.7,2.3,1.8,3.2,3.2s1.7,3.2,2.2,5.2s0.8,4.3,0.8,6.8c0,2.6-0.3,4.9-0.8,7
	c-0.5,2-1.3,3.8-2.2,5.2C170.7,66.8,169.6,67.9,168.4,68.6z"/>
<path d="M238.5,31.2c-1.6-1.2-3.7-1.9-6.2-1.9c-3.1,0-6,0.9-8.8,2.8c-1.7,1.2-3.3,2.7-4.6,4.4l-1.1-7.5l-19.7,3.5V38h1.5
	c1.5,0,2.8,0.2,3.6,0.5c0.7,0.2,1.2,0.7,1.6,1.5c0.5,0.9,0.8,2.3,1,4.2c0.2,2,0.2,4.7,0.2,8.1v10.1c0,2-0.1,3.7-0.2,4.8
	c-0.1,1-0.4,1.7-0.7,2.2c-0.3,0.4-0.8,0.6-1.5,0.8c-0.9,0.2-2.2,0.4-3.9,0.5l-1.4,0.1v6h31.4v-6.1h-1.5c-1.9,0-3.4-0.1-4.5-0.3
	c-0.9-0.1-1.5-0.4-1.9-0.8s-0.7-1.2-0.9-2.1c-0.2-1.2-0.3-2.8-0.3-4.9v-4c0-2,0.1-4,0.4-6c0.3-2,0.6-3.8,1.1-5.4
	c0.6-2.1,1.3-3.9,2.2-5.1c0.5-0.7,1.2-1.4,1.9-1.4c0.3,0,0.5,0.1,0.8,0.3c0.5,0.3,1,0.7,1.5,1.1c0.6,0.5,1.3,0.9,2.1,1.3
	c0.9,0.4,1.9,0.6,3,0.6c2.3,0,4.1-0.8,5.4-2.3c1.3-1.5,1.9-3.3,1.9-5.4C241.1,34.2,240.2,32.5,238.5,31.2z"/>
<path d="M291.5,67.1l-1.4,1.1c-0.6,0.5-1.3,0.8-2.1,0.8c-0.7,0-1.4-1.7-1.4-5.6V45.2c0-5.6-1.5-9.8-4.6-12.3
	c-3-2.5-7.8-3.7-14.6-3.7c-6.3,0-11,0.8-14.2,2.5c-3.5,1.8-5.2,4.3-5.2,7.5c0,2.1,0.6,3.7,1.6,4.9c1.1,1.2,2.7,1.9,4.8,1.9
	c2,0,3.6-0.5,4.8-1.5c1.1-0.9,2-2.2,2.6-3.8c0.8-2.2,1.6-3.3,2.1-3.8c0.6-0.6,1.5-0.8,2.7-0.8c2,0,3.4,0.5,4.3,1.6
	c1,1.2,1.4,3.3,1.4,6.1c0,0-0.1,1.6-0.4,2.1c-0.4,0.5-1.9,1.4-1.9,1.4l-8.7,3.7c-5.4,2.1-9.2,4.3-11.6,6.5c-2.5,2.4-3.8,5-3.8,7.8
	c0,3.5,1.2,6.5,3.7,8.7c2.4,2.2,5.7,3.3,9.6,3.3c3.6,0,6.9-0.8,9.7-2.4c1.9-1.1,3.6-2.5,5-4.3c0.4,1.6,1.1,2.9,2,4
	c1.6,1.9,4,2.8,7.1,2.8c2.3,0,4.4-0.5,6.3-1.3c1.9-0.9,3.4-2.2,4.3-3.8l0.4-0.7L291.5,67.1z M272.3,52.2v7.4c0,1-0.2,2-0.6,2.9
	s-1,1.7-1.7,2.3s-1.6,1.2-2.6,1.6s-2.1,0.6-3.3,0.6c-1,0-1.7-0.3-2.3-1c-0.7-0.7-1-1.6-1-2.8C260.8,61.7,260.8,58.4,272.3,52.2z"/>
</svg>
