<?xml version="1.0" encoding="utf-8"?>
<!-- Generator: Adobe Illustrator 24.2.3, SVG Export Plug-In . SVG Version: 6.00 Build 0)  -->
<svg version="1.1" id="Layer_1" xmlns="http://www.w3.org/2000/svg" xmlns:xlink="http://www.w3.org/1999/xlink" x="0px" y="0px"
	 viewBox="0 0 533 212" style="enable-background:new 0 0 533 212;" xml:space="preserve">
<style type="text/css">
	.st0{fill:none;stroke:#1E1E1E;stroke-width:2;}
	.st1{fill:none;stroke:#1E1E1E;stroke-width:2;stroke-dasharray:2;}
	.st2{fill:#FFFFFF;stroke:#000000;stroke-width:2;}
	.st3{fill:#5A96FF;stroke:#1E1E1E;stroke-width:2;}
	.st4{fill:none;stroke:#000000;stroke-width:2;stroke-miterlimit:10;stroke-dasharray:2;}
	.st5{fill:none;stroke:#000000;stroke-width:2;stroke-miterlimit:10;}
	.st6{fill:none;}
	.st7{fill:#0078FF;stroke:#1E1E1E;stroke-width:2;}
</style>
<g>
	<circle id="prefix__Oval" class="st0" cx="53.9" cy="57.8" r="39"/>
	<path id="prefix__Path" class="st0" d="M81.9,85.8l12,12"/>
	<path id="prefix__Path-2" class="st1" d="M54.4,58.3l27.5,27.5"/>
	<path id="prefix__Rectangle-2" class="st2" d="M54.9,14.8L54.9,14.8c2.2,0,4,1.8,4,4l0,0c0,2.2-1.8,4-4,4l0,0c-2.2,0-4-1.8-4-4l0,0
		C50.9,16.6,52.7,14.8,54.9,14.8z"/>
	<path id="prefix__Rectangle-3" class="st2" d="M14.9,54.8L14.9,54.8c2.2,0,4,1.8,4,4l0,0c0,2.2-1.8,4-4,4l0,0c-2.2,0-4-1.8-4-4l0,0
		C10.9,56.6,12.7,54.8,14.9,54.8z"/>
	<path id="prefix__Rectangle-4" class="st2" d="M88.9,54.8h8v8h-8V54.8z"/>
	<path id="prefix__Rectangle-5" class="st2" d="M92.9,92.8L92.9,92.8c2.2,0,4,1.8,4,4l0,0c0,2.2-1.8,4-4,4l0,0c-2.2,0-4-1.8-4-4l0,0
		C88.9,94.6,90.7,92.8,92.9,92.8z"/>
	<path id="prefix__Rectangle-Copy-2" class="st3" d="M54.9,54.8L54.9,54.8c2.2,0,4,1.8,4,4l0,0c0,2.2-1.8,4-4,4l0,0
		c-2.2,0-4-1.8-4-4l0,0C50.9,56.6,52.7,54.8,54.9,54.8z"/>
	<path id="prefix__Rectangle-Copy" class="st2" d="M55.9,92.8L55.9,92.8c2.2,0,4,1.8,4,4l0,0c0,2.2-1.8,4-4,4l0,0c-2.2,0-4-1.8-4-4
		l0,0C51.9,94.6,53.7,92.8,55.9,92.8z"/>
</g>
<g>
	<path id="prefix__Path-2_1_" class="st0" d="M116.9,97.4l40-78l38,78"/>
	<path id="prefix__Rectangle-Copy-4" class="st2" d="M152.9,15.4h8v8h-8V15.4z"/>
	<path id="prefix__Rectangle-Copy-5" class="st2" d="M112.9,93.4h8v8h-8V93.4z"/>
	<path id="prefix__Rectangle-Copy-7" class="st2" d="M194.9,93.4L194.9,93.4c2.2,0,4,1.8,4,4l0,0c0,2.2-1.8,4-4,4l0,0
		c-2.2,0-4-1.8-4-4l0,0C190.9,95.2,192.7,93.4,194.9,93.4z"/>
	<path id="prefix__Line" class="st1" d="M139.9,53.4h33"/>
	<path id="prefix__Rectangle-Copy-8" class="st2" d="M168.9,49.4h8v8h-8V49.4z"/>
	<path id="prefix__Rectangle-Copy-8-2" class="st3" d="M135.9,49.4h8v8h-8V49.4z"/>
</g>
<g>
	<path id="prefix__Path_1_" class="st4" d="M245.7,97.8c21.5,0,39-17.5,39-39"/>
	<path id="prefix__Path-2_2_" class="st5" d="M284.7,58.8c0-22.5-19-40.5-41.8-38.9c-19.2,1.3-34.8,16.9-36.1,36.1
		c-1.6,22.8,16.5,41.8,38.9,41.8"/>
	<path id="prefix__Path-3" class="st4" d="M323.7,19.8c-21.5,0-39,17.5-39,39"/>
	<path id="prefix__Path-4" class="st5" d="M284.7,58.8c0,22.5,19,40.5,41.8,38.9c19.2-1.3,34.8-16.9,36.1-36.1
		c1.6-22.8-16.5-41.8-38.9-41.8"/>
	<path id="prefix__Rectangle-3_1_" class="st2" d="M246.7,15.8L246.7,15.8c2.2,0,4,1.8,4,4l0,0c0,2.2-1.8,4-4,4l0,0
		c-2.2,0-4-1.8-4-4l0,0C242.7,17.6,244.5,15.8,246.7,15.8z"/>
	<path id="prefix__Rectangle-4_1_" class="st2" d="M324.7,15.8L324.7,15.8c2.2,0,4,1.8,4,4l0,0c0,2.2-1.8,4-4,4l0,0
		c-2.2,0-4-1.8-4-4l0,0C320.7,17.6,322.5,15.8,324.7,15.8z"/>
	<path id="prefix__Rectangle-5_1_" class="st2" d="M206.7,55.8L206.7,55.8c2.2,0,4,1.8,4,4l0,0c0,2.2-1.8,4-4,4l0,0
		c-2.2,0-4-1.8-4-4l0,0C202.7,57.6,204.5,55.8,206.7,55.8z"/>
	<path id="prefix__Rectangle-6" class="st3" d="M280.7,55.8h8v8h-8V55.8z"/>
	<path id="prefix__Rectangle-7" class="st2" d="M362.7,55.8L362.7,55.8c2.2,0,4,1.8,4,4l0,0c0,2.2-1.8,4-4,4l0,0c-2.2,0-4-1.8-4-4
		l0,0C358.7,57.6,360.5,55.8,362.7,55.8z"/>
	<path id="prefix__Rectangle-Copy_1_" class="st3" d="M247.7,93.8L247.7,93.8c2.2,0,4,1.8,4,4l0,0c0,2.2-1.8,4-4,4l0,0
		c-2.2,0-4-1.8-4-4l0,0C243.7,95.6,245.5,93.8,247.7,93.8z"/>
	<path id="prefix__Rectangle-Copy-2_1_" class="st2" d="M325.7,93.8L325.7,93.8c2.2,0,4,1.8,4,4l0,0c0,2.2-1.8,4-4,4l0,0
		c-2.2,0-4-1.8-4-4l0,0C321.7,95.6,323.5,93.8,325.7,93.8z"/>
</g>
<g>
	<path id="prefix__Rectangle" class="st6" d="M391.5,119.9h64v64h-64V119.9z"/>
	<path id="prefix__Rectangle-2_1_" class="st0" d="M396.5,145.9h14v26h-14V145.9z"/>
	<path id="prefix__Combined-Shape" class="st0" d="M424.1,128.1c1.5-2,3.9-3.2,6.4-3.2h0.4c0.9,0,1.8,0.4,2.4,1.1
		c0.7,0.9,0.7,2,0.3,2.9l-6.1,12.9h19c2.2,0,4,1.8,4,4l0,8.8l-5.2,18.3c-0.5,1.7-2.1,2.9-3.9,2.9h-27l-4-4v-26L424.1,128.1z"/>
	<path id="prefix__Rectangle-3_2_" class="st2" d="M396.5,141.9L396.5,141.9c2.2,0,4,1.8,4,4l0,0c0,2.2-1.8,4-4,4l0,0
		c-2.2,0-4-1.8-4-4l0,0C392.5,143.7,394.3,141.9,396.5,141.9z"/>
	<path id="prefix__Rectangle-Copy-2_2_" class="st2" d="M396.5,167.9L396.5,167.9c2.2,0,4,1.8,4,4l0,0c0,2.2-1.8,4-4,4l0,0
		c-2.2,0-4-1.8-4-4l0,0C392.5,169.7,394.3,167.9,396.5,167.9z"/>
	<path id="prefix__Rectangle-4_2_" class="st3" d="M406.5,141.9h8v8h-8V141.9z"/>
	<path id="prefix__Rectangle-5_2_" class="st2" d="M450.5,150.9L450.5,150.9c2.2,0,4,1.8,4,4l0,0c0,2.2-1.8,4-4,4l0,0
		c-2.2,0-4-1.8-4-4l0,0C446.5,152.7,448.3,150.9,450.5,150.9z"/>
</g>
<g>
	<path id="prefix__Rectangle_1_" class="st0" d="M381.5,18.1h102v12h-102V18.1z"/>
	<path id="prefix__Rectangle-2_2_" class="st0" d="M381.5,30.1h102v66h-102V30.1z"/>
	<path id="prefix__Path_2_" class="st4" d="M408.5,30.1v66"/>
	<path id="prefix___-g-Apple_BI_Black_20_24" class="st0" d="M493.9,53.4c2.4,0,7-3.2,11.8-2.8c4.5,0.1,8.6,2.3,11.2,6
		c-0.3,0.2-6.7,3.8-6.6,11.4c0.1,9.1,8.2,12.1,8.2,12.1c-1,3-2.4,5.9-4.3,8.5c-2.6,3.7-5.2,7.3-9.4,7.4c-4.1,0.1-5.4-2.4-10.1-2.4
		c-4.7,0-6.2,2.3-10.1,2.5c-4,0.1-7.1-4-9.7-7.6c-5.3-7.4-9.3-21-3.9-30.2c2.6-4.5,7.4-7.4,12.7-7.5
		C487.8,50.7,491.5,53.4,493.9,53.4z M505.7,36.1c0.3,3.5-0.9,6.9-3.2,9.6c-2.1,2.5-5.7,4.5-9.1,4.2c-0.5-3.4,1.3-7,3.3-9.3
		C499,38.1,502.3,36.5,505.7,36.1z"/>
	<path id="prefix__Rectangle-3_3_" d="M402.5,23.1h4v2h-4V23.1z"/>
	<path id="prefix__Rectangle-4_3_" d="M386.5,23.1h4v2h-4V23.1z"/>
	<path id="prefix__Rectangle-5_3_" d="M394.5,23.1h4v2h-4V23.1z"/>
	<path id="prefix__Rectangle-6_1_" class="st3" d="M404.5,45.1h8v8h-8V45.1z"/>
	<path id="prefix__Rectangle-7_1_" class="st2" d="M381.5,14.1L381.5,14.1c2.2,0,4,1.8,4,4l0,0c0,2.2-1.8,4-4,4l0,0
		c-2.2,0-4-1.8-4-4l0,0C377.5,15.9,379.3,14.1,381.5,14.1z"/>
	<path id="prefix__Rectangle-8" class="st2" d="M483.5,14.1L483.5,14.1c2.2,0,4,1.8,4,4l0,0c0,2.2-1.8,4-4,4l0,0c-2.2,0-4-1.8-4-4
		l0,0C479.5,15.9,481.3,14.1,483.5,14.1z"/>
	<path id="prefix__Rectangle-9" class="st3" d="M483.5,92.1L483.5,92.1c2.2,0,4,1.8,4,4l0,0c0,2.2-1.8,4-4,4l0,0c-2.2,0-4-1.8-4-4
		l0,0C479.5,93.9,481.3,92.1,483.5,92.1z"/>
	<path id="prefix__Rectangle-10" class="st2" d="M483.5,46.1L483.5,46.1c2.2,0,4,1.8,4,4l0,0c0,2.2-1.8,4-4,4l0,0c-2.2,0-4-1.8-4-4
		l0,0C479.5,47.9,481.3,46.1,483.5,46.1z"/>
	<path id="prefix__Rectangle-11" class="st2" d="M518.5,76.1L518.5,76.1c2.2,0,4,1.8,4,4l0,0c0,2.2-1.8,4-4,4l0,0c-2.2,0-4-1.8-4-4
		l0,0C514.5,77.9,516.3,76.1,518.5,76.1z"/>
	<path id="prefix__Rectangle-Copy-2_3_" class="st2" d="M381.5,92.6L381.5,92.6c2.2,0,4,1.8,4,4l0,0c0,2.2-1.8,4-4,4l0,0
		c-2.2,0-4-1.8-4-4l0,0C377.5,94.4,379.3,92.6,381.5,92.6z"/>
	<path id="prefix__Rectangle-Copy_2_" class="st2" d="M408.5,92.6L408.5,92.6c2.2,0,4,1.8,4,4l0,0c0,2.2-1.8,4-4,4l0,0
		c-2.2,0-4-1.8-4-4l0,0C404.5,94.4,406.3,92.6,408.5,92.6z"/>
</g>
<g>
	<path id="prefix__Rectangle_2_" class="st0" d="M13.4,118.9h102v58h-102V118.9z"/>
	<path id="prefix__Rectangle-2_3_" class="st0" d="M52.4,176.9h24v11h-24V176.9z"/>
	<path id="prefix__Rectangle-3_4_" class="st0" d="M115.4,140.9h28v42h-28V140.9z"/>
	<path id="prefix__Rectangle-4_4_" class="st0" d="M108.4,133.9h42v63h-42V133.9z"/>
	<path id="prefix__Rectangle-5_4_" class="st0" d="M36.4,187.9h56v9h-56V187.9z"/>
	<path id="prefix__Oval_1_" class="st4" d="M42.4,176.9c16,0,29-13,29-29s-13-29-29-29s-29,13-29,29S26.3,176.9,42.4,176.9z"/>
	<path id="prefix__Rectangle-6_2_" class="st2" d="M115.4,129.9L115.4,129.9c2.2,0,4,1.8,4,4l0,0c0,2.2-1.8,4-4,4l0,0
		c-2.2,0-4-1.8-4-4l0,0C111.4,131.7,113.1,129.9,115.4,129.9z"/>
	<path id="prefix__Rectangle-7_2_" class="st2" d="M13.4,114.9L13.4,114.9c2.2,0,4,1.8,4,4l0,0c0,2.2-1.8,4-4,4l0,0
		c-2.2,0-4-1.8-4-4l0,0C9.4,116.7,11.1,114.9,13.4,114.9z"/>
	<path id="prefix__Rectangle-8_1_" class="st3" d="M42.4,114.9L42.4,114.9c2.2,0,4,1.8,4,4l0,0c0,2.2-1.8,4-4,4l0,0
		c-2.2,0-4-1.8-4-4l0,0C38.4,116.7,40.1,114.9,42.4,114.9z"/>
	<path id="prefix__Rectangle-9_1_" class="st2" d="M129.4,185.9L129.4,185.9c2.2,0,4,1.8,4,4l0,0c0,2.2-1.8,4-4,4l0,0
		c-2.2,0-4-1.8-4-4l0,0C125.4,187.7,127.1,185.9,129.4,185.9z"/>
	<path id="prefix__Rectangle-10_1_" class="st2" d="M150.4,129.9L150.4,129.9c2.2,0,4,1.8,4,4l0,0c0,2.2-1.8,4-4,4l0,0
		c-2.2,0-4-1.8-4-4l0,0C146.4,131.7,148.1,129.9,150.4,129.9z"/>
	<path id="prefix__Rectangle-11_1_" class="st3" d="M150.4,192.9L150.4,192.9c2.2,0,4,1.8,4,4l0,0c0,2.2-1.8,4-4,4l0,0
		c-2.2,0-4-1.8-4-4l0,0C146.4,194.7,148.1,192.9,150.4,192.9z"/>
	<path id="prefix__Rectangle-12" class="st3" d="M72.4,172.9h8v8h-8V172.9z"/>
	<path id="prefix__Rectangle-Copy-2_4_" class="st2" d="M13.4,172.9L13.4,172.9c2.2,0,4,1.8,4,4l0,0c0,2.2-1.8,4-4,4l0,0
		c-2.2,0-4-1.8-4-4l0,0C9.4,174.7,11.1,172.9,13.4,172.9z"/>
	<path id="prefix__Rectangle-Copy_3_" class="st2" d="M36.4,192.9L36.4,192.9c2.2,0,4,1.8,4,4l0,0c0,2.2-1.8,4-4,4l0,0
		c-2.2,0-4-1.8-4-4l0,0C32.4,194.7,34.1,192.9,36.4,192.9z"/>
</g>
<g>
	<path id="prefix__Rectangle_3_" class="st6" d="M168.9,125.9h64v64h-64V125.9z"/>
	<path id="prefix__Rectangle-2_4_" class="st0" d="M173.9,134.9l32-4v54l-32-4V134.9z"/>
	<path id="prefix__Rectangle-3_5_" class="st0" d="M205.9,134.9h22v46h-22V134.9z"/>
	<path id="prefix__Rectangle-4_5_" class="st2" d="M201.9,126.9h8v8h-8V126.9z"/>
	<path id="prefix__Rectangle-5_5_" class="st2" d="M173.9,130.9L173.9,130.9c2.2,0,4,1.8,4,4l0,0c0,2.2-1.8,4-4,4l0,0
		c-2.2,0-4-1.8-4-4l0,0C169.9,132.7,171.6,130.9,173.9,130.9z"/>
	<path id="prefix__Rectangle-6_3_" class="st2" d="M227.9,130.9L227.9,130.9c2.2,0,4,1.8,4,4l0,0c0,2.2-1.8,4-4,4l0,0
		c-2.2,0-4-1.8-4-4l0,0C223.9,132.7,225.6,130.9,227.9,130.9z"/>
	<path id="prefix__Rectangle-7_3_" class="st2" d="M227.9,176.9L227.9,176.9c2.2,0,4,1.8,4,4l0,0c0,2.2-1.8,4-4,4l0,0
		c-2.2,0-4-1.8-4-4l0,0C223.9,178.7,225.6,176.9,227.9,176.9z"/>
	<path id="prefix__Path_3_" class="st1" d="M192.9,157.9h13"/>
	<path id="prefix__Rectangle-Copy-2_5_" class="st2" d="M173.9,176.9L173.9,176.9c2.2,0,4,1.8,4,4l0,0c0,2.2-1.8,4-4,4l0,0
		c-2.2,0-4-1.8-4-4l0,0C169.9,178.7,171.6,176.9,173.9,176.9z"/>
	<path id="prefix__Rectangle-Copy_4_" class="st7" d="M205.9,153.9L205.9,153.9c2.2,0,4,1.8,4,4l0,0c0,2.2-1.8,4-4,4l0,0
		c-2.2,0-4-1.8-4-4l0,0C201.9,155.7,203.6,153.9,205.9,153.9z"/>
</g>
<g>
	<path id="prefix__Rectangle_4_" class="st6" d="M239.1,126.2h64v64h-64V126.2z"/>
	<path id="prefix__Path_4_" class="st0" d="M244.1,167.2h18"/>
	<path id="prefix__Path-2_3_" class="st0" d="M262.1,167.2v18h-18v-18"/>
	<g id="prefix__Group-2" transform="translate(41 5)">
		<path id="prefix__Path-3_1_" class="st0" d="M257.1,126.2v18"/>
		<path id="prefix__Path-4_1_" class="st0" d="M257.1,144.2h-18v-18h18"/>
	</g>
	<path id="prefix__Rectangle-2_5_" class="st0" d="M262.1,149.2h36v18h-36V149.2z"/>
	<path id="prefix__Rectangle-3_6_" class="st0" d="M262.1,167.2h36v18h-36V167.2z"/>
	<path id="prefix__Rectangle-4_6_" class="st2" d="M276.1,145.2h8v8h-8V145.2z"/>
	<path id="prefix__Rectangle-5_6_" class="st2" d="M298.1,163.2L298.1,163.2c2.2,0,4,1.8,4,4l0,0c0,2.2-1.8,4-4,4l0,0
		c-2.2,0-4-1.8-4-4l0,0C294.1,165,295.9,163.2,298.1,163.2z"/>
	<path id="prefix__Rectangle-6_4_" class="st2" d="M298.1,127.2L298.1,127.2c2.2,0,4,1.8,4,4l0,0c0,2.2-1.8,4-4,4l0,0
		c-2.2,0-4-1.8-4-4l0,0C294.1,129,295.9,127.2,298.1,127.2z"/>
	<path id="prefix__Rectangle-7_4_" class="st7" d="M262.1,181.2L262.1,181.2c2.2,0,4,1.8,4,4l0,0c0,2.2-1.8,4-4,4l0,0
		c-2.2,0-4-1.8-4-4l0,0C258.1,183,259.9,181.2,262.1,181.2z"/>
	<path id="prefix__Rectangle-Copy-2_6_" class="st2" d="M244.1,181.2L244.1,181.2c2.2,0,4,1.8,4,4l0,0c0,2.2-1.8,4-4,4l0,0
		c-2.2,0-4-1.8-4-4l0,0C240.1,183,241.9,181.2,244.1,181.2z"/>
</g>
<g>
	<path id="prefix__Rectangle_5_" class="st6" d="M313.5,122.9h64v64h-64V122.9z"/>
	<path id="prefix__Path_5_" class="st0" d="M345.5,177.5l-6.1,6.1l-19.1-19.1l6.3-6.3"/>
	<path id="prefix__Path-2_4_" class="st0" d="M326.6,158.2l22.3-22.3c5.3-5.3,13.8-5.3,19.1,0c5.3,5.3,5.3,13.8,0,19.1l-22.6,22.6"
		/>
	<path id="prefix__Path-3_2_" class="st0" d="M364.6,158.5l6,6l-19.1,19.1l-6.1-6.1"/>
	<path id="prefix__Path-4_2_" class="st0" d="M345.4,177.5l-22.5-22.5c-5.3-5.3-5.3-13.8,0-19.1c5.3-5.3,13.8-5.3,19.1,0l22.6,22.6"
		/>
	<path id="prefix__Rectangle-2_6_" class="st7" d="M326.5,153.9L326.5,153.9c2.2,0,4,1.8,4,4l0,0c0,2.2-1.8,4-4,4l0,0
		c-2.2,0-4-1.8-4-4l0,0C322.5,155.7,324.2,153.9,326.5,153.9z"/>
	<path id="prefix__Rectangle-3_7_" class="st2" d="M367.5,131.9L367.5,131.9c2.2,0,4,1.8,4,4l0,0c0,2.2-1.8,4-4,4l0,0
		c-2.2,0-4-1.8-4-4l0,0C363.5,133.7,365.2,131.9,367.5,131.9z"/>
	<path id="prefix__Rectangle-4_7_" class="st2" d="M351.5,143.9h8v8h-8V143.9z"/>
</g>
</svg>
