<?xml version="1.0" encoding="utf-8"?>
<!-- Generator: Adobe Illustrator 24.2.3, SVG Export Plug-In . SVG Version: 6.00 Build 0)  -->
<svg version="1.1" id="Layer_1" xmlns="http://www.w3.org/2000/svg" xmlns:xlink="http://www.w3.org/1999/xlink" x="0px" y="0px"
	 viewBox="0 0 30 30" style="enable-background:new 0 0 30 30;" xml:space="preserve">
<style type="text/css">
	.st0{fill:#1BABE9;}
</style>
<g>
	<path class="st0" d="M27.7,16.9c-0.3,0-0.6-0.1-0.9-0.4L15,5L3.1,16.6c-0.5,0.5-1.3,0.5-1.7,0c-0.5-0.5-0.5-1.3,0-1.7L14.1,2.4
		c0.5-0.5,1.2-0.5,1.7,0l12.7,12.5c0.5,0.5,0.5,1.3,0,1.7C28.3,16.8,28,16.9,27.7,16.9z"/>
	<path class="st0" d="M27.7,28c-0.3,0-0.6-0.1-0.9-0.4L15,16L3.1,27.6c-0.5,0.5-1.3,0.5-1.7,0c-0.5-0.5-0.5-1.3,0-1.7l12.7-12.5
		c0.5-0.5,1.2-0.5,1.7,0l12.7,12.5c0.5,0.5,0.5,1.3,0,1.7C28.3,27.9,28,28,27.7,28z"/>
</g>
</svg>
