<?xml version="1.0" encoding="utf-8"?>
<!-- Generator: Adobe Illustrator 24.2.3, SVG Export Plug-In . SVG Version: 6.00 Build 0)  -->
<svg version="1.1" id="레이어_1" xmlns="http://www.w3.org/2000/svg" xmlns:xlink="http://www.w3.org/1999/xlink" x="0px"
	 y="0px" viewBox="0 0 49.7 50" style="enable-background:new 0 0 49.7 50;" xml:space="preserve">
<style type="text/css">
	.st0{fill:#EB6EA5;}
	.st1{fill:#004EA2;}
</style>
<g>
	<polygon class="st0" points="28.7,8.8 28.1,40.8 32.5,41.2 35.9,9.3 	"/>
	<polygon class="st1" points="1,11.8 7,40.6 10.4,40.4 9.2,10.4 	"/>
	<path class="st0" d="M19.7,25.2c0,0,7.6-2.9,4.6-10.1c-3-7.2-14.1-5.9-14.1-5.9l0.5,6.9c0,0,7.5-0.6,7.3,4
		c-0.2,4.5-5.8,4.8-5.8,4.8l0.3,3.8c0,0,7.5,0,6.5,5.3c-1,5.1-7.2,4.5-7.2,4.5l-0.1,2.5c0,0,11.6,0.7,14-6.7
		C27.9,26.8,19.7,25.2,19.7,25.2z"/>
	<path class="st1" d="M36.7,10.4l-0.6,7c0,0,6.2,1,5,6c-0.8,3.1-6,4.3-6,4.3l-0.4,3.6l6,9.4l3.5-0.7l-3.9-9.8c0,0,9-2.7,8.2-11.2
		C47.8,10.5,36.7,10.4,36.7,10.4z"/>
</g>
</svg>
