<?xml version="1.0" encoding="utf-8"?>
<!-- Generator: Adobe Illustrator 24.2.3, SVG Export Plug-In . SVG Version: 6.00 Build 0)  -->
<svg version="1.1" id="Layer_1" xmlns="http://www.w3.org/2000/svg" xmlns:xlink="http://www.w3.org/1999/xlink" x="0px" y="0px"
	 viewBox="0 0 18 18" style="enable-background:new 0 0 18 18;" xml:space="preserve">
<style type="text/css">
	.st0{fill-rule:evenodd;clip-rule:evenodd;fill:url(#prefix___-g-sns_instagram_1_);}
</style>
<g id="prefix__ic_sns_instagram" transform="translate(3.999 -.001)">
	<radialGradient id="prefix___-g-sns_instagram_1_" cx="2.1284" cy="16.8717" r="17.7391" gradientUnits="userSpaceOnUse">
		<stop  offset="0" style="stop-color:#FFF451"/>
		<stop  offset="0.1291" style="stop-color:#FFF151"/>
		<stop  offset="0.2327" style="stop-color:#FFE750"/>
		<stop  offset="0.3276" style="stop-color:#FFD64E"/>
		<stop  offset="0.4172" style="stop-color:#FFBE4C"/>
		<stop  offset="0.5031" style="stop-color:#FF9F49"/>
		<stop  offset="0.5862" style="stop-color:#FF7945"/>
		<stop  offset="0.6671" style="stop-color:#FF4D41"/>
		<stop  offset="0.7443" style="stop-color:#FF1A3C"/>
		<stop  offset="0.7514" style="stop-color:#FF153C"/>
		<stop  offset="1" style="stop-color:#9E00BF"/>
	</radialGradient>
	<path id="prefix___-g-sns_instagram" class="st0" d="M6,0c1.6,0,1.9,0,2.7,0.1c0.7,0,1.5,0.2,2.2,0.4c0.6,0.2,1.1,0.6,1.6,1
		c0.5,0.4,0.8,1,1,1.6c0.3,0.7,0.4,1.4,0.4,2.2C14,6.2,14,6.6,14,9s0,2.8-0.1,3.7c0,0.7-0.2,1.5-0.4,2.2c-0.5,1.2-1.4,2.2-2.6,2.6
		c-0.7,0.3-1.4,0.4-2.2,0.4C7.8,18,7.4,18,5,18s-2.8,0-3.7-0.1c-0.7,0-1.5-0.2-2.2-0.4c-0.6-0.2-1.1-0.6-1.6-1c-0.5-0.4-0.8-1-1-1.6
		c-0.3-0.7-0.4-1.4-0.4-2.2C-4,11.9-4,11.6-4,10V8c0-1.6,0-1.9,0.1-2.7c0-0.7,0.2-1.5,0.4-2.2c0.2-0.6,0.6-1.1,1-1.6
		c0.4-0.5,1-0.8,1.6-1c0.7-0.3,1.4-0.4,2.2-0.4C2.1,0,2.4,0,4,0H6z M5.5,1.6H4.5c-1.9,0-2.2,0-3.1,0.1C0.8,1.7,0.2,1.8-0.3,2
		c-0.4,0.1-0.7,0.4-1,0.7c-0.3,0.3-0.5,0.6-0.7,1c-0.2,0.5-0.3,1.1-0.3,1.7c0,0.9-0.1,1.2-0.1,3.1v1.1c0,1.9,0,2.2,0.1,3.1
		c0,0.6,0.1,1.1,0.3,1.7c0.1,0.4,0.4,0.7,0.7,1c0.3,0.3,0.6,0.5,1,0.7c0.5,0.2,1.1,0.3,1.7,0.3c0.9,0,1.2,0.1,3.1,0.1h1.1
		c1.9,0,2.2,0,3.1-0.1c0.6,0,1.1-0.1,1.7-0.3c0.8-0.3,1.4-0.9,1.7-1.7c0.2-0.5,0.3-1.1,0.3-1.7c0-0.9,0.1-1.2,0.1-3.1V8.5
		c0-1.9,0-2.2-0.1-3.1c0-0.6-0.1-1.1-0.3-1.7c-0.1-0.4-0.4-0.7-0.7-1c-0.3-0.3-0.6-0.5-1-0.7C9.8,1.8,9.2,1.7,8.6,1.7
		C7.8,1.6,7.5,1.6,5.5,1.6z M5,4.4c2.6,0,4.6,2.1,4.6,4.6S7.6,13.6,5,13.6S0.4,11.6,0.4,9l0,0C0.4,6.4,2.4,4.4,5,4.4z M5,6
		C3.3,6,2,7.3,2,9s1.3,3,3,3s3-1.3,3-3S6.7,6,5,6z M9.8,3.1c0.6,0,1.1,0.5,1.1,1.1s-0.5,1.1-1.1,1.1c-0.6,0-1.1-0.5-1.1-1.1
		S9.2,3.1,9.8,3.1z"/>
</g>
</svg>
