<?xml version="1.0" encoding="utf-8"?>
<!-- Generator: Adobe Illustrator 24.2.3, SVG Export Plug-In . SVG Version: 6.00 Build 0)  -->
<svg version="1.1" id="Layer_1" xmlns="http://www.w3.org/2000/svg" xmlns:xlink="http://www.w3.org/1999/xlink" x="0px" y="0px"
	 viewBox="0 0 18 18" style="enable-background:new 0 0 18 18;" xml:space="preserve">
<style type="text/css">
	.st0{fill-rule:evenodd;clip-rule:evenodd;fill:#191919;}
</style>
<g id="prefix___-g-ic_login_github-copy" transform="translate(0 1)">
	<path id="prefix__ic_login_github" class="st0" d="M9-1C4-0.9-0.1,3.2,0,8.2c0,3.9,2.4,7.5,6.2,8.8c0.4,0.1,0.6-0.2,0.6-0.4
		c0-0.2,0-0.8,0-1.6c-2.5,0.6-3-1.2-3-1.2c-0.2-0.6-0.5-1-1-1.4c-0.8-0.6,0.1-0.6,0.1-0.6c0.6,0.1,1.1,0.4,1.4,1
		c0.5,0.9,1.6,1.3,2.5,0.8c0,0,0,0,0.1,0c0-0.5,0.2-0.9,0.6-1.2c-2-0.2-4.1-1-4.1-4.6c0-0.9,0.3-1.8,0.9-2.5
		C3.9,4.5,3.9,3.6,4.3,2.8c0,0,0.8-0.2,2.5,0.9c1.5-0.4,3-0.4,4.5,0c1.7-1.2,2.5-0.9,2.5-0.9c0.3,0.8,0.4,1.6,0.1,2.4
		c0.6,0.7,0.9,1.6,0.9,2.5c0,3.5-2.1,4.3-4.1,4.6c0.4,0.5,0.7,1.1,0.6,1.7c0,1.2,0,2.2,0,2.5c0,0.2,0.2,0.5,0.6,0.4
		c3.7-1.3,6.2-4.8,6.2-8.8C18.1,3.2,14-0.9,9-1"/>
</g>
</svg>
