<?xml version="1.0" encoding="utf-8"?>
<!-- Generator: Adobe Illustrator 24.2.3, SVG Export Plug-In . SVG Version: 6.00 Build 0)  -->
<svg version="1.1" id="Layer_1" xmlns="http://www.w3.org/2000/svg" xmlns:xlink="http://www.w3.org/1999/xlink" x="0px" y="0px"
	 viewBox="0 0 18 18" style="enable-background:new 0 0 18 18;" xml:space="preserve">
<style type="text/css">
	.st0{fill-rule:evenodd;clip-rule:evenodd;fill:url(#prefix___-g-sns_facebook_1_);}
</style>
<g id="prefix__ic_sns_facebook" transform="translate(15)">
	<linearGradient id="prefix___-g-sns_facebook_1_" gradientUnits="userSpaceOnUse" x1="-6" y1="-1.7026" x2="-6" y2="20.7687">
		<stop  offset="0" style="stop-color:#2A79FF"/>
		<stop  offset="1" style="stop-color:#3A3DBB"/>
	</linearGradient>
	<path id="prefix___-g-sns_facebook" class="st0" d="M2,18h-4.6v-7h2.3l0.4-2.7h-2.7V6.6c0-0.8,0.2-1.3,1.3-1.3h1.4V2.8
		c-0.7-0.1-1.4-0.1-2.1-0.1c-1.8-0.1-3.4,1.2-3.5,3c0,0.2,0,0.4,0,0.6v2h-2.3V11h2.3v7H-14c-0.5,0-1-0.4-1-1V1c0-0.5,0.4-1,1-1
		c0,0,0,0,0,0H2c0.5,0,1,0.4,1,1c0,0,0,0,0,0v16C3,17.6,2.6,18,2,18z"/>
</g>
</svg>
