<?xml version="1.0" encoding="utf-8"?>
<!-- Generator: Adobe Illustrator 24.2.3, SVG Export Plug-In . SVG Version: 6.00 Build 0)  -->
<svg version="1.1" id="prefix__img_main_01" xmlns="http://www.w3.org/2000/svg" xmlns:xlink="http://www.w3.org/1999/xlink"
	 x="0px" y="0px" viewBox="0 0 363.1 97" style="enable-background:new 0 0 363.1 97;" xml:space="preserve">
<style type="text/css">
	.st0{fill:none;stroke:#1E1E1E;stroke-width:2;}
	.st1{fill:none;stroke:#1E1E1E;stroke-width:2;stroke-dasharray:2;}
	.st2{fill:#FFFFFF;stroke:#000000;stroke-width:2;}
	.st3{fill:#5A96FF;stroke:#1E1E1E;stroke-width:2;}
	.st4{fill:none;stroke:#000000;stroke-width:2;stroke-miterlimit:10;stroke-dasharray:2;}
	.st5{fill:none;stroke:#000000;stroke-width:2;stroke-miterlimit:10;}
</style>
<circle id="prefix__Oval" class="st0" cx="44" cy="48.9" r="39"/>
<path id="prefix__Path" class="st0" d="M72,76.9l12,12"/>
<path id="prefix__Path-2" class="st1" d="M44.5,49.4L72,76.9"/>
<path id="prefix__Rectangle-2" class="st2" d="M45,5.9L45,5.9c2.2,0,4,1.8,4,4l0,0c0,2.2-1.8,4-4,4l0,0c-2.2,0-4-1.8-4-4l0,0
	C41,7.7,42.8,5.9,45,5.9z"/>
<path id="prefix__Rectangle-3" class="st2" d="M5,45.9L5,45.9c2.2,0,4,1.8,4,4l0,0c0,2.2-1.8,4-4,4l0,0c-2.2,0-4-1.8-4-4l0,0
	C1,47.7,2.8,45.9,5,45.9z"/>
<path id="prefix__Rectangle-4" class="st2" d="M79,45.9h8v8h-8V45.9z"/>
<path id="prefix__Rectangle-5" class="st2" d="M83,83.9L83,83.9c2.2,0,4,1.8,4,4l0,0c0,2.2-1.8,4-4,4l0,0c-2.2,0-4-1.8-4-4l0,0
	C79,85.7,80.8,83.9,83,83.9z"/>
<path id="prefix__Rectangle-Copy-2" class="st3" d="M45,45.9L45,45.9c2.2,0,4,1.8,4,4l0,0c0,2.2-1.8,4-4,4l0,0c-2.2,0-4-1.8-4-4l0,0
	C41,47.7,42.8,45.9,45,45.9z"/>
<path id="prefix__Rectangle-Copy" class="st2" d="M46,83.9L46,83.9c2.2,0,4,1.8,4,4l0,0c0,2.2-1.8,4-4,4l0,0c-2.2,0-4-1.8-4-4l0,0
	C42,85.7,43.8,83.9,46,83.9z"/>
<path id="prefix__Path-2_1_" class="st0" d="M107,88.5l40-78l38,78"/>
<path id="prefix__Rectangle-Copy-4" class="st2" d="M143,6.5h8v8h-8V6.5z"/>
<path id="prefix__Rectangle-Copy-5" class="st2" d="M103,84.5h8v8h-8V84.5z"/>
<path id="prefix__Rectangle-Copy-7" class="st2" d="M185,84.5L185,84.5c2.2,0,4,1.8,4,4l0,0c0,2.2-1.8,4-4,4l0,0c-2.2,0-4-1.8-4-4
	l0,0C181,86.3,182.8,84.5,185,84.5z"/>
<path id="prefix__Line" class="st1" d="M130,44.5h33"/>
<path id="prefix__Rectangle-Copy-8" class="st2" d="M159,40.5h8v8h-8V40.5z"/>
<path id="prefix__Rectangle-Copy-8-2" class="st3" d="M126,40.5h8v8h-8V40.5z"/>
<path id="prefix__Path_1_" class="st4" d="M235.8,88.9c21.5,0,39-17.5,39-39"/>
<path id="prefix__Path-2_2_" class="st5" d="M274.8,49.9c0-22.5-19-40.5-41.8-38.9c-19.2,1.3-34.8,16.9-36.1,36.1
	c-1.6,22.8,16.5,41.8,38.9,41.8"/>
<path id="prefix__Path-3" class="st4" d="M313.8,10.9c-21.5,0-39,17.5-39,39"/>
<path id="prefix__Path-4" class="st5" d="M274.8,49.9c0,22.5,19,40.5,41.8,38.9c19.2-1.3,34.8-16.9,36.1-36.1
	c1.6-22.8-16.5-41.8-38.9-41.8"/>
<path id="prefix__Rectangle-3_1_" class="st2" d="M236.8,6.9L236.8,6.9c2.2,0,4,1.8,4,4l0,0c0,2.2-1.8,4-4,4l0,0c-2.2,0-4-1.8-4-4
	l0,0C232.8,8.7,234.6,6.9,236.8,6.9z"/>
<path id="prefix__Rectangle-4_1_" class="st2" d="M314.8,6.9L314.8,6.9c2.2,0,4,1.8,4,4l0,0c0,2.2-1.8,4-4,4l0,0c-2.2,0-4-1.8-4-4
	l0,0C310.8,8.7,312.6,6.9,314.8,6.9z"/>
<path id="prefix__Rectangle-5_1_" class="st2" d="M196.8,46.9L196.8,46.9c2.2,0,4,1.8,4,4l0,0c0,2.2-1.8,4-4,4l0,0c-2.2,0-4-1.8-4-4
	l0,0C192.8,48.7,194.6,46.9,196.8,46.9z"/>
<path id="prefix__Rectangle-6" class="st3" d="M270.8,46.9h8v8h-8V46.9z"/>
<path id="prefix__Rectangle-7" class="st2" d="M352.8,46.9L352.8,46.9c2.2,0,4,1.8,4,4l0,0c0,2.2-1.8,4-4,4l0,0c-2.2,0-4-1.8-4-4
	l0,0C348.8,48.7,350.6,46.9,352.8,46.9z"/>
<path id="prefix__Rectangle-Copy_1_" class="st3" d="M237.8,84.9L237.8,84.9c2.2,0,4,1.8,4,4l0,0c0,2.2-1.8,4-4,4l0,0
	c-2.2,0-4-1.8-4-4l0,0C233.8,86.7,235.6,84.9,237.8,84.9z"/>
<path id="prefix__Rectangle-Copy-2_1_" class="st2" d="M315.8,84.9L315.8,84.9c2.2,0,4,1.8,4,4l0,0c0,2.2-1.8,4-4,4l0,0
	c-2.2,0-4-1.8-4-4l0,0C311.8,86.7,313.6,84.9,315.8,84.9z"/>
</svg>
