<?xml version="1.0" encoding="utf-8"?>
<!-- Generator: Adobe Illustrator 24.2.3, SVG Export Plug-In . SVG Version: 6.00 Build 0)  -->
<svg version="1.1" id="Layer_1" xmlns="http://www.w3.org/2000/svg" xmlns:xlink="http://www.w3.org/1999/xlink" x="0px" y="0px"
	 viewBox="0 0 117 45" style="enable-background:new 0 0 117 45;" xml:space="preserve">
<style type="text/css">
	.st0{fill:#1BABE9;}
</style>
<g id="prefix__boostcamp_bi_blue" transform="translate(-813.289 -648.34)">
	<path id="prefix__패스_53" class="st0" d="M870.5,686.1c-0.3,0.1-0.7,0.2-1.1,0.2c-0.4,0-0.8-0.2-1.1-0.5c-0.2-0.5-0.4-1-0.3-1.5
		v-5h3.1v-2.4H868v-3.2l-2.9,0.8v2.4h-2v2.4h2v5.2c0,0.6,0.1,1.2,0.2,1.8c0.1,0.5,0.3,1,0.7,1.4c0.3,0.4,0.7,0.7,1.2,0.9
		c0.6,0.2,1.2,0.3,1.8,0.3c0.6,0,1.3-0.1,1.9-0.3c0.6-0.2,1.2-0.6,1.7-1l-1.2-1.8C871,685.9,870.7,686,870.5,686.1"/>
	<path id="prefix__패스_54" class="st0" d="M816.2,686.1c0.2,0.1,0.5,0.1,0.7,0.2c0.4,0,0.8,0.1,1.2,0.1c0.5,0,1.1-0.1,1.5-0.3
		c0.4-0.2,0.8-0.5,1.1-0.8c0.3-0.3,0.6-0.8,0.7-1.2c0.2-0.4,0.2-0.9,0.2-1.4c0-0.4-0.1-0.9-0.2-1.3c-0.1-0.4-0.3-0.8-0.5-1.1
		c-0.2-0.3-0.5-0.6-0.9-0.8c-0.4-0.2-0.8-0.3-1.3-0.3c-0.7-0.1-1.5,0.2-2,0.7c-0.5,0.5-0.7,1.2-0.7,1.9L816.2,686.1z M813.3,672.8
		l2.9-0.8v5.7c0.3-0.3,0.7-0.5,1.1-0.7c0.6-0.3,1.3-0.4,2-0.4c0.8,0,1.5,0.1,2.2,0.5c0.6,0.3,1.2,0.7,1.7,1.3c0.5,0.5,0.8,1.2,1,1.9
		c0.2,0.7,0.4,1.5,0.4,2.3c0,0.8-0.1,1.7-0.5,2.4c-0.3,0.7-0.7,1.4-1.3,2c-0.6,0.6-1.3,1-2.1,1.4c-0.9,0.3-1.8,0.5-2.7,0.5
		c-0.9,0-1.9-0.1-2.8-0.2c-0.7-0.1-1.4-0.3-2.1-0.5L813.3,672.8z"/>
	<path id="prefix__패스_55" class="st0" d="M831.9,686.3c0.5,0,1-0.1,1.5-0.3c0.4-0.2,0.7-0.5,1-0.9c0.3-0.4,0.5-0.8,0.6-1.2
		c0.1-0.4,0.2-0.8,0.2-1.3c0-0.4-0.1-0.9-0.2-1.3c-0.1-0.4-0.3-0.8-0.6-1.2c-0.3-0.4-0.6-0.7-1-0.9c-0.9-0.4-2-0.4-2.9,0
		c-0.4,0.2-0.7,0.5-1,0.9c-0.3,0.4-0.5,0.8-0.6,1.2c-0.1,0.4-0.2,0.8-0.2,1.3c0,0.4,0.1,0.9,0.2,1.3c0.1,0.4,0.3,0.8,0.6,1.2
		c0.3,0.4,0.6,0.7,1,0.9C830.9,686.2,831.4,686.3,831.9,686.3 M825.7,682.6c0-0.8,0.2-1.6,0.5-2.4c0.3-0.7,0.7-1.4,1.3-2
		c0.6-0.6,1.2-1,2-1.3c1.6-0.7,3.4-0.7,5,0c0.7,0.3,1.4,0.8,2,1.3c0.5,0.6,1,1.2,1.3,2c0.9,2.3,0.4,4.9-1.3,6.7
		c-0.6,0.6-1.2,1-2,1.3c-1.6,0.7-3.4,0.7-5,0c-0.7-0.3-1.4-0.8-2-1.3C826.3,685.8,825.6,684.3,825.7,682.6"/>
	<path id="prefix__패스_56" class="st0" d="M845.3,686.3c0.5,0,1-0.1,1.5-0.3c0.4-0.2,0.7-0.5,1-0.9c0.3-0.4,0.5-0.8,0.6-1.2
		c0.1-0.4,0.2-0.8,0.2-1.3c0-0.4-0.1-0.9-0.2-1.3c-0.1-0.4-0.3-0.8-0.6-1.2c-0.3-0.4-0.6-0.6-1-0.9c-0.9-0.4-2-0.4-2.9,0
		c-0.4,0.2-0.7,0.5-1,0.9c-0.3,0.4-0.5,0.8-0.6,1.2c-0.1,0.4-0.2,0.8-0.2,1.3c0,0.4,0.1,0.9,0.2,1.3c0.1,0.4,0.3,0.8,0.6,1.2
		c0.3,0.4,0.6,0.7,1,0.9C844.3,686.2,844.8,686.3,845.3,686.3 M839.1,682.6c0-0.8,0.2-1.6,0.5-2.4c0.3-0.7,0.7-1.4,1.3-2
		c0.6-0.6,1.2-1,2-1.3c1.6-0.7,3.4-0.7,5,0c0.7,0.3,1.4,0.8,2,1.3c0.5,0.6,1,1.2,1.3,2c0.9,2.3,0.4,4.9-1.3,6.7
		c-0.6,0.6-1.2,1-2,1.3c-1.6,0.7-3.4,0.7-5,0c-0.7-0.3-1.4-0.8-2-1.3C839.7,685.8,839.1,684.3,839.1,682.6"/>
	<path id="prefix__패스_57" class="st0" d="M853.7,685.1c0.4,0.4,0.9,0.7,1.4,0.9c0.6,0.2,1.2,0.4,1.9,0.4c0.5,0,1-0.1,1.5-0.2
		c0.3-0.1,0.6-0.4,0.6-0.8c0-0.4-0.2-0.7-0.5-0.9c-0.3-0.2-0.6-0.3-0.9-0.4c-0.5-0.2-1-0.3-1.5-0.4c-0.4-0.1-0.8-0.2-1.2-0.4
		c-0.4-0.2-0.8-0.4-1.2-0.7c-0.4-0.3-0.7-0.6-0.9-1c-0.2-0.4-0.4-0.9-0.4-1.4c0-0.5,0.1-1.1,0.4-1.5c0.3-0.5,0.7-0.8,1.1-1.1
		c0.5-0.3,1-0.5,1.5-0.7c0.6-0.2,1.1-0.2,1.7-0.2c0.9,0,1.7,0.1,2.6,0.3c0.7,0.2,1.3,0.5,1.9,1l-1.5,2c-0.4-0.3-0.8-0.5-1.2-0.6
		c-0.6-0.2-1.2-0.3-1.8-0.3c-0.5,0-1,0.1-1.4,0.3c-0.3,0.2-0.4,0.4-0.4,0.8c0,0.4,0.2,0.6,0.7,0.8c0.7,0.3,1.4,0.5,2.1,0.7
		c0.5,0.1,1.1,0.3,1.6,0.5c0.4,0.2,0.8,0.4,1.2,0.7c0.3,0.3,0.6,0.6,0.8,1c0.2,0.5,0.3,0.9,0.3,1.4c0,0.5-0.1,1.1-0.4,1.5
		c-0.3,0.5-0.6,0.8-1.1,1.1c-0.5,0.3-1,0.6-1.6,0.7c-0.6,0.2-1.3,0.3-1.9,0.3c-1,0-2-0.1-2.9-0.5c-0.8-0.3-1.5-0.7-2.1-1.3
		L853.7,685.1z"/>
	<path id="prefix__패스_58" class="st0" d="M884.2,686.9c-0.5,0.6-1.2,1-1.9,1.4c-0.8,0.4-1.7,0.5-2.6,0.5c-0.9,0-1.8-0.1-2.6-0.4
		c-0.7-0.3-1.4-0.7-1.9-1.3c-0.5-0.6-0.9-1.2-1.2-1.9c-0.3-0.8-0.4-1.7-0.4-2.5c0-0.8,0.2-1.6,0.5-2.4c0.6-1.5,1.7-2.7,3.2-3.3
		c1.6-0.7,3.5-0.7,5.1,0c0.7,0.3,1.4,0.8,2,1.4l-1.8,1.9c-0.3-0.4-0.7-0.7-1.2-0.9c-0.5-0.2-1-0.3-1.5-0.3c-0.5,0-1,0.1-1.5,0.3
		c-0.4,0.2-0.7,0.5-1,0.8c-0.3,0.3-0.5,0.7-0.6,1.2c-0.1,0.4-0.2,0.9-0.2,1.4c0,0.4,0.1,0.9,0.2,1.3c0.1,0.4,0.3,0.8,0.6,1.2
		c0.6,0.8,1.5,1.2,2.5,1.2c0.5,0,1.1-0.1,1.6-0.3c0.5-0.2,0.9-0.5,1.2-0.9L884.2,686.9z"/>
	<path id="prefix__패스_59" class="st0" d="M893,683.2l-0.9,0c-0.2,0-0.5,0-0.7,0s-0.5,0-0.7,0c-0.7-0.1-1.4,0.1-2,0.6
		c-0.4,0.3-0.6,0.8-0.6,1.3c0,0.4,0.2,0.9,0.5,1.2c0.5,0.3,1,0.5,1.6,0.4c0.7,0,1.3-0.2,1.8-0.6c0.2-0.2,0.4-0.4,0.6-0.7
		c0.2-0.3,0.2-0.5,0.2-0.8L893,683.2z M893,687.3c-0.4,0.4-0.9,0.8-1.4,1c-0.7,0.3-1.4,0.5-2.1,0.4c-0.5,0-1-0.1-1.4-0.2
		c-0.5-0.1-0.9-0.4-1.3-0.7c-0.4-0.3-0.7-0.7-0.9-1.2c-0.2-0.5-0.4-1.1-0.4-1.7c0-0.6,0.1-1.2,0.4-1.8c0.2-0.5,0.6-1,1-1.3
		c0.5-0.4,1-0.6,1.6-0.8c0.7-0.2,1.4-0.3,2.1-0.3c0.2,0,0.5,0,0.8,0c0.3,0,0.5,0,0.8,0l0.9,0v-0.3c0-0.5-0.2-1-0.7-1.4
		c-0.5-0.3-1.2-0.5-1.8-0.5c-0.7,0-1.3,0.1-2,0.3c-0.5,0.2-0.9,0.4-1.3,0.7l-1.3-2c0.2-0.2,0.5-0.3,0.8-0.5c0.3-0.2,0.7-0.3,1-0.5
		c0.4-0.2,0.9-0.3,1.4-0.3c0.6-0.1,1.2-0.1,1.8-0.1c0.7,0,1.4,0.1,2,0.3c0.6,0.2,1.1,0.5,1.5,0.9c0.4,0.4,0.8,0.8,1,1.3
		c0.2,0.5,0.3,1.1,0.3,1.7v7.7H893L893,687.3z"/>
	<path id="prefix__패스_60" class="st0" d="M898.1,676.9h2.8l0.1,1.3c0.1-0.2,0.3-0.3,0.5-0.5c0.2-0.2,0.4-0.4,0.7-0.5
		c0.3-0.2,0.6-0.3,0.9-0.4c0.4-0.1,0.8-0.2,1.2-0.1c1.4-0.1,2.7,0.6,3.5,1.7c0.5-0.5,1.1-1,1.8-1.3c0.7-0.3,1.4-0.4,2.2-0.4
		c1.3-0.1,2.5,0.4,3.4,1.3c0.8,1,1.2,2.2,1.2,3.5v7h-2.9v-7c0-0.6-0.2-1.2-0.6-1.7c-0.4-0.4-0.9-0.6-1.5-0.6c-0.4,0-0.7,0.1-1.1,0.2
		c-0.3,0.2-0.6,0.4-0.8,0.7c-0.2,0.3-0.4,0.6-0.5,1c-0.1,0.4-0.2,0.8-0.2,1.2v6.2h-2.9v-7c0-0.6-0.2-1.2-0.6-1.7
		c-0.4-0.4-0.9-0.6-1.5-0.6c-0.4,0-0.7,0.1-1.1,0.2c-0.3,0.2-0.6,0.4-0.8,0.7c-0.2,0.3-0.4,0.6-0.5,1c-0.1,0.4-0.2,0.8-0.2,1.2v6.2
		h-2.9L898.1,676.9z"/>
	<path id="prefix__패스_61" class="st0" d="M921.4,685.6c0.8,0.5,1.7,0.8,2.6,0.7c0.5,0,1-0.1,1.4-0.3c0.4-0.2,0.8-0.5,1-0.8
		c0.3-0.3,0.5-0.7,0.7-1.1c0.1-0.4,0.2-0.9,0.2-1.3c0-0.5-0.1-0.9-0.2-1.4c-0.1-0.4-0.3-0.8-0.5-1.1c-0.2-0.3-0.6-0.6-0.9-0.8
		c-0.4-0.2-0.9-0.3-1.4-0.3c-0.4,0-0.8,0.1-1.2,0.3c-0.4,0.2-0.7,0.4-0.9,0.7c-0.3,0.3-0.4,0.6-0.6,1c-0.1,0.3-0.2,0.7-0.2,1
		L921.4,685.6z M918.6,676.9h2.8l0.1,1.3c0.2-0.2,0.4-0.4,0.6-0.5c0.2-0.2,0.5-0.4,0.8-0.5c0.3-0.2,0.7-0.3,1-0.4
		c0.4-0.1,0.9-0.2,1.3-0.1c1.5-0.1,3,0.7,3.9,1.9c0.4,0.6,0.8,1.2,1,1.9c0.2,0.7,0.3,1.5,0.3,2.2c0,0.8-0.1,1.6-0.4,2.3
		c-0.2,0.6-0.6,1.2-1,1.7c-0.6,0.7-1.3,1.3-2.2,1.6c-0.8,0.3-1.6,0.5-2.4,0.5c-0.3,0-0.6,0-1,0c-0.2,0-0.5-0.1-0.7-0.1
		c-0.2-0.1-0.4-0.1-0.6-0.2l-0.6-0.2v5.1h-2.9L918.6,676.9z"/>
	<path id="prefix__패스_62" class="st0" d="M923.7,658.4c-0.3-1,0-2.1,0.7-2.8l5.8-5.8l-1.4-1.4l-5.8,5.8c-1.1,1.1-3,1.1-4.1,0
		c0,0,0,0,0,0l-5.8-5.8l-1.4,1.4l5.8,5.8c1.1,1.1,1.1,3,0,4.1c0,0,0,0,0,0l-5.8,5.8l1.4,1.4l5.8-5.8c1.1-1.1,3-1.1,4.1,0l5.8,5.8
		l1.4-1.4l-5.8-5.8C924.1,659.3,923.8,658.9,923.7,658.4"/>
</g>
</svg>
