<?xml version="1.0" encoding="utf-8"?>
<!-- Generator: Adobe Illustrator 24.2.3, SVG Export Plug-In . SVG Version: 6.00 Build 0)  -->
<svg version="1.1" id="Layer_1" xmlns="http://www.w3.org/2000/svg" xmlns:xlink="http://www.w3.org/1999/xlink" x="0px" y="0px"
	 viewBox="0 0 29 29" style="enable-background:new 0 0 29 29;" xml:space="preserve">
<style type="text/css">
	.st0{fill:#FFFFFF;}
</style>
<g id="Shape_1_10_">
	<g>
		<path d="M27.2,26.2l-6.3-6.3c1.7-1.9,2.7-4.5,2.7-7.3c0-6.1-5-11.1-11.1-11.1c-6.1,0-11.1,5-11.1,11.1c0,6.1,5,11.1,11.1,11.1
			c2.8,0,5.3-1,7.3-2.7l6.3,6.3c0.1,0.1,0.4,0.2,0.5,0.2s0.4-0.1,0.5-0.2C27.5,26.9,27.5,26.5,27.2,26.2z M12.6,22.1
			c-5.2,0-9.5-4.3-9.5-9.5c0-5.2,4.3-9.5,9.5-9.5c5.2,0,9.5,4.3,9.5,9.5C22.1,17.8,17.8,22.1,12.6,22.1z"/>
	</g>
</g>
</svg>
