<?xml version="1.0" encoding="utf-8"?>
<!-- Generator: Adobe Illustrator 24.2.3, SVG Export Plug-In . SVG Version: 6.00 Build 0)  -->
<svg version="1.1" id="Layer_1" xmlns="http://www.w3.org/2000/svg" xmlns:xlink="http://www.w3.org/1999/xlink" x="0px" y="0px"
	 viewBox="0 0 29 29" style="enable-background:new 0 0 29 29;" xml:space="preserve">
<style type="text/css">
	.st0{fill:#FFFFFF;}
</style>
<g id="Shape_1_2_">
	<g>
		<path d="M14.4,15.5h0.2c1.6,0,2.9-0.6,3.8-1.6c2.1-2.3,1.7-6.4,1.7-6.7c-0.1-2.9-1.5-4.3-2.6-4.9c-0.8-0.5-1.8-0.7-2.9-0.8h-0.1
			c-0.6,0-1.8,0.1-2.9,0.7c-1.1,0.6-2.5,2-2.6,4.9c0,0.4-0.4,4.4,1.7,6.7C11.5,14.9,12.8,15.5,14.4,15.5z M10.3,7.3
			C10.3,7.2,10.4,7.2,10.3,7.3c0.2-3.9,2.9-4.3,4.1-4.3h0.1c1.5,0,3.9,0.6,4.1,4.3c0,0,0,0,0,0c0,0,0.4,3.7-1.3,5.6
			c-0.7,0.8-1.6,1.1-2.8,1.2h-0.1c-1.2,0-2.1-0.4-2.8-1.2C10,11,10.3,7.3,10.3,7.3z M25.6,22.2L25.6,22.2c0-0.1,0-0.1,0-0.2
			c0-1.1-0.1-3.6-2.4-4.4c0,0,0,0-0.1,0c-2.4-0.6-4.5-2-4.5-2c-0.3-0.2-0.8-0.2-1,0.2c-0.2,0.3-0.2,0.8,0.2,1
			c0.1,0.1,2.2,1.6,4.9,2.3c1.3,0.4,1.4,1.8,1.4,3c0,0,0,0.1,0,0.1c0,0.5,0,1.2-0.1,1.7c-0.9,0.5-4.3,2.2-9.5,2.2
			c-5.2,0-8.6-1.7-9.5-2.2c-0.1-0.4-0.1-1.2-0.1-1.7c0,0,0-0.1,0-0.1c0-1.2,0.2-2.6,1.4-3c2.7-0.7,4.8-2.2,4.9-2.3
			c0.3-0.2,0.4-0.7,0.2-1c-0.2-0.3-0.7-0.4-1-0.2c0,0-2,1.4-4.5,2c0,0,0,0-0.1,0c-2.3,0.8-2.4,3.3-2.4,4.4c0,0,0,0.1,0,0.1v0
			c0,0.3,0,1.7,0.3,2.4c0.1,0.1,0.2,0.3,0.3,0.3c0.2,0.1,4,2.6,10.5,2.6s10.4-2.5,10.5-2.6c0.1-0.1,0.2-0.2,0.3-0.3
			C25.6,23.9,25.6,22.4,25.6,22.2z"/>
	</g>
</g>
</svg>
