<?xml version="1.0" encoding="utf-8"?>
<!-- Generator: Adobe Illustrator 24.2.3, SVG Export Plug-In . SVG Version: 6.00 Build 0)  -->
<svg version="1.1" id="Layer_1" xmlns="http://www.w3.org/2000/svg" xmlns:xlink="http://www.w3.org/1999/xlink" x="0px" y="0px"
	 viewBox="0 0 50 50" style="enable-background:new 0 0 50 50;" xml:space="preserve">
<style type="text/css">
	.st0{fill:#FFFFFF;}
</style>
<path class="st0" d="M32,14H18c-2.3,0-4.1,1.8-4.1,4.1v14c0,2.3,1.8,4.1,4.1,4.1h14c2.3,0,4.1-1.8,4.1-4.1V18C36,15.8,34.2,14,32,14
	z M25,32.3c-4,0-7.3-3.2-7.3-7.3c0-4,3.2-7.3,7.3-7.3c4,0,7.3,3.2,7.3,7.3S29,32.3,25,32.3z M32.5,19.2c-0.9,0-1.7-0.8-1.7-1.7
	s0.8-1.7,1.7-1.7s1.7,0.8,1.7,1.7S33.4,19.2,32.5,19.2z"/>
<path class="st0" d="M25,20.8c-2.3,0-4.2,1.9-4.2,4.2s1.9,4.2,4.2,4.2s4.2-1.9,4.2-4.2S27.3,20.8,25,20.8z"/>
<path class="st0" d="M25,1.6C12.1,1.6,1.6,12.1,1.6,25S12.1,48.4,25,48.4S48.4,37.9,48.4,25S37.9,1.6,25,1.6z M39.1,32
	c0,3.9-3.2,7.1-7.1,7.1H18c-3.9,0-7.1-3.2-7.1-7.1V18c0-3.9,3.2-7.1,7.1-7.1h14c3.9,0,7.1,3.2,7.1,7.1V32z"/>
</svg>
