<?xml version="1.0" encoding="utf-8"?>
<!-- Generator: Adobe Illustrator 24.2.3, SVG Export Plug-In . SVG Version: 6.00 Build 0)  -->
<svg version="1.1" id="Layer_1" xmlns="http://www.w3.org/2000/svg" xmlns:xlink="http://www.w3.org/1999/xlink" x="0px" y="0px"
	 viewBox="0 0 50 50" style="enable-background:new 0 0 50 50;" xml:space="preserve">
<style type="text/css">
	.st0{fill:#FFFFFF;}
	.st1{fill:#F4D037;}
	.st2{fill:#3B5998;}
	.st3{fill:#A53A3A;}
	.st4{fill:#FF0000;}
	.st5{fill:#935300;}
	.st6{fill:#939597;}
	.st7{fill:#EA872D;}
</style>
<g>
	<circle class="st3" cx="25" cy="25" r="23.4"/>
	<path class="st4" d="M24.3,24.9c0.4,0,0.8,0,1.2,0c-0.3,0-0.7,0-0.9,0C24.5,25,24.4,25,24.3,24.9z"/>
	<path class="st4" d="M24.3,25c0.4,0,0.8-0.1,1.2,0c-0.1,0.1-0.2,0-0.3,0C25,25,24.6,25,24.3,25z"/>
	<path class="st4" d="M25.5,24.9c-0.3,0-0.7,0.1-0.9,0c0.2-0.1,0.4,0,0.6,0C25.2,24.9,25.3,24.9,25.5,24.9z"/>
	<path class="st4" d="M24.6,25c0.3,0,0.5-0.1,0.8,0C25.1,25,24.8,25,24.6,25z"/>
	<path class="st4" d="M25,24.6c0,0.2,0,0.5,0,0.7C25,25.1,24.9,24.8,25,24.6z"/>
	<path class="st4" d="M24.6,24.9c0.2,0,0.5,0,0.7,0C25.1,25,24.8,25,24.6,24.9z"/>
	<path class="st0" d="M7.5,23.3c0-0.1,0-0.1,0-0.2c0-0.2,0.1-0.5,0-0.7c0-0.8,0.1-1.5,0.1-2.3c0.1-1.2,0.2-2.4,0.5-3.6
		c0.5-1.9,1.7-3,3.6-3.4c1.1-0.2,2.2-0.3,3.3-0.4c1.4-0.1,2.8-0.2,4.2-0.2c0.3,0,0.7,0,0.9,0c0.1,0,0.1,0,0.2,0c0.2,0,0.4,0,0.6,0
		c1,0,2.1,0,3.2,0c2.5,0,5.1,0,7.6,0.1c1.3,0,2.6,0.1,4,0.2c0.8,0.1,1.7,0.1,2.5,0.3c1.8,0.4,2.9,1.5,3.4,3.3
		c0.2,0.8,0.3,1.6,0.4,2.5c0.3,2.4,0.4,4.7,0.3,7.2c0,1.6-0.1,3.2-0.3,4.7c-0.1,0.8-0.2,1.7-0.5,2.5c-0.5,1.7-1.7,2.8-3.5,3.2
		c-0.9,0.2-2,0.3-3,0.4c-1.2,0.1-2.5,0.2-3.8,0.2c-0.3,0-0.5,0-0.8,0c-0.1,0-0.1,0-0.2,0c-0.1,0-0.2,0-0.3,0c-0.3,0-0.6,0-0.8,0
		c-0.4,0-0.8,0-1.2,0c-0.1,0-0.2,0-0.2,0c-0.2,0-0.4,0-0.6,0c-1.2,0-2.5,0-3.7,0c-0.4,0-0.8,0-1.1,0c-0.2,0-0.4,0-0.7,0
		c-0.1,0-0.1,0-0.2,0c-0.4,0-0.8-0.1-1.2,0c-0.3,0-0.6,0-0.8,0c-0.1,0-0.2,0-0.4,0c-0.1,0-0.1,0-0.2,0c-0.2,0-0.5-0.1-0.7,0
		c-0.6,0-1-0.1-1.6-0.1c-1.4-0.1-2.7-0.2-4.2-0.3c-0.6-0.1-1-0.1-1.6-0.3c-1.6-0.6-2.6-1.7-3-3.4c-0.2-0.9-0.3-1.8-0.4-2.7
		c-0.2-2.2-0.3-4.3-0.2-6.5v-0.1C7.5,23.6,7.5,23.5,7.5,23.3z M21.5,30.2c3-1.8,6-3.5,9.1-5.3c-3-1.8-6-3.5-9.1-5.3
		C21.5,23.2,21.5,26.7,21.5,30.2z"/>
	<path class="st3" d="M21.5,30.2c0-3.5,0-7,0-10.5c3,1.8,6,3.5,9.1,5.3C27.5,26.7,24.5,28.5,21.5,30.2z"/>
</g>
</svg>
