<?xml version="1.0" encoding="utf-8"?>
<!-- Generator: Adobe Illustrator 24.2.3, SVG Export Plug-In . SVG Version: 6.00 Build 0)  -->
<svg version="1.1" id="Layer_1" xmlns="http://www.w3.org/2000/svg" xmlns:xlink="http://www.w3.org/1999/xlink" x="0px" y="0px"
	 viewBox="0 0 50 50" style="enable-background:new 0 0 50 50;" xml:space="preserve">
<style type="text/css">
	.st0{fill:#FFFFFF;}
	.st1{fill:#F4D037;}
	.st2{fill:#3B5998;}
	.st3{fill:#A53A3A;}
	.st4{fill:#FF0000;}
	.st5{fill:#935300;}
	.st6{fill:#939597;}
	.st7{fill:#EA872D;}
</style>
<circle class="st6" cx="25" cy="25" r="23.4"/>
<path class="st0" d="M28.7,14.9c1,0,2.1,0,3.1,0c0.2,0,0.2-0.1,0.2-0.2c0-1.6,0-3.2,0-4.8c0-0.1,0-0.1,0-0.2c-0.3,0-0.7,0-0.9,0
	c-1.2,0-2.5,0-3.7,0c-0.7,0-1.2,0.1-1.9,0.2c-1.7,0.4-3,1.3-3.9,2.9c-0.5,0.9-0.8,2-0.8,3c0,1.1,0,2.3,0,3.4c0,0.5,0.1,0.4-0.4,0.4
	c-0.8,0-1.6,0-2.4,0c-0.2,0-0.2,0-0.2,0.2c0,1.7,0,3.3,0,5c0,0.2,0.1,0.2,0.2,0.2c0.8,0,1.7,0,2.5,0c0.1,0,0.2,0,0.2,0
	c0,0.1,0,0.2,0,0.3c0,4.9,0,9.8,0,14.7c0,0.3,0,0.3,0.3,0.3c2,0,4,0,5.9,0h0.1c0.1,0,0.1-0.1,0.1-0.1c0-0.1,0-0.1,0-0.2
	c0-4.9,0-9.8,0-14.7c0-0.1,0-0.2,0-0.3c0.1,0,0.2,0,0.3,0c1.2,0,2.5,0,3.7,0c0.1,0,0.2,0,0.2-0.2c0.1-0.8,0.2-1.5,0.2-2.3
	c0.1-0.7,0.2-1.4,0.2-2.1c0-0.3,0.1-0.6,0.1-0.9c-1.6,0-3.1,0-4.7,0c0-0.1,0-0.1,0-0.2c0-1,0-2.1,0-3.1
	C27.4,15.4,27.9,14.9,28.7,14.9z"/>
</svg>
