<?xml version="1.0" encoding="utf-8"?>
<!-- Generator: Adobe Illustrator 24.2.3, SVG Export Plug-In . SVG Version: 6.00 Build 0)  -->
<svg version="1.1" id="Layer_1" xmlns="http://www.w3.org/2000/svg" xmlns:xlink="http://www.w3.org/1999/xlink" x="0px" y="0px"
	 viewBox="0 0 47.4 48.3" style="enable-background:new 0 0 47.4 48.3;" xml:space="preserve">
<style type="text/css">
	.st0{fill:#FFFFFF;}
	.st1{fill:#F4D037;}
	.st2{fill:#3B5998;}
	.st3{fill:#A53A3A;}
	.st4{fill:#FF0000;}
	.st5{fill:#935300;}
	.st6{fill:#939597;}
	.st7{fill:#EA872D;}
</style>
<path class="st0" d="M45.9,42.8L32.8,29.7c2.2-2.9,3.5-6.5,3.5-10.4C36.2,9.8,28.4,2,18.9,2S1.5,9.8,1.5,19.3s7.8,17.4,17.4,17.4
	c3.9,0,7.5-1.3,10.4-3.5l13.1,13.1L45.9,42.8z M3.2,19.3c0-8.6,7.1-15.7,15.7-15.7s15.7,7.1,15.7,15.7s-7.1,15.7-15.7,15.7
	S3.2,28,3.2,19.3z M31,31.8c0.2-0.2,0.3-0.3,0.5-0.5c0.1-0.1,0.3-0.3,0.4-0.4l11.8,11.8L42.4,44L30.6,32.1
	C30.7,32.1,30.8,31.9,31,31.8z"/>
</svg>
