<?xml version="1.0" encoding="utf-8"?>
<!-- Generator: Adobe Illustrator 24.2.3, SVG Export Plug-In . SVG Version: 6.00 Build 0)  -->
<svg version="1.1" id="Layer_1" xmlns="http://www.w3.org/2000/svg" xmlns:xlink="http://www.w3.org/1999/xlink" x="0px" y="0px"
	 viewBox="0 0 50 50" style="enable-background:new 0 0 50 50;" xml:space="preserve">
<style type="text/css">
	.st0{fill:#FFFFFF;}
	.st1{fill:#F4D037;}
	.st2{fill:#3B5998;}
	.st3{fill:#A53A3A;}
	.st4{fill:#FF0000;}
	.st5{fill:#935300;}
	.st6{fill:#939597;}
	.st7{fill:#EA872D;}
</style>
<g>
	<circle class="st1" cx="25" cy="25" r="23.4"/>
	<g>
		<path class="st0" d="M25,10.9c-8.9,0-16.1,5.7-16.1,12.7c0,4.5,3,8.5,7.6,10.8c-0.3,0.8-1.6,5.5-1.6,5.9c0,0,0,0.3,0.2,0.4
			c0.2,0.1,0.4,0,0.4,0c0.5-0.1,5.9-3.9,6.8-4.4c0.9,0.1,1.9,0.2,2.8,0.2c8.9,0,16.1-5.7,16.1-12.7C41.1,16.6,33.9,10.9,25,10.9
			L25,10.9z"/>
		<path class="st1" d="M16.1,28c-0.5,0-0.9-0.4-0.9-0.8v-5.5h-1.4c-0.5,0-0.9-0.4-0.9-0.9s0.4-0.9,0.9-0.9h4.7
			c0.5,0,0.9,0.4,0.9,0.9s-0.4,0.9-0.9,0.9h-1.4v5.5C17.1,27.6,16.6,28,16.1,28z M24.2,28c-0.4,0-0.7-0.2-0.8-0.4L23,26.4h-2.8
			l-0.5,1.2C19.6,27.9,19.3,28,19,28c-0.2,0-0.4,0-0.6-0.1c-0.3-0.1-0.5-0.5-0.2-1.3l2.2-5.9c0.2-0.5,0.7-0.9,1.2-0.9
			c0.6,0,1,0.5,1.2,0.9l2.2,5.9c0.3,0.8,0,1.2-0.2,1.3C24.6,27.9,24.4,28,24.2,28L24.2,28L24.2,28z M22.5,24.7l-0.9-2.6l-0.9,2.6
			H22.5L22.5,24.7z M26.5,27.8c-0.5,0-0.8-0.4-0.8-0.8v-6.3c0-0.5,0.4-0.9,0.9-0.9s0.9,0.4,0.9,0.9v5.5h2c0.5,0,0.8,0.4,0.8,0.8
			c0,0.5-0.4,0.8-0.8,0.8C29.5,27.8,26.5,27.8,26.5,27.8z M31.7,28c-0.5,0-0.9-0.4-0.9-0.9v-6.3c0-0.5,0.4-0.9,0.9-0.9
			s0.9,0.4,0.9,0.9v2l2.5-2.5c0.1-0.1,0.3-0.2,0.5-0.2c0.2,0,0.5,0.1,0.7,0.3c0.2,0.2,0.3,0.4,0.3,0.6c0,0.2-0.1,0.4-0.2,0.6
			l-2.1,2.1l2.3,3c0.2,0.2,0.2,0.5,0.2,0.7c0,0.3-0.2,0.5-0.4,0.6s-0.4,0.2-0.6,0.2c-0.3,0-0.6-0.1-0.8-0.4l-2.2-2.8L32.6,25v2
			C32.6,27.5,32.2,28,31.7,28L31.7,28z"/>
	</g>
</g>
</svg>
