<?xml version="1.0" encoding="utf-8"?>
<!-- Generator: Adobe Illustrator 24.2.3, SVG Export Plug-In . SVG Version: 6.00 Build 0)  -->
<svg version="1.1" id="Layer_1" xmlns="http://www.w3.org/2000/svg" xmlns:xlink="http://www.w3.org/1999/xlink" x="0px" y="0px"
	 viewBox="0 0 47.4 48.3" style="enable-background:new 0 0 47.4 48.3;" xml:space="preserve">
<style type="text/css">
	.st0{fill:#FFFFFF;}
	.st1{fill:#F4D037;}
	.st2{fill:#3B5998;}
	.st3{fill:#A53A3A;}
	.st4{fill:#FF0000;}
	.st5{fill:#935300;}
	.st6{fill:#939597;}
	.st7{fill:#EA872D;}
</style>
<g>
	<path class="st0" d="M43.6,4.8h-5.2V2.5c0-0.4-0.4-0.7-0.7-0.7h-5.2c-0.4,0-0.7,0.4-0.7,0.7v2.2H15.4V2.5c0-0.4-0.4-0.7-0.7-0.7
		H9.5C9,1.8,8.8,2.2,8.8,2.5v2.2H3.6c-0.4,0-0.7,0.4-0.7,0.7v8.2v32.1c0,0.4,0.4,0.7,0.7,0.7h40.2c0.4,0,0.7-0.4,0.7-0.7V13.7V5.5
		C44.4,5.1,44.1,4.8,43.6,4.8z M33.2,3.2H37v2.2v2.2h-3.8V5.5V3.2z M10.1,3.2h3.8v2.2v2.2h-3.8V5.5V3.2z M4.1,6.3h4.5v2.2
		C8.6,9,9,9.2,9.3,9.2h5.2c0.4,0,0.7-0.4,0.7-0.7V6.3h16.4v2.2c0,0.4,0.4,0.7,0.7,0.7h5.2c0.4,0,0.7-0.4,0.7-0.7V6.3h4.5V13H3.9V6.3
		H4.1z M4.1,45V14.4h38.8V45C42.9,45,4.1,45,4.1,45z"/>
	<path class="st0" d="M29.5,18.9h-5.2h-1.5h-5.2H16H9.3v6.7v1.5v5.2v1.5v6.7H16h1.5h5.2h1.5h5.2H31h6.7v-6.7v-1.5v-5.2v-1.5v-6.7H31
		H29.5z M24.3,20.4h5.2v5.2h-5.2V20.4z M29.5,32.3h-5.2v-5.2h5.2V32.3z M17.6,27.2h5.2v5.2h-5.2V27.2z M17.6,20.4h5.2v5.2h-5.2V20.4
		z M10.8,20.4H16v5.2h-5.2V20.4z M10.8,27.2H16v5.2h-5.2V27.2z M16.1,39.1h-5.2v-5.2h5.2V39.1z M22.7,39.1h-5.2v-5.2h5.2V39.1z
		 M29.5,39.1h-5.2v-5.2h5.2V39.1z M36.2,39.1H31v-5.2h5.2V39.1z M36.2,32.3H31v-5.2h5.2V32.3z M36.2,20.4v5.2H31v-5.2H36.2z"/>
</g>
</svg>
