<?xml version="1.0" encoding="utf-8"?>
<!-- Generator: Adobe Illustrator 24.2.3, SVG Export Plug-In . SVG Version: 6.00 Build 0)  -->
<svg version="1.1" id="Layer_1" xmlns="http://www.w3.org/2000/svg" xmlns:xlink="http://www.w3.org/1999/xlink" x="0px" y="0px"
	 viewBox="0 0 50 50" style="enable-background:new 0 0 50 50;" xml:space="preserve">
<style type="text/css">
	.st0{fill:#FFFFFF;}
</style>
<g>
	<path class="st0" d="M25,1.6C12.1,1.6,1.6,12.1,1.6,25S12.1,48.4,25,48.4S48.4,37.9,48.4,25S37.9,1.6,25,1.6z M25.1,36.5
		c-0.9,0-1.9-0.1-2.8-0.2c-0.9,0.5-6.3,4.3-6.8,4.4c0,0-0.2,0.1-0.4,0c-0.2-0.1-0.2-0.4-0.2-0.4c0-0.4,1.3-5.1,1.6-5.9
		c-4.6-2.3-7.6-6.3-7.6-10.8c0-7,7.2-12.7,16.1-12.7s16.1,5.7,16.2,12.9C41.2,30.8,34,36.5,25.1,36.5z"/>
</g>
<path class="st0" d="M16.1,28c-0.5,0-0.9-0.4-0.9-0.8v-5.5h-1.4c-0.5,0-0.9-0.4-0.9-0.9s0.4-0.9,0.9-0.9h4.7c0.5,0,0.9,0.4,0.9,0.9
	s-0.4,0.9-0.9,0.9h-1.4v5.5C17.1,27.6,16.6,28,16.1,28z M24.2,28c-0.4,0-0.7-0.2-0.8-0.4L23,26.4h-2.8l-0.5,1.2
	C19.6,27.9,19.3,28,19,28c-0.2,0-0.4,0-0.6-0.1c-0.3-0.1-0.5-0.5-0.2-1.3l2.2-5.9c0.2-0.5,0.7-0.9,1.2-0.9c0.6,0,1,0.5,1.2,0.9
	l2.2,5.9c0.3,0.8,0,1.2-0.2,1.3C24.6,27.9,24.4,28,24.2,28L24.2,28L24.2,28z M22.5,24.7l-0.9-2.6l-0.9,2.6H22.5L22.5,24.7z
	 M26.5,27.8c-0.5,0-0.8-0.4-0.8-0.8v-6.3c0-0.5,0.4-0.9,0.9-0.9s0.9,0.4,0.9,0.9v5.5h2c0.5,0,0.8,0.4,0.8,0.8c0,0.5-0.4,0.8-0.8,0.8
	H26.5z M31.7,28c-0.5,0-0.9-0.4-0.9-0.9v-6.3c0-0.5,0.4-0.9,0.9-0.9s0.9,0.4,0.9,0.9v2l2.5-2.5c0.1-0.1,0.3-0.2,0.5-0.2
	s0.5,0.1,0.7,0.3c0.2,0.2,0.3,0.4,0.3,0.6s-0.1,0.4-0.2,0.6l-2.1,2.1l2.3,3c0.2,0.2,0.2,0.5,0.2,0.7c0,0.3-0.2,0.5-0.4,0.6
	s-0.4,0.2-0.6,0.2c-0.3,0-0.6-0.1-0.8-0.4L32.8,25l-0.2,0v2C32.6,27.5,32.2,28,31.7,28L31.7,28z"/>
</svg>
