<?xml version="1.0" encoding="utf-8"?>
<!-- Generator: Adobe Illustrator 24.2.3, SVG Export Plug-In . SVG Version: 6.00 Build 0)  -->
<svg version="1.1" id="Layer_1" xmlns="http://www.w3.org/2000/svg" xmlns:xlink="http://www.w3.org/1999/xlink" x="0px" y="0px"
	 viewBox="0 0 42.9 46.8" style="enable-background:new 0 0 42.9 46.8;" xml:space="preserve">
<style type="text/css">
	.st0{fill:#FFFFFF;}
	.st1{fill:#F4D037;}
	.st2{fill:#3B5998;}
	.st3{fill:#A53A3A;}
	.st4{fill:#FF0000;}
	.st5{fill:#935300;}
	.st6{fill:#939597;}
	.st7{fill:#EA872D;}
</style>
<g>
	<g>
		<path class="st0" d="M7.8,32.9H3.5V31h10.9v1.9h-4.3v12.7H7.8C7.8,45.6,7.8,32.9,7.8,32.9z"/>
		<path class="st0" d="M15.6,38.2c0-4.7,2.6-7.5,6.3-7.5s6.4,2.8,6.4,7.5s-2.6,7.6-6.4,7.6S15.6,42.9,15.6,38.2z M26,38.2
			c0-3.4-1.6-5.5-4-5.5s-4,2.1-4,5.5s1.6,5.6,4,5.6S26,41.6,26,38.2z"/>
		<path class="st0" d="M31.3,31h4.4c3.3,0,5.6,1.1,5.6,4.4c0,3.2-2.3,4.7-5.5,4.7h-2.2v5.5h-2.3V31z M35.6,38.2
			c2.3,0,3.4-0.9,3.4-2.8c0-1.9-1.2-2.6-3.5-2.6h-1.9v5.4C33.6,38.2,35.6,38.2,35.6,38.2z"/>
	</g>
	<polygon class="st0" points="3.3,25.6 1.6,23.7 20.6,6.2 39.7,23.7 37.9,25.6 20.6,9.6 	"/>
	<rect x="2.4" y="0.9" class="st0" width="36.4" height="2.5"/>
</g>
</svg>
