<?xml version="1.0" encoding="utf-8"?>
<!-- Generator: Adobe Illustrator 24.2.3, SVG Export Plug-In . SVG Version: 6.00 Build 0)  -->
<svg version="1.1" id="Layer_1" xmlns="http://www.w3.org/2000/svg" xmlns:xlink="http://www.w3.org/1999/xlink" x="0px" y="0px"
	 viewBox="0 0 50 50" style="enable-background:new 0 0 50 50;" xml:space="preserve">
<style type="text/css">
	.st0{fill:#FFFFFF;}
</style>
<g>
	<path class="st0" d="M25,1.6C12.1,1.6,1.6,12.1,1.6,25S12.1,48.4,25,48.4S48.4,37.9,48.4,25S37.9,1.6,25,1.6z M32,9.9
		c0,1.6,0,3.2,0,4.8c0,0.1,0,0.2-0.2,0.2c-1,0-2.1,0-3.1,0c-0.8,0-1.3,0.5-1.6,1.3c0,1,0,2.1,0,3.1c0,0.1,0,0.1,0,0.2
		c1.6,0,3.1,0,4.7,0c0,0.3-0.1,0.6-0.1,0.9c0,0.7-0.1,1.4-0.2,2.1c0,0.8-0.1,1.5-0.2,2.3c0,0.2-0.1,0.2-0.2,0.2c-1.2,0-2.5,0-3.7,0
		c-0.1,0-0.2,0-0.3,0c0,0.1,0,0.2,0,0.3c0,4.9,0,9.8,0,14.7c0,0.1,0,0.1,0,0.2c0,0,0,0.1-0.1,0.1h-0.1c-1.9,0-3.9,0-5.9,0
		c-0.3,0-0.3,0-0.3-0.3c0-4.9,0-9.8,0-14.7c0-0.1,0-0.2,0-0.3c0,0-0.1,0-0.2,0c-0.8,0-1.7,0-2.5,0c-0.1,0-0.2,0-0.2-0.2
		c0-1.7,0-3.3,0-5c0-0.2,0-0.2,0.2-0.2c0.8,0,1.6,0,2.4,0c0.5,0,0.4,0.1,0.4-0.4c0-1.1,0-2.3,0-3.4c0-1,0.3-2.1,0.8-3
		c0.9-1.6,2.2-2.5,3.9-2.9c0.7-0.1,1.2-0.2,1.9-0.2c1.2,0,2.5,0,3.7,0c0.2,0,0.6,0,0.9,0C32,9.8,32,9.8,32,9.9z"/>
</g>
</svg>
