<?xml version="1.0" encoding="utf-8"?>
<!-- Generator: Adobe Illustrator 24.2.3, SVG Export Plug-In . SVG Version: 6.00 Build 0)  -->
<svg version="1.1" id="Layer_1" xmlns="http://www.w3.org/2000/svg" xmlns:xlink="http://www.w3.org/1999/xlink" x="0px" y="0px"
	 viewBox="0 0 47.4 48.3" style="enable-background:new 0 0 47.4 48.3;" xml:space="preserve">
<style type="text/css">
	.st0{fill:#FFFFFF;}
	.st1{fill:#F4D037;}
	.st2{fill:#3B5998;}
	.st3{fill:#A53A3A;}
	.st4{fill:#FF0000;}
	.st5{fill:#935300;}
	.st6{fill:#939597;}
	.st7{fill:#EA872D;}
</style>
<path class="st0" d="M46.3,24c0-12.5-10.2-22.7-22.7-22.7S0.8,11.5,0.8,24c0,6.6,2.8,12.6,7.4,16.7l0,0l0.7,0.6
	c0.1,0,0.1,0.1,0.2,0.1c0.4,0.4,0.8,0.6,1.2,0.9c0.1,0.1,0.3,0.2,0.4,0.3c0.5,0.3,0.9,0.6,1.4,0.9c0.1,0.1,0.2,0.1,0.3,0.2
	c0.5,0.3,1,0.5,1.5,0.8c0,0,0.1,0,0.1,0.1c1.7,0.8,3.5,1.4,5.5,1.7c0.1,0,0.1,0,0.2,0c0.6,0.1,1.2,0.2,1.8,0.3c0.1,0,0.2,0,0.2,0
	c0.6,0.1,1.3,0.1,1.8,0.1c0.6,0,1.3,0,1.8-0.1c0.1,0,0.2,0,0.3,0c0.6-0.1,1.2-0.1,1.8-0.3c0.1,0,0.1,0,0.2,0
	c1.9-0.4,3.7-0.9,5.5-1.7c0.1,0,0.1-0.1,0.2-0.1c0.5-0.3,1-0.5,1.5-0.8c0.1-0.1,0.3-0.2,0.4-0.2c0.5-0.3,0.9-0.5,1.3-0.8
	c0.2-0.1,0.3-0.2,0.5-0.4c0.4-0.3,0.7-0.5,1.1-0.8c0.1-0.1,0.2-0.1,0.3-0.2l0.7-0.6l0,0C43.4,36.7,46.3,30.7,46.3,24z M2.4,24
	C2.4,12.4,11.8,3,23.5,3S44.6,12.4,44.6,24c0,6.3-2.7,11.9-7.1,15.7c-0.3-0.2-0.5-0.4-0.7-0.5l-7-3.5c-0.6-0.3-1-0.9-1-1.6v-2.4
	c0.2-0.2,0.4-0.5,0.5-0.6c0.9-1.3,1.6-2.7,2.2-4.3c1.1-0.5,1.7-1.5,1.7-2.7v-2.9c0-0.7-0.3-1.5-0.7-2v-3.8c0-0.5,0.2-2.8-1.5-4.8
	c-1.5-1.7-4-2.6-7.4-2.6s-5.8,0.9-7.4,2.6c-1.7,2-1.6,4.5-1.5,4.8v3.8c-0.5,0.5-0.7,1.3-0.7,2v2.9c0,0.9,0.4,1.7,1.1,2.4
	c0.6,2.6,2.1,4.6,2.5,5.3v2.4c0,0.6-0.4,1.3-1,1.6L10,39.3c-0.2,0.1-0.5,0.3-0.6,0.4C5.1,35.9,2.4,30.2,2.4,24z M35.9,41.1
	c-0.3,0.2-0.5,0.5-0.9,0.6c-0.2,0.1-0.3,0.2-0.5,0.3c-0.4,0.3-0.8,0.5-1.2,0.7c-0.1,0.1-0.2,0.1-0.3,0.2c-0.9,0.5-1.9,0.9-2.9,1.2
	h-0.1c-0.5,0.2-1,0.4-1.5,0.5l0,0c-0.5,0.1-1.1,0.3-1.6,0.4l0,0c-0.5,0.1-1,0.2-1.5,0.2c-0.1,0-0.2,0-0.3,0c-0.5,0-1,0.1-1.5,0.1
	c-0.5,0-1.1,0-1.5-0.1c-0.1,0-0.2,0-0.3,0c-0.5-0.1-1.1-0.1-1.5-0.2h-0.1c-1.1-0.2-2.2-0.5-3.2-0.8h-0.1c-0.5-0.2-1-0.4-1.5-0.5l0,0
	c-0.5-0.2-0.9-0.5-1.5-0.6c-0.1,0-0.1-0.1-0.2-0.1c-0.5-0.2-0.8-0.5-1.3-0.7c-0.1-0.1-0.3-0.2-0.4-0.3c-0.4-0.3-0.7-0.5-1.1-0.7
	L10.8,41h0.1l6.5-3.5c1.1-0.6,1.8-1.8,1.8-3.1v-3l-0.2-0.3c0,0-1.8-2.2-2.5-5.2l-0.1-0.4l-0.3-0.2c-0.4-0.3-0.6-0.7-0.6-1.2v-2.9
	c0-0.4,0.2-0.7,0.5-1l0.3-0.3v-4.6v-0.1c0,0-0.3-2,1.2-3.6c1.2-1.4,3.3-2.1,6.1-2.1c2.8,0,4.9,0.7,6.1,2c1.4,1.5,1.2,3.6,1.2,3.6V20
	l0.3,0.3c0.3,0.3,0.5,0.6,0.5,1v2.9c0,0.5-0.4,1.1-1,1.3l-0.5,0.1L30.1,26c-0.5,1.5-1.2,2.9-2.1,4.2c-0.2,0.3-0.5,0.5-0.6,0.8
	l-0.2,0.3v3.1c0,1.4,0.7,2.5,1.9,3.1l7,3.5l0.1,0.1C36,41,35.9,41,35.9,41.1z"/>
</svg>
