<?xml version="1.0" encoding="utf-8"?>
<!-- Generator: Adobe Illustrator 24.2.3, SVG Export Plug-In . SVG Version: 6.00 Build 0)  -->
<svg version="1.1" id="Layer_1" xmlns="http://www.w3.org/2000/svg" xmlns:xlink="http://www.w3.org/1999/xlink" x="0px" y="0px"
	 viewBox="0 0 142.4 50" style="enable-background:new 0 0 142.4 50;" xml:space="preserve">
<style type="text/css">
	.st0{fill:#FFFFFF;}
	.st1{fill:#F4D037;}
	.st2{fill:#3B5998;}
	.st3{fill:#A53A3A;}
	.st4{fill:#FF0000;}
	.st5{fill:#935300;}
	.st6{fill:#939597;}
	.st7{fill:#EA872D;}
</style>
<g>
	<path class="st6" d="M2.1,31.7c0.2-0.7,0.2-1.4,0.5-2c1.3-5.2,5.8-9,11.1-9.6c6.9-0.7,12.9,3.8,14.2,10.6
		c1.3,6.9-3.6,13.7-10.5,14.8c-0.4,0.1-0.7,0.2-1.1,0.2c-0.8,0-1.5,0-2.3,0c-0.1-0.1-0.2-0.1-0.3-0.1c-5.3-0.6-9.7-4.5-11-9.6
		c-0.2-0.7-0.3-1.4-0.5-2C2.1,33.2,2.1,32.4,2.1,31.7z M13.5,23.4c-0.1,0-0.2,0-0.2,0c-2,6-4,11.9-6.1,17.9c0.1,0.1,0.2,0.1,0.2,0.2
		c2-3.3,3.9-6.7,5.9-10.2c1.3,2.2,2.4,4.2,3.6,6.4c0.2-0.2,0.2-0.4,0.4-0.5c0.8-1.3,1.7-2.6,2.6-3.9c0.2-0.4,0.5-0.4,0.8-0.1
		c0.5,0.6,1.1,1.1,1.7,1.7c0.2,0.2,0.3,0.2,0.5,0.4c-0.1-0.2-0.1-0.4-0.1-0.5c-0.8-2-1.6-4-2.4-6c-0.2-0.5-0.3-0.5-0.6-0.1
		c-0.7,0.8-1.3,1.6-2,2.4c-0.2,0.2-0.2,0.3-0.2,0.5c-0.1-0.1-0.2-0.1-0.2-0.2C16,28.9,14.8,26.1,13.5,23.4z"/>
	<path class="st6" d="M38.4,29.6c0,0.2,0,0.4,0,0.5c0,2.7,0,5.4,0,8c0,0.8,0.2,1.1,1.1,1.3c0.5,0.1,0.8,0.3,0.8,0.9
		c-0.1,0.4,0,0.8,0,1.1c0,0.5-0.2,0.6-0.7,0.6c-1.1,0-2.2,0-3.3,0c-0.9,0-1.8,0-2.8,0c-0.7,0-0.8-0.2-0.8-0.8c0-0.5,0-0.9,0-1.3
		s0.2-0.6,0.5-0.5c1,0.1,1.4-0.5,1.4-1.6c0-3.5,0-7,0-10.5c0-1-0.5-1.6-1.5-1.6c-0.5,0-0.7-0.2-0.6-0.7c0-0.5,0-0.9,0-1.4
		c0-0.4,0.2-0.5,0.5-0.5c1.6,0,3.1-0.1,4.7,0c0.5,0,1,0.3,1.3,0.7c1,1.2,2,2.4,2.9,3.7c0.9,1.4,1.7,2.7,2.6,4.1c0.4,0.6,0.7,0.6,1,0
		c0.7-1.2,1.2-2.5,2-3.6c1.1-1.6,2.3-3,3.6-4.5c0.2-0.3,0.7-0.5,1.1-0.5c1.4-0.1,2.9,0,4.3,0c0.6,0,0.7,0.1,0.7,0.7
		c0,0.3,0,0.6,0,0.9c0,0.5-0.3,0.8-0.8,0.8c-0.8,0.2-1.3,0.6-1.3,1.4c0,3.7,0,7.4,0,11.2c0,0.6,0.3,0.9,1,1.1
		c1.1,0.3,1.1,0.3,1.1,1.4c0,0.2,0,0.3,0,0.5c0,0.6-0.2,0.8-0.8,0.8c-2,0-4.1,0-6.2,0c-0.8,0-0.8-0.2-0.8-0.8c0-0.4,0-0.8,0-1.2
		s0.2-0.5,0.5-0.5c1-0.1,1.4-0.5,1.4-1.5c0-2.7,0-5.2,0-7.9c0-0.2-0.2-0.5-0.3-0.8c-0.2,0.2-0.5,0.2-0.7,0.5c-1.7,2.6-3,5.5-3.9,8.4
		c-0.1,0.2-0.1,0.3-0.2,0.5c-0.4,1-1.4,1.4-2.3,0.8c-0.2-0.2-0.4-0.5-0.5-0.8c-0.9-3.3-2.4-6.4-4.7-9.1c-0.1-0.2-0.2-0.2-0.4-0.3
		C38.5,29.5,38.5,29.5,38.4,29.6z"/>
	<path class="st6" d="M92.9,34.8c0,1.3,0,2.5,0,3.8c0,0.8,0.2,1.1,0.9,1.3c0.2,0.1,0.7,0.2,0.7,0.4c0.1,0.5,0.1,1.1-0.1,1.6
		c0,0.2-0.5,0.4-0.7,0.4c-1.8,0-3.6,0-5.5,0c-0.5,0-0.7-0.2-0.7-0.7c0-0.2,0.1-0.5,0-0.7c-0.1-0.5,0-0.9,0.8-1
		c0.5,0,0.9-0.7,0.9-1.2c0-2.7,0-5.2,0-7.9c0-0.6-0.4-1-1-1.1c-0.2,0-0.5,0-0.6-0.1c-0.2-0.1-0.4-0.2-0.4-0.4c-0.1-0.5,0-0.8,0-1.3
		c0-0.4,0.2-0.5,0.5-0.5c0.4,0,0.8,0,1.1,0c2.3-0.1,4.5-0.1,6.8-0.2c1.4,0,2.7,0.3,3.9,0.8c0.2,0.1,0.5,0.1,0.7,0
		c2.3-1,4.8-1.2,7.2-0.6c2.9,0.7,4.3,2.8,4.9,5.6c0.3,1.8,0.2,3.6-0.1,5.4c-0.1,0.8-0.1,1,0.8,1.1c0.4,0.1,0.6,0.2,0.5,0.7
		c-0.1,0.5,0,0.8,0,1.3c0,0.4-0.2,0.6-0.5,0.6c-1.4,0-3,0-4.4,0c-0.5,0-0.6-0.2-0.5-0.6c0.5-1.6,0.6-3.3,0.6-4.9
		c0-1.1,0-2.2-0.1-3.3c-0.2-2-1.3-3.2-3.3-3.4c-0.9-0.2-1.8-0.2-2.7,0.2c-0.7,0.3-0.8,0.5-0.5,1.1c0.7,2,0.8,4.1,0.4,6.2
		c-0.1,0.2-0.1,0.5-0.1,0.7c-0.2,1.1,0.1,1.5,1,1.7c0.3,0.1,0.5,0.2,0.4,0.6c0,0.4,0,0.8,0,1.1c0,0.4-0.2,0.6-0.6,0.6
		c-1.5,0-3,0-4.5,0c-0.6,0-0.5-0.5-0.4-0.8c0.2-0.9,0.4-1.7,0.5-2.6c0.5-2,0.4-4.2,0-6.2c-0.2-1.4-1.1-2.3-2.7-2.6
		c-0.9-0.2-1.8-0.2-2.7-0.1c-0.5,0-0.8,0.4-0.8,0.9C92.9,32.2,92.9,33.5,92.9,34.8z"/>
	<path class="st6" d="M67.8,42.2c-1.6,0-3.2,0.1-4.7,0c-1.7-0.1-3.4-0.5-4.7-1.8c-2-2-1.6-5.5,0.8-7c1.4-0.9,2.8-1.2,4.4-1.4
		c0.8-0.1,1.7,0,2.7-0.1c0.1,0,0.2,0,0.3,0c0.6-0.1,0.8-0.3,0.5-0.9c-0.5-0.8-1.1-1.3-2-1.4c-1-0.1-2-0.1-3,0
		c-0.8,0.1-1.4,0.5-1.4,1.4c0,0.4-0.2,0.5-0.6,0.5c-0.5,0-0.9,0-1.4,0c-0.4,0-0.6-0.2-0.6-0.5c0-0.8-0.1-1.7-0.1-2.4
		c0-0.5,0.3-0.8,0.8-1c0.8-0.2,1.6-0.5,2.3-0.6c2-0.2,3.9-0.3,5.8,0.2c2.8,0.7,4.3,2.5,4.5,5.4c0.1,1.9,0.1,3.7,0.1,5.6
		c0,1.1,0.5,1.7,1.6,1.9c0.4,0.1,0.6,0.3,0.6,0.7c0.1,1.5,0.1,1.6-1.5,1.6C70.7,42.2,69.3,42.2,67.8,42.2z M65.1,39.3L65.1,39.3
		c0.7,0,1.3,0,2,0c0.4,0,0.6-0.2,0.6-0.5c0-1.1,0-2.1,0-3.2c0-0.4-0.2-0.6-0.6-0.6c-0.7,0-1.4-0.1-2.1,0c-0.8,0.1-1.7,0.1-2.4,0.2
		C61.6,35.4,61,36,61,37c-0.2,1.3,0.8,2.3,2.1,2.3C63.8,39.4,64.4,39.3,65.1,39.3z"/>
	<path class="st6" d="M122.2,27c1.1,0.2,2.2,0.3,3.2,0.7c3,1,4.6,3.5,4.5,7c-0.2,3.9-3,7.1-7,7.6c-1.8,0.2-3.6-0.1-5.2-0.9
		c-3.1-1.6-4.2-4.7-3.9-7.7c0.4-4.1,3.6-5.9,6.6-6.4c0.6-0.1,1.2-0.2,1.9-0.2C122.2,27,122.2,27,122.2,27z M121.9,29.7
		c-2.1,0-3.6,1.1-4.2,3c-0.5,1.6-0.3,3.2,0.5,4.6c0.8,1.7,2.3,2.5,4.4,2.3c1.7-0.2,3-1.2,3.4-3c0.2-0.9,0.3-1.9,0.2-2.9
		C126,31.4,124.2,29.7,121.9,29.7z"/>
	<path class="st6" d="M79.7,35c0,1.1,0,2.3,0,3.5c0,1,0.3,1.4,1.3,1.5c0.9,0.2,0.9,0.2,0.9,1.1c0,1.2,0,1.2-1.2,1.2
		c-1.8,0-3.6,0-5.4,0c-0.7,0-0.8-0.1-0.8-0.7c0-0.4,0-0.8,0-1.1c0-0.3,0.2-0.5,0.5-0.5c1.1-0.1,1.4-0.4,1.4-1.5c0-2.4,0-4.9,0-7.4
		c0-1.1-0.2-1.4-1.3-1.4c-0.4,0-0.5-0.2-0.5-0.5c0-0.5,0-0.9,0-1.3s0.2-0.5,0.5-0.5c1.2,0,2.4,0,3.6,0c1.6-0.1,3.2-0.2,4.8-0.2
		c1.9,0,3.3,1.9,3,3.7c-0.1,0.5-0.2,0.6-0.8,0.6c-0.7,0-1.4,0-2,0c-0.5,0-0.7-0.2-0.8-0.6c-0.4-1.1-2-1.4-2.8-0.7
		c-0.2,0.2-0.5,0.8-0.5,1.1C79.7,32.6,79.7,33.8,79.7,35z"/>
	<path class="st6" d="M131.4,34.5c0-1.3,0-2.7,0-3.9c0-0.8-0.1-0.8-0.8-0.8c-0.8,0-0.8,0-0.8-0.8c0-0.4,0-0.8,0-1.2
		c0-0.3,0.1-0.5,0.5-0.5c1.3-0.1,1.3-0.1,1.3-1.4c0-0.6,0-1.2,0-1.7c0-0.4,0.2-0.6,0.5-0.5c0.8,0,1.6,0,2.3,0c0.6,0,0.8,0.2,0.8,0.8
		c0,0.8,0,1.6,0,2.3c0,0.5,0.2,0.7,0.7,0.7c0.4,0,0.8,0,1.1,0c0.4,0,0.6,0.2,0.6,0.6c0,0.5,0,0.8,0,1.3c0,0.3-0.2,0.5-0.5,0.5
		c-0.4,0-0.8,0-1.1,0c-0.7,0-0.8,0.2-0.8,0.8c0,2.5,0,4.9,0,7.4c0,1.1,0.5,1.7,1.6,1.7c0.9,0.1,0.9,0.2,0.9,1.1
		c0,0.2-0.1,0.2-0.1,0.4c0.1,0.9,0,1.1-1.3,1.1c-0.8,0.1-1.5,0.1-2.3,0c-1.4-0.2-2.6-1.4-2.7-3C131.4,37.7,131.5,36.1,131.4,34.5
		C131.5,34.5,131.4,34.5,131.4,34.5z"/>
	<path class="st6" d="M140.3,24.5c0,1-0.8,1.7-1.8,1.7s-1.8-0.8-1.8-1.8s0.8-1.7,1.8-1.7C139.5,22.8,140.3,23.6,140.3,24.5z
		 M140,24.5c0-0.8-0.7-1.5-1.5-1.6c-0.8,0-1.6,0.7-1.6,1.5s0.7,1.5,1.5,1.5C139.3,26.1,140,25.4,140,24.5z"/>
	<path class="st6" d="M138.9,24.6c0.1-0.1,0.2-0.1,0.2-0.2c0.1-0.1,0.2-0.2,0.2-0.4c0-0.2,0-0.2-0.1-0.3c-0.1-0.1-0.2-0.2-0.2-0.2
		c-0.1-0.1-0.2-0.1-0.2-0.1c-0.1,0-0.2,0-0.3,0h-0.7v2.1h0.5v-0.8h0.2l0.7,0.8h0.6L138.9,24.6z M138.7,24c0,0.1,0,0.1,0,0.2
		c0,0,0,0.1-0.1,0.1l-0.1,0.1c-0.1,0-0.2,0-0.2,0h-0.2v-0.5h0.2c0.1,0,0.2,0,0.2,0h0.1l0.1,0.1C138.7,23.9,138.7,24,138.7,24z"/>
</g>
</svg>
