<?xml version="1.0" encoding="utf-8"?>
<!-- Generator: Adobe Illustrator 24.2.3, SVG Export Plug-In . SVG Version: 6.00 Build 0)  -->
<svg version="1.1" id="Layer_1" xmlns="http://www.w3.org/2000/svg" xmlns:xlink="http://www.w3.org/1999/xlink" x="0px" y="0px"
	 viewBox="0 0 47.4 48.3" style="enable-background:new 0 0 47.4 48.3;" xml:space="preserve">
<style type="text/css">
	.st0{fill:#EA872D;}
	.st1{fill:#FFFFFF;}
</style>
<rect class="st0" width="47.4" height="48.3"/>
<path class="st1" d="M37.6,35.8l-8.2-8.2c1.4-1.8,2.2-4.1,2.2-6.5c-0.1-6-4.9-10.8-10.9-10.8S9.8,15.2,9.8,21.1S14.7,32,20.7,32
	c2.4,0,4.7-0.8,6.5-2.2l8.2,8.2L37.6,35.8z M10.9,21.1c0-5.4,4.4-9.8,9.8-9.8s9.8,4.4,9.8,9.8s-4.4,9.8-9.8,9.8S10.9,26.6,10.9,21.1
	z M28.3,28.9c0.1-0.1,0.2-0.2,0.3-0.3c0.1-0.1,0.2-0.2,0.3-0.3l7.4,7.4l-0.8,0.8L28,29.1C28.1,29.1,28.1,29,28.3,28.9z"/>
</svg>
