<?xml version="1.0" encoding="utf-8"?>
<!-- Generator: Adobe Illustrator 24.2.3, SVG Export Plug-In . SVG Version: 6.00 Build 0)  -->
<svg version="1.1" id="Layer_1" xmlns="http://www.w3.org/2000/svg" xmlns:xlink="http://www.w3.org/1999/xlink" x="0px" y="0px"
	 viewBox="0 0 37.4 48.3" style="enable-background:new 0 0 37.4 48.3;" xml:space="preserve">
<style type="text/css">
	.st0{fill:#FFFFFF;}
	.st1{fill:#F4D037;}
	.st2{fill:#3B5998;}
	.st3{fill:#A53A3A;}
	.st4{fill:#FF0000;}
	.st5{fill:#935300;}
	.st6{fill:#939597;}
	.st7{fill:#EA872D;}
</style>
<path class="st6" d="M36,19.5c0-0.1,0-0.2,0-0.2c0-0.1,0-0.2,0-0.3C35.7,9.8,28.1,2.3,18.7,2.3C9.2,2.3,1.4,10,1.4,19.6
	c0,1.3,0.2,2.5,0.4,3.8c0,0.1,0,0.1,0.1,0.2c0,0,0,0,0,0.1c0,0.1,0,0.2,0.1,0.3c0,0,0,0,0,0.1c0.1,0.4,0.3,0.7,0.4,1.1v0.1
	c0,0.1,0.1,0.2,0.1,0.3c0.7,1.9,1.7,3.7,3.1,5.5c2.6,3.5,12,14.5,12.1,14.6l0,0c0.3,0.3,0.6,0.4,1,0.4c0.4,0,0.7-0.2,1-0.4l0,0
	c0.1-0.1,9.6-11.5,12.1-14.6c0.9-1.2,1.7-2.3,2.3-3.6c0-0.1,0.1-0.1,0.1-0.2c0-0.1,0.1-0.1,0.1-0.2c1.1-2.2,1.6-4.6,1.7-6.9
	C36,19.8,36,19.7,36,19.5L36,19.5L36,19.5z M18.7,27.5c-4.5,0-8.1-3.6-8.1-8.1s3.6-8.1,8.1-8.1s8.1,3.6,8.1,8.1S23.2,27.5,18.7,27.5
	z"/>
</svg>
