<?xml version="1.0" encoding="utf-8"?>
<!-- Generator: Adobe Illustrator 24.2.3, SVG Export Plug-In . SVG Version: 6.00 Build 0)  -->
<svg version="1.1" id="Layer_1" xmlns="http://www.w3.org/2000/svg" xmlns:xlink="http://www.w3.org/1999/xlink" x="0px" y="0px"
	 viewBox="0 0 102.6 50" style="enable-background:new 0 0 102.6 50;" xml:space="preserve">
<style type="text/css">
	.st0{fill:#FFFFFF;}
	.st1{fill:#F4D037;}
	.st2{fill:#3B5998;}
	.st3{fill:#A53A3A;}
	.st4{fill:#FF0000;}
	.st5{fill:#935300;}
	.st6{fill:#939597;}
	.st7{fill:#EA872D;}
</style>
<g>
	<path class="st6" d="M18.2,39.9c0.5-1.4,0.9-2.9,1.4-4.3c0.3-0.9,0.6-1.8,0.8-2.7c0.2-0.5,0.4-1-0.4-1.2c-0.2-0.1-0.2-0.6-0.2-1
		c0-0.2,0.4-0.4,0.6-0.4c1.1,0,2.3-0.1,3.4,0c0.2,0,0.6,0.3,0.6,0.4c0,0.3-0.2,0.7-0.4,1c-0.2,0.3-0.5,0.6-0.7,1
		c-1.3,4.2-2.6,8.3-3.9,12.6c-0.2,0.6-0.5,0.8-1.1,0.8c-2.3,0-2.3,0-3.1-2.3c-0.5-1.5-0.9-3-1.6-4.5c-0.1,0.3-0.2,0.5-0.3,0.8
		c-0.5,1.7-0.9,3.4-1.4,5.2c-0.2,0.6-0.4,0.8-1.1,0.8c-0.6-0.1-1.2-0.1-1.7,0c-0.6,0.1-0.8-0.2-1.1-0.8c-1.3-4.2-2.6-8.3-3.9-12.5
		c-0.2-0.4-0.5-0.7-0.7-1.1c-0.2-0.2-0.2-0.6-0.2-1c0-0.2,0.4-0.3,0.6-0.3c1.4,0,2.8,0,4.2,0c0.2,0,0.7,0.2,0.6,0.3
		c0,0.4-0.2,0.8-0.3,1.1c-0.1,0.2-0.4,0.5-0.4,0.7c0.7,2.5,1.4,5,2.2,7.5c0,0.1,0.1,0.1,0.2,0.2c0.1-0.3,0.2-0.5,0.3-0.8
		c0.4-1.4,0.8-2.8,1.2-4.2c0.4-1.4,0.3-2.6-0.8-3.6c-0.2-0.2-0.2-0.7-0.1-1.1c0-0.2,0.4-0.2,0.6-0.3c1.4,0,2.8,0,4.2,0
		c0.2,0,0.6,0.2,0.6,0.4c0,0.4-0.2,0.7-0.3,1.1c-0.1,0.3-0.5,0.6-0.4,0.8c0.7,2.5,1.4,4.9,2,7.4C18,39.9,18.2,39.9,18.2,39.9z"/>
	<path class="st6" d="M88,21.3c-0.2,0.7-0.4,1.4-0.6,2c-0.4,1.1-0.8,2.3-1.1,3.4c-0.5,2.1-2,3.6-4,3.9c-0.9,0.1-1.6-0.2-2-1.1
		c-0.5-1.1-1.2-2.1-2.5-2.6c-0.3-0.1-0.5-0.5-0.7-0.8c-0.7-1.4-1.7-2-3.3-2c-1.7,0-2.1-0.7-1.9-2.3c0.5-3.4,2.7-4.3,5.5-4.6
		c0.2,0,0.5-0.1,0.6,0c1.1,0.8,2.6,0.4,3.8,0.8c0.2,0.1,0.5,0.1,0.8,0c1.4-0.8,2.7,0.1,3.9,0.5C87.7,18.9,87.8,20.1,88,21.3z"/>
	<path class="st6" d="M48,21.3c1.2,1.8,2.3,3.6,3.4,5.2c0.3,0.5,1.1,0.6,0.9,1.4c-0.1,0.2-0.4,0.6-0.6,0.6c-1.4,0.1-2.7,0.1-4.2,0
		c-0.6,0-0.9-0.8-0.5-1.4c0.4-0.5,0.2-0.7,0-1c-0.6-0.9-1.2-1.7-1.8-2.7c-1.2,0.7-2,1.5-1.7,3c0.1,0.2,0.2,0.5,0.4,0.6
		c0.7,0.2,0.5,0.8,0.5,1.1c0,0.2-0.5,0.3-0.8,0.3c-1.1,0-2.3,0-3.4,0c-0.2,0-0.7-0.2-0.7-0.4c0-0.4,0.2-0.7,0.2-1.1
		c0.2-0.3,0.4-0.6,0.5-0.9c0-3.8,0-7.5,0-11.3c0-0.3-0.3-0.5-0.4-0.8c-0.2-0.3-0.3-0.6-0.3-0.9c0-0.1,0.4-0.3,0.6-0.3
		c0.9,0,1.8,0,2.7,0c0.6,0,0.8,0.2,0.8,0.8c0,2.3,0,4.7,0,7.1c0,0.3,0,0.6,0,1.2c0.9-0.8,1.7-1.4,2.4-2c0.5-0.5,1.1-0.8,0.8-1.6
		c-0.2-0.5,0.2-0.8,0.7-0.8c1.3,0,2.5,0,3.8,0c0.2,0,0.6,0.2,0.6,0.5c0.1,0.3,0.1,0.6-0.5,0.9C50.3,19.6,49.2,20.5,48,21.3z"/>
	<path class="st6" d="M63.6,39.3c1-0.8,1.9-1.7,2.8-2.5c0.1-0.1,0.1-0.5,0-0.7c-0.1-0.6,0-1,0.8-1c1.2,0.1,2.4,0,3.6,0
		c0.2,0,0.6,0.2,0.6,0.4c0,0.2-0.2,0.6-0.4,0.8c-1,0.8-2,1.5-3.1,2.3c-0.2,0.1-0.2,0.5-0.1,0.7c1.1,1.7,2.1,3.3,3.2,4.9
		c0.2,0.4,0.7,0.7,0.8,1.1c0.2,0.5-0.1,0.7-0.6,0.7c-1.4,0-2.7,0-4,0c-0.2,0-0.7-0.2-0.7-0.2c-0.1-0.3,0.1-0.6,0.2-0.9
		c0.1-0.2,0.3-0.6,0.2-0.8c-0.6-1.1-1.3-2-2-3c-1.2,0.7-2,1.5-1.7,3c0.1,0.3,0.3,0.6,0.5,0.9c0.2,0.3,0.3,0.5,0.3,0.8
		c0,0.1-0.5,0.3-0.7,0.3c-1.4,0-2.7,0-4.2,0c-0.2-0.6-0.3-1.1,0.4-1.4c0.2-0.1,0.3-0.6,0.3-0.9c0-3.7,0-7.5,0-11.2
		c0-0.3-0.4-0.6-0.5-1c-0.2-0.3-0.3-0.6-0.2-0.8c0-0.2,0.5-0.3,0.7-0.3c0.8,0,1.7,0,2.6,0c0.6,0,0.8,0.2,0.8,0.8c0,2.3,0,4.6,0,6.9
		c0,0.3,0,0.7,0.1,1C63.5,39.3,63.6,39.3,63.6,39.3z"/>
	<path class="st6" d="M24,28c-1.4,0.7-2.7,1.1-4.3,0.8c-1.6-0.5-2.7-1.5-2.8-3.2c-0.2-1.5,0.5-2.6,1.8-3.3c1.5-0.9,3.2-1.1,4.9-1.3
		c0.2,0,0.4-0.1,0.8-0.3c-0.3-0.2-0.5-0.7-0.9-0.8c-1.4-0.5-2.9-0.4-4.2,0.6c-0.3,0.2-0.8,0.2-1.1,0.2c-0.1,0-0.2-0.5-0.2-0.8
		c0.1-2.4-0.5-2,2.1-2.4c1.7-0.3,3.3-0.5,5,0c2,0.6,2.7,1.6,2.7,3.7c0,1.7,0,3.3,0,5c0,0.5,0,0.8,0.5,1.1c0.2,0.1,0.3,0.5,0.2,0.8
		c0,0.2-0.4,0.4-0.5,0.4c-1,0-2,0.1-3,0C24.6,28.4,24.4,28.2,24,28z M24.2,23c-1.3,0.1-2.4,0.3-3.3,1.2c-0.8,0.7-0.5,1.7,0.3,2.2
		c1.1,0.5,2.9-0.3,3.1-1.4C24.3,24.3,24.2,23.7,24.2,23z"/>
	<path class="st6" d="M90.5,41.2c0,0.8,0,1.7,0,2.5c0,0.5-0.1,1.1,0.7,1.3c0.2,0.1,0.2,0.5,0.2,0.8c0,0.2-0.3,0.4-0.5,0.4
		c-1.3,0-2.7,0-3.9,0c-0.2,0-0.6-0.2-0.6-0.4c0-0.3,0.2-0.6,0.3-0.8c0.2-0.4,0.5-0.7,0.6-1c0.1-1.7,0.1-3.3,0-5
		c-0.1-1.1-0.8-1.7-1.7-1.7c-1.1,0-2.1,0.9-2.1,2c0,1.7,0,3.3,0,4.9c0,0.3,0.3,0.5,0.5,0.8c0.2,0.3,0.3,0.6,0.3,0.9
		c0,0.1-0.4,0.3-0.6,0.3c-1.3,0-2.5,0-3.8,0c-0.2,0-0.6-0.2-0.6-0.3c0-0.3,0.2-0.6,0.3-0.9c0.2-0.3,0.5-0.5,0.5-0.8
		c0.1-2.2,0-4.5,0-6.7c0-0.3-0.3-0.5-0.5-0.8c-0.2-0.3-0.3-0.7-0.4-1c0-0.1,0.5-0.3,0.7-0.4c0.8-0.1,1.8-0.2,2.6,0
		c1.1,0.4,2.1-0.2,3.1-0.4c2.8-0.7,5.5,1.5,5.2,4.1C90.4,39.6,90.5,40.4,90.5,41.2z"/>
	<path class="st6" d="M28.8,46.3c-3.1,0-5.8-2.2-6-5c-0.3-3.3,1.7-6,5.2-6.6c3.3-0.5,6.4,1.4,7,4.4C35.7,43.1,33,46.3,28.8,46.3z
		 M31.7,40.4c-0.2-0.7-0.4-1.6-0.8-2.3c-0.9-1.4-3-1.4-3.8,0.1c-0.8,1.4-0.8,3-0.1,4.5c0.4,0.9,1.2,1.3,2.2,1.3c1-0.1,1.7-0.5,2-1.5
		C31.3,41.8,31.4,41.2,31.7,40.4z"/>
	<path class="st6" d="M7.7,23c-0.1,1-0.4,1.7-0.2,2.3c0.2,0.8,1.4,1.1,2.4,1.1c0.9-0.1,1.6-0.7,1.8-1.5c0.1-0.3,0.1-0.7,0.1-1
		c0-2.8,0-5.5,0-8.3c0-0.5-0.1-1-0.7-1.2c-0.2-0.1-0.3-0.6-0.3-0.9c0-0.2,0.4-0.4,0.6-0.4c1.4,0,3,0,4.4,0c0.2,0,0.6,0.2,0.6,0.4
		c0,0.3-0.1,0.8-0.3,0.9c-0.6,0.2-0.7,0.7-0.7,1.3c0,2.7,0,5.4,0,8.1c0,2.7-1.3,4.4-3.9,5.1c-3.2,0.8-6.4-0.6-8-3.5
		c-0.2-0.5-0.2-0.8,0.2-1c0.7-0.4,1.3-0.8,2-1.3C7,22.1,7,22.1,7.7,23z"/>
	<path class="st6" d="M58.6,35.9c-0.6,1-1.1,1.7-1.6,2.5c-0.1,0.2-0.5,0.3-0.7,0.2c-0.3-0.2-0.8-0.5-0.8-0.6c0-0.8-0.5-1-1.1-1.1
		c-1-0.2-2,0.1-2,0.5c0,1,0.9,0.9,1.5,1.2c1,0.4,2,0.7,3,1.1c2.5,1.1,2.1,4.4,0.5,5.5c-2.2,1.5-6.4,1.7-9.1-0.8
		c0.6-0.9,1.3-1.8,2-2.7c0.5,0.2,0.8,0.4,1.1,0.6c-0.2,1.3,0,1.7,1.3,1.7c0.6,0.1,1.2,0,1.8-0.2c0.3-0.2,0.7-0.6,0.7-0.9
		c0-0.3-0.3-0.8-0.6-1c-0.5-0.3-1-0.4-1.5-0.5c-0.8-0.3-1.8-0.5-2.6-1c-1.9-1.1-2-3.3-0.3-4.6c1.7-1.3,3.6-1.4,5.5-0.9
		C56.6,35,57.5,35.5,58.6,35.9z"/>
	<path class="st6" d="M42.5,35c0-0.5,0-0.9,0-1.4c0-1.7,1.1-3.1,2.7-3.4c1.1-0.2,2.2,0,3.3,0.1c0.5,0,0.6,0.4,0.6,0.8
		c0,0.5,0,1.1,0,1.6c0,0.2-0.2,0.8-0.3,0.8c-0.4,0-0.8-0.2-1.1-0.3c-0.1-0.1-0.2-0.3-0.2-0.3c-0.3-0.2-0.8-0.5-1-0.4
		c-0.2,0.1-0.5,0.6-0.5,0.9c-0.1,0.5,0,1,0,1.4c0.6,0.2,1.2,0.2,1.7,0.4c0.2,0.1,0.2,0.8,0.1,1.1c0,1.3-1.1,0.3-1.7,0.8
		c0,0.5,0,0.9,0,1.3c0,1.8,0,3.6,0,5.4c0,0.3,0.3,0.8,0.5,0.9c0.5,0.2,0.5,0.6,0.5,0.9c-0.1,0.2-0.5,0.4-0.8,0.4
		c-1.2,0.1-2.5,0.1-3.7,0c-0.3,0-0.8-0.2-0.8-0.4c0-0.3,0.2-0.6,0.4-0.9c0.2-0.2,0.4-0.5,0.4-0.8c0-2,0-4.2,0-6.2
		c0-0.2-0.3-0.6-0.5-0.6c-1.2,0-0.6-0.9-0.8-1.5c-0.2-0.7,0.5-0.6,0.9-0.7C42.3,35.1,42.3,35.1,42.5,35z"/>
	<path class="st6" d="M39.3,19.3c-0.7,0.8-1.4,1.7-2.1,2.5c-0.6-0.4-1.2-0.5-1.1-1.4c0.2-0.6-0.5-0.8-1.1-0.9
		c-1.2-0.1-2.4,0.9-2.7,2.3c-0.4,1.6,0.5,3.6,1.8,4.4c1.1,0.8,2.3,0.5,3.1-0.4c0.2-0.2,0.7-0.3,1.1-0.5c0.1,0.3,0.2,0.6,0.3,1
		c0.1,0.3,0,0.7,0,1c0,1.4,0,1.4-1.3,1.4c-1.7,0.1-3.3,0.1-4.9-0.7c-3.5-1.7-4.6-6.1-2.3-8.9C32.3,16.5,37,16.5,39.3,19.3z"/>
	<path class="st6" d="M39.8,37.6c0,2,0,4,0,6.1c0,0.5,0,1,0.7,1.2c0.2,0.1,0.3,0.5,0.2,0.8c0,0.2-0.4,0.4-0.6,0.4
		c-1.3,0-2.6,0-3.9,0c-0.2,0-0.6-0.2-0.6-0.3c0-0.3,0.1-0.8,0.2-0.9c0.5-0.3,0.5-0.6,0.5-1.1c0-3.6,0-7.3,0-10.9
		c0-0.5-0.1-0.9-0.6-1.1c-0.2-0.1-0.3-0.5-0.4-0.8c0-0.1,0.4-0.4,0.6-0.4c1-0.1,2,0,3,0c0.6,0,0.8,0.2,0.8,0.8
		C39.7,33.4,39.8,35.5,39.8,37.6L39.8,37.6z"/>
	<path class="st6" d="M82.9,10.2c0.2-0.5,0.3-1.1,0.6-1.4c1.4-1.7,3.1-3,5.4-3.4c1-0.2,1.8,0,2.4,0.9c0.6,0.8,0.7,1.7,0.2,2.7
		c-0.9,1.8-2.2,3.2-3.9,4.1C85.2,14.1,83,12.7,82.9,10.2z"/>
	<path class="st6" d="M88.7,15.6c0.4-0.7,0.7-1.4,1.1-2c1.4-1.6,3.1-2.5,5.1-3.1c1-0.3,2.3,0.5,2.3,1.5c0,0.8-0.1,1.7-0.5,2.3
		c-1.2,1.7-2.8,3-4.9,3.6C90.3,18.3,88.9,17.3,88.7,15.6z"/>
	<path class="st6" d="M88.9,24.9c0.1-3.1,2.2-5.4,5.4-5.7c1.2-0.2,2,0.8,2,2.3c-0.1,2.3-2.7,5.2-4.9,5.5
		C89.6,27.3,88.6,26.2,88.9,24.9z"/>
	<path class="st6" d="M77.2,39.9c0,1.3-0.1,2.6,0,3.9c0,0.4,0.4,0.7,0.6,1.1c0.2,0.2,0.3,0.5,0.2,0.8c0,0.2-0.4,0.4-0.6,0.4
		c-1.3,0-2.6,0-3.9,0c-0.2,0-0.5-0.2-0.5-0.3c0-0.3,0.2-0.6,0.2-0.9c0.2-0.4,0.5-0.7,0.5-1.1c0.1-2,0.1-4.2,0-6.2
		c0-0.4-0.4-0.7-0.5-1.1c-0.2-0.3-0.3-0.6-0.3-0.9c0-0.2,0.5-0.4,0.7-0.4c0.9-0.1,1.8,0,2.8,0c0.5,0,0.7,0.2,0.7,0.7
		C77.2,37.3,77.2,38.7,77.2,39.9L77.2,39.9z"/>
	<path class="st6" d="M74.7,13c0-3.2,2.5-5.1,5.5-4.3c0.9,0.2,1.4,0.8,1.1,1.8c-0.5,2.3-2,3.9-4.1,4.9c-0.9,0.4-2.3-0.7-2.5-1.7
		C74.7,13.5,74.7,13.2,74.7,13z"/>
	<path class="st6" d="M75.5,34.3c-1.2,0-2.1-0.9-2.1-2.1c0-1.1,0.9-2,2.1-2.1c1.1,0,2.2,1,2.2,2.1C77.7,33.4,76.7,34.3,75.5,34.3z"
		/>
	<path class="st6" d="M99.2,8.9c0,0.8-1,1.9-1.4,1.7c-0.4-0.2-0.8-0.5-0.8-0.9c-0.2-0.4,1-1.1,1.7-1.1C98.9,8.6,99,8.9,99.2,8.9z"/>
	<path class="st6" d="M97.7,17.8c-0.2,0.5-0.5,1.1-0.8,1.4c-0.2,0.2-0.7,0-1.1,0c0.1-0.4,0-0.8,0.2-1c0.4-0.3,1-0.5,1.4-0.7
		C97.5,17.6,97.6,17.7,97.7,17.8z"/>
	<path class="st6" d="M93.3,3.6c-0.2,0.5-0.2,1-0.5,1.4c-0.1,0.2-0.6,0.4-0.8,0.2c-0.2-0.2-0.5-0.5-0.5-0.8
		C91.7,3.8,92.4,3.5,93.3,3.6z"/>
	<path class="st6" d="M82.3,6.8c-0.2,0.4-0.3,0.8-0.5,1c-0.2,0.2-0.5,0.1-0.8,0.1c0.1-0.2,0-0.6,0.2-0.8c0.2-0.2,0.6-0.4,0.9-0.5
		C82.1,6.6,82.2,6.7,82.3,6.8z"/>
</g>
</svg>
