<?xml version="1.0" encoding="utf-8"?>
<!-- Generator: Adobe Illustrator 24.2.3, SVG Export Plug-In . SVG Version: 6.00 Build 0)  -->
<svg version="1.1" id="Layer_1" xmlns="http://www.w3.org/2000/svg" xmlns:xlink="http://www.w3.org/1999/xlink" x="0px" y="0px"
	 viewBox="0 0 116.5 50" style="enable-background:new 0 0 116.5 50;" xml:space="preserve">
<style type="text/css">
	.st0{fill:#FFFFFF;}
	.st1{fill:#F4D037;}
	.st2{fill:#3B5998;}
	.st3{fill:#A53A3A;}
	.st4{fill:#FF0000;}
	.st5{fill:#935300;}
	.st6{fill:#939597;}
	.st7{fill:#EA872D;}
</style>
<g>
	<path class="st6" d="M113,38.9c-1.2,0-2.3-0.1-3.6,0c-0.7,0-1.1-0.2-1.2-0.9c-0.2-1-0.8-1.2-1.7-1.1c-1.4,0.1-2.9,0.1-4.4,0
		c-0.6,0-1.1,0.2-1.4,0.8c-0.4,0.9-1.2,1.3-2.1,1.3c-1.7,0-3.6,0.1-5.3,0c-2.5-0.1-4.6-2.4-4.8-5.2c0-0.4,0-0.8,0.1-1.2
		c0.3-1.9,0.3-2.3,2.3-2.2c1.2,0.1,2-0.6,2-1.7c0.1-0.6-0.2-1-0.8-1c-1.1-0.1-2.1-0.1-3.2,0c-0.3,0-0.7,0.5-0.8,0.8
		c-1.2,3.1-2.3,6.2-3.4,9.3c-0.3,0.9-0.8,1.2-1.7,1.2c-6.4-0.1-13,0-19.4-0.1c-0.9,0-1.8-0.1-2.7-0.3c-2.3-0.6-3.5-2.1-3.6-4.5
		c0-0.6,0-1.1,0.2-1.7c0.3-1.9,0.3-1.9,2.3-2c1.3-0.1,2-0.7,2.1-1.7c0.1-0.6-0.2-1-0.8-1c-0.9,0-1.9,0-2.8-0.1
		c-0.6-0.1-0.9,0.2-1.1,0.8c-1.1,3-2.2,6.1-3.3,9.1c-0.5,1.4-0.5,1.4-2,1.4c-1.9,0-3.8,0-5.7-0.1c-1-0.1-2-0.2-2.9-0.7
		c-2.2-1.1-3-3.3-2.4-6.1c0.3-1.5,0.4-1.6,2-1.6c1,0,1.8-0.2,2.3-1.2c0.4-0.9,0-1.5-1-1.5c-0.8-0.1-1.7,0-2.4-0.1
		c-0.8-0.1-1.1,0.3-1.3,0.9c-1.1,3.1-2.3,6.1-3.3,9.2c-0.3,0.8-0.7,1.2-1.7,1.1c-1.7-0.1-3.3-0.1-5,0c-0.6,0-0.9-0.2-1.1-0.8
		c-0.3-1.3-0.5-1.3-1.7-1.3c-1.4,0.1-2.9,0-4.3,0c-0.7,0-1.1,0.2-1.4,0.8c-0.4,0.8-1.1,1.3-1.9,1.2c-3.8-0.1-7.6,0.1-11.3-0.4
		C4.4,38,3,35.7,3.6,31.6c0.9-5.8,4.8-7.6,9.1-7.9c2.3-0.2,4.8,0,7.1,0c0.2,0,0.4,0.1,0.6,0.1c-0.5,1.1-0.8,2.3-1.3,3.3
		c-0.2,0.3-0.7,0.5-1.1,0.5c-1.6,0.1-3.3,0-4.9,0.1c-2.9,0.1-4.4,1.4-4.9,4.2c-0.2,1.6,0.4,2.5,1.9,2.9c0.6,0.2,1.2,0.2,1.8,0.2
		c1.6,0,3.2-0.1,4.8,0.1c1.1,0.1,1.7-0.4,2.2-1.2c1.9-3.1,3.9-6.2,5.8-9.3c0.3-0.5,0.7-0.8,1.3-0.8c0.9,0.1,1.9,0.1,2.8,0
		c0.5,0,0.8,0.2,0.8,0.7c0.8,3.1,1.7,6.3,2.5,9.4c0.1,0.2,0.2,0.5,0.3,1c0.3-0.7,0.6-1.1,0.8-1.7c1.1-2.9,2.3-5.7,3.3-8.6
		c0.2-0.6,0.5-0.8,1.2-0.8c2.3,0.1,4.5,0,6.8,0c0.8,0,1.6,0.2,2.3,0.4c2.1,0.6,3.3,2.5,2.7,4.7c-0.6,2.3-2,3.9-4.4,4.4
		c-0.3,0.1-0.8,0.5-0.8,0.5c0.2,0.4,0.4,1.1,0.7,1.1c1.3,0.2,2.6,0.2,3.9,0.2c0.3,0,0.7-0.6,0.8-1c1.2-3.1,2.3-6.2,3.4-9.4
		c0.3-0.8,0.7-1,1.4-1c2.1,0.1,4.2,0,6.4,0c0.8,0,1.7,0.2,2.5,0.4c2,0.5,3.1,2.1,2.8,4.2c-0.3,2.3-2.1,4.2-4.3,4.8
		c-0.4,0.1-0.6,0.4-0.9,0.6c0.3,0.4,0.5,0.9,0.9,1.1c0.5,0.2,1.1,0.2,1.7,0.2c3.3-0.1,2.4,0.5,3.6-2.4c1.1-2.7,2-5.5,3.1-8.3
		c0.1-0.3,0.5-0.7,0.8-0.7c3.5-0.1,7,0,10.5,0c0.1,0,0.2,0.1,0.4,0.2c-0.4,1.1-0.8,2.3-1.3,3.3c-0.1,0.2-0.6,0.4-0.9,0.4
		c-1.4,0.1-2.7,0-4.1,0c-1.9,0-2,0.2-2.4,2.1c1.8,0,3.6,0,5.5,0c-0.4,1.1-0.6,2-1,2.9c-0.1,0.2-0.5,0.5-0.8,0.5c-1.1,0.1-2,0-3.1,0
		c-1.9,0-1.9,0-2.3,2c0.3,0,0.6,0.1,0.8,0.1c2.4,0,4.9,0,7.4,0c0.7,0,1-0.2,1.2-0.9c1.1-3.3,2.4-6.5,3.6-9.8
		c0.2-0.5,0.5-0.8,1.1-0.8c2.3,0.1,4.7,0,7,0.1c0.8,0,1.7,0.2,2.5,0.5c1.9,0.6,2.9,2.3,2.4,4.3c-0.5,2.4-1.9,4-4.3,4.7
		c-0.3,0.1-0.6,0.4-0.9,0.6c0.2,0.4,0.5,1,0.8,1c1.2,0.2,2.5,0.2,3.8,0.2c0.3,0,0.6-0.5,0.8-0.8c2.1-3.3,4.2-6.4,6.3-9.7
		c0.4-0.5,0.7-0.8,1.4-0.8c0.8,0.1,1.5,0.1,2.3,0s1,0.3,1.1,0.9c1.1,4.2,2.3,8.5,3.5,12.7c0.1,0.3,0.2,0.6,0.4,0.9
		C113,38.5,113,38.7,113,38.9z M27.1,28.9c-0.1,0-0.2,0-0.2,0c-0.9,1.6-1.9,3.2-2.9,4.8c1.5,0,2.9,0,4.3,0
		C27.9,32.1,27.5,30.5,27.1,28.9z M106.2,29c-0.1,0-0.2,0-0.2-0.1c-0.9,1.6-1.9,3.1-2.9,4.8c1.5,0,2.9,0,4.3,0
		C107,32,106.6,30.5,106.2,29z"/>
	<g>
		<polygon class="st6" points="4.9,45.4 7.4,45.4 7.4,44.5 5.8,44.5 5.8,43.9 7.4,43.9 7.4,43 5.8,43 5.8,42.6 7.4,42.6 7.4,41.8 
			4.9,41.8 		"/>
		<polygon class="st6" points="12.2,43 11.5,41.8 10.5,41.8 11.8,43.9 11.8,45.4 12.7,45.4 12.7,43.9 14,41.8 12.9,41.8 		"/>
		<polygon class="st6" points="17.1,45.4 19.6,45.4 19.6,44.5 18,44.5 18,43.9 19.6,43.9 19.6,43 18,43 18,42.6 19.6,42.6 
			19.6,41.8 17.1,41.8 		"/>
		<polygon class="st6" points="26.1,43.6 25.6,41.8 25.2,41.8 25.2,41.6 25.2,41.8 24.8,41.8 24.3,43.6 23.9,41.8 23,41.8 
			23.9,45.4 24.3,45.4 24.3,45.7 24.4,45.4 24.8,45.4 25.2,43.6 25.7,45.4 26,45.4 26.1,45.7 26.2,45.4 26.5,45.4 27.4,41.8 
			26.5,41.8 		"/>
		<polygon class="st6" points="30.9,45.4 33.5,45.4 33.5,44.5 31.8,44.5 31.8,43.9 33.5,43.9 33.5,43 31.8,43 31.8,42.6 33.5,42.6 
			33.5,41.8 30.9,41.8 		"/>
		<path class="st6" d="M38.4,41.8l-0.1-0.2l-0.1,0.2h-0.4l-1.3,3.6h0.9l0.3-0.8h1l0.3,0.8h1l-1.3-3.6H38.4z M38.1,43.7l0.2-0.5
			l0.2,0.5H38.1z"/>
		<path class="st6" d="M45.7,43.6L45.7,43.6c0.2-0.2,0.2-0.5,0.2-0.7s-0.1-0.4-0.2-0.5s-0.2-0.2-0.4-0.4c-0.2-0.1-0.3-0.2-0.5-0.2
			s-0.3-0.1-0.5-0.1h-1.1v3.6h0.9v-1.2h0.2l1.1,1.2h1.2l-1.3-1.5C45.6,43.8,45.6,43.7,45.7,43.6z M44.8,42.6c0.1,0,0.1,0,0.2,0.1
			l0.1,0.1c0,0,0,0.1,0,0.2s0,0.2,0,0.2c0,0.1-0.1,0.1-0.1,0.1s-0.1,0.1-0.2,0.1s-0.2,0-0.3,0h-0.2v-0.7h0.2
			C44.6,42.6,44.7,42.6,44.8,42.6z"/>
		<path class="st6" d="M56.6,43.3L56.6,43.3c-0.2,0-0.3-0.1-0.5-0.1s-0.3-0.1-0.4-0.1C55.6,43,55.6,43,55.6,43s0-0.1,0-0.2
			s0-0.1,0.1-0.2c0.2-0.2,0.6-0.2,0.9,0c0.2,0.1,0.3,0.2,0.4,0.2L57,43h0.4v-0.9L57.2,42c-0.2-0.1-0.3-0.2-0.5-0.2
			c-0.2-0.1-0.5-0.1-0.7-0.1c-0.4,0-0.8,0.1-1,0.3c-0.3,0.2-0.5,0.5-0.5,0.8s0.1,0.5,0.3,0.8c0.2,0.2,0.5,0.3,0.8,0.4
			c0.2,0,0.3,0.1,0.4,0.1s0.2,0,0.3,0.1c0.2,0,0.2,0.1,0.2,0.1c0,0,0,0.1,0,0.2s0,0.2-0.1,0.2c-0.2,0.2-0.5,0.2-1,0
			c-0.2-0.1-0.3-0.2-0.5-0.2L55,44.3h-0.4v0.9l0.2,0.1c0.2,0.1,0.4,0.2,0.6,0.2c0.2,0.1,0.5,0.1,0.7,0.1s0.5,0,0.6-0.1
			c0.2-0.1,0.3-0.2,0.5-0.2c0.2-0.1,0.2-0.2,0.3-0.4c0.1-0.2,0.1-0.3,0.1-0.5c0-0.3-0.1-0.5-0.2-0.7C57.1,43.4,56.9,43.3,56.6,43.3z
			"/>
		<polygon class="st6" points="61,42.6 61.4,42.6 61.4,44.6 61,44.6 61,45.4 62.8,45.4 62.8,44.6 62.3,44.6 62.3,42.6 62.8,42.6 
			62.8,41.8 61,41.8 		"/>
		<polygon class="st6" points="68.4,43.6 67.4,41.8 67,41.8 66.8,41.4 66.8,41.8 66.4,41.8 66.4,45.4 67.2,45.4 67.2,43.3 
			68.4,45.4 68.7,45.4 68.8,45.6 68.8,45.4 69.2,45.4 69.2,41.8 68.4,41.8 		"/>
		<path class="st6" d="M75.2,41.8c-0.5-0.1-0.9-0.1-1.3,0.1c-0.2,0.1-0.4,0.2-0.5,0.4s-0.3,0.4-0.4,0.6c-0.1,0.2-0.2,0.5-0.2,0.8
			s0.1,0.5,0.2,0.8c0.1,0.2,0.2,0.5,0.4,0.6c0.2,0.2,0.4,0.3,0.6,0.4c0.2,0.1,0.5,0.1,0.7,0.1c0.2,0,0.2,0,0.4,0
			c0.1,0,0.2-0.1,0.3-0.1c0.1,0,0.2-0.1,0.3-0.1c0.1,0,0.2-0.1,0.2-0.1l0.2-0.1v-0.9h-0.4l-0.1,0.1c-0.2,0.2-0.3,0.2-0.4,0.2
			c-0.2,0.1-0.5,0.2-0.8,0c-0.1,0-0.2-0.1-0.2-0.2C74,44.4,74,44.3,74,44.2c-0.1-0.2-0.1-0.3-0.1-0.5s0-0.4,0.1-0.5
			C74,43.1,74,43,74.1,43c0.1-0.1,0.2-0.2,0.2-0.2c0.2-0.1,0.5-0.1,0.8,0c0.2,0.1,0.3,0.2,0.5,0.3l0.1,0.1H76v-0.9l-0.2-0.1
			C75.6,42,75.3,41.9,75.2,41.8z"/>
		<polygon class="st6" points="79.4,45.4 81.9,45.4 81.9,44.5 80.3,44.5 80.3,43.9 81.9,43.9 81.9,43 80.3,43 80.3,42.6 81.9,42.6 
			81.9,41.8 79.4,41.8 		"/>
		<path class="st6" d="M92.2,41.8h-0.8V42c0,0.1,0,0.1,0,0.1s0,0.1-0.1,0.1c0,0-0.1,0-0.2,0c-0.1,0-0.2,0-0.2,0h-0.3V43h0.7v1.6
			h-0.7v0.8h2.2v-0.8h-0.6V41.8z"/>
		<path class="st6" d="M98.8,42.1L98.8,42.1c-0.2-0.2-0.2-0.2-0.5-0.2c-0.2-0.1-0.3-0.1-0.5-0.1c-0.4,0-0.7,0.2-0.9,0.4
			c-0.2,0.2-0.4,0.5-0.4,1c0,0.2,0.1,0.4,0.2,0.6c0.1,0.2,0.2,0.3,0.4,0.5c0.2,0.1,0.2,0.2,0.4,0.2c0.2,0.1,0.5,0.1,0.8,0
			c0,0.1-0.1,0.2-0.2,0.2c-0.2,0.2-0.3,0.2-0.5,0.2c-0.1,0-0.2,0-0.2,0c-0.1,0-0.1,0-0.2-0.1h-0.1h-0.3v0.8l0.2,0.1
			c0.1,0,0.2,0,0.2,0.1c0.1,0,0.2,0,0.2,0c0.3,0,0.5-0.1,0.8-0.2c0.2-0.1,0.4-0.2,0.5-0.5c0.2-0.2,0.2-0.4,0.3-0.7
			c0.1-0.2,0.1-0.5,0.1-0.8s0-0.6-0.1-0.8C99,42.4,98.9,42.3,98.8,42.1z M97.5,42.6c0.1-0.1,0.2-0.1,0.3-0.1c0.1,0,0.2,0,0.2,0
			c0.1,0,0.1,0.1,0.2,0.1c0.1,0.1,0.1,0.2,0.2,0.2c0,0.1,0.1,0.2,0.1,0.5c0,0,0,0,0,0.1c-0.1,0-0.1,0-0.2,0.1
			c-0.2,0.1-0.4,0.1-0.5,0c-0.1,0-0.1,0-0.2-0.1c-0.1,0-0.1-0.1-0.1-0.2c0,0,0-0.1,0-0.2C97.4,42.9,97.4,42.7,97.5,42.6z"/>
		<path class="st6" d="M104.8,43.3c-0.2-0.1-0.3-0.2-0.5-0.2s-0.3-0.1-0.5-0.1h-0.1v-0.3h1.4v-0.8h-2.3V44l0.3-0.1
			c0.1,0,0.2,0,0.3-0.1c0.2,0,0.5,0,0.6,0c0.1,0,0.2,0.1,0.2,0.1l0.1,0.1c0,0.1,0,0.1,0,0.2s0,0.2,0,0.2c0,0.1-0.1,0.1-0.1,0.2
			c-0.1,0.1-0.1,0.1-0.2,0.1c-0.2,0.1-0.4,0-0.6,0c-0.2-0.1-0.2-0.1-0.4-0.2H103h-0.2v0.8l0.2,0.1c0.2,0.1,0.3,0.1,0.5,0.2
			s0.4,0.1,0.5,0.1c0.2,0,0.4,0,0.5-0.1s0.3-0.2,0.5-0.3c0.2-0.2,0.2-0.2,0.3-0.5c0.1-0.2,0.1-0.3,0.1-0.5c0-0.2-0.1-0.4-0.2-0.5
			C105.1,43.5,105,43.3,104.8,43.3z"/>
		<path class="st6" d="M111.4,43.6c-0.1-0.2-0.2-0.3-0.4-0.5c-0.2-0.1-0.2-0.2-0.4-0.2c-0.2-0.1-0.5-0.1-0.8,0
			c0-0.1,0.1-0.2,0.2-0.2c0.2-0.2,0.3-0.2,0.5-0.2c0.1,0,0.2,0,0.2,0c0.1,0,0.2,0,0.2,0h0.1h0.3v-0.8l-0.2-0.1
			c-0.1,0-0.2-0.1-0.2-0.1c-0.1,0-0.2,0-0.2,0c-0.3,0-0.5,0.1-0.8,0.2c-0.2,0.1-0.5,0.2-0.5,0.5c-0.2,0.2-0.2,0.4-0.3,0.7
			c-0.1,0.2-0.1,0.5-0.1,0.8s0,0.5,0.1,0.8c0.1,0.2,0.2,0.4,0.3,0.5c0.2,0.2,0.2,0.2,0.4,0.2c0.2,0.1,0.3,0.1,0.5,0.1
			c0.4,0,0.7-0.2,0.9-0.4c0.2-0.2,0.4-0.5,0.4-1C111.6,43.9,111.5,43.7,111.4,43.6z M109.7,43.9c0.1,0,0.1-0.1,0.2-0.1
			c0.2-0.1,0.3-0.1,0.5,0c0.1,0,0.1,0,0.2,0.1c0.1,0,0.1,0.1,0.1,0.2s0,0.2,0,0.2c0,0.2,0,0.3-0.1,0.4c-0.1,0.1-0.2,0.1-0.3,0.1
			c-0.1,0-0.1,0-0.2,0c-0.1,0-0.1-0.1-0.2-0.1c-0.1-0.1-0.1-0.2-0.2-0.2C109.7,44.2,109.7,44.2,109.7,43.9L109.7,43.9z"/>
	</g>
</g>
</svg>
