<?xml version="1.0" encoding="utf-8"?>
<!-- Generator: Adobe Illustrator 24.2.3, SVG Export Plug-In . SVG Version: 6.00 Build 0)  -->
<svg version="1.1" id="Layer_1" xmlns="http://www.w3.org/2000/svg" xmlns:xlink="http://www.w3.org/1999/xlink" x="0px" y="0px"
	 viewBox="0 0 1920 400" style="enable-background:new 0 0 1920 400;" xml:space="preserve">
<style type="text/css">
	.st0{opacity:0.32;clip-path:url(#SVGID_2_);}
	.st1{stroke:#878EFF;stroke-miterlimit:10;}
	.st2{fill:#FFFFFF;}
	.st3{fill:#FFFFFF;stroke:#000000;stroke-miterlimit:10;}
	.st4{fill:none;stroke:#000000;stroke-miterlimit:10;}
	.st5{fill:none;stroke:#000000;stroke-width:2;stroke-miterlimit:10;}
	.st6{fill:#FEFEFE;}
	.st7{fill:#FE7501;}
	.st8{fill:#105BA6;}
	.st9{fill:#EFA459;}
	.st10{fill:#C0D67E;}
	.st11{fill:#EFA458;}
	.st12{fill:#165BA5;}
	.st13{fill:none;}
	.st14{fill:#636DA5;}
	.st15{fill:#A36262;}
	.st16{fill:#62A386;}
	.st17{fill:#628DA3;}
	.st18{fill:#FCBD88;}
	.st19{fill:#DD8E47;}
	.st20{fill:#F4D037;}
	.st21{fill:#3B5998;}
	.st22{fill:url(#SVGID_3_);}
	.st23{opacity:0.1;fill:#2B0C00;}
	.st24{fill:#A53A3A;}
	.st25{fill:#FF0000;}
	.st26{fill:#D88E4C;}
	.st27{fill:#EFEFEF;}
	.st28{opacity:0.99;fill:#EFEFEF;}
	.st29{fill:#D3D3D3;}
	.st30{fill:none;stroke:#FFE382;stroke-width:0.1;stroke-miterlimit:10;}
	.st31{fill:#08365B;}
	.st32{opacity:0.44;fill:#D8D8D8;}
	.st33{fill:#F7D0AD;}
	.st34{fill:#939597;}
	.st35{fill:#D8D8D8;}
	.st36{fill:#FFFFFF;stroke:#939597;stroke-width:0.25;stroke-miterlimit:10;}
	.st37{fill:#282828;}
	.st38{fill:none;stroke:#282828;stroke-width:2;stroke-miterlimit:10;}
	.st39{fill:none;stroke:#EFA459;stroke-width:2;stroke-miterlimit:10;}
	.st40{opacity:0.1;fill:#FFFFFF;stroke:#FFFFFF;stroke-miterlimit:10;}
	.st41{fill:none;stroke:#FFFFFF;stroke-miterlimit:10;}
	.st42{fill:none;stroke:#05FF71;stroke-width:3;stroke-miterlimit:10;}
	.st43{fill:none;stroke:#9EEA00;stroke-miterlimit:10;}
	.st44{fill:none;stroke:#000000;stroke-width:6;stroke-miterlimit:10;}
	.st45{fill:#CC7627;}
	.st46{fill:#5A5B51;}
	.st47{fill:#424337;}
	.st48{fill:#7A7A7A;}
	.st49{fill:#8AA7CC;}
	.st50{fill:#FDFDFD;}
	.st51{fill:#7898BA;}
	.st52{fill:#9BB9D7;}
	.st53{fill:#DBDBDB;}
	.st54{fill:#656768;}
	.st55{fill:#7795B3;}
	.st56{fill:#FCFCFB;}
	.st57{fill:#D2D2D1;}
	.st58{fill:#FC9477;}
	.st59{fill:#595A50;}
	.st60{fill:none;stroke:#2BFF22;stroke-miterlimit:10;}
	.st61{clip-path:url(#SVGID_7_);}
	.st62{clip-path:url(#SVGID_11_);}
	.st63{clip-path:url(#SVGID_15_);}
	.st64{clip-path:url(#SVGID_19_);}
	.st65{clip-path:url(#SVGID_23_);}
	.st66{clip-path:url(#SVGID_27_);}
	.st67{clip-path:url(#SVGID_31_);}
	.st68{clip-path:url(#SVGID_35_);}
	.st69{clip-path:url(#SVGID_39_);}
	.st70{clip-path:url(#SVGID_43_);}
	.st71{clip-path:url(#SVGID_49_);}
	.st72{clip-path:url(#SVGID_53_);}
	.st73{clip-path:url(#SVGID_57_);}
	.st74{clip-path:url(#SVGID_61_);}
	.st75{clip-path:url(#SVGID_65_);}
	.st76{clip-path:url(#SVGID_69_);}
	.st77{clip-path:url(#SVGID_73_);}
	.st78{clip-path:url(#SVGID_77_);}
	.st79{clip-path:url(#SVGID_81_);}
	.st80{clip-path:url(#SVGID_85_);}
	.st81{clip-path:url(#SVGID_91_);}
	.st82{clip-path:url(#SVGID_95_);}
	.st83{clip-path:url(#SVGID_99_);}
	.st84{clip-path:url(#SVGID_103_);}
	.st85{clip-path:url(#SVGID_107_);}
	.st86{clip-path:url(#SVGID_111_);}
	.st87{clip-path:url(#SVGID_115_);}
	.st88{clip-path:url(#SVGID_119_);}
	.st89{clip-path:url(#SVGID_123_);}
	.st90{clip-path:url(#SVGID_127_);}
	.st91{fill:#FFC053;}
	.st92{fill:#6DD5FF;}
	.st93{fill:#41FF47;}
	.st94{fill:#FFD1B6;}
	.st95{fill:#935300;}
	.st96{fill:none;stroke:#002EED;stroke-width:10;stroke-miterlimit:10;}
	.st97{fill:#FFE6FD;}
	.st98{clip-path:url(#SVGID_131_);}
	.st99{fill:#003D47;}
	.st100{fill:#023035;}
	.st101{fill:#1E5663;}
	.st102{fill:#6B9FA4;}
	.st103{fill:#B5DFE9;}
	.st104{fill:#B3DDE7;}
	.st105{fill:#02292B;}
	.st106{fill:#E88E23;}
	.st107{fill:#1B1E1E;}
	.st108{fill:#03292B;}
	.st109{fill:#BC6E29;}
	.st110{fill:#013D47;}
	.st111{fill:#6F7070;}
	.st112{fill:#0A1347;}
	.st113{opacity:0.5;}
	.st114{fill:#2C41BD;}
	.st115{opacity:0.5;fill:#0A1347;}
	.st116{fill:#D15B3C;}
	.st117{opacity:0.5;fill:#F1775A;}
	.st118{fill:#FFC96E;}
	.st119{opacity:0.5;fill:#FFC96E;}
	.st120{fill:#D68E2B;}
	.st121{opacity:0.5;fill:#D15B3C;}
	.st122{fill:#B0F0FF;}
	.st123{opacity:0.5;fill:#B0F0FF;}
	.st124{fill:#111E5F;}
	.st125{fill:#F99678;}
	.st126{opacity:0.5;fill:#F18666;}
	.st127{fill:#FF6C71;}
	.st128{opacity:0.5;fill:#FF6C71;}
	.st129{fill:#FFA4A8;}
	.st130{fill:#812D00;}
	.st131{fill:#BF4700;}
	.st132{opacity:0.5;fill:#812D00;}
	.st133{fill:#F98764;}
	.st134{fill:#F18666;}
	.st135{opacity:0.5;fill:#F99678;}
	.st136{fill:#F0BB83;}
	.st137{fill:#E2F9FF;}
	.st138{fill:#5B4152;}
	.st139{fill:#C080C4;}
	.st140{fill:#EA872D;}
	.st141{fill:none;stroke:#D81400;stroke-width:16;stroke-miterlimit:10;}
</style>
<polygon points="447.2,231.6 429.4,199.1 447.2,168.6 452.4,171.6 436.3,199.2 452.5,228.7 "/>
<polygon points="1493.1,231.6 1487.9,228.5 1504.1,201 1487.9,171.5 1493.1,168.6 1511,201.1 "/>
<g>
	<rect x="0.1" y="0.4" class="st27" width="1920" height="400"/>
	<path d="M1920.6,400.9H-0.4v-401h1921V400.9z M0.6,399.9h1919V0.9H0.6V399.9z"/>
</g>
<g>
	<path class="st51" d="M937.6,97.1v7.2h6.1v-7.2h3.7v18.6h-3.7v-8.2h-6.1v8.2h-3.7V97.1H937.6z"/>
	<path class="st51" d="M949.4,103.9c0-1.2,0.2-2.3,0.5-3.2c0.4-0.9,0.9-1.7,1.5-2.3c0.7-0.6,1.5-1.1,2.4-1.4s2-0.5,3.2-0.5
		c1.2,0,2.2,0.2,3.2,0.5s1.8,0.8,2.4,1.4c0.7,0.6,1.2,1.4,1.6,2.3c0.4,0.9,0.6,2,0.6,3.2v4.8c0,1.2-0.2,2.3-0.6,3.2
		c-0.4,0.9-0.9,1.7-1.6,2.3c-0.7,0.6-1.5,1.1-2.4,1.4s-2,0.5-3.2,0.5c-1.2,0-2.2-0.2-3.2-0.5s-1.7-0.8-2.4-1.4
		c-0.7-0.6-1.2-1.4-1.5-2.3c-0.4-0.9-0.5-2-0.5-3.2V103.9z M953,108.2c0,1.7,0.3,2.9,1,3.6c0.7,0.7,1.7,1.1,3,1.1
		c1.3,0,2.3-0.4,3-1.1c0.7-0.7,1-1.9,1-3.6v-3.8c0-1.7-0.3-2.9-1-3.7c-0.7-0.7-1.7-1.1-2.9-1.1c-1.3,0-2.3,0.4-3,1.1
		c-0.7,0.7-1,2-1,3.7V108.2z"/>
	<path class="st51" d="M975.8,115.7l-3.5-6.1l-3.5,6.1h-4.1l5.6-9.6l-5.2-9h4.1l3.2,5.4c0.5-0.9,1.1-1.8,1.6-2.7
		c0.5-0.9,1-1.8,1.6-2.7h4l-5.2,9l5.5,9.6H975.8z"/>
	<path class="st51" d="M987.7,104.5l3.5-7.4h4.1l-5.9,11.6v6.9h-3.5v-6.9L980,97.1h4.1L987.7,104.5z"/>
	<path class="st51" d="M996.8,113.5h4.2v4h-4.2V113.5z"/>
	<path class="st51" d="M1003.8,113.5h4.2v4h-4.2V113.5z"/>
	<path class="st51" d="M1016.4,96.5h9.1l-1.8,10.1h-3.9l1.4-6.9h-4.9V96.5z M1034.5,116.2h-17v-8.3h17V116.2z M1021.2,111.1v2h9.6
		v-2H1021.2z M1029.7,100.1h1.3v-3.6h3.5v10.6h-3.5v-3.9h-1.3v3.9h-3.5V96.5h3.5V100.1z"/>
	<path class="st51" d="M1054.8,106.8h-3.7V103h-3.5l1.1,3.5h-3.4l-1.5-4.8l-0.4-1.2l-0.4,1.1l-2.2,4.9h-4.1l4.5-10h4.4l0.9,3h4.6
		v-3.1h3.7V106.8z M1043,116.1c-0.7,0-1.3-0.2-1.9-0.4c-0.5-0.3-1-0.6-1.3-1c-0.3-0.4-0.6-0.9-0.7-1.4c-0.2-0.5-0.2-1-0.2-1.6
		c0-0.5,0.1-1.1,0.2-1.6c0.1-0.5,0.4-1,0.7-1.4c0.3-0.4,0.8-0.7,1.3-1c0.5-0.3,1.2-0.4,2-0.4c0.7,0,1.4,0,2.1,0c0.7,0,1.3,0,1.9,0
		s1.3,0,1.9,0c0.7,0,1.3,0,2.1,0c0.8,0,1.4,0.1,2,0.4c0.5,0.3,1,0.6,1.3,1c0.3,0.4,0.6,0.9,0.7,1.4c0.1,0.5,0.2,1.1,0.2,1.6
		c0,0.5-0.1,1.1-0.2,1.6c-0.2,0.5-0.4,1-0.7,1.4c-0.3,0.4-0.8,0.8-1.3,1c-0.5,0.3-1.2,0.4-1.9,0.4c-0.7,0-1.4,0-2.1,0
		c-0.7,0-1.3,0-2,0s-1.3,0-2,0S1043.7,116.1,1043,116.1z M1050.5,112.9c0.4,0,0.8-0.1,1-0.3c0.2-0.2,0.3-0.5,0.3-0.9
		c0-0.4-0.1-0.7-0.3-0.9c-0.2-0.2-0.5-0.3-1-0.3c-0.7,0-1.3,0-1.8,0c-0.6,0-1.1,0-1.6,0s-1.1,0-1.6,0s-1.2,0-1.8,0
		c-0.4,0-0.8,0.1-1,0.3c-0.2,0.2-0.3,0.5-0.3,0.9c0,0.4,0.1,0.7,0.3,0.9c0.2,0.2,0.5,0.3,1,0.3c0.7,0,1.3,0,1.8,0c0.6,0,1.1,0,1.6,0
		s1.1,0,1.6,0C1049.2,112.9,1049.8,112.9,1050.5,112.9z"/>
	<path class="st51" d="M1057.9,96.5h9.3l-1.5,10.6h-3.9l0.3-2.5h-4.2v-3.2h4.6l0.3-1.8h-4.9V96.5z M1075.9,116.2h-17v-7.9h17V116.2z
		 M1062.6,111.5v1.5h9.6v-1.5H1062.6z M1071.1,100.1h1.3v-3.6h3.5v10.9h-3.5v-4.2h-1.3v4.2h-3.5V96.5h3.5V100.1z"/>
	<path class="st51" d="M1078.3,99.6v-3.1h12.7v3.1H1078.3z M1078.3,106.7v-3.1h1.8l0.3-3.2h3.5l-0.3,3.2h2l0.3-3.2h3.4l-0.3,3.2h2
		v3.1H1078.3z M1083.8,116.1c-0.7,0-1.3-0.1-1.9-0.4s-1-0.6-1.3-1c-0.3-0.4-0.6-0.8-0.7-1.3c-0.2-0.5-0.2-1-0.2-1.6s0.1-1.1,0.2-1.6
		c0.1-0.5,0.4-1,0.7-1.3c0.3-0.4,0.8-0.7,1.3-0.9c0.5-0.2,1.2-0.4,2-0.4c0.7,0,1.4,0,2.1,0s1.3,0,2,0c0.7,0,1.3,0,2,0
		c0.7,0,1.4,0,2.1,0c0.8,0,1.4,0.1,2,0.4c0.5,0.2,1,0.6,1.3,0.9c0.3,0.4,0.6,0.8,0.7,1.4c0.1,0.5,0.2,1,0.2,1.6s-0.1,1.1-0.2,1.6
		c-0.2,0.5-0.4,1-0.7,1.3c-0.3,0.4-0.8,0.7-1.3,1s-1.2,0.4-1.9,0.4c-1.5,0-2.8,0-4.2,0S1085.3,116.1,1083.8,116.1z M1091.6,112.9
		c0.4,0,0.8-0.1,1-0.3s0.3-0.4,0.3-0.8c0-0.4-0.1-0.7-0.3-0.9c-0.2-0.1-0.5-0.2-1-0.3c-0.7,0-1.3,0-1.9,0c-0.6,0-1.2,0-1.7,0
		s-1.1,0-1.7,0s-1.2,0-1.9,0c-0.4,0-0.8,0.1-1,0.3c-0.2,0.1-0.3,0.4-0.3,0.9c0,0.4,0.1,0.7,0.3,0.8c0.2,0.1,0.5,0.2,1,0.3
		c0.7,0,1.3,0,1.9,0s1.2,0,1.7,0s1.1,0,1.7,0C1090.3,112.9,1090.9,112.9,1091.6,112.9z M1096.2,106.8h-3.7V96.4h3.7V106.8z"/>
	<path class="st51" d="M1110.3,111v2h13.4v3.2h-17.1v-6.3h3.1v-1.5h-4.5v-3.1h13.3v3.1h-4.6v2.6H1110.3z M1105.7,100.4
		c0-0.9,0.1-1.6,0.4-2.1s0.6-0.9,1.1-1.2c0.4-0.3,0.9-0.5,1.5-0.6c0.6-0.1,1.1-0.2,1.7-0.2h2.2c0.5,0,1,0.1,1.5,0.1
		c0.5,0.1,0.9,0.2,1.4,0.4s0.8,0.5,1.1,0.9s0.5,0.8,0.7,1.4h2.5v-2.7h3.7v14.4h-3.7v-8.3h-2.8c-0.2,0.4-0.5,0.7-0.8,1
		s-0.7,0.5-1,0.6c-0.4,0.1-0.8,0.2-1.2,0.3s-0.8,0.1-1.3,0.1h-2.2c-0.6,0-1.2-0.1-1.7-0.2c-0.6-0.1-1.1-0.3-1.5-0.6
		c-0.4-0.3-0.8-0.7-1.1-1.2S1105.7,101.3,1105.7,100.4z M1109.3,100.4c0,0.4,0.1,0.8,0.4,0.9c0.3,0.2,0.7,0.3,1.4,0.3h0.8
		c0.6,0,1.1-0.1,1.3-0.3c0.3-0.2,0.4-0.5,0.4-0.9s-0.1-0.8-0.4-0.9c-0.3-0.2-0.7-0.3-1.4-0.3h-0.8c-0.7,0-1.1,0.1-1.4,0.3
		C1109.4,99.7,1109.3,100,1109.3,100.4z"/>
	<path class="st51" d="M1126,101.8v-3.1h3.8l0.4-2.6h4.9l-0.4,2.6h3.3v3.1H1126z M1136.7,111.9c-0.1,0.7-0.3,1.3-0.6,1.8
		c-0.3,0.5-0.8,0.9-1.3,1.2c-0.5,0.3-1,0.5-1.6,0.6c-0.6,0.1-1.2,0.2-1.7,0.2c-0.8,0-1.5-0.1-2.2-0.2c-0.7-0.1-1.3-0.4-1.7-0.7
		c-0.5-0.3-0.9-0.7-1.1-1.2s-0.4-1.1-0.3-1.9l0.4-5.1c0.1-0.8,0.3-1.5,0.6-2.1c0.4-0.5,0.8-1,1.3-1.3c0.5-0.3,1.1-0.5,1.7-0.6
		s1.2-0.2,1.9-0.2c0.6,0,1.2,0.1,1.9,0.2c0.6,0.1,1.2,0.4,1.7,0.7s0.9,0.7,1.2,1.2c0.3,0.5,0.4,1.1,0.4,1.9L1136.7,111.9z
		 M1133.6,107.2c0-0.4,0-0.7,0-1s-0.2-0.4-0.3-0.6c-0.2-0.1-0.3-0.2-0.5-0.3s-0.4-0.1-0.6-0.1c-0.2,0-0.4,0-0.6,0.1
		s-0.4,0.1-0.6,0.3c-0.2,0.1-0.3,0.3-0.4,0.6c-0.1,0.3-0.2,0.6-0.3,1.1l-0.3,3.6c0,0.4,0,0.7,0.1,0.9c0.1,0.2,0.2,0.4,0.4,0.5
		s0.4,0.2,0.6,0.2c0.2,0,0.4,0,0.6,0s0.3,0,0.5-0.1s0.3-0.1,0.5-0.2c0.2-0.1,0.3-0.3,0.4-0.5c0.1-0.2,0.2-0.5,0.3-0.9L1133.6,107.2z
		 M1145.7,107.5h-2.6v8.2h-3.7V96.4h3.7v8h2.6V107.5z"/>
	<path class="st51" d="M1159,115.5h-3.5l-2.1-11.4l-0.2-1.5l-3.1,12.8h-4.1l4.9-19h4.6L1159,115.5z M1164.5,115.7h-3.7V96.4h3.7
		V115.7z"/>
	<path class="st51" d="M1178.4,115.5H1168v-19h3.7v15.7h6.7V115.5z M1187.2,106.9h-2.6v8.8h-3.7V96.4h3.7v7.3h2.6V106.9z"/>
	<path class="st51" d="M1191.1,112.5v-4.8c-0.7-0.5-1.2-1.2-1.6-2.1c-0.4-0.9-0.6-1.9-0.6-3c0-0.9,0.1-1.8,0.4-2.5s0.7-1.4,1.2-2
		c0.5-0.6,1-1,1.7-1.3c0.7-0.3,1.4-0.5,2.1-0.5c0.7,0,1.2,0,1.6,0s0.8,0,1.2,0c0.4,0,0.8,0,1.2,0s1,0,1.6,0c0.7,0,1.4,0.2,2.1,0.5
		c0.7,0.3,1.2,0.7,1.7,1.3c0.5,0.5,0.9,1.2,1.2,2c0.3,0.8,0.4,1.6,0.4,2.5c0,1.1-0.2,2.1-0.6,2.9c-0.4,0.9-0.9,1.6-1.6,2.1v4.9h3.3
		v3.2H1188v-3.2H1191.1z M1192.6,102.6c0,0.4,0.1,0.8,0.2,1.2c0.1,0.4,0.3,0.7,0.5,0.9c0.2,0.3,0.5,0.5,0.8,0.6s0.6,0.3,0.9,0.3
		c0.4,0,0.8,0,1.2,0s0.7,0,1,0s0.6,0,0.9,0c0.3,0,0.7,0,1.2,0c0.3,0,0.6-0.1,0.9-0.2s0.5-0.4,0.8-0.6c0.2-0.3,0.4-0.6,0.5-1
		c0.1-0.4,0.2-0.8,0.2-1.2c0-0.4-0.1-0.8-0.2-1.2c-0.1-0.4-0.3-0.7-0.5-1s-0.5-0.5-0.8-0.6c-0.3-0.2-0.6-0.2-0.9-0.2
		c-0.4,0-0.8,0-1.1,0c-0.3,0-0.6,0-0.9,0c-0.3,0-0.6,0-1,0s-0.7,0-1.2,0c-0.3,0-0.6,0.1-0.9,0.3s-0.6,0.4-0.8,0.6
		c-0.2,0.3-0.4,0.6-0.5,1C1192.7,101.7,1192.6,102.1,1192.6,102.6z M1199.2,108.9c-0.4,0-0.8,0-1.1,0c-0.3,0-0.6,0-0.9,0
		c-0.3,0-0.6,0-1,0c-0.3,0-0.7,0-1.1,0v3.6h4.1V108.9z"/>
	<path class="st51" d="M1214.2,95.8c0.9,0,1.7,0.1,2.4,0.4c0.7,0.2,1.3,0.6,1.8,1c0.5,0.4,0.9,0.9,1.2,1.5c0.3,0.6,0.4,1.2,0.4,1.9
		c0,0.8-0.1,1.5-0.3,2c-0.2,0.6-0.5,1-0.8,1.5c-0.3,0.4-0.6,0.8-1,1.1c-0.4,0.3-0.7,0.7-1,1s-0.6,0.7-0.8,1.1
		c-0.2,0.4-0.3,0.9-0.3,1.4v2h-3.7v-2.1c0-1,0.2-1.8,0.5-2.5c0.4-0.7,0.8-1.4,1.4-2c0.3-0.3,0.5-0.5,0.8-0.7
		c0.3-0.2,0.5-0.5,0.7-0.7c0.2-0.2,0.4-0.5,0.5-0.8s0.2-0.6,0.2-1c0-0.6-0.2-1.1-0.7-1.4c-0.4-0.3-0.9-0.5-1.5-0.5
		c-0.8,0-1.3,0.2-1.7,0.6c-0.4,0.4-0.6,1.1-0.6,1.9h-3.7c0-1,0.2-1.9,0.5-2.6c0.3-0.7,0.7-1.3,1.3-1.8c0.5-0.5,1.2-0.8,1.9-1
		S1213.3,95.8,1214.2,95.8z M1211.8,112.2h4.3v4h-4.3V112.2z"/>
</g>
<path class="st54" d="M1325.5,193.2h-1.5l2.6-69H1297l-211.4,1.1c-0.5,0-1,0-1.5,0c-1.8,0-3.6,0-5.2,0c-1.6,0-3.4,0-5.2,0
	c-1.5,0-3.3,0.1-5.5,0.1l-143,0.7h-58.3v36H861v24.8h5.9v33.4l-1.3,2.1l84.7,178.3l292.1-0.1l83.2-178.3l0-0.1V193.2z"/>
<g>
	<path class="st50" d="M940.6,163.4h-24.9v4.6h30.8v12.8H867V168h30.8v-4.6h-24.9v-31.3h67.7V163.4z M940.6,216.2h-67.7v-31.4h67.7
		V216.2z M888.8,150.8h35.9v-6.2h-35.9V150.8z M888.8,203.6h35.9v-6.3h-35.9V203.6z"/>
	<path class="st50" d="M953.7,132.1h46.4v46.7h-46.4v-30.4V132.1z M1027.9,202.7v13.6h-70.1v-30.7h15.9v17.1H1027.9z M984.1,165.2
		v-19.6h-14.5v19.6H984.1z M1036.1,166.3h-10.8v23h-15.9V132h15.9v20.8h10.8V166.3z"/>
	<path class="st50" d="M1070.1,200.5V185c-0.5,0-1,0-1.6,0c-0.5,0-1,0-1.6-0.1c-3.3-0.1-6.3-0.8-9.1-2.1c-2.8-1.3-5.2-3.2-7.3-5.6
		c-2.1-2.4-3.7-5.2-4.9-8.4c-1.2-3.2-1.8-6.8-1.8-10.8c0-3.9,0.6-7.5,1.8-10.8c1.2-3.3,2.8-6.1,4.9-8.4c2.1-2.4,4.5-4.2,7.3-5.5
		c2.8-1.3,5.8-2,9-2c2.8-0.1,5.1-0.1,6.9-0.1c1.8,0,3.5,0,5.1,0c1.6,0,3.3,0,5.1,0c1.8,0,4.1,0.1,6.9,0.1c3.1,0.1,6.1,0.8,8.9,2.1
		c2.8,1.3,5.3,3.2,7.4,5.5c2.1,2.3,3.7,5.1,5,8.4s1.8,6.8,1.8,10.8c0,3.9-0.6,7.5-1.8,10.8s-2.9,6-5,8.4c-2.1,2.4-4.5,4.2-7.3,5.6
		c-2.8,1.3-5.7,2-8.9,2.1c-0.6,0.1-1.1,0.1-1.6,0.1s-1,0-1.5,0v15.5h30.7v13.6h-79.3v-13.6H1070.1z M1059.6,158.1
		c0,1.9,0.3,3.6,0.8,5.2c0.6,1.5,1.3,2.9,2.3,4c0.9,1.1,2.1,2.1,3.3,2.8s2.6,1.1,4,1.1c1.9,0.1,3.6,0.2,5,0.2c1.4,0,2.8,0,4.1,0
		c1.3,0,2.7,0,4,0c1.4,0,3-0.1,4.9-0.1c1.4,0,2.7-0.3,3.9-1c1.2-0.7,2.3-1.6,3.3-2.8c0.9-1.1,1.7-2.5,2.3-4.1
		c0.6-1.6,0.8-3.3,0.8-5.2c0-1.8-0.3-3.6-0.8-5.2c-0.6-1.6-1.3-3-2.3-4.1c-1-1.1-2.1-2-3.3-2.7c-1.2-0.7-2.6-1-3.9-1
		c-1.8-0.1-3.3-0.1-4.7-0.1c-1.4,0-2.7,0-4,0c-1.3,0-2.7,0-4.2,0c-1.5,0-3.2,0.1-5.1,0.1c-1.4,0.1-2.7,0.4-4,1.1
		c-1.3,0.7-2.4,1.6-3.3,2.7c-1,1.1-1.7,2.5-2.3,4.1C1059.9,154.6,1059.6,156.3,1059.6,158.1z"/>
	<path class="st50" d="M1181.5,214.1h-14.9v-39.7h-6.9l4.2,38.7h-14l-3.7-34.4l-1.2-15.8l-1.8,15.6l-6.3,34.6h-15.3l15.9-81.1h17.5
		l2.9,27.4h8.5V132h14.9V214.1z M1201.5,214.1h-14.9V132h14.9V214.1z"/>
	<path class="st50" d="M1225.4,200.5V180c-2.9-2.3-5.3-5.3-6.9-9.1s-2.5-8-2.5-12.8c0-3.9,0.6-7.5,1.8-10.8c1.2-3.3,2.8-6.1,4.9-8.4
		c2.1-2.4,4.5-4.2,7.3-5.5c2.8-1.3,5.8-2,9-2c2.8-0.1,5.1-0.1,6.9-0.1c1.8,0,3.5,0,5.1,0c1.6,0,3.3,0,5.1,0c1.8,0,4.1,0.1,6.9,0.1
		c3.1,0.1,6.1,0.8,8.9,2.1c2.8,1.3,5.3,3.2,7.4,5.5c2.1,2.3,3.7,5.1,5,8.4c1.2,3.2,1.8,6.8,1.8,10.8c0,4.7-0.8,8.9-2.5,12.6
		c-1.7,3.7-3.9,6.7-6.7,9v20.8h14.1v13.6h-79.3v-13.6H1225.4z M1231.6,158.1c0,1.9,0.3,3.6,0.8,5.2c0.6,1.5,1.3,2.9,2.3,4
		c0.9,1.1,2.1,2.1,3.3,2.8s2.6,1.1,4,1.1c1.9,0.1,3.6,0.2,5,0.2c1.4,0,2.8,0,4.1,0c1.3,0,2.7,0,4,0c1.4,0,3-0.1,4.9-0.1
		c1.4,0,2.7-0.3,3.9-1c1.2-0.7,2.3-1.6,3.3-2.8c0.9-1.1,1.7-2.5,2.3-4.1c0.6-1.6,0.8-3.3,0.8-5.2c0-1.8-0.3-3.6-0.8-5.2
		c-0.6-1.6-1.3-3-2.3-4.1c-1-1.1-2.1-2-3.3-2.7c-1.2-0.7-2.6-1-3.9-1c-1.8-0.1-3.3-0.1-4.7-0.1c-1.4,0-2.7,0-4,0c-1.3,0-2.7,0-4.2,0
		c-1.5,0-3.2,0.1-5.1,0.1c-1.4,0.1-2.7,0.4-4,1.1c-1.3,0.7-2.4,1.6-3.3,2.7c-1,1.1-1.7,2.5-2.3,4.1
		C1231.9,154.6,1231.6,156.3,1231.6,158.1z M1260,185c-1.8,0.1-3.3,0.1-4.7,0.1c-1.4,0-2.7,0-4,0c-1.3,0-2.7,0-4.1,0
		c-1.4,0-3-0.1-4.9-0.1v15.5h17.7V185z"/>
	<path class="st50" d="M1303.1,199.2h16.4v17h-16.4V199.2z M1320.4,130.2l-2.4,61.4h-12.7l-2.2-61.4H1320.4z"/>
</g>
<g>
	<path class="st58" d="M961.8,281.2h-7v-7.9h-12.1v-5.6h31.2v5.6h-12.1V281.2z M971.7,265H945v-16.8h26.7V265z M951.3,259.6h14.1
		v-6.1h-14.1V259.6z"/>
	<path class="st58" d="M996.2,255h-20.6v-5h6.5l0.6-2.7h8.1l-0.5,2.7h5.9V255z M981.6,268.7c-1,0-1.8-0.2-2.5-0.6
		c-0.7-0.4-1.3-0.9-1.7-1.5c-0.5-0.6-0.8-1.3-1-2c-0.2-0.7-0.3-1.5-0.3-2.1c0-0.7,0.1-1.4,0.3-2.1c0.2-0.7,0.5-1.4,0.9-2
		c0.4-0.6,1-1.1,1.7-1.5s1.6-0.6,2.7-0.6c1,0,1.7,0,2.4,0c0.6,0,1.2,0,1.8,0c0.6,0,1.2,0,1.8,0s1.4,0,2.4,0c1.1,0,1.9,0.2,2.7,0.6
		s1.3,0.9,1.7,1.4c0.4,0.6,0.8,1.2,0.9,2c0.2,0.7,0.3,1.5,0.3,2.1c0,0.7-0.1,1.4-0.3,2.1c-0.2,0.7-0.6,1.4-1,2
		c-0.5,0.6-1,1.1-1.7,1.5c-0.7,0.4-1.5,0.6-2.5,0.6c-1,0-1.8,0-2.4,0.1c-0.6,0-1.3,0-1.8,0c-0.6,0-1.2,0-1.8,0
		C983.4,268.7,982.6,268.7,981.6,268.7z M1006.1,276v5.3h-27.6v-10.5h6.3v5.2H1006.1z M988,264.2c0.5-0.1,0.9-0.2,1.2-0.5
		c0.2-0.3,0.3-0.7,0.3-1.2c0-0.5-0.1-0.9-0.3-1.2c-0.2-0.3-0.6-0.5-1.2-0.5c-0.5,0-0.9,0-1.2,0c-0.3,0-0.6,0-0.8,0
		c-0.3,0-0.5,0-0.8,0c-0.3,0-0.7,0-1.2,0c-0.5,0.1-0.9,0.2-1.2,0.5s-0.3,0.7-0.3,1.2c0,0.5,0.1,0.9,0.3,1.2s0.6,0.5,1.2,0.5
		c0.5,0,0.9,0,1.2,0.1c0.3,0,0.6,0,0.8,0c0.3,0,0.5,0,0.8,0C987,264.2,987.4,264.2,988,264.2z M1009.3,262.1h-4.3v9.4h-6.3v-23.3
		h6.3v8.6h4.3V262.1z"/>
	<path class="st58" d="M1041.4,254.4h-20.6v-4.5h6.5l0.5-2.6h8.1l-0.5,2.6h5.8V254.4z M1026.9,265.8c-1,0-1.8-0.2-2.5-0.4
		c-0.7-0.3-1.3-0.6-1.7-1.1c-0.5-0.5-0.8-1-1-1.6c-0.2-0.6-0.3-1.3-0.3-2c0-0.7,0.1-1.4,0.3-2c0.2-0.6,0.5-1.1,0.9-1.6
		c0.4-0.4,1-0.8,1.7-1.1c0.7-0.3,1.6-0.4,2.7-0.4c1,0,1.7,0,2.4,0c0.6,0,1.2,0,1.8,0c0.6,0,1.2,0,1.8,0s1.4,0,2.4,0
		c1.1,0,1.9,0.1,2.7,0.4c0.7,0.3,1.3,0.6,1.7,1.1c0.4,0.5,0.8,1,0.9,1.6s0.3,1.3,0.3,2c0,0.7-0.1,1.4-0.3,2c-0.2,0.6-0.6,1.2-1,1.6
		c-0.5,0.5-1,0.8-1.7,1.1c-0.7,0.3-1.5,0.4-2.5,0.4c-1,0-1.8,0-2.4,0.1c-0.6,0-1.3,0-1.8,0c-0.6,0-1.2,0-1.8,0
		C1028.7,265.8,1027.9,265.8,1026.9,265.8z M1050.7,277.4v4h-28v-9.1h21v-1.2h-21v-4h27.6v8.9h-20.9v1.4H1050.7z M1033.2,261.8
		c0.4-0.1,0.7-0.1,1-0.3c0.3-0.1,0.5-0.4,0.5-0.9c0-0.5-0.2-0.8-0.5-0.9c-0.3-0.1-0.7-0.2-1-0.2c-0.5,0-0.9,0-1.2,0
		c-0.3,0-0.6,0-0.8,0c-0.3,0-0.5,0-0.8,0c-0.3,0-0.7,0-1.2,0c-0.4,0.1-0.7,0.1-1,0.2c-0.3,0.1-0.5,0.4-0.5,0.9
		c0,0.5,0.2,0.8,0.5,0.9c0.3,0.1,0.7,0.2,1,0.3c0.5,0,0.9,0,1.2,0.1c0.3,0,0.6,0,0.8,0c0.3,0,0.5,0,0.8,0
		C1032.3,261.8,1032.7,261.8,1033.2,261.8z M1054.7,259.8h-4.4v6.2h-6.3v-17.8h6.3v6.2h4.4V259.8z"/>
	<path class="st58" d="M1056.7,260.8c0-0.5,0.1-1,0.1-1.6c0-0.6,0.1-1.2,0.1-1.7c0.1-0.6,0.1-1.1,0.2-1.7s0.1-1,0.2-1.5
		c0.2-1,0.5-1.9,1.1-2.7c0.6-0.8,1.3-1.5,2.2-2s1.9-1,3-1.3s2.3-0.4,3.5-0.4c1.2,0,2.4,0.1,3.4,0.4c1,0.3,1.9,0.7,2.7,1.3
		c0.7,0.6,1.3,1.3,1.7,2.1c0.4,0.8,0.6,1.8,0.6,2.8c0,0.5,0,1-0.1,1.6c-0.1,0.6-0.1,1.2-0.2,1.8s-0.1,1.2-0.2,1.8
		c-0.1,0.6-0.2,1.1-0.2,1.5c-0.2,1-0.5,1.9-1.1,2.6s-1.3,1.3-2.1,1.8c-0.9,0.5-1.9,0.8-3,1c-1.1,0.2-2.3,0.3-3.5,0.3
		s-2.4-0.1-3.4-0.4c-1-0.3-1.9-0.6-2.7-1.2c-0.7-0.5-1.3-1.2-1.7-1.9C1056.8,262.7,1056.6,261.8,1056.7,260.8z M1086.6,276v5.3
		h-27.6v-12.1h6.3v6.7H1086.6z M1063.3,255.5c0,0.2-0.1,0.4-0.1,0.7c0,0.3-0.1,0.7-0.1,1s-0.1,0.7-0.1,1.1c0,0.4-0.1,0.7-0.1,0.9
		c-0.1,0.8,0.1,1.5,0.5,1.9c0.4,0.4,1.1,0.6,2.2,0.6c0.9,0,1.6-0.2,2.1-0.5s0.9-0.9,1.1-1.7c0.1-0.3,0.1-0.6,0.2-0.9
		c0.1-0.4,0.1-0.7,0.2-1.1c0-0.4,0.1-0.7,0.1-1.1s0-0.6,0-0.8c0-1.6-0.9-2.4-2.7-2.4c-0.9,0-1.6,0.2-2.2,0.5
		S1063.5,254.7,1063.3,255.5z M1086.6,270.7h-6.3v-22.5h6.3V270.7z"/>
	<path class="st58" d="M1123.8,273.5c-0.5,2.6-1.7,4.5-3.7,5.8c-2,1.2-4.4,1.9-7.4,1.9c-1.8,0-3.4-0.2-4.8-0.7s-2.6-1.2-3.6-2.1
		s-1.8-2.1-2.3-3.4c-0.5-1.3-0.8-2.8-0.8-4.4V266c0-1.6,0.3-3.1,0.8-4.4c0.5-1.3,1.3-2.4,2.3-3.3c1-0.9,2.2-1.6,3.6-2.1
		c1.4-0.5,3-0.8,4.8-0.8c1.8,0,3.3,0.3,4.8,0.8c1.4,0.5,2.6,1.2,3.6,2.1c1,0.9,1.8,2,2.3,3.3c0.5,1.3,0.8,2.8,0.8,4.4v0.9
		c0,0.3,0,0.5,0,0.8s0,0.5,0,0.8v1.6h-17c0,2.2,0.5,3.8,1.4,4.7c1,0.9,2.3,1.3,4.1,1.3c1.2,0,2.2-0.2,3.1-0.5s1.4-1,1.6-2H1123.8z
		 M1112.7,260.5c-1.6,0-2.9,0.3-3.8,1c-0.9,0.7-1.5,1.9-1.7,3.6h10.8c-0.2-1.7-0.7-2.9-1.6-3.6
		C1115.6,260.9,1114.3,260.5,1112.7,260.5z"/>
	<path class="st58" d="M1136.6,272.9l5.4-16.6h6.4l-8.7,24.2h-6.3l-8.7-24.2h6.3L1136.6,272.9z"/>
	<path class="st58" d="M1171.2,273.5c-0.5,2.6-1.7,4.5-3.7,5.8c-2,1.2-4.4,1.9-7.4,1.9c-1.8,0-3.4-0.2-4.8-0.7s-2.6-1.2-3.6-2.1
		s-1.8-2.1-2.3-3.4c-0.5-1.3-0.8-2.8-0.8-4.4V266c0-1.6,0.3-3.1,0.8-4.4c0.5-1.3,1.3-2.4,2.3-3.3c1-0.9,2.2-1.6,3.6-2.1
		c1.4-0.5,3-0.8,4.8-0.8c1.8,0,3.3,0.3,4.8,0.8c1.4,0.5,2.6,1.2,3.6,2.1c1,0.9,1.8,2,2.3,3.3c0.5,1.3,0.8,2.8,0.8,4.4v0.9
		c0,0.3,0,0.5,0,0.8s0,0.5,0,0.8v1.6h-17c0,2.2,0.5,3.8,1.4,4.7c1,0.9,2.3,1.3,4.1,1.3c1.2,0,2.2-0.2,3.1-0.5s1.4-1,1.6-2H1171.2z
		 M1160.1,260.5c-1.6,0-2.9,0.3-3.8,1c-0.9,0.7-1.5,1.9-1.7,3.6h10.8c-0.2-1.7-0.7-2.9-1.6-3.6
		C1162.9,260.9,1161.7,260.5,1160.1,260.5z"/>
	<path class="st58" d="M1180,256.3l0.4,2c0.6-0.7,1.4-1.4,2.5-2c1.1-0.6,2.3-0.9,3.5-0.9c1.7,0,3.3,0.3,4.6,0.8
		c1.3,0.5,2.4,1.2,3.3,2.1c0.9,0.9,1.5,2,2,3.3s0.7,2.8,0.7,4.4v14.4h-6v-14c0-2-0.4-3.5-1.1-4.5c-0.7-1-2-1.5-3.8-1.5
		c-1.8,0-3.1,0.6-4.1,1.8s-1.5,2.8-1.5,4.7v13.4h-5.8v-24.2H1180z"/>
	<path class="st58" d="M1208.8,248.1v8.5h4.6v5.1h-4.6v10.5c0,0.5,0,1,0.1,1.4c0.1,0.4,0.2,0.8,0.4,1.1c0.2,0.3,0.5,0.6,0.9,0.8
		c0.4,0.2,1,0.3,1.7,0.3h1.9v5.1h-2.9c-1.6,0-2.9-0.2-3.9-0.6s-1.9-0.9-2.5-1.6c-0.6-0.7-1.1-1.5-1.3-2.4c-0.3-0.9-0.4-2-0.4-3.1
		v-11.5h-4.2v-5.1h4.2v-8.5H1208.8z"/>
	<path class="st58" d="M1234.2,281.4c-2.1-0.1-3.7-0.7-4.9-1.8c-1.2-1.1-1.8-2.6-1.8-4.3c0-1.8,0.5-3.2,1.6-4.4
		c1.1-1.1,2.8-1.7,5.1-1.8c0.6,0,1.3,0,1.9,0c0.6,0,1.3,0,1.9,0v-1.9H1226v-5h31.3v5h-12.1v1.9c0.6,0,1.2,0,1.9,0c0.6,0,1.3,0,1.9,0
		c1.1,0,2.1,0.2,2.9,0.5c0.8,0.3,1.5,0.7,2.1,1.3s1,1.2,1.3,1.9c0.3,0.7,0.4,1.6,0.4,2.4c0,1.7-0.6,3.2-1.8,4.3
		c-1.2,1.1-2.8,1.8-4.9,1.8C1244.1,281.6,1239.2,281.6,1234.2,281.4z M1249.3,253.3l7.1,7.6h-7.1l-6.8-7.6h-0.5l-0.5,0.6l-6.4,7
		h-8.8l7.2-7.6h-5.1v-5.1h26.4v5.1H1249.3z M1247.6,276.6c0.7-0.1,1.2-0.2,1.4-0.5c0.2-0.3,0.3-0.5,0.3-0.8c0-0.3-0.1-0.6-0.3-0.9
		c-0.2-0.3-0.7-0.4-1.4-0.5c-1.1,0-2.1,0-3.1-0.1c-1,0-1.9,0-2.9,0c-1,0-1.9,0-2.9,0c-1,0-2,0-3.1,0.1c-0.7,0.1-1.2,0.2-1.4,0.5
		c-0.2,0.3-0.3,0.6-0.3,0.9c0,0.3,0.1,0.6,0.3,0.8c0.2,0.3,0.7,0.4,1.4,0.5c1.1,0,2.1,0,3.1,0.1c1,0,1.9,0,2.9,0c1,0,1.9,0,2.9,0
		C1245.5,276.6,1246.5,276.6,1247.6,276.6z"/>
	<path class="st58" d="M1262,274.7h6.5v6.7h-6.5V274.7z M1268.8,247.5l-0.9,24.2h-5l-0.9-24.2H1268.8z"/>
</g>
<g>
	<path class="st46" d="M828.4,292.7c-1.5,1.1-2.4,2.8-3.8,3.9c-1.1,1.3-2.9,1.9-3.8,3.4c-0.7,0-1.2,0.4-1.7,0.7
		c-18.1,10.2-40.2-0.9-42.9-21.5c-0.2-1.6,0-3.3,0-5.5c-2.8,3-5.3,5.5-7.7,8.1c-0.8,0.9-1.7,1.3-3,1.3c-25.2,0-50.3-0.1-75.5,0
		c-1.9,0-3.2-0.5-4-2.2c-0.2-0.5-0.5-1.1-1.2-1.3c-0.5,3.9-1.9,7.3-3.6,10.7c-0.9,1-1.6,2-2.1,3.2c-0.7,0.3-1,0.9-1.5,1.4
		c-7.9,8.3-17.6,11.4-28.7,8.5c-11.1-2.9-18-10.4-20.8-21.5c-0.1-0.4-0.2-0.9-0.3-1.3c-0.1,0-0.3,0-0.3,0.1
		c-0.9,2.2-2.6,2.6-4.8,2.3c-1.5-0.2-2.7,0-3.8,1.3c-1.2,1.3-2.9,1.8-4.7,1.8c-3.7,0-7.4,0-11.1,0c-3.6,0-6.3-2.1-7.2-5.3
		c-1.1-4.1,0.2-8,3.5-9.6c1.2-0.6,1.4-1.3,1.4-2.5c-0.1-9.7-0.1-19.3,0-29c0-1.3-0.3-1.9-1.7-1.7c-0.9,0.1-1.9,0.1-2.8,0
		c-2.8-0.2-5.2-2.5-5.3-5.3c-0.1-5.1-0.1-10.3,0-15.4c0.1-2.9,2.6-5.2,5.5-5.4c1.5-0.1,3.5,0.6,4.5-0.3c0.9-0.8,0.8-2.8,1.4-4.2
		c4.3-10.4,8.6-20.8,13-31.1c2.4-5.8,4.9-11.6,7.3-17.4c0.7-1.7,1.5-3.4,2.6-4.9c1.1-1.5,2.4-2.8,3.8-4.1c-2.4-2.1-1.7-4.8-1.2-7.3
		c1.7-7.7,8.7-13.3,16.7-13.3c16.6,0,33.2,0,49.8,0c1.4,0,1.9-0.3,1.8-1.8c-0.1-2.9,0-5.8,0-8.7c-0.2-0.9-0.9-0.7-1.5-0.7
		c-10.7,0-21.4,0-32.1,0c-0.5,0-1.2-0.3-1.5,0.5c-0.1,0-0.1,0.1-0.2,0c-0.9-0.6-0.9-4.2,0-4.9c0.6,0.8,1.4,0.5,2.1,0.5
		c14.6,0,29.1,0,43.7,0c32.4,0,64.7,0,97.1,0c0.7,0,1.5,0.5,2-0.5c2-4.3,4.5-8.3,8.3-11.3c4.3-3.4,9-5.5,14.4-6.3
		c1.1-0.1,1.3,0.1,1.2,1.1c0,4.9,0,9.8,0,14.8c0,1.3,0.2,1.8,1.7,1.8c2.5-0.1,5,0,7.5-0.1c1,0,1.4,0.1,1.4,1.3
		c0,3.8,0.1,3.8-3.7,3.8c-14.2,0-28.5,0-42.7,0c-1.6,0-1.9,0.4-1.9,1.9c0.1,2.1,0.1,4.3,0,6.4c-0.1,1.7,0.3,2.2,2.1,2.2
		c15.1-0.1,30.2-0.1,45.3-0.1c10,0,17,7.6,16,17.5c-0.2,2,0.5,2.5,1.8,3.4c8.7,5.8,13.2,14,13.5,24.5c0.2,7.5,0.1,14.9,0,22.4
		c0,1.8,0.5,2.1,2.1,2c1.9-0.1,3.8-0.2,5.7,0.2c4.5,1.1,7.6,4.8,7.6,9.3c0,13,0.1,25.9,0,38.9c0,5.2-4.3,9.4-9.5,9.5
		c-1.5,0-3,0.1-4.5,0c-1.1-0.1-1.3,0.4-1.3,1.4c0.1,3.6,0,7.3,0,10.9c0,0.9,0.3,1.3,1.1,1.7c3.5,1.8,4.9,5.5,3.8,9.8
		c-0.8,3.2-3.7,5.3-7.4,5.3c-3.6,0-7.2,0-10.8,0c-2.2,0-4.1-0.7-5.6-2.3c-0.5-0.6-1-0.8-1.8-0.8c-2.8,0-5.7,0-8.5,0
		c-0.8,0-1.4-0.3-1.9-0.9c-1.9-2.5-3.9-4.9-6.2-7.7c0.1,5.5-1,10.3-3.4,14.9C829.5,290.4,828.7,291.4,828.4,292.7z M767.7,274.4
		c-0.2,0-0.5,0-0.7,0c-24.6,0-49.2,0-73.7,0c-0.4,0-0.9-0.2-1.2,0.4c0,0.9,0,1.9,0,2.8c0.1,0.8,0.7,0.6,1.2,0.6c1.5,0,3,0,4.5,0
		c21.3,0,42.7,0,64,0c1.1,0,2.2,0.3,3.2-0.2c1.1-0.9,2.2-1.8,2.8-3.1C768,274.7,768.1,274.6,767.7,274.4z M862.9,165
		c-4-0.1-7.9-0.2-11.9,0c-0.3-0.1-0.5-0.2-0.8-0.2c-3.3-0.2-3.4-0.2-3.3-3.6c0-0.5-0.4-1.3,0.6-1.4c4.2,0,8.5,0,12.9,0
		c-0.9-1.3-1.8-2.2-2.8-3.1c-4-3.6-8.9-5.5-14.2-6.2c-0.6-0.8-1.5-0.4-2.3-0.4c-66.3,0-132.7,0-199,0c-0.5,0-1,0-1.6,0
		c-0.4,0-0.8,0.1-1,0.5c-6,1.1-10,4.5-12.3,10.2c-4.9,12-10.1,23.9-15,35.9c-2.5,6-5.7,11.7-6.6,18.3c-0.9,0.4-0.5,1.2-0.5,1.8
		c0,10.7,0,21.4,0,32.1c0,0.6-0.2,1.3,0.3,1.8c0.5,0,0.6-0.5,0.7-0.8c1.1-2.2,2-4.4,3.3-6.5c13.3-22,32.8-33.9,58.6-34
		c60.8-0.3,121.7-0.1,182.5-0.1c0.7,0,1.4,0,2.1-0.1c2.2,0,4.4,0,6.6,0.1c0.8,0,1.1-0.2,1.1-1.1c0.2-3.3,1.6-5.9,4.4-7.7
		c0.7-0.4,0.9-0.9,0.9-1.7c0-4.7,0-9.5,0-14.2c0-1.1-0.3-1.4-1.4-1.3c-3.8,0-7.5,0-11.3,0c0-1.6,0-3.3,0-4.9c3.7,0,7.3,0,11,0
		c0.5,0,1.1,0.3,1.5-0.3c0-0.8,0-1.6,0.1-2.4c0.2-1.3-0.4-1.5-1.5-1.5c-3.3,0.1-6.7,0-10,0c-3.8,0-3.8,0-3.8-3.8
		c0-1.1,0.4-1.4,1.4-1.3c3.7,0,7.5,0,11.2,0.1c2.3,0,2.4,0,1.5-2.2C864.1,166.3,864.4,164.9,862.9,165z M831.5,134.4
		c-0.8,0-1.6-0.1-2.4-0.1c-57.9,0-115.8,0-173.7,0c-3.5,0-7.1-0.1-10.6,0c-5.8,0.1-10.7,4-12,9.5c-0.3,1.3-0.2,2,1.5,1.9
		c4.2-0.1,8.4-0.1,12.7-0.1c0.7,0,1.4,0.1,2.1,0.1c61.9,0,123.7,0,185.6,0c0.6,0,1.3,0,1.9,0c4.3,0,8.7,0,13,0.1
		c0.9,0,1.2-0.3,1.2-1.2c0-4.5-3.8-9.1-8.3-9.9C838.8,133.9,835.1,134.1,831.5,134.4z M874,204.3c-0.7,0-1.4-0.2-2-0.2
		c-3.2-0.4-6.4,1.5-6.4,5.2c0.2,12.7,0.1,25.4,0.1,38.1c0,2.8,1.8,4.5,4.5,4.5c1.3,0,2.5,0,3.8,0c0.7,0,1.4,0,2.1,0
		c3.4,0,5.2-1.7,5.2-5.1c0-12.5,0-25,0-37.4c0-3.4-1.8-5-5.2-5C875.3,204.3,874.7,204.3,874,204.3z M809.4,299.1
		c5.8-1.1,10.4-4,14.1-8.6c4-5.1,5.4-10.8,5-17.1c-0.1-1.1-0.6-1.8-1.9-1.7c-1.4,0.1-2.9,0-4.3,0c-0.5,0-1.1,0.1-1.6,0
		c-1.5-0.2-1.9,0.3-1.4,1.8c0.5,1.6,0.4,3.2,0,4.8c-1.9,8.3-8,12.9-16.5,12.1c-3.6-0.3-6.7-2.1-9-4.9c-3.1-3.7-4.4-7.9-3.3-12.7
		c0.2-1-0.1-1.1-0.9-1.1c-2.3,0-4.6,0-6.9,0c-0.8,0-1.2,0.2-1.3,1.2c-0.2,1.9-0.2,3.7,0,5.7c0.8,7.1,4.3,12.6,9.9,16.7
		C796.6,299.2,802.7,300.2,809.4,299.1z M664.9,259.5c-6.6,0-13.2,0-19.8,0c-2.1,0-3.9,0.9-5.1,2.8c-2.2,3.3-4.5,6.6-6.7,9.9
		c-0.3,0.5-0.7,1-0.7,1.6c-0.6,8.5,2.3,15.5,9,20.8c5.1,4.1,11,5.4,17.4,4.9c0.7-0.1,1.4-0.2,2-0.3c6-1.3,10.7-4.4,14.3-9.2
		c3.7-4.9,4.9-10.5,4.5-16.5c-0.1-1.1-0.4-2-1-2.9c-1.9-2.8-3.7-5.5-5.6-8.3c-1.1-1.6-2.8-2.4-4.7-2.6
		C667.4,259.4,666.1,259.5,664.9,259.5z M787.2,119.2c-0.2-0.9-1-0.7-1.5-0.7c-27.6,0-55.1,0-82.7,0c-0.5,0-1.2-0.3-1.5,0.5
		c-0.5,0.5-0.3,1.1-0.3,1.6c0,2.3,0.1,4.6,0,6.9c-0.1,1.4,0.3,1.7,1.7,1.7c13.5-0.1,26.9,0,40.4,0c14.1,0,28.2,0,42.3,0
		c1.3,0,1.7-0.3,1.6-1.6C787.1,124.9,787.2,122.1,787.2,119.2z M616,270.4c3.3,1.1,5.2,3.3,5.5,6.8c0.1,1.4,1,1.1,1.7,0.7
		c0.4-0.2,0.7-0.8,1-1.2c3.7-5.5,7.5-11,11.2-16.5c2.6-3.9,6.2-5.8,11-5.8c7,0,14,0,21,0c4.5,0,8,1.8,10.6,5.6
		c1.6,2.4,3.2,4.8,4.9,7.2c1.3,1.9,2.6,3.8,4.1,5.9c0.1-0.4,0.2-0.5,0.2-0.6c0-18.9,0-37.7,0-56.6c0-1.2-0.4-1.5-1.5-1.5
		c-6.2,0-12.4-0.1-18.6,0.1c-2.7,0.1-5.4,0-8.1,0.8c-0.6,0.1-1.3,0-1.9,0.2c-18,3.6-32,13.1-41.9,28.6c-4.7,7.3-7.4,15.4-8.7,23.9
		c-0.3,2.2-0.3,2.2,2,2.3C610.9,270.3,613.4,270.4,616,270.4z M695.5,269.2c0.1,0,0.2,0,0.3,0c25.6,0,51.2,0,76.9,0
		c0.9,0,1.6-0.3,2.3-0.7c2.5-1.5,5.2-2.1,8.1-2.1c14.2,0,28.5,0,42.7,0c5.4,0,9.6,2.1,12.9,6.3c1.1,1.5,2.3,2.9,3.4,4.3
		c0.4,0.5,0.7,1.1,1.5,1.1c1.8,0,3.6,0,5.4-0.1c0.6,0,1-0.3,1.1-1.1c0.1-2,1.1-3.6,2.4-5c1.7-1.2,3.5-1.8,5.7-1.7c2,0.1,4,0,6.1,0
		c1.2,0.1,1.6-0.4,1.5-1.6c-0.1-3.8-0.1-7.6,0-11.4c0-1-0.3-1.6-1.1-2.1c-2.1-1.4-3.3-3.4-3.8-5.7c-0.6-2.7-0.3-5.4-0.3-8.1
		c-0.1-8.4,0-16.9,0-25.3c0-1.3-0.3-1.7-1.6-1.7c-2.1,0.1-4.3,0.1-6.4,0.1c-0.6,0-1.3-0.1-1.9-0.1c-51,0-102.1,0-153.1,0
		c-0.6,0-1.3,0-1.9,0.1c-0.3,0-0.6-0.1-0.9-0.1c-3.2,0-2.7-0.3-2.7,2.6c0,16.3,0,32.6,0,48.8C692,269.3,692,269.3,695.5,269.2z
		 M809,271.6c2.1,3.5,1.9,6.4-0.3,8.4c-2,1.9-5.1,2.1-7.3,0.5c-1.4-1-2.2-2.5-2.4-4.2c-0.2-1.7,0.6-3.2,1.6-4.7
		c-1.1,0-1.9,0.1-2.8,0c-1.4-0.2-2.1,0.4-2.4,1.8c-0.9,4,0.1,7.4,3.3,9.9c3.2,2.6,6.9,3,10.5,1.1c3.6-1.9,5.4-5.1,5.1-9.3
		c-0.2-3.2-0.5-3.5-3.6-3.5C810.2,271.6,809.7,271.6,809,271.6z M811.6,113.7c4.2,0,8.3,0,12.3,0c0.7,0,0.9-0.4,0.9-1
		c0-3.1,0-6.1,0-9.2c0-0.9-0.4-1.2-1.2-0.8C818.3,104.9,814.2,108.3,811.6,113.7z M862.9,281.2c1.9,0,3.8,0.1,5.7,0
		c1.7-0.1,2.2-0.9,2.2-3c0-2-0.6-2.8-2.3-2.8c-3.8-0.1-7.5-0.1-11.3,0c-1.7,0-2.3,0.9-2.3,2.9c0,2,0.6,2.8,2.4,2.9
		C859.2,281.2,861.1,281.2,862.9,281.2z M608.6,275.3c-1.8,0-3.6,0-5.4,0c-2,0-2.6,0.7-2.6,2.8c0,2.3,0.5,3,2.6,3
		c3.6,0,7.2,0,10.7,0c1.9,0,2.5-0.7,2.5-2.9c0-2.2-0.5-2.9-2.5-2.9C612.1,275.3,610.3,275.3,608.6,275.3z M600.7,225
		c0-1.8,0-3.6,0-5.4c-0.1-3.2,0.6-2.7-2.9-2.8c-1.5-0.1-2,0.6-2,2.1c0.1,3.6,0,7.2,0,10.8c0,3.6,0,3.6,3.6,3.5c1,0,1.2-0.4,1.2-1.3
		C600.7,229.5,600.7,227.3,600.7,225z M805,273.4c-1.3-0.1-2.4,0.7-2.5,2c-0.2,1.4,0.6,2.6,1.9,2.8c1.3,0.2,2.7-0.8,2.8-2.2
		C807.3,274.8,806.3,273.6,805,273.4z"/>
	<path class="st47" d="M805.9,113.8c-0.4,1-1.3,0.5-2,0.5c-32.4,0-64.7,0-97.1,0c-14.6,0-29.1,0-43.7,0c-0.7,0-1.5,0.3-2.1-0.5
		c0.7,0,1.4-0.1,2.1-0.1c47.2,0,94.4,0,141.6,0C805.1,113.8,805.5,113.8,805.9,113.8z"/>
	<path class="st48" d="M828.4,292.7c0.3-1.3,1.1-2.3,1.8-3.4c6.4,0,12.8,0,19.3,0.1c1.7,0,2.6,1.5,1.9,3c-0.2,0.4-0.5,0.4-0.9,0.4
		C843.1,292.8,835.8,292.8,828.4,292.7z"/>
	<path class="st48" d="M820.8,300.1c0.9-1.5,2.7-2.1,3.8-3.4c0.4,0.6,1.1,0.3,1.6,0.3c5.6,0,11.2,0.1,16.8,0c1.5,0,1.4,0.7,1.5,1.8
		c0.1,1.2-0.3,1.6-1.5,1.6C835.6,300.1,828.2,300.1,820.8,300.1z"/>
	<path class="st48" d="M679.1,293.6c0.5-1.2,1.2-2.2,2.1-3.2c3.8,0,7.6,0.1,11.4,0c1.6-0.1,1.4,0.8,1.4,1.8c0.1,1.1-0.1,1.7-1.5,1.6
		C688.1,293.7,683.6,294,679.1,293.6z"/>
	<path class="st48" d="M857.6,289.4c0.5,0,1,0.1,1.5,0c1.6-0.3,2.1,0.4,2,2c-0.1,1.1-0.3,1.5-1.4,1.5c-1.5-0.1-3.1-0.1-4.6,0
		c-1.5,0.1-1.1-0.9-1.1-1.7c0-0.8-0.4-1.8,1.1-1.7C855.9,289.5,856.8,289.4,857.6,289.4z"/>
	<path class="st47" d="M661.1,118.7c0.3-0.8,0.9-0.5,1.5-0.5c10.7,0,21.4,0,32.1,0c0.6,0,1.3-0.3,1.5,0.7c-7,0-14-0.1-21-0.1
		C670.5,118.8,665.8,118.8,661.1,118.7z"/>
	<path class="st48" d="M698.1,290.5c1.3-0.3,1.8,0.1,1.9,1.6c0.1,2.1-1.1,1.6-2.3,1.7c-1.4,0.1-1.8-0.4-1.9-1.8
		C695.8,290.1,696.9,290.3,698.1,290.5z"/>
	<path class="st49" d="M852.4,272c-1.3,1.4-2.3,3-2.4,5c0,0.8-0.4,1-1.1,1.1c-1.8,0.1-3.6,0.1-5.4,0.1c-0.8,0-1.1-0.6-1.5-1.1
		c-1.2-1.4-2.3-2.9-3.4-4.3c-3.3-4.2-7.5-6.3-12.9-6.3c-14.2,0-28.5,0-42.7,0c-2.9,0-5.6,0.6-8.1,2.1c-0.7,0.4-1.4,0.7-2.3,0.7
		c-25.6,0-51.2,0-76.9,0c-0.1,0-0.2,0-0.3,0c0-18.2,0-36.5,0-54.7c0.6,0,1.3-0.1,1.9-0.1c51,0,102.1,0,153.1,0c0.6,0,1.3,0,1.9,0.1
		c0,2.7,0,5.4,0,8.2c-37.9,0-75.9,0-113.8,0c-1.6,0-3.6-0.7-4.7,0.3c-0.9,1-0.2,3-0.3,4.5c0,2.5,0,2.5,2.5,2.5
		c38.7,0,77.5,0,116.2,0C852.4,244,852.4,258,852.4,272z M704.5,227.5c0.3,2.5,0.3,2.5,2.8,2.5c3.4,0,6.9,0,10.3,0
		c2.5,0,2.5,0,2.5-2.5c0-1.2,0-2.4,0-3.6c0.1-1-0.3-1.3-1.3-1.3c-3.1,0-6.2,0-9.3,0c-1.6,0-3.6-0.7-4.7,0.3
		C703.9,224,704.7,226,704.5,227.5z"/>
	<path class="st50" d="M853.1,178.6c0,1.6,0,3.3,0,4.9c-0.5,0.5-0.3,1.2-0.3,1.8c0,5.2,0,10.5-0.1,15.7c-0.3-0.4-0.6-0.8-0.9-1.2
		c-8.7-12.9-17.4-25.7-26.1-38.6c-0.6-1-1.3-1.3-2.5-1.3c-12.9,0-25.8,0.1-38.7,0c-1.4,0-1.9,0.2-1.8,1.7c0.1,13,0.1,25.9,0,38.9
		c0,1.4,0.3,1.8,1.8,1.8c22.1-0.1,44.2,0,66.3,0c0.7,0,1.4,0,2.1,0.1c0,2.4,0,4.7,0,7.1c-0.7,0-1.4,0.1-2.1,0.1
		c-60.8,0-121.7-0.2-182.5,0.1c-25.8,0.1-45.2,12-58.6,34c-1.3,2.1-2.2,4.3-3.3,6.5c-0.2,0.4-0.2,0.8-0.7,0.8c0-0.9,0.1-1.7,0.1-2.6
		c0-11,0.1-22.1,0.1-33.1c0.8-6.6,4.1-12.3,6.6-18.3c4.9-12,10.1-23.9,15-35.9c2.3-5.7,6.3-9.1,12.3-10.2c1.2,0,2.3-0.1,3.5-0.1
		c64.2,0,128.3,0,192.5,0c0.9,0,1.7,0.1,2.6,0.1c1.5,1.7,3.7,2.4,5.3,4c1.6,1.5,3.4,2.9,4.1,5.2c-1,0.1-0.6,0.9-0.6,1.4
		c-0.1,3.4-0.1,3.4,3.3,3.6c0.3,0,0.6,0.1,0.8,0.2c0,0.1,0,0.2,0,0.4c0,1.3,1,2.5,0.7,3.8c-1-0.1-1.4,0.2-1.4,1.3
		c0,3.8-0.1,3.8,3.8,3.8c3.3,0,6.7,0,10,0c1.2,0,1.7,0.2,1.5,1.5c-0.1,0.8-0.1,1.6-0.1,2.4c-0.6-0.7-0.3-1.5-0.3-2.3
		c0-0.8-0.3-1.2-1.1-1.2c-3.5,0-6.9,0-10.4,0c-0.6,0-1.1,0.1-1.1,0.8C852.9,176.6,852.4,177.6,853.1,178.6z M771.9,202.2
		c1-0.2,0.5-1,0.5-1.5c0-11,0-22.1,0-33.1c0-2.4-0.1-4.9-0.1-7.3c-0.3-0.8-1-0.3-1.5-0.3c-22.3,0-44.7,0-67-0.1
		c-1.4,0-1.8,0.3-1.8,1.8c0.1,13,0.1,25.9,0,38.9c0,1.5,0.4,1.8,1.8,1.8c22.2,0,44.3,0,66.5,0C770.8,202.2,771.4,202.2,771.9,202.2z
		 M621.4,202.2c3.8,0,7.4,0,11,0c0.5,0,1.1-0.2,1.4,0.6c1.7,3.9,4.9,5,8.9,4.9c3.9-0.1,4,0,3.8-3.8c-0.1-1.6,0.5-1.7,1.9-1.7
		c13.9,0,27.9,0,41.8,0.1c1.4,0,1.8-0.3,1.8-1.8c-0.1-13-0.1-25.9,0-38.9c0-1.5-0.5-1.8-1.8-1.8c-14.2,0.1-28.4,0-42.5,0
		c-6.4,0-10.6,2.9-12.9,8.8c-3.2,8.1-6.4,16.2-9.7,24.3C623.8,196,622.7,199,621.4,202.2z"/>
	<path class="st49" d="M658.8,215.3c2.6-0.8,5.4-0.8,8.1-0.8c6.2-0.2,12.4,0,18.6-0.1c1.1,0,1.5,0.3,1.5,1.5c0,18.9,0,37.7,0,56.6
		c0,0.1-0.1,0.2-0.2,0.6c-1.4-2.1-2.8-4-4.1-5.9c-1.6-2.4-3.3-4.8-4.9-7.2c-2.5-3.8-6.1-5.6-10.6-5.6c-7,0-14,0-21,0
		c-4.7,0-8.3,1.9-11,5.8c-3.7,5.5-7.5,11-11.2,16.5c-0.3,0.4-0.5,1-1,1.2c-0.7,0.4-1.6,0.8-1.7-0.7c-0.3-3.5-2.2-5.7-5.5-6.8
		c-0.2-0.5-0.5-0.8-0.4-1.5c0.7-7.3,3-14.2,6.2-20.7c3.6-7.3,8.4-13.7,14.5-19.2c5.2-4.7,10.9-8.6,17.4-11.4
		C655.3,216.9,657.1,216.1,658.8,215.3z M666,227.4c0.5,2.6,0.5,2.6,3,2.6c3.4,0,6.8,0,10.2,0c2.4,0,2.4,0,2.4-2.4
		c0-1.2,0-2.4,0.1-3.6c0.1-0.9-0.2-1.3-1.2-1.3c-4.4,0-8.8,0-13.1,0c-0.9,0-1.3,0.3-1.2,1.2C666.1,225,666,226.2,666,227.4z"/>
	<path class="st49" d="M836.4,145.6c-0.6,0-1.3,0-1.9,0c-61.9,0-123.7,0-185.6,0c-0.7,0-1.4,0-2.1-0.1c0.1-3.7,1.8-6.7,4.1-9.5
		c0.9-1,1.9-1.3,3.2-1.3c59.1,0,118.3,0,177.4,0C835.2,137.6,836.4,141.3,836.4,145.6z"/>
	<path class="st50" d="M787.2,119.2c0,2.8-0.1,5.7,0,8.5c0,1.3-0.3,1.6-1.6,1.6c-14.1-0.1-28.2,0-42.3,0c-13.5,0-26.9,0-40.4,0
		c-1.4,0-1.8-0.3-1.7-1.7c0.1-2.3,0-4.6,0-6.9c0-0.6-0.2-1.2,0.3-1.6c0.7,0,1.4,0.1,2.1,0.1c27.2,0,54.4,0,81.6,0
		C785.8,119.1,786.5,119.2,787.2,119.2z"/>
	<path class="st48" d="M659,299.4c-6.4,0.6-12.3-0.8-17.4-4.9c-6.7-5.3-9.6-12.3-9-20.8c0-0.6,0.4-1.1,0.7-1.6
		c2.2-3.3,4.5-6.6,6.7-9.9c1.2-1.8,2.9-2.7,5.1-2.8c6.6,0,13.2,0,19.8,0c1.6,2.5,3.2,5,4.9,7.5c2.5,3.6,3.5,7.5,2.8,11.9
		c-1.2,8.1-5,14.4-11.8,19C660.2,298.3,659.2,298.4,659,299.4z M641.7,275.8c-0.7,7.7,6.8,14.6,14.3,14.7c8.2,0.1,14.8-6.9,15-14.4
		c0.2-7.6-6.7-14.9-14.5-15C648.6,261,641,268.4,641.7,275.8z"/>
	<path class="st51" d="M852.4,272c0-14,0-28,0-42c0-0.8,0-1.6,0-2.5c0-1.6,0-3.3,0-4.9c0-2.7,0-5.4,0-8.2c2.1,0,4.3,0,6.4-0.1
		c1.3-0.1,1.6,0.4,1.6,1.7c-0.1,8.4-0.1,16.9,0,25.3c0,2.7-0.3,5.4,0.3,8.1c0.6,2.4,1.8,4.4,3.8,5.7c0.8,0.5,1.2,1.1,1.1,2.1
		c-0.1,3.8-0.1,7.6,0,11.4c0,1.2-0.3,1.6-1.5,1.6c-2-0.1-4,0-6.1,0C856,270.2,854.1,270.8,852.4,272z"/>
	<path class="st48" d="M809.4,299.1c-6.6,1.2-12.8,0.2-18.3-3.9c-5.6-4.1-9.1-9.6-9.9-16.7c-0.2-1.9-0.2-3.8,0-5.7
		c0.1-0.9,0.5-1.2,1.3-1.2c2.3,0,4.6,0,6.9,0c0.8,0,1.1,0.1,0.9,1.1c-1,4.8,0.2,9,3.3,12.7c2.4,2.8,5.4,4.6,9,4.9
		c8.5,0.8,14.6-3.8,16.5-12.1c0.4-1.6,0.4-3.2,0-4.8c-0.4-1.5-0.1-2,1.4-1.8c0.5,0.1,1,0,1.6,0c0.4,2.6,0.5,5.2,0,7.9
		c-1.1,6.5-4,12-9.1,16.4C811.9,297,810.2,297.5,809.4,299.1z"/>
	<path class="st48" d="M874,251.9c-1.3,0-2.5,0-3.8,0c-2.8,0-4.5-1.8-4.5-4.5c0-12.7,0.1-25.4-0.1-38.1c-0.1-3.7,3.1-5.6,6.4-5.2
		c0.7,0.1,1.4,0.2,2,0.2c1.3,1.7,1.4,3.7,1.4,5.7c-0.1,12-0.1,24.1,0,36.1C875.4,248.2,875.2,250.2,874,251.9z"/>
	<path class="st52" d="M658.8,215.3c-1.7,0.8-3.5,1.5-5.2,2.3c-6.5,2.8-12.2,6.7-17.4,11.4c-6.1,5.5-10.9,11.9-14.5,19.2
		c-3.2,6.5-5.5,13.4-6.2,20.7c-0.1,0.7,0.2,1,0.4,1.5c-2.5,0-5.1-0.1-7.6-0.1c-2.3,0-2.4,0-2-2.3c1.3-8.6,4.1-16.6,8.7-23.9
		c9.9-15.5,23.8-25,41.9-28.6C657.5,215.4,658.2,215.4,658.8,215.3z"/>
	<path class="st53" d="M852.8,209.4c0-2.4,0-4.7,0-7.1c1-0.5-0.2-0.8,0-1.3c0-5.2,0-10.5,0.1-15.7c0-0.6-0.2-1.3,0.3-1.8
		c3.8,0,7.5,0.1,11.3,0c1,0,1.4,0.2,1.4,1.3c-0.1,4.7,0,9.5,0,14.2c0,0.8-0.2,1.3-0.9,1.7c-2.7,1.8-4.2,4.4-4.4,7.7
		c0,0.8-0.3,1.1-1.1,1.1C857.1,209.4,854.9,209.4,852.8,209.4z"/>
	<path class="st52" d="M831.6,134.9c-59.1,0-118.3,0-177.4,0c-1.3,0-2.3,0.2-3.2,1.3c-2.3,2.8-4,5.8-4.1,9.5c-4.2,0-8.4,0-12.7,0.1
		c-1.7,0.1-1.8-0.6-1.5-1.9c1.3-5.5,6.2-9.4,12-9.5c3.5-0.1,7.1,0,10.6,0c57.9,0,115.8,0,173.7,0c0.8,0,1.6,0.1,2.4,0.1
		C831.5,134.5,831.6,134.7,831.6,134.9z"/>
	<path class="st54" d="M874,251.9c1.3-1.7,1.4-3.7,1.4-5.7c-0.1-12-0.1-24.1,0-36.1c0-2.1-0.2-4-1.4-5.7c0.7,0,1.4,0,2.1,0
		c3.4,0,5.2,1.7,5.2,5c0,12.5,0,25,0,37.4c0,3.4-1.8,5.1-5.2,5.1C875.3,251.9,874.7,251.9,874,251.9z"/>
	<path class="st54" d="M659,299.4c0.2-1,1.2-1.1,1.8-1.5c6.8-4.6,10.6-10.9,11.8-19c0.7-4.4-0.3-8.3-2.8-11.9
		c-1.7-2.5-3.3-5-4.9-7.5c1.2,0,2.4-0.1,3.6,0c1.9,0.2,3.5,1,4.7,2.6c1.9,2.8,3.8,5.5,5.6,8.3c0.6,0.9,0.9,1.8,1,2.9
		c0.4,6-0.8,11.6-4.5,16.5c-3.6,4.9-8.4,8-14.3,9.2C660.4,299.2,659.7,299.3,659,299.4z"/>
	<path class="st49" d="M692,274.8c0.3-0.6,0.8-0.4,1.2-0.4c24.6,0,49.2,0,73.7,0c-0.5,0.5-1.1,0.3-1.6,0.3c-2.5,0-5,0.1-7.4,0
		c-2.2-0.2-3.2,1.2-4.4,2.8c2.7,0,5.2,0,7.7,0c1.2,0,2.5-0.3,3.7,0.3c-1,0.5-2.2,0.2-3.2,0.2c-21.3,0-42.7,0-64,0c-1.5,0-3,0-4.5,0
		c-0.5,0-1.1,0.2-1.2-0.6c0.6,0,1.3,0,1.9,0c1,0.1,1.6,0,1.6-1.3c0-1.3-0.5-1.6-1.6-1.5C693.3,274.8,692.7,274.8,692,274.8z"/>
	<path class="st51" d="M695.5,214.5c0,18.2,0,36.5,0,54.7c-3.5,0.1-3.5,0.1-3.5-3.3c0-16.3,0-32.6,0-48.8c0-2.9-0.6-2.6,2.7-2.6
		C694.9,214.4,695.2,214.5,695.5,214.5z"/>
	<path class="st55" d="M831.6,134.9c0-0.2-0.1-0.3-0.1-0.5c3.6-0.2,7.3-0.5,10.9,0.2c4.5,0.8,8.2,5.5,8.3,9.9c0,0.9-0.3,1.2-1.2,1.2
		c-4.3,0-8.7,0-13-0.1C836.4,141.3,835.2,137.6,831.6,134.9z"/>
	<path class="st54" d="M809.4,299.1c0.9-1.5,2.6-2.1,3.8-3.1c5.1-4.3,8-9.8,9.1-16.4c0.5-2.7,0.4-5.3,0-7.9c1.4,0,2.9,0.1,4.3,0
		c1.3-0.1,1.8,0.6,1.9,1.7c0.4,6.3-1,12.1-5,17.1C819.8,295.1,815.1,297.9,809.4,299.1z"/>
	<path class="st56" d="M809,271.6c0.7,0,1.2,0,1.7,0c3.1,0,3.4,0.2,3.6,3.5c0.3,4.2-1.5,7.3-5.1,9.3c-3.7,1.9-7.3,1.5-10.5-1.1
		c-3.1-2.6-4.1-6-3.3-9.9c0.3-1.4,0.9-2,2.4-1.8c0.8,0.1,1.7,0,2.8,0c-1,1.5-1.8,2.9-1.6,4.7c0.2,1.8,1,3.2,2.4,4.2
		c2.2,1.6,5.3,1.4,7.3-0.5C810.9,278,811.1,275.1,809,271.6z"/>
	<path class="st57" d="M847.6,159.8c-0.7-2.3-2.5-3.6-4.1-5.2c-1.6-1.6-3.8-2.3-5.3-4c1.7-0.3,3.5-0.1,5.2-0.1
		c5.3,0.7,10.2,2.5,14.2,6.2c1,0.9,1.9,1.8,2.8,3.1C856,159.8,851.8,159.8,847.6,159.8z"/>
	<path class="st58" d="M811.6,113.7c2.6-5.4,6.8-8.8,12-11c0.8-0.3,1.2-0.1,1.2,0.8c0,3.1,0,6.1,0,9.2c0,0.6-0.1,1-0.9,1
		C819.8,113.7,815.8,113.7,811.6,113.7z"/>
	<path class="st50" d="M862.9,281.2c-1.8,0-3.7,0.1-5.5,0c-1.8-0.1-2.4-0.9-2.4-2.9c0-2,0.6-2.9,2.3-2.9c3.8-0.1,7.5-0.1,11.3,0
		c1.7,0,2.2,0.8,2.3,2.8c0,2.1-0.5,2.9-2.2,3C866.7,281.2,864.8,281.2,862.9,281.2z"/>
	<path class="st50" d="M608.6,275.3c1.8,0,3.6,0,5.4,0c1.9,0,2.5,0.7,2.5,2.9c0,2.2-0.5,2.9-2.5,2.9c-3.6,0-7.2,0-10.7,0
		c-2,0-2.6-0.7-2.6-3c0-2.1,0.6-2.8,2.6-2.8C605,275.3,606.8,275.3,608.6,275.3z"/>
	<path class="st58" d="M600.7,225c0,2.3,0,4.5,0,6.8c0,0.9-0.2,1.3-1.2,1.3c-3.6,0.1-3.6,0.1-3.6-3.5c0-3.6,0-7.2,0-10.8
		c0-1.5,0.4-2.1,2-2.1c3.5,0.1,2.8-0.4,2.9,2.8C600.7,221.4,600.7,223.2,600.7,225z"/>
	<path class="st47" d="M843.4,150.6c-1.7,0-3.5-0.2-5.2,0.1c-0.9,0-1.7-0.1-2.6-0.1c-64.2,0-128.3,0-192.5,0c-1.2,0-2.3,0.1-3.5,0.1
		c0.2-0.5,0.5-0.5,1-0.5c0.5,0,1,0,1.6,0c66.3,0,132.7,0,199,0C841.9,150.2,842.8,149.8,843.4,150.6z"/>
	<path class="st47" d="M787.2,119.2c-0.7,0-1.4-0.1-2.1-0.1c-27.2,0-54.4,0-81.6,0c-0.7,0-1.4,0-2.1-0.1c0.3-0.8,1-0.5,1.5-0.5
		c27.6,0,55.1,0,82.7,0C786.2,118.6,787,118.3,787.2,119.2z"/>
	<path class="st53" d="M851.7,169.2c0.3-1.4-0.7-2.5-0.7-3.8c3.4,0,6.7,0,10.1,0c0.6,0,1.3,0.2,1.8-0.4c1.5-0.1,1.2,1.3,1.5,2
		c0.9,2.2,0.8,2.2-1.5,2.2C859.2,169.3,855.5,169.2,851.7,169.2z"/>
	<path class="st53" d="M853.1,178.6c-0.6-1-0.2-2-0.3-3c-0.1-0.7,0.5-0.8,1.1-0.8c3.5,0,6.9,0,10.4,0c0.8,0,1.1,0.4,1.1,1.2
		c0,0.8-0.3,1.6,0.3,2.3c-0.4,0.6-1,0.3-1.5,0.3C860.4,178.6,856.7,178.6,853.1,178.6z"/>
	<path class="st51" d="M765,277.9c-1.2-0.6-2.5-0.3-3.7-0.3c-2.5,0-4.9,0-7.7,0c1.2-1.6,2.2-3,4.4-2.8c2.5,0.2,4.9,0.1,7.4,0
		c0.6,0,1.2,0.2,1.6-0.3c0.2,0,0.5,0,0.7,0c0,0.1,0,0.3,0,0.4C767.1,276.2,766.1,277,765,277.9z"/>
	<path class="st48" d="M805,273.4c1.3,0.1,2.3,1.4,2.2,2.6c-0.1,1.4-1.5,2.4-2.8,2.2c-1.3-0.2-2.1-1.4-1.9-2.8
		C802.6,274.1,803.7,273.3,805,273.4z"/>
	<path class="st47" d="M605.7,215.1c0,11-0.1,22.1-0.1,33.1c0,0.9,0,1.7-0.1,2.6c-0.6-0.5-0.3-1.2-0.3-1.8c0-10.7,0-21.4,0-32.1
		C605.2,216.3,604.9,215.5,605.7,215.1z"/>
	<path class="st51" d="M692,274.8c0.6,0,1.3,0.1,1.9,0c1.1-0.1,1.6,0.2,1.6,1.5c0,1.3-0.7,1.4-1.6,1.3c-0.6,0-1.3,0-1.9,0
		C692,276.6,692,275.7,692,274.8z"/>
	<path class="st56" d="M862.9,165c-0.5,0.6-1.2,0.4-1.8,0.4c-3.4,0-6.7,0-10.1,0c0-0.1,0-0.2,0-0.4C855,164.8,858.9,164.9,862.9,165
		z"/>
	<path class="st49" d="M767.7,274.8c0-0.1,0-0.3,0-0.4C768.1,274.6,768,274.7,767.7,274.8z"/>
	<path class="st59" d="M852.4,222.6c0,1.6,0,3.3,0,4.9c-39.4,0-78.8,0-118.2,0c-0.2,0-0.3,0-0.5,0c0.1-1.5-0.6-3.6,0.3-4.5
		c1-1.1,3.1-0.3,4.7-0.3C776.6,222.6,814.5,222.6,852.4,222.6z"/>
	<path class="st52" d="M733.7,227.5c0.2,0,0.3,0,0.5,0c39.4,0,78.8,0,118.2,0c0,0.8,0,1.6,0,2.5c-38.7,0-77.5,0-116.2,0
		C733.7,230,733.7,230,733.7,227.5z"/>
	<path class="st59" d="M704.5,227.5c0.1-1.5-0.6-3.5,0.3-4.5c1-1,3.1-0.3,4.7-0.3c3.1-0.1,6.2,0,9.3,0c1,0,1.4,0.3,1.3,1.3
		c-0.1,1.2,0,2.4,0,3.6C714.9,227.5,709.7,227.5,704.5,227.5z"/>
	<path class="st52" d="M704.5,227.5c5.2,0,10.4,0,15.6,0c0,2.5,0,2.5-2.5,2.5c-3.4,0-6.9,0-10.3,0C704.8,230,704.8,230,704.5,227.5z
		"/>
	<path class="st59" d="M852.7,201c-0.1,0.4,1,0.8,0,1.3c-0.7,0-1.4-0.1-2.1-0.1c-22.1,0-44.2,0-66.3,0c-1.5,0-1.8-0.4-1.8-1.8
		c0.1-13,0.1-25.9,0-38.9c0-1.5,0.5-1.7,1.8-1.7c12.9,0.1,25.8,0,38.7,0c1.2,0,1.9,0.4,2.5,1.3c8.7,12.9,17.4,25.8,26.1,38.6
		C852.1,200.2,852.4,200.6,852.7,201z M822.3,165.4c-0.2-0.4-0.5-0.5-0.8-0.5c-2.8,0-5.5-0.2-8.3,0.1c-2.8-0.4-5.7-0.1-8.8-0.2
		c0.8,1.2,1.5,2.1,2,3.1c0.6,1,1.3,1.4,2.5,1.3c2.1-0.1,4.3,0,6.4-0.1c3.1,0,6.2,0,9.6,0C824.1,167.7,823.3,166.5,822.3,165.4z
		 M811.1,174.8c0.6,0.9,1.3,1.8,1.8,2.7c0.5,0.9,1.1,1.1,2.1,1.1c2.3-0.1,4.6,0,6.9-0.1c3.1,0,6.1,0,9.4,0c-0.9-1.4-1.7-2.5-2.5-3.7
		c-0.3-0.5-0.7-0.7-1.3-0.7c-2.7,0.1-5.4,0.1-8.1,0.1c-2.8,0-5.5,0-8.3-0.1C810.7,174.4,810.7,174.4,811.1,174.8z M817.4,183.6
		c-0.1,0-0.2,0.1-0.3,0.1c0.1,0.1,0.1,0.2,0.2,0.2c0.6,0.9,1.2,1.8,1.7,2.7c0.6,1.1,1.3,1.4,2.5,1.3c2.2-0.1,4.4-0.1,6.5-0.1
		c3.1,0,6.2,0,9.5,0c-1-1.4-1.8-2.7-2.6-3.9c-0.3-0.5-0.7-0.5-1.2-0.5c-2.7,0-5.4,0.1-8.1,0.1C822.9,183.6,820.1,183.6,817.4,183.6z
		 M832.3,193c-2.9,0-5.7,0-8.9,0c0.9,1.4,1.8,2.6,2.6,3.8c0.3,0.5,0.8,0.4,1.2,0.4c5.2,0,10.4,0,15.6,0c1.4,0,0.7-0.5,0.3-1
		c-0.4-0.6-0.7-1.3-1.2-1.9c-0.4-0.6-0.7-1.4-1.7-1.4C837.6,192.9,834.9,192.9,832.3,193z M787.5,165.1c-0.6,0.4-0.4,1.1-0.4,1.6
		c0,9.6,0,19.1,0,28.7c0,0.6-0.2,1.2,0.3,1.6c0.1,0.1,0.2,0.2,0.3,0.3c0.4,0.6,1.1,0.4,1.6,0.4c9.6,0,19.2,0,28.7,0
		c0.6,0,1.2,0.2,1.6-0.4c0.4-0.3,0.1-0.6-0.1-0.9c-6.9-10.3-13.9-20.5-20.8-30.8c-0.3-0.4-0.5-0.9-1.2-0.9
		C794.3,165,790.9,164.6,787.5,165.1z"/>
	<path class="st46" d="M621.4,202.2c1.3-3.2,2.4-6.2,3.6-9.3c3.2-8.1,6.4-16.2,9.7-24.3c2.3-5.9,6.6-8.8,12.9-8.8
		c14.2,0,28.4,0,42.5,0c1.4,0,1.8,0.3,1.8,1.8c-0.1,13-0.1,25.9,0,38.9c0,1.5-0.4,1.8-1.8,1.8c-13.9-0.1-27.9,0-41.8-0.1
		c-1.3,0-1.9,0.2-1.9,1.7c0.1,3.8,0,3.7-3.8,3.8c-4,0.1-7.2-1.1-8.9-4.9c-0.3-0.8-0.9-0.6-1.4-0.6
		C628.8,202.2,625.2,202.2,621.4,202.2z M686.8,197.3c0-10.6,0-21.2,0-31.9c0-0.2,0-0.4,0-0.6c-0.3-0.7-1-0.5-1.5-0.5
		c-12.6,0-25.3,0-37.9,0c-0.5,0-1.2-0.2-1.5,0.5c-3.3,0.7-5.4,2.7-6.6,5.9c-3.2,8.4-6.6,16.7-9.9,25c-0.2,0.4-0.6,0.9-0.3,1.5
		c1.1,0,2.3,0,3.5,0c0.7,0,1.1-0.1,1.5-0.8c1.6-3.1,4.1-4.5,7.6-4.4c0.9,0,1.9,0.1,2.8,0c1.7-0.2,2.5,0.3,2.3,2.2
		c-0.1,1-0.4,2.2,0.3,3.2c0.4,0.6,1.1,0.4,1.6,0.4c12.2,0,24.5,0,36.7,0C685.8,197.7,686.4,197.9,686.8,197.3z M641.6,199.9
		c0-0.3,0.1-0.6,0-0.9c-0.2-0.7,0.6-1.7-0.5-1.9c-1-0.3-1.9,0.4-2.5,1.3c-0.8,1.3-0.5,3,0.8,3.8c0.5,0.4,1.2,0.6,1.8,0.4
		c0.8-0.2,0.3-1,0.4-1.5C641.7,200.7,641.6,200.3,641.6,199.9z"/>
	<path class="st46" d="M771.9,202.2c-0.5,0-1,0.1-1.6,0.1c-22.2,0-44.3,0-66.5,0c-1.4,0-1.8-0.3-1.8-1.8c0.1-13,0.1-25.9,0-38.9
		c0-1.5,0.4-1.8,1.8-1.8c22.3,0,44.7,0,67,0.1c0.5,0,1.2-0.4,1.5,0.3c-0.8,0.4-0.4,1.1-0.5,1.7C771.9,175.3,771.9,188.8,771.9,202.2
		z M767.4,197.3c0-10.6,0-21.3,0-31.9c0-0.2,0-0.4,0-0.5c-0.4-0.8-1.1-0.5-1.7-0.5c-18.9,0-37.8,0-56.7,0c-0.6,0-1.3-0.2-1.8,0.4
		c0,0.1-0.1,0.2-0.2,0.2c-0.6,0.5-0.4,1.2-0.4,1.8c0,9.5,0,19.1,0,28.6c0,0.5-0.2,1.2,0.4,1.6c0.1,0.1,0.2,0.2,0.3,0.3
		c0.5,0.6,1.2,0.3,1.8,0.3c18.8,0,37.7,0,56.5,0C766.2,197.7,766.9,198,767.4,197.3z"/>
	<path class="st47" d="M771.9,202.2c0-13.4,0-26.8,0-40.2c0-0.6-0.4-1.3,0.5-1.7c0,2.4,0.1,4.9,0.1,7.3c0,11,0,22.1,0,33.1
		C772.4,201.2,772.9,202,771.9,202.2z"/>
	<path class="st59" d="M666,227.4c0-1.2,0.1-2.4,0-3.6c0-0.9,0.3-1.2,1.2-1.2c4.4,0,8.8,0,13.1,0c1,0,1.3,0.4,1.2,1.3
		c-0.1,1.2,0,2.4-0.1,3.6C676.4,227.5,671.2,227.8,666,227.4z"/>
	<path class="st52" d="M666,227.4c5.2,0.3,10.4,0.1,15.6,0.1c0,2.4,0,2.4-2.4,2.4c-3.4,0-6.8,0-10.2,0
		C666.5,230,666.5,230,666,227.4z"/>
	<path class="st46" d="M641.7,275.8c-0.7-7.4,7-14.8,14.7-14.6c7.9,0.1,14.7,7.4,14.5,15c-0.2,7.4-6.8,14.5-15,14.4
		C648.5,290.4,641,283.4,641.7,275.8z M646.6,275.8c0,5.3,4.4,9.7,9.7,9.7c5.2,0,9.6-4.4,9.6-9.6c0-5.3-4.4-9.7-9.7-9.7
		C650.9,266.2,646.6,270.5,646.6,275.8z"/>
	<path class="st56" d="M787.8,197.3c-0.1-0.1-0.2-0.2-0.3-0.3c0-10.6,0-21.3,0-31.9c3.4-0.5,6.8-0.1,10.2-0.2c0.6,0,0.9,0.4,1.2,0.9
		c6.9,10.2,13.9,20.5,20.8,30.8c0.2,0.3,0.5,0.5,0.1,0.9C809.1,197.3,798.5,197.3,787.8,197.3z"/>
	<path class="st56" d="M843.1,196.2c0.4,0.5,1.1,1-0.3,1c-5.2,0-10.4,0-15.6,0c-0.5,0-0.9,0-1.2-0.4c-0.8-1.2-1.6-2.4-2.6-3.8
		c3.2,0,6,0,8.9,0c0.8,2.9,1.9,3.7,4.7,3.7c1.6,0,3.1,0,4.7,0C842.1,196.7,842.8,196.8,843.1,196.2z"/>
	<path class="st53" d="M825.7,183.6c2.7,0,5.4,0,8.1-0.1c0.5,0,0.9,0,1.2,0.5c0.8,1.2,1.6,2.5,2.6,3.9c-3.3,0-6.4,0-9.5,0
		C827.7,186.2,826.3,185.2,825.7,183.6z"/>
	<path class="st53" d="M819.4,174.3c2.7,0,5.4-0.1,8.1-0.1c0.6,0,1,0.2,1.3,0.7c0.7,1.2,1.5,2.3,2.5,3.7c-3.3,0-6.4,0-9.4,0
		C821.4,176.9,819.8,175.9,819.4,174.3z"/>
	<path class="st50" d="M825.7,183.6c0.6,1.5,2,2.6,2.4,4.3c-2.2,0-4.4,0-6.5,0.1c-1.2,0.1-1.9-0.2-2.5-1.3c-0.5-1-1.2-1.8-1.7-2.7
		c0.1-0.1,0.1-0.2,0.1-0.3C820.1,183.6,822.9,183.6,825.7,183.6z"/>
	<path class="st56" d="M819.4,174.3c0.4,1.6,2,2.6,2.4,4.2c-2.3,0-4.6,0-6.9,0.1c-0.9,0-1.6-0.2-2.1-1.1c-0.5-1-1.2-1.8-1.8-2.7
		c0-0.2,0-0.4,0-0.6C813.9,174.2,816.7,174.3,819.4,174.3z"/>
	<path class="st50" d="M815.3,169.2c-2.1,0-4.3-0.1-6.4,0.1c-1.2,0.1-1.9-0.3-2.5-1.3c-0.5-1-1.2-1.9-2-3.1c3.1,0.1,6-0.2,8.8,0.2
		c0,0.1,0,0.3,0,0.4C813.8,166.8,815.1,167.7,815.3,169.2z"/>
	<path class="st57" d="M815.3,169.2c-0.1-1.6-1.5-2.5-2.1-3.8c3,0,6.1,0,9.1,0c1,1.1,1.8,2.3,2.6,3.8
		C821.5,169.2,818.4,169.2,815.3,169.2z"/>
	<path class="st53" d="M843.1,196.2c-0.3,0.7-1,0.5-1.5,0.5c-1.6,0-3.1,0-4.7,0c-2.8,0-3.8-0.8-4.7-3.7c2.6,0,5.3,0,7.9-0.1
		c1.1,0,1.3,0.8,1.7,1.4C842.4,194.9,842.7,195.5,843.1,196.2z"/>
	<path class="st47" d="M787.5,165.1c0,10.6,0,21.3,0,31.9c-0.5-0.4-0.3-1.1-0.3-1.6c0-9.6,0-19.1,0-28.7
		C787.2,166.1,787,165.5,787.5,165.1z"/>
	<path class="st47" d="M787.8,197.3c10.7,0,21.3,0,32,0c-0.4,0.6-1.1,0.4-1.6,0.4c-9.6,0-19.2,0-28.7,0
		C788.9,197.7,788.3,197.9,787.8,197.3z"/>
	<path class="st56" d="M822.3,165.4c-3,0-6.1,0-9.1,0c0-0.1,0-0.3,0-0.4c2.8-0.3,5.5-0.1,8.3-0.1C821.8,164.9,822.1,165,822.3,165.4
		z"/>
	<path class="st53" d="M811.1,174.2c0,0.2,0,0.4,0,0.6C810.7,174.4,810.7,174.4,811.1,174.2z"/>
	<path class="st53" d="M817.4,183.6c0,0.1,0,0.2-0.1,0.3c-0.1-0.1-0.1-0.2-0.2-0.2C817.2,183.6,817.3,183.6,817.4,183.6z"/>
	<path class="st50" d="M646.9,197.3c-0.7-1-0.4-2.2-0.3-3.2c0.2-1.9-0.5-2.4-2.3-2.2c-0.9,0.1-1.8,0-2.8,0c-3.4-0.1-6,1.3-7.6,4.4
		c-0.4,0.7-0.8,0.8-1.5,0.8c-1.2,0-2.3,0-3.5,0c-0.3-0.6,0.1-1,0.3-1.5c3.3-8.4,6.7-16.7,9.9-25c1.2-3.2,3.3-5.2,6.6-5.9
		c0.9,0,1.7,0,2.6,0c12.8,0,25.5,0,38.3,0c0,0.2,0,0.4,0,0.6c-0.1,0-0.2,0-0.3,0c-2.5,0-5.1,0.1-7.6,0c-1.5-0.1-1.8,0.5-1.8,1.9
		c0.1,9.8,0,19.6,0,29.4c0,0.2,0,0.4,0,0.5c-0.7,0-1.4,0.1-2.1,0.1C665.6,197.3,656.3,197.3,646.9,197.3z"/>
	<path class="st56" d="M686.5,165.4c0.1,0,0.2,0,0.3,0c0,10.6,0,21.2,0,31.9c-3.2,0-6.5-0.1-9.7-0.1c0-0.2,0-0.4,0-0.5
		c2.5,0,5-0.1,7.4,0.1c1.7,0.1,2-0.6,2-2.1C686.5,184.9,686.5,175.2,686.5,165.4z"/>
	<path class="st56" d="M641.6,199.9c0,0.4,0.1,0.8,0,1.2c-0.1,0.5,0.4,1.3-0.4,1.5c-0.6,0.2-1.2,0-1.8-0.4c-1.2-0.9-1.6-2.6-0.8-3.8
		c0.6-0.9,1.4-1.5,2.5-1.3c1,0.3,0.3,1.3,0.5,1.9C641.7,199.3,641.6,199.6,641.6,199.9z"/>
	<path class="st47" d="M686.8,164.9c-12.8,0-25.5,0-38.3,0c-0.9,0-1.7,0-2.6,0c0.3-0.7,1-0.5,1.5-0.5c12.6,0,25.3,0,37.9,0
		C685.8,164.4,686.5,164.2,686.8,164.9z"/>
	<path class="st47" d="M677.1,197.2c3.2,0,6.5,0.1,9.7,0.1c-0.4,0.7-1,0.4-1.6,0.4c-12.2,0-24.5,0-36.7,0c-0.6,0-1.2,0.2-1.6-0.4
		c9.4,0,18.8,0,28.2-0.1C675.7,197.3,676.4,197.2,677.1,197.2z"/>
	<path class="st50" d="M707.3,197.4c-0.1-0.1-0.2-0.2-0.3-0.3c0-10.7,0-21.3,0.1-32c0.1,0,0.2-0.1,0.2-0.2c20,0,40.1,0,60.1,0.1
		c0,0.2,0,0.4,0,0.5c-2.6,0-5.2,0.1-7.8,0c-1.5-0.1-2,0.3-2,1.9c0.1,10,0,20,0,29.9c-0.6,0-1.3,0.1-1.9,0.1c-11.5,0-22.9,0-34.4,0
		C716.7,197.3,712,197.3,707.3,197.4z"/>
	<path class="st53" d="M757.6,197.2c0-10,0-20,0-29.9c0-1.6,0.5-2,2-1.9c2.6,0.1,5.2,0,7.8,0c0,10.6,0,21.3,0,31.9
		C764.1,197.3,760.9,197.2,757.6,197.2z"/>
	<path class="st47" d="M767.3,164.9c-20,0-40.1,0-60.1-0.1c0.5-0.7,1.1-0.4,1.8-0.4c18.9,0,37.8,0,56.7,0
		C766.2,164.4,767,164.1,767.3,164.9z"/>
	<path class="st47" d="M757.6,197.2c3.2,0,6.5,0.1,9.7,0.1c-0.5,0.7-1.2,0.4-1.8,0.4c-18.8,0-37.7,0-56.5,0c-0.6,0-1.3,0.2-1.8-0.3
		c4.7,0,9.4-0.1,14.1-0.1c11.5,0,22.9,0,34.4,0C756.4,197.3,757,197.2,757.6,197.2z"/>
	<path class="st47" d="M707,165c0,10.7,0,21.3-0.1,32c-0.6-0.4-0.4-1.1-0.4-1.6c0-9.5,0-19.1,0-28.6
		C706.6,166.2,706.4,165.5,707,165z"/>
	<path class="st56" d="M646.6,275.8c0-5.3,4.3-9.6,9.6-9.6c5.3,0,9.8,4.4,9.7,9.7c0,5.2-4.4,9.6-9.6,9.6
		C651,285.5,646.5,281.1,646.6,275.8z M656.2,281.6c3.1,0,5.7-2.6,5.8-5.7c0-3.2-2.6-5.9-5.8-5.9c-3.1,0-5.8,2.6-5.8,5.7
		C650.3,278.9,653.1,281.6,656.2,281.6z"/>
	<path class="st53" d="M686.5,165.4c0,9.7,0,19.5,0,29.2c0,1.5-0.3,2.2-2,2.1c-2.5-0.2-5-0.1-7.4-0.1c0-9.8,0-19.6,0-29.4
		c0-1.4,0.3-1.9,1.8-1.9C681.4,165.5,684,165.4,686.5,165.4z"/>
	<path class="st46" d="M656.2,281.6c-3.2,0-5.9-2.7-5.8-5.9c0.1-3.1,2.7-5.7,5.8-5.7c3.2,0,5.9,2.7,5.8,5.9
		C662,279,659.4,281.6,656.2,281.6z M653.8,275.9c0,1.2,1.3,2.4,2.5,2.4c1.1-0.1,2.3-1.3,2.3-2.4c0-1.3-1.4-2.5-2.7-2.4
		C654.9,273.5,653.8,274.7,653.8,275.9z"/>
	<path class="st48" d="M653.8,275.9c0-1.2,1.1-2.4,2.2-2.5c1.3-0.1,2.7,1.2,2.7,2.4c0,1.1-1.2,2.4-2.3,2.4
		C655.2,278.3,653.9,277.1,653.8,275.9z"/>
</g>
</svg>
