<?xml version="1.0" encoding="utf-8"?>
<!-- Generator: Adobe Illustrator 24.2.3, SVG Export Plug-In . SVG Version: 6.00 Build 0)  -->
<svg version="1.1" id="Layer_1" xmlns="http://www.w3.org/2000/svg" xmlns:xlink="http://www.w3.org/1999/xlink" x="0px" y="0px"
	 viewBox="0 0 1920 400" style="enable-background:new 0 0 1920 400;" xml:space="preserve">
<style type="text/css">
	.st0{opacity:0.32;clip-path:url(#SVGID_2_);}
	.st1{stroke:#878EFF;stroke-miterlimit:10;}
	.st2{fill:#FFFFFF;}
	.st3{fill:#FFFFFF;stroke:#000000;stroke-miterlimit:10;}
	.st4{fill:none;stroke:#000000;stroke-miterlimit:10;}
	.st5{fill:none;stroke:#000000;stroke-width:2;stroke-miterlimit:10;}
	.st6{fill:#FEFEFE;}
	.st7{fill:#FE7501;}
	.st8{fill:#105BA6;}
	.st9{fill:#EFA459;}
	.st10{fill:#C0D67E;}
	.st11{fill:#EFA458;}
	.st12{fill:#165BA5;}
	.st13{fill:none;}
	.st14{fill:#636DA5;}
	.st15{fill:#A36262;}
	.st16{fill:#62A386;}
	.st17{fill:#628DA3;}
	.st18{fill:#FCBD88;}
	.st19{fill:#DD8E47;}
	.st20{fill:#F4D037;}
	.st21{fill:#3B5998;}
	.st22{fill:url(#SVGID_3_);}
	.st23{opacity:0.1;fill:#2B0C00;}
	.st24{fill:#A53A3A;}
	.st25{fill:#FF0000;}
	.st26{fill:#D88E4C;}
	.st27{fill:#EFEFEF;}
	.st28{opacity:0.99;fill:#EFEFEF;}
	.st29{fill:#D3D3D3;}
	.st30{fill:none;stroke:#FFE382;stroke-width:0.1;stroke-miterlimit:10;}
	.st31{fill:#08365B;}
	.st32{opacity:0.44;fill:#D8D8D8;}
	.st33{fill:#F7D0AD;}
	.st34{fill:#939597;}
	.st35{fill:#D8D8D8;}
	.st36{fill:#FFFFFF;stroke:#939597;stroke-width:0.25;stroke-miterlimit:10;}
	.st37{fill:#282828;}
	.st38{fill:none;stroke:#282828;stroke-width:2;stroke-miterlimit:10;}
	.st39{fill:none;stroke:#EFA459;stroke-width:2;stroke-miterlimit:10;}
	.st40{opacity:0.1;fill:#FFFFFF;stroke:#FFFFFF;stroke-miterlimit:10;}
	.st41{fill:none;stroke:#FFFFFF;stroke-miterlimit:10;}
	.st42{fill:none;stroke:#05FF71;stroke-width:3;stroke-miterlimit:10;}
	.st43{fill:none;stroke:#9EEA00;stroke-miterlimit:10;}
	.st44{fill:none;stroke:#000000;stroke-width:6;stroke-miterlimit:10;}
	.st45{fill:#CC7627;}
	.st46{fill:#5A5B51;}
	.st47{fill:#424337;}
	.st48{fill:#7A7A7A;}
	.st49{fill:#8AA7CC;}
	.st50{fill:#FDFDFD;}
	.st51{fill:#7898BA;}
	.st52{fill:#9BB9D7;}
	.st53{fill:#DBDBDB;}
	.st54{fill:#656768;}
	.st55{fill:#7795B3;}
	.st56{fill:#FCFCFB;}
	.st57{fill:#D2D2D1;}
	.st58{fill:#FC9477;}
	.st59{fill:#595A50;}
	.st60{fill:none;stroke:#2BFF22;stroke-miterlimit:10;}
	.st61{clip-path:url(#SVGID_7_);}
	.st62{clip-path:url(#SVGID_11_);}
	.st63{clip-path:url(#SVGID_15_);}
	.st64{clip-path:url(#SVGID_19_);}
	.st65{clip-path:url(#SVGID_23_);}
	.st66{clip-path:url(#SVGID_27_);}
	.st67{clip-path:url(#SVGID_31_);}
	.st68{clip-path:url(#SVGID_35_);}
	.st69{clip-path:url(#SVGID_39_);}
	.st70{clip-path:url(#SVGID_43_);}
	.st71{clip-path:url(#SVGID_49_);}
	.st72{clip-path:url(#SVGID_53_);}
	.st73{clip-path:url(#SVGID_57_);}
	.st74{clip-path:url(#SVGID_61_);}
	.st75{clip-path:url(#SVGID_65_);}
	.st76{clip-path:url(#SVGID_69_);}
	.st77{clip-path:url(#SVGID_73_);}
	.st78{clip-path:url(#SVGID_77_);}
	.st79{clip-path:url(#SVGID_81_);}
	.st80{clip-path:url(#SVGID_85_);}
	.st81{clip-path:url(#SVGID_91_);}
	.st82{clip-path:url(#SVGID_95_);}
	.st83{clip-path:url(#SVGID_99_);}
	.st84{clip-path:url(#SVGID_103_);}
	.st85{clip-path:url(#SVGID_107_);}
	.st86{clip-path:url(#SVGID_111_);}
	.st87{clip-path:url(#SVGID_115_);}
	.st88{clip-path:url(#SVGID_119_);}
	.st89{clip-path:url(#SVGID_123_);}
	.st90{clip-path:url(#SVGID_127_);}
	.st91{fill:#FFC053;}
	.st92{fill:#6DD5FF;}
	.st93{fill:#41FF47;}
	.st94{fill:#FFD1B6;}
	.st95{fill:#935300;}
	.st96{fill:none;stroke:#002EED;stroke-width:10;stroke-miterlimit:10;}
	.st97{fill:#FFE6FD;}
	.st98{clip-path:url(#SVGID_131_);}
	.st99{fill:#003D47;}
	.st100{fill:#023035;}
	.st101{fill:#1E5663;}
	.st102{fill:#6B9FA4;}
	.st103{fill:#B5DFE9;}
	.st104{fill:#B3DDE7;}
	.st105{fill:#02292B;}
	.st106{fill:#E88E23;}
	.st107{fill:#1B1E1E;}
	.st108{fill:#03292B;}
	.st109{fill:#BC6E29;}
	.st110{fill:#013D47;}
	.st111{fill:#6F7070;}
	.st112{fill:#0A1347;}
	.st113{opacity:0.5;}
	.st114{fill:#2C41BD;}
	.st115{opacity:0.5;fill:#0A1347;}
	.st116{fill:#D15B3C;}
	.st117{opacity:0.5;fill:#F1775A;}
	.st118{fill:#FFC96E;}
	.st119{opacity:0.5;fill:#FFC96E;}
	.st120{fill:#D68E2B;}
	.st121{opacity:0.5;fill:#D15B3C;}
	.st122{fill:#B0F0FF;}
	.st123{opacity:0.5;fill:#B0F0FF;}
	.st124{fill:#111E5F;}
	.st125{fill:#F99678;}
	.st126{opacity:0.5;fill:#F18666;}
	.st127{fill:#FF6C71;}
	.st128{opacity:0.5;fill:#FF6C71;}
	.st129{fill:#FFA4A8;}
	.st130{fill:#812D00;}
	.st131{fill:#BF4700;}
	.st132{opacity:0.5;fill:#812D00;}
	.st133{fill:#F98764;}
	.st134{fill:#F18666;}
	.st135{opacity:0.5;fill:#F99678;}
	.st136{fill:#F0BB83;}
	.st137{fill:#E2F9FF;}
	.st138{fill:#5B4152;}
	.st139{fill:#C080C4;}
	.st140{fill:#EA872D;}
	.st141{fill:none;stroke:#D81400;stroke-width:16;stroke-miterlimit:10;}
</style>
<g>
	<defs>
		<rect id="SVGID_130_" width="1920" height="400"/>
	</defs>
	<clipPath id="SVGID_2_">
		<use xlink:href="#SVGID_130_"  style="overflow:visible;"/>
	</clipPath>
	<g style="clip-path:url(#SVGID_2_);">
		<rect x="-380.5" y="-1.3" class="st99" width="2468.3" height="370.8"/>
		<path class="st100" d="M2134.4,334.7c0,15.2,61.8,49,61.9,64.3c0,1.6-475,79.3-920.8,59.5c-134,0-280.3-24-414.4-24
			c-51.5,0-120.6-13-172.1-12.9c-1.7,0-1178,1.5-1178-0.1c0.1-15.5,75.5-44.2,75.5-59.8c4.8-0.7,711.6-15.1,716.4-15.7
			c6.9-0.9,179.7-0.9,186.7,0c5.9,0.8,164.3-15.1,170.3-15.3c15.5,1.2,112.1,7.3,127.6,7.3c3.8,0.4,7.7,0.9,11.5,1.3
			c1.3,0.1,2.6,0.3,3.5-1.2c6.2-9.9,12.4-19.7,18.7-29.6c1-1.6,0.2-1.6-1.1-1.6c-2.7,0-5.4,0-8.1,0c-1.5,0-1.7-0.4-0.9-1.6
			c1.8-2.7,3.5-5.5,5.3-8.3c4.2-6.6,8.4-13.2,12.6-19.7c0.3-0.5,1-0.9,0.5-1.5c-0.4-0.5-1.1-0.3-1.6-0.3c-1.7,0-3.5,0-5.3,0
			c-0.7,0-1.6,0.4-2-0.4c-0.3-0.7,0.4-1.4,0.7-2c1.4-2.2,2.8-4.4,4.2-6.6c4-6.3,8.1-12.7,12.1-19c0.3-0.4,0.8-0.8,0.6-1.3
			c-0.3-0.7-1-0.4-1.6-0.4c-1.8,0-3.6,0-5.5,0c-0.7,0-1.7,0.4-2-0.3c-0.3-0.7,0.4-1.3,0.8-1.9c6.8-10.8,13.7-21.5,20.5-32.3
			c0.9-1.5,1.5-1.2,2.3,0.1c1.5,2.4,3,4.8,4.7,7.1c1.1,1.6,1.7,3.6,3.6,4.6c0.3,2.1,1.8,3.6,2.9,5.3c3.1,5,6.4,9.9,9.7,14.8
			c0.5,0.7,1.4,1.4,0.9,2.3c-0.4,0.8-1.5,0.3-2.2,0.3c-1.7,0.1-3.5,0-5.2,0c-0.6,0-1.3-0.2-1.6,0.4c-0.4,0.7,0.2,1.2,0.6,1.7
			c2.4,3.7,4.8,7.3,7.2,11c3.2,4.9,6.4,9.9,9.6,14.9c0.3,0.5,0.9,0.9,0.5,1.5c-0.4,0.5-1.1,0.3-1.6,0.3c-1.8,0-3.6,0-5.5,0
			c-0.8,0-1.8-0.4-2.2,0.5c-0.3,0.7,0.4,1.3,0.8,1.9c5.2,8,10.4,16,15.6,24c-0.3,0.3-0.5,0.5-0.8,0.8
			c-16.5,13.1-32.9,26.2-49.4,39.2c-0.5,0.4-1,1.1-1.9,0.9c0-0.2,0-0.4,0-0.6c0-0.9,0-1.9-1.2-1.8c-1.2,0.1-1.1,1.1-1.1,1.9
			c0,0.9,0,1.9,0,2.8c-0.2,0.4-0.2,0.7,0.1,1c0,1.1-0.1,2.2,0,3.2c0,0.7,0.5,1,1.1,1.1c0.7,0,1.1-0.4,1.1-1.1c0-1.1,0-2.2,0-3.2
			c0.7-1.8,2-3.1,3.6-4.3c6.1-4.8,12.2-9.7,18.3-14.5c7.5-6,15.1-11.9,22.6-17.8c0.6,1.1,1.2,2.1,1.9,3.2c3,4.9,6.5,9.5,9.1,14.6
			c-4.6,6.1-9.8,11.8-14.9,17.5c-3.6,4-3.6,4-0.2,8.3c0.1,0.2,0.3,0.3,0.6,0.5c1.1-2.9,2.1-5.7,3.2-8.6c0.2,0,0.3,0.1,0.5,0.1
			c0,2.8,0,5.6,0,8.8c2.8-2.2,5.1-4.4,5.5-7.9c0.9,3.7,1.4,7.4,1.8,11.1c-0.4,0.8-0.8,1.4-1.7,0.5c-0.8-0.8-1.7-1.5-2.6-2.3
			c0,0-0.1-0.1-0.1-0.1l0.1,0.1c0.3,2.1,1.5,3.8,2.1,5.7c0.2,0.6,0.7,0.9,1.3,0.9c2.5,0,5.1,0.2,7.6-0.6c0.8-0.2,1.6-0.5,1.8-1.4
			c5.6,0.1,11.2,0.2,16.9,0c0.9,0.1,1.7,0.2,2.6,0.2c7.1,0,14.3,0,21.4,0c15.5,0,31,0,46.6,0c1.4,0,2.9,0,4.3,0
			c6.6-0.1,13.2-0.1,19.7-0.2c6.8,0,13.5,0.1,20.3,0.1c1.5,0,3.5,0.7,4.3-0.4c0.6-0.7-0.4-2.7-0.7-4.1c-0.5-2.4-1.2-4.8-0.5-7.7
			c1,2,2.1,3.4,3.5,4.7c0.8,0.8,1.2,0.7,1.6-0.5c0.6-2.4,1.4-4.7,2.2-7.4c1.5,2.7,2.7,5,4,7.5c1.4-1.3,2.3-2.7,3.4-4.3
			c1.2,2.7,2.2,5.1,3.2,7.6c2.8-3.3,2.7-3.4,0.1-6.2c-2.8-3-5.5-6-8.2-9c0.9-0.5,2-0.5,3-0.5c6.2,0,12.5-0.2,18.7,0.1
			c5.3,0.3,10.5,1,15.8,0.7c2.1,1.5,4.2,3,5.4,5.4c0,1,0,2,0,3.1c0,0.7,0,1.4,0.8,1.6c0.8,0.3,1.2-0.2,1.6-0.8
			c1.7-2.1,0.4-4.6,0.8-6.9c0.1-0.6-0.1-1.2-0.8-1.4c-0.1-0.1-0.1-0.2-0.1-0.4c0.9-0.5,1.8-0.5,2.8-0.5c8.5-0.2,16.9,0.4,25.4-0.5
			c4.5,0.1,9-0.2,13.4-0.9c4.7,0.2,9.3-0.4,13.9-0.8c9.3-0.7,18.6-1.3,27.9-1.8c7.1-0.4,14.2-0.6,21.4-1c5.4,0.4,10.9,0.3,16.3,1.5
			c9.1,2,487.9,17,497.1,17.2C1710.7,354.1,2130.6,334.7,2134.4,334.7z M864.9,359.3c0.1,0.2,0.2,0.4,0.3,0.6c3.5,0,6.9,0,10.4,0
			c0.6,0,1-0.1,0.9-0.8c-0.5-3.1-0.9-6.3-1.7-8.7C871.7,353.3,868.3,356.3,864.9,359.3z M1056,354.1c-0.1,1.4-0.2,3.1-0.4,4.8
			c-0.1,0.8,0.3,1,1,1c1.8,0,3.6,0,5.2,0C1059.9,357.9,1057.9,355.9,1056,354.1z"/>
		<path class="st101" d="M741.1,338.1c-6,0.2-11.9-0.6-17.8-1.4c-7-1-13.9-0.6-20.9,0.3c-4.8,0.6-14.9-5.4-19.6-4.7
			c0-3.9,8.2-11.2,9.1-13.2c6.1-13.3,11.9-26.8,18-40.1c10-22,20.2-44,30.8-65.7c10.3-21.1,20.8-42.1,32-62.7
			c1.9-3.4,3.6-7,5.5-10.4c2.1-0.7,3.6-2.4,5.3-3.7c1.1-0.8,1.7-0.9,2.6,0.3c2.3,3.2,4.9,6.2,7.2,9.4c1,1.4,1.6,1.3,2.8,0.2
			c2.8-2.6,5.8-5.1,8.7-7.7c3.6-3.2,3.6-3.2,6.8,0.5c2.3,2.6,4.6,5.2,7,7.9c2.9-4.2,5.5-8.1,8.2-12.2c3.8,3.8,7.6,7.5,11.2,11.3
			c0.9,0.9,1.4,0.9,2.2-0.1c2.8-3.3,5.6-6.5,8.4-9.8c0.7-0.9,1.1-0.9,1.7,0.1c2.1,3.3,4.4,6.5,6.5,9.9c1,1.7,1.7,1.5,3,0.3
			c3.7-3.4,7.4-6.6,11.2-9.8c2.4,3.1,3.8,6.7,5.5,10.1c2.8,5.3,5.7,10.6,8,16.2c0.1,0.9-0.3,1.7-0.6,2.5c-6,14.8-12,29.7-17.9,44.5
			c-1.7,4.2-3.7,8.4-4.7,12.9c-1.9-1-2.4-3-3.6-4.6c-1.6-2.3-3.2-4.7-4.7-7.1c-0.8-1.3-1.4-1.5-2.3-0.1
			c-6.8,10.8-13.7,21.5-20.5,32.3c-0.4,0.6-1.1,1.3-0.8,1.9c0.4,0.7,1.3,0.3,2,0.3c1.8,0.1,3.6,0,5.5,0c0.5,0,1.3-0.3,1.6,0.4
			c0.2,0.5-0.3,0.9-0.6,1.3c-4,6.3-8,12.7-12.1,19c-1.4,2.2-2.9,4.4-4.2,6.6c-0.4,0.6-1.1,1.2-0.7,2c0.4,0.8,1.3,0.4,2,0.4
			c1.7,0,3.5,0,5.3,0c0.6,0,1.3-0.2,1.6,0.3c0.4,0.6-0.2,1.1-0.5,1.5c-4.2,6.6-8.4,13.2-12.6,19.7c-1.8,2.8-3.5,5.6-5.3,8.3
			c-0.8,1.2-0.6,1.6,0.9,1.6c2.7,0,5.4,0,8.1,0c1.3,0,2.1,0.1,1.1,1.6c-6.3,9.8-12.5,19.7-18.7,29.6c-0.9,1.4-2.2,1.3-3.5,1.2
			c-3.8-0.4-7.7-0.9-11.5-1.3c-1.7-3.5-4.1-6.5-6.1-9.8c-0.7-1.1-2.2-2.2-1.7-3.3c0.6-1.1,2.4-0.4,3.7-0.4c1.7,0,1.7-0.5,0.9-1.7
			c-2.5-3.8-5-7.6-7.4-11.4c-0.5-0.7-1.5-1.5-1.2-2.2c0.4-1,1.7-0.5,2.6-0.5c1.7,0,1.9-0.6,1-1.9c-2.3-3.5-4.7-7.1-6.9-10.6
			c-0.4-0.6-1.4-1.3-0.9-2.1c0.4-0.7,1.3-0.2,2.1-0.3c0.6-0.1,1.4,0.3,1.8-0.4c0.4-0.7-0.3-1.2-0.6-1.7c-3.1-4.8-6.4-9.6-9.4-14.5
			c-0.9-1.5-1.3-1-2,0.1c-3,4.8-6,9.5-9,14.2c-0.4,0.6-1.2,1.2-0.8,1.9c0.4,0.7,1.3,0.2,2,0.4c0.6,0.1,1.5-0.3,1.8,0.4
			c0.3,0.6-0.3,1.2-0.7,1.8c-2.3,3.6-4.6,7.3-6.9,10.9c-0.3,0.5-0.9,0.9-0.6,1.5c0.3,0.6,1.1,0.3,1.6,0.3c0.2,0,0.4,0,0.7,0
			c0.6,0.1,1.3-0.2,1.6,0.3c0.4,0.6-0.3,1.1-0.6,1.5c-2.2,3.5-4.5,7-6.7,10.5c-0.6,1-1.9,2-1.4,3c0.5,0.9,2,0.2,3.1,0.4
			c0.6,0.1,1.3-0.2,1.6,0.4c0.3,0.6-0.3,1.1-0.6,1.5C746,330.3,743.6,334.2,741.1,338.1z"/>
		<path class="st101" d="M1130.4,338.9c-4.5,0.7-8.9,1-13.4,0.9c-3.1-4.9-6.1-9.7-9.3-14.6c-10.9-16.8-21.8-33.5-32.7-50.2
			c-0.3-0.5-1-1.1-0.7-1.7c0.4-0.8,1.3-0.4,2-0.4c6.4,0,12.8,0,19.3,0c0.8,0,1.8,0.4,2.2-0.4c0.3-0.7-0.5-1.3-0.8-1.9
			c-8.3-12.7-16.5-25.4-24.8-38.2c-0.7-1-1.5-2-1.6-3.3c0-0.9,0.6-1.6,1-2.4c7-13.1,14.3-26,21.8-38.8c1.1,1.3,2.4,2.6,3.3,4
			c1,1.5,1.7,1.8,3,0.2c1.8-2.3,3.9-4.3,5.8-6.6c1.1-1.4,1.9-1.7,3.4-0.3c2.8,2.6,5.8,4.8,8.7,7.4c1.1,1,1.8,0.9,2.9,0
			c3.2-2.6,6.5-5,9.7-7.5c1.2-1,2-1.2,3.3,0c2.5,2.2,5.2,4.2,7.8,6.4c1.1,0.9,1.8,0.9,3,0.1c3.6-2.4,7.3-4.6,10.9-6.9
			c1.1-0.7,1.7-0.6,2.5,0.3c2,2.3,4.2,4.4,6.2,6.8c1.1,1.3,1.9,1.6,3.4,0.5c2.8-1.9,5.7-3.6,8.5-5.3c9.5,16.9,18.4,34.1,27.1,51.4
			c6.9,13.7,13.7,27.5,20.5,41.3c8,16.4,16,32.8,24,49.1c0.4,0.8,0.7,1.8,1.6,2.3c0,2.9,1.7,4.9,1.7,7.8c-3.8,0-9.3,1-13.1,0.9
			c-9.3-0.1-18.4-1-27.5-2.9c-5.4-1.2-10.8-1.1-16.3-1.5c-0.4-0.8-0.7-1.6-1.2-2.3c-2.8-4.4-5.6-8.7-8.4-13c-0.9-1.4-0.5-1.7,1-1.7
			c2,0,4,0.3,6.1-0.3c-0.4-0.6-0.6-1.1-0.9-1.5c-3.7-5.6-7.3-11.2-10.9-16.9c-0.4-0.6-1.4-1.3-0.9-2.1c0.4-0.7,1.5-0.3,2.3-0.3
			c0.9-0.1,1.7,0,2.6,0c1.3,0,1.5-0.3,0.8-1.5c-3.3-4.9-6.5-9.9-9.7-14.8c-0.7-1.1-2.2-2.3-1.8-3.3c0.5-1.2,2.4-0.3,3.6-0.5
			c0.2,0,0.4,0,0.7,0c1.8,0.1,1.8-0.7,0.9-1.9c-4.6-7-9.2-14-13.7-21.1c-1-1.5-1.5-1-2.2,0.2c-4.1,6.6-8.2,13.1-12.3,19.6
			c-0.6,0.9-1.9,1.9-1.4,2.8c0.5,1.1,2.1,0.3,3.2,0.5c0.8,0.1,1.8-0.4,2.2,0.3c0.4,0.8-0.5,1.6-0.9,2.3c-3.3,5.2-6.6,10.3-9.9,15.5
			c-0.3,0.5-0.9,1-0.6,1.6c0.3,0.8,1.2,0.4,1.8,0.5c1.3,0,2.7,0,4.4,0c-1,1.6-1.6,2.7-2.3,3.8c-3.3,5.2-6.6,10.3-9.9,15.5
			c-0.8,1.3-0.7,1.8,0.9,1.8c1.3,0,2.6,0,3.9,0c0.6,0,1.3-0.3,1.6,0.3c0.4,0.6-0.3,1.1-0.5,1.5c-1.2,1.9-2.5,3.8-3.6,5.7
			C1135.8,330.3,1132.7,334.4,1130.4,338.9z"/>
		<path class="st101" d="M688.7,8.8c0-0.1-0.1-0.3-0.1-0.4c0.1,0,0.3,0,0.4,0C688.9,8.5,688.8,8.6,688.7,8.8z"/>
		<path class="st102" d="M1093.2,187.8c-7.5,12.8-14.8,25.7-21.8,38.8c-0.4,0.8-1,1.5-1,2.4c-0.9-0.1-1.1-0.9-1.4-1.5
			c-2.4-3.7-4.9-7.4-7.3-11.2c-1.1-1.6-2.1-3.3-3.4-5.3c7.2,0,14,0,21.1,0c-0.6-1-0.9-1.6-1.3-2.2c-11-16.9-22-33.8-32.9-50.6
			c-1-1.6-2-3.2-3.1-4.8c-0.8-1.2-0.4-1.4,0.9-1.4c3,0,6,0,9,0c3.2,0,6.5,0,10.2,0c-15.6-24.1-31-47.7-46.5-71.5
			c-0.6,0.9-1.1,1.7-1.6,2.4c-2.3,3.4-4.2,7.1-6.8,10.4c-1.5-0.9-1.7-2.6-2.3-4C998.8,76,992.4,62.9,985,50.3
			c-1.4-2.4-3.3-4.7-4.3-7.3c6.7,0.1,13.2,1.2,19.7,2.7c57.5,13.5,96.9,47.9,118.1,103.1c0.1,0.3,0.2,0.6,0.3,0.8
			c-0.3,0.5-0.6,1-1,1.4C1108.6,162.7,1100.6,175.1,1093.2,187.8z"/>
		<path class="st103" d="M980.6,43c1.1,2.6,2.9,4.9,4.3,7.3c7.4,12.6,13.8,25.7,19.9,38.9c0.6,1.4,0.8,3.1,2.3,4
			c-0.9,1.7-1.6,3.6-3.3,4.8c-0.3-0.3-0.6-0.7-0.8-1c-1.1-1.6-1.9-1.4-2.9,0.3c-1.8,2.9-3.9,5.7-5.7,8.5c-0.9,1.4-1.4,1.8-2.7,0.3
			c-2.4-2.9-5.1-5.6-7.5-8.6c-1.1-1.3-1.7-1.1-2.8-0.1c-3.7,3.4-7.4,6.6-11.1,9.9c-0.9,0.8-1.4,0.8-2.1-0.2c-2.4-3.2-5-6.3-7.4-9.5
			c-0.9-1.2-1.4-1.4-2.7-0.4c-3.6,2.9-7.3,5.6-10.9,8.4c-1.1,0.8-1.7,0.9-2.7-0.1c-2.9-3-5.9-5.9-8.8-8.9c-1.1-1.1-1.8-1.4-3.2-0.4
			c-4.2,2.8-8.5,5.3-12.7,8.1c-1,0.6-1.5,0.7-2.3-0.3c-1.5-1.8-3.2-3.4-4.8-5.1c0.2-0.6,0.3-1.3,0.6-1.9c5.4-11.6,11-23.1,17-34.4
			c3.2-6,6.7-11.9,10-17.9c2.6-3.7,5.2-7.3,7.9-11c1.7-2.3,3.7-4.5,5.9-6.4c3.1-2.8,6.5-3,10.1-1.2c3.9,2,6.8,5,9.5,8.2
			C976.2,37.3,978.4,40.2,980.6,43z"/>
		<path class="st102" d="M940.5,44.8c-3.3,6-6.8,11.9-10,17.9c-6.1,11.3-11.6,22.8-17,34.4c-0.3,0.6-0.4,1.2-0.6,1.9
			c-0.6,0.5-0.7,1.2-1,1.9c-9.1,19.8-17.7,39.9-26.1,60c-0.3,0.8-0.3,1.8-1.3,2.1c-2.3-5.6-5.2-10.9-8-16.2c-1.8-3.4-3.2-7-5.5-10.1
			c0.2-0.9-0.3-1.5-0.7-2.2c-3-5.5-6.1-11.1-9.1-16.6c-4.1-7.3-8.6-14.3-13-21.4c15.6-17.8,34.3-31.3,55.9-40.7
			c11.3-5,23.1-8.5,35.3-10.7C939.6,44.8,940,44.8,940.5,44.8z"/>
		<path class="st103" d="M848,96.4c4.4,7.1,8.9,14.1,13,21.4c3.1,5.5,6.1,11.1,9.1,16.6c0.4,0.7,0.9,1.4,0.7,2.2
			c-3.7,3.3-7.5,6.5-11.2,9.8c-1.3,1.2-2,1.4-3-0.3c-2-3.4-4.3-6.6-6.5-9.9c-0.6-1-1-1-1.7-0.1c-2.8,3.3-5.6,6.5-8.4,9.8
			c-0.8,1-1.3,1-2.2,0.1c-3.7-3.8-7.4-7.4-11.2-11.3c-2.7,4-5.4,8-8.2,12.2c-2.4-2.7-4.7-5.3-7-7.9c-3.2-3.7-3.2-3.7-6.8-0.5
			c-2.9,2.6-5.8,5.1-8.7,7.7c-1.1,1.1-1.7,1.3-2.8-0.2c-2.3-3.2-4.9-6.2-7.2-9.4c-0.9-1.2-1.5-1.1-2.6-0.3c-1.7,1.3-3.2,3-5.3,3.7
			c7-12.2,14.1-24.5,22-36.2c4.7-6.9,9.5-13.6,15.3-19.6c2.4-2.5,4.9-4.7,8-6.4c3.1-1.7,6.1-1.6,9,0.5c4.1,3,7.3,6.9,10.4,10.9
			C844.6,91.7,846.3,94,848,96.4z"/>
		<path class="st103" d="M1093.2,187.8c7.4-12.8,15.4-25.2,24.4-36.8c0.4-0.5,0.6-1,1-1.4c2.3-2.5,4.6-5.1,7-7.5
			c2.1-2.1,4.4-4,7.1-5.4c2.7-1.4,5.3-1.3,7.8,0.5c2.4,1.6,4.4,3.6,6.3,5.7c11.4,13.5,20.2,28.7,28.6,44.1c-2.9,1.8-5.8,3.4-8.5,5.3
			c-1.5,1-2.3,0.7-3.4-0.5c-2-2.3-4.2-4.5-6.2-6.8c-0.8-1-1.5-1-2.5-0.3c-3.6,2.4-7.3,4.5-10.9,6.9c-1.2,0.8-1.9,0.8-3-0.1
			c-2.5-2.2-5.3-4.2-7.8-6.4c-1.3-1.1-2.1-0.9-3.3,0c-3.2,2.6-6.5,4.9-9.7,7.5c-1.1,0.9-1.8,1-2.9,0c-2.8-2.5-5.9-4.8-8.7-7.4
			c-1.5-1.4-2.2-1.1-3.4,0.3c-1.8,2.3-4,4.3-5.8,6.6c-1.3,1.6-1.9,1.3-3-0.2C1095.6,190.4,1094.3,189.1,1093.2,187.8z"/>
		<path class="st104" d="M1289,245.7c-0.4-2.3-0.8-4.5-1.2-6.8c-0.5-2.9-1-5.7-1.5-8.6c-0.2-1.3-0.7-2.1-1.9-2.6
			c-1.6-0.8-3.2-1.7-4.8-2.6c0.1-0.2,0.2-0.3,0.3-0.3c5.3-0.3,7.3-3.7,8-8.4c0.2-1.2,0.7-2.3,1.3-4c0.8,3.3,1.5,6,2.1,8.7
			c0.3,1.4,0.9,2.3,2.4,2.6c1.5,0.3,3,1,5,1.7c-2,1-3.7,1.8-5.3,2.5c-1,0.5-1.5,1.1-1.7,2.3c-0.7,5.2-1.5,10.3-2.3,15.5
			C1289.2,245.7,1289.1,245.7,1289,245.7z"/>
		<path class="st104" d="M1233.2,129.4c-0.4-2.3-0.8-4.5-1.2-6.8c-0.5-2.9-1-5.7-1.5-8.6c-0.2-1.3-0.7-2.1-1.9-2.6
			c-1.6-0.8-3.2-1.7-4.8-2.6c0.1-0.2,0.2-0.3,0.3-0.3c5.3-0.3,7.3-3.7,8-8.4c0.2-1.2,0.7-2.3,1.3-4c0.8,3.3,1.5,6,2.1,8.7
			c0.3,1.4,0.9,2.3,2.4,2.6c1.5,0.3,3,1,5,1.7c-2,1-3.7,1.8-5.3,2.5c-1,0.5-1.5,1.1-1.7,2.3c-0.7,5.2-1.5,10.3-2.3,15.5
			C1233.4,129.4,1233.3,129.4,1233.2,129.4z"/>
		<path class="st104" d="M1363.2,319.9c-0.4-2.3-0.8-4.5-1.2-6.8c-0.5-2.9-1-5.7-1.5-8.6c-0.2-1.3-0.7-2.1-1.9-2.6
			c-1.6-0.8-3.2-1.7-4.8-2.6c0.1-0.2,0.2-0.3,0.3-0.3c5.3-0.3,7.3-3.7,8-8.4c0.2-1.2,0.7-2.3,1.3-4c0.8,3.3,1.5,6,2.1,8.7
			c0.3,1.4,0.9,2.3,2.4,2.6c1.5,0.3,3,1,5,1.7c-2,1-3.7,1.8-5.3,2.5c-1,0.5-1.5,1.1-1.7,2.3c-0.7,5.2-1.5,10.3-2.3,15.5
			C1363.4,319.9,1363.3,319.9,1363.2,319.9z"/>
		<path class="st104" d="M468.8,100.2c-0.4-2.3-0.8-4.5-1.2-6.8c-0.5-2.9-1-5.7-1.5-8.6c-0.2-1.3-0.7-2.1-1.9-2.6
			c-1.6-0.8-3.2-1.7-4.8-2.6c0.1-0.2,0.2-0.3,0.3-0.3c5.3-0.3,7.3-3.7,8-8.4c0.2-1.2,0.7-2.3,1.3-4c0.8,3.3,1.5,6,2.1,8.7
			c0.3,1.4,0.9,2.3,2.4,2.6c1.5,0.3,3,1,5,1.7c-2,1-3.7,1.8-5.3,2.5c-1,0.5-1.5,1.1-1.7,2.3c-0.7,5.2-1.5,10.3-2.3,15.5
			C469,100.1,468.9,100.2,468.8,100.2z"/>
		<path class="st104" d="M1149.5,42.9c0.7,2.8,1.4,5.5,2,8.3c0.3,1.3,0.8,2,2.1,2.3c1.6,0.4,3.1,1,5.2,1.7c-2,1-3.7,1.8-5.3,2.6
			c-1.1,0.5-1.5,1.1-1.7,2.3c-0.7,5.2-1.5,10.3-2.7,15.6c-0.5-3-1.1-5.9-1.6-8.9c0-0.1,0-0.1,0-0.2c-0.4-5.3-1.3-10.2-8.3-11.3
			c1.9-1.1,3.3-1.4,4.7-1.7c1.6-0.4,2.5-1,2.9-2.7c0.6-2.7,1.6-5.4,2.4-8C1149.3,42.8,1149.4,42.9,1149.5,42.9z"/>
		<path class="st104" d="M1389.4,42.9c0.7,2.8,1.4,5.5,2,8.3c0.3,1.3,0.8,2,2.1,2.3c1.6,0.4,3.1,1,5.2,1.7c-2,1-3.7,1.8-5.3,2.6
			c-1.1,0.5-1.5,1.1-1.7,2.3c-0.7,5.2-1.5,10.3-2.7,15.6c-0.5-3-1.1-5.9-1.6-8.9c0-0.1,0-0.1,0-0.2c-0.4-5.3-1.3-10.2-8.3-11.3
			c1.9-1.1,3.3-1.4,4.7-1.7c1.6-0.4,2.5-1,2.9-2.7c0.6-2.7,1.6-5.4,2.4-8C1389.1,42.8,1389.3,42.9,1389.4,42.9z"/>
		<path class="st104" d="M873.3,64.7c-0.5-2.8-1.2-5.5-1.4-8.3c-0.2-2.3-1.2-3.7-3.3-4.5c-0.5-0.2-0.9-0.5-1.6-1
			c5.7,0.1,5.1-4.7,6.6-8.3c0.3,1.1,0.6,1.7,0.6,2.4c0.4,3.2,1.4,6,5.3,5.9c-0.1,0.4-0.1,0.6-0.2,0.6c-3.5,0.9-4.6,3.4-4.7,6.7
			c-0.1,2.1-0.6,4.3-0.9,6.4C873.6,64.6,873.4,64.7,873.3,64.7z"/>
		<path class="st104" d="M1099.4,73.9c5.4-0.2,4.6-5.1,6.3-8.4c0.4,1.6,0.9,2.8,1,4c0.2,2.4,1.5,3.6,3.7,4c0.4,0.1,0.8,0.2,1.2,0.4
			c-0.1,0.2-0.1,0.5-0.1,0.5c-3.4,0.9-4.6,3.2-4.7,6.5c-0.1,2.2-0.6,4.4-1.3,6.7c-0.5-2.8-1.2-5.6-1.5-8.5c-0.2-2.2-1.2-3.4-3.1-4.2
			C1100.4,74.6,1099.9,74.2,1099.4,73.9z"/>
		<path class="st104" d="M703.3,208.4c5.5-0.2,4.7-5,6.3-8.6c0.4,1.7,0.8,3,1,4.3c0.3,2.1,1.2,3.5,3.4,3.8c0.5,0.1,1.2,0.1,1.7,1
			c-4.9,0.4-4.7,4.2-5.2,7.6c-0.3,1.8-0.5,3.6-1.2,5.4c-0.5-2.7-1.2-5.3-1.4-8c-0.2-2.4-1.2-3.9-3.4-4.7
			C704.2,209,703.7,208.7,703.3,208.4z"/>
		<path class="st104" d="M1351,187.4c5.9,0.1,4.9-5,6.6-8.2c0.3,0.9,0.5,1.6,0.6,2.2c1.1,4.5,1.1,4.5,5.3,6.2
			c-0.1,0.1-0.1,0.3-0.2,0.3c-3.6,0.9-4.6,3.6-4.7,7c-0.1,2-0.6,4-1,6.4c-0.6-1.1-0.6-2.1-0.8-3c-0.2-1-0.4-2-0.5-3
			C1356,191.9,1355.6,188.5,1351,187.4z"/>
		<path class="st104" d="M1486,187.4c5.9,0.1,4.9-5,6.6-8.2c0.3,0.9,0.5,1.6,0.6,2.2c1.1,4.5,1.1,4.5,5.3,6.2
			c-0.1,0.1-0.1,0.3-0.2,0.3c-3.6,0.9-4.6,3.6-4.7,7c-0.1,2-0.6,4-1,6.4c-0.6-1.1-0.6-2.1-0.8-3c-0.2-1-0.4-2-0.5-3
			C1491,191.9,1490.6,188.5,1486,187.4z"/>
		<path class="st104" d="M1204,39.2c1.3-1.2,3.9-0.1,4.4-2.7c0.4-1.8,1.1-3.5,1.8-5.9c0.3,1.1,0.4,1.6,0.5,2c0.6,3.2,1,6.7,5.7,6.5
			c-0.2,0.5-0.3,0.6-0.3,0.7c-3.4,0.8-4.6,3.2-4.7,6.5c-0.1,2.2-0.6,4.5-1.3,6.7c-0.5-2.6-1.1-5.1-1.3-7.7c-0.3-2.6-1.2-4.5-3.8-5.4
			C1204.6,39.9,1204.2,39.7,1204,39.2z"/>
		<path class="st104" d="M751.8,39.4c5.6-0.2,4.6-5.2,6.3-8.3c0.2,0.7,0.5,1.2,0.6,1.8c0.6,3.2,1.1,6.5,5.6,6.3
			c-0.2,0.4-0.2,0.6-0.3,0.6c-3.2,0.9-4.6,3-4.7,6.3c-0.1,2.3-0.6,4.6-1.3,6.9c-0.5-2.8-1.1-5.6-1.4-8.4c-0.3-2-0.9-3.6-3-4.3
			C752.8,40.1,752.3,39.7,751.8,39.4z"/>
		<path class="st104" d="M712.7,94c3-0.2,2.8-2.6,3.6-4.8c1,2,0.5,4.7,3.6,4.9c-4,1.4-2.4,5.1-3.6,8.1c-0.3-1.9-0.8-3.3-0.8-4.7
			C715.4,95.5,714.1,94.8,712.7,94z"/>
		<path class="st104" d="M777.7,107.6c-1-6.3-1-6.3-3.5-8c3-0.2,2.9-2.5,3.6-4.7c1,2,0.5,4.7,3.7,4.9
			C777.3,101.1,779.2,104.9,777.7,107.6z"/>
		<path class="st104" d="M1237.5,252.9c0.5,2.4,0.5,4.6,3.4,4.9c-4.1,1.4-2.4,5.1-3.5,7.7c-0.7-1.4-0.8-2.9-0.9-4.3
			c-0.1-1.9-1.3-2.6-3.2-3.6C1236.9,257.7,1236.4,254.9,1237.5,252.9z"/>
		<path class="st104" d="M1392.5,246.1c-4.1,1.4-2.3,5.1-3.5,7.6c-1.4-2.5,0.4-6.4-3.8-7.7c3.1-0.2,2.9-2.7,3.7-4.8
			C1389.8,243.3,1389.3,246.1,1392.5,246.1z"/>
		<path class="st104" d="M706.8,18.8c0.9,2,0.4,4.6,3.6,4.8c-4,1.3-2.2,5.1-3.6,7.5c-1.2-2.6,0.3-6.3-3.7-7.7
			C706.2,23.4,705.9,20.8,706.8,18.8z"/>
		<path class="st104" d="M1053.2,24c0.8,2.2,0.4,4.7,3.6,4.9c-4.1,1.4-2.3,5.2-3.6,7.6c-1.4-2.4,0.4-6.3-3.7-7.7
			C1052.5,28.6,1052.3,26.1,1053.2,24z"/>
		<path class="st104" d="M824.6,29.6c-1.5-2.3,0.4-6.2-3.8-7.6c3.2-0.1,2.8-2.8,3.8-4.7c0.8,2,0.4,4.6,3.5,4.8
			C824,23.4,825.8,27.2,824.6,29.6z"/>
		<path class="st104" d="M1289.2,77.4c0.7,2.2,0.4,4.7,3.8,4.8c-1.5,1.1-3.1,1.2-3,3.1c0.1,1.2-0.3,2.5-0.7,3.7
			c-1.4-2.2,0-5.7-3.8-6.7C1288.5,82,1288.2,79.4,1289.2,77.4z"/>
		<path class="st104" d="M997.1,41.1c-1.4-1.8,0.1-4.9-3.5-5.9c2.6-0.2,2.6-2,3.4-3.8c0.5,1.8,0.5,3.6,2.7,3.8
			C997.9,36.4,997.9,36.4,997.1,41.1z"/>
		<path class="st104" d="M709.5,157.6c-0.9-1.9,0.3-4.6-3.2-5.7c2.6-0.3,2.8-1.8,3.1-3.4c1.3,1,0.1,3.6,3,3.3
			C709.3,153,710.5,155.7,709.5,157.6z"/>
		<path class="st104" d="M380,157.6c-0.9-1.9,0.3-4.6-3.2-5.7c2.6-0.3,2.8-1.8,3.1-3.4c1.3,1,0.1,3.6,3,3.3
			C379.8,153,381.1,155.7,380,157.6z"/>
		<path class="st104" d="M1236.3,172.5c-2.9,1.1-2,3.7-2.6,5.8c-1.3-1.9,0.1-4.8-3.3-5.8c2.6-0.2,2.5-2,3.3-3.6
			C1234.2,170.6,1233.9,172.6,1236.3,172.5z"/>
		<path class="st104" d="M702.7,269.2c-3,1.1-1.6,3.9-2.7,5.7c-0.9-2,0.2-4.7-2.7-5.7c2.2-0.2,2-2,2.6-3.5
			C700.8,267.1,700,269.3,702.7,269.2z"/>
		<path class="st104" d="M642.5,230.8c0.4,2.3,0.8,4.5,1.2,6.8c0.5,2.9,1,5.7,1.5,8.6c0.2,1.3,0.7,2.1,1.9,2.6
			c1.6,0.8,3.2,1.7,4.8,2.6c-0.1,0.2-0.2,0.3-0.3,0.3c-5.3,0.3-7.3,3.7-8,8.4c-0.2,1.2-0.7,2.3-1.3,4c-0.8-3.3-1.5-6-2.1-8.7
			c-0.3-1.4-0.9-2.3-2.4-2.6c-1.5-0.3-3-1-5-1.7c2-1,3.7-1.8,5.3-2.5c1-0.5,1.5-1.1,1.7-2.3c0.7-5.2,1.5-10.3,2.3-15.5
			C642.3,230.8,642.4,230.8,642.5,230.8z"/>
		<path class="st104" d="M655.3,122.5c-5.5,0.2-4.7,5-6.3,8.6c-0.4-1.7-0.8-3-1-4.3c-0.3-2.1-1.2-3.5-3.4-3.8
			c-0.5-0.1-1.2-0.1-1.7-1c4.9-0.4,4.7-4.2,5.2-7.6c0.3-1.8,0.5-3.6,1.2-5.4c0.5,2.7,1.2,5.3,1.4,8c0.2,2.4,1.2,3.9,3.4,4.7
			C654.5,122,654.9,122.3,655.3,122.5z"/>
		<path class="st104" d="M570.5,221.2c-3,0.2-2.8,2.6-3.6,4.8c-1-2-0.5-4.7-3.6-4.9c4-1.4,2.4-5.1,3.6-8.1c0.3,1.9,0.8,3.3,0.8,4.7
			C567.8,219.7,569.1,220.4,570.5,221.2z"/>
		<path class="st104" d="M651.8,312.2c-0.9-2-0.4-4.6-3.6-4.8c4-1.3,2.2-5.1,3.6-7.5c1.2,2.6-0.3,6.3,3.7,7.7
			C652.4,307.6,652.7,310.1,651.8,312.2z"/>
		<path class="st104" d="M606.5,159.9c0.9,1.9-0.3,4.6,3.2,5.7c-2.6,0.3-2.8,1.8-3.1,3.4c-1.3-1-0.1-3.6-3-3.3
			C606.7,164.6,605.5,161.9,606.5,159.9z"/>
		<path class="st104" d="M496.1,173.3c0.9,1.9-0.3,4.6,3.2,5.7c-2.6,0.3-2.8,1.8-3.1,3.4c-1.3-1-0.1-3.6-3-3.3
			C496.3,178,495,175.3,496.1,173.3z"/>
		<path class="st104" d="M537.3,37.7c3-1.1,1.6-3.9,2.7-5.7c0.9,2-0.2,4.7,2.7,5.7c-2.2,0.2-2,2-2.6,3.5
			C539.2,39.8,539.9,37.5,537.3,37.7z"/>
		<path class="st104" d="M1237.5,13.7c0.5,1.5,0.2,3.3,2.6,3.4c-3,1-1.8,3.7-2.7,5.6c-0.7-0.9-0.5-2-0.7-2.9
			c-0.2-0.7-0.1-1.5-0.9-1.9c-1.2-0.6-1.4-0.9,0.1-1.3C1237.1,16.2,1236.6,14.6,1237.5,13.7z"/>
		<path class="st104" d="M926.6,22.4c2.1-0.2,2-2,2.6-3.6c0.7,1.5,0.5,3.4,2.8,3.6c-3,0.9-1.6,3.7-2.7,5.6
			C928.4,26.1,929.5,23.4,926.6,22.4z"/>
		<path class="st104" d="M1109.4,23.9c2.3,0,1.9-2.1,2.8-3.4c0.5,1.6,0.4,3.3,3.1,3.4c-3.5,1.2-2.4,3.8-3.2,5.8
			C1111,27.9,1112.3,25,1109.4,23.9z"/>
		<path class="st104" d="M1452.7,294.9c2.3,0,1.9-2.1,2.8-3.4c0.5,1.6,0.4,3.3,3.1,3.4c-3.5,1.2-2.4,3.8-3.2,5.8
			C1454.4,298.9,1455.7,296,1452.7,294.9z"/>
		<path class="st105" d="M1003.9,98.1c1.7-1.2,2.4-3.1,3.3-4.8c2.6-3.3,4.5-7,6.8-10.4c0.5-0.7,0.9-1.4,1.6-2.4
			c15.5,23.8,30.9,47.4,46.5,71.5c-3.7,0-7,0-10.2,0c-3,0-6,0-9,0c-1.2,0-1.7,0.2-0.9,1.4c1.1,1.6,2.1,3.2,3.1,4.8
			c11,16.9,22,33.8,32.9,50.6c0.4,0.6,0.7,1.2,1.3,2.2c-7.1,0-13.9,0-21.1,0c1.3,2,2.3,3.7,3.4,5.3c2.4,3.7,4.8,7.5,7.3,11.2
			c0.4,0.6,0.6,1.4,1.4,1.5c0.2,1.3,1,2.3,1.6,3.3c8.3,12.7,16.6,25.4,24.8,38.2c0.4,0.6,1.2,1.2,0.8,1.9c-0.4,0.8-1.4,0.4-2.2,0.4
			c-6.4,0-12.8,0-19.3,0c-0.7,0-1.6-0.3-2,0.4c-0.3,0.6,0.3,1.2,0.7,1.7c10.9,16.8,21.8,33.5,32.7,50.2c3.1,4.8,6.2,9.7,9.3,14.6
			c-8.5,0.9-16.9,0.3-25.4,0.5c-0.9,0-1.9,0-2.8,0.5c-1.8-1-2.5-0.2-2.5,1.6c-0.7,0.5-1-0.3-1.4-0.6c-27.3-21.9-54.5-43.9-81.8-65.8
			c-3.9-3.1-7.6-6.5-11.9-9.3l0,0c-0.1-0.2-0.3-0.3-0.4-0.5c-4.1-6.9-7.7-14-11.3-21.1c-4.1-8.4-8.2-16.8-11.7-25.5
			c0.8-2.4,2.5-4.2,3.8-6.3c0.3-0.5,0.9-1.1,0.7-1.7c-0.3-0.8-1.1-0.4-1.7-0.4c-2.1,0-4.2,0-6.3,0c-0.4-0.9-0.8-1.2-1.3-0.1
			c-2.6,0-5.3,0-7.9,0c-2.1,0-2.2-0.3-1.1-2.1c7.6-11.9,15.1-23.9,22.7-35.8c4.1-6.4,8.1-12.8,12.2-19.2c1.1-1.7,0.6-2-1.2-2
			c-5,0.1-10.1,0-15.1,0c-0.7,0-1.5,0.3-2-0.5c0.3-0.6,0.7-1.3,1-1.9c9.1-14.3,18.3-28.6,27.3-43
			C1000.7,103.8,1002.9,101.3,1003.9,98.1z"/>
		<path class="st99" d="M1003.9,98.1c-1,3.2-3.2,5.7-5,8.5c-9,14.4-18.2,28.7-27.3,43c-0.4,0.6-0.7,1.3-1,1.9c0.6,0.8,1.4,0.5,2,0.5
			c5,0,10.1,0.1,15.1,0c1.8,0,2.3,0.3,1.2,2c-4.1,6.4-8.1,12.8-12.2,19.2c-7.6,11.9-15.1,23.9-22.7,35.8c-1.1,1.8-1,2,1.1,2.1
			c2.6,0,5.3,0,7.9,0c-4.3,10.4-9,20.5-14,30.5c-4.2,8.4-8.5,16.7-13.4,24.7c-6.6,5.2-13.3,10.5-19.9,15.7
			c-8.4,6.6-16.8,13.3-25.2,19.9c-5.2-8-10.4-16-15.6-24c-0.4-0.6-1.2-1.2-0.8-1.9c0.4-0.9,1.4-0.5,2.2-0.5c1.8,0,3.6,0,5.5,0
			c0.6,0,1.3,0.3,1.6-0.3c0.4-0.6-0.2-1.1-0.5-1.5c-3.2-5-6.4-9.9-9.6-14.9c-2.4-3.7-4.8-7.3-7.2-11c-0.3-0.5-1-1-0.6-1.7
			c0.3-0.6,1.1-0.3,1.6-0.4c1.7,0,3.5,0,5.2,0c0.8,0,1.8,0.4,2.2-0.3c0.4-0.8-0.5-1.6-0.9-2.3c-3.2-4.9-6.5-9.8-9.7-14.8
			c-1.1-1.7-2.6-3.2-2.9-5.3c1-4.5,3.1-8.6,4.7-12.9c5.9-14.9,11.9-29.7,17.9-44.5c0.3-0.8,0.7-1.6,0.6-2.5c1-0.4,1-1.4,1.3-2.1
			c8.4-20.1,17-40.2,26.1-60c0.3-0.6,0.4-1.4,1-1.9c1.6,1.7,3.2,3.3,4.8,5.1c0.8,0.9,1.4,0.9,2.3,0.3c4.2-2.7,8.6-5.3,12.7-8.1
			c1.4-1,2.2-0.7,3.2,0.4c2.9,3,5.9,5.9,8.8,8.9c1,1,1.6,1,2.7,0.1c3.6-2.8,7.3-5.5,10.9-8.4c1.2-1,1.8-0.8,2.7,0.4
			c2.4,3.2,5,6.3,7.4,9.5c0.8,1,1.2,1,2.1,0.2c3.7-3.3,7.5-6.5,11.1-9.9c1.1-1,1.7-1.2,2.8,0.1c2.4,2.9,5.1,5.6,7.5,8.6
			c1.2,1.5,1.8,1.2,2.7-0.3c1.8-2.9,3.9-5.6,5.7-8.5c1-1.6,1.7-1.9,2.9-0.3C1003.3,97.5,1003.6,97.8,1003.9,98.1z"/>
		<path class="st106" d="M935.6,266.3c4.9-8,9.2-16.4,13.4-24.7c5-10,9.8-20.1,14-30.5c0.5-1.1,0.9-0.9,1.3,0.1
			c1.1,2.9,2.2,5.7,3.6,8.4c3.5,8.7,7.6,17.1,11.7,25.5c3.5,7.2,7.2,14.3,11.3,21.1c0.1,0.2,0.3,0.3,0.4,0.5l0,0
			c0.2,0.8,0.6,1.6,1.1,2.2c8,14.1,16.8,27.6,26.4,40.6c7.8,10.5,16,20.8,24.9,30.4c2.7,3,5.5,6.1,8.2,9c2.6,2.8,2.6,3-0.1,6.2
			c-1-2.4-2.1-4.8-3.2-7.6c-1.1,1.7-2,3.1-3.4,4.3c-1.3-2.4-2.6-4.8-4-7.5c-0.8,2.7-1.6,5.1-2.2,7.4c-0.3,1.2-0.7,1.2-1.6,0.5
			c-1.4-1.2-2.5-2.6-3.5-4.7c-0.7,2.9,0,5.3,0.5,7.7c0.3,1.4,1.3,3.4,0.7,4.1c-0.8,1.1-2.8,0.4-4.3,0.4c-6.8,0-13.5-0.1-20.3-0.1
			c-0.1-0.6-0.4-1.1-0.8-1.5c-8.3-10-14.9-21.2-20.9-32.7c-8.9-17-16.1-34.8-22.5-52.8c-0.3-0.8-0.4-1.8-1.4-2.1
			c-0.7-1.6-0.6-3.4-1.7-5.2c-0.4,1.6-0.8,3-1.1,4.3c-0.6,0.2-0.8,0.8-1,1.4c-4.7,13.1-9.8,26-15.7,38.6
			c-6.8,14.5-14.3,28.5-23.6,41.5c-2,2.8-4.6,5.2-6.1,8.5c-5.6,0.3-11.2,0.2-16.9,0c-0.1-1.2-0.2-2.3-0.3-3.5
			c-1,0.4-1.4,1.3-2.4,1.4c-0.5-1.2-1-2.5-1.6-4c-0.6,1.7-1.1,3.1-1.6,4.4c-1-0.2-0.9-3-2.7-1c-0.4-3.7-0.8-7.5-1.8-11.1
			c-0.4,3.5-2.7,5.6-5.5,7.9c0-3.2,0-6,0-8.8c-0.2,0-0.3-0.1-0.5-0.1c-1,2.8-2.1,5.7-3.2,8.6c-0.3-0.2-0.4-0.3-0.6-0.5
			c-3.4-4.2-3.4-4.2,0.2-8.3c5.1-5.7,10.2-11.4,14.8-17.5c6.3-7.3,12-15,17.5-22.9c8.2-11.6,16-23.5,23-35.9
			C934.9,267.7,935.2,267,935.6,266.3z"/>
		<path class="st99" d="M1130.4,338.9c2.3-4.6,5.4-8.6,8-13c1.2-1.9,2.4-3.8,3.6-5.7c0.3-0.5,0.9-0.9,0.5-1.5
			c-0.4-0.5-1.1-0.3-1.6-0.3c-1.3,0-2.6,0-3.9,0c-1.6,0.1-1.7-0.5-0.9-1.8c3.3-5.1,6.6-10.3,9.9-15.5c0.7-1.1,1.4-2.2,2.3-3.8
			c-1.7,0-3.1,0-4.4,0c-0.6,0-1.4,0.3-1.8-0.5c-0.3-0.6,0.3-1.1,0.6-1.6c3.3-5.2,6.6-10.3,9.9-15.5c0.5-0.7,1.4-1.5,0.9-2.3
			c-0.4-0.7-1.5-0.2-2.2-0.3c-1.1-0.2-2.7,0.6-3.2-0.5c-0.4-0.9,0.9-1.8,1.4-2.8c4.1-6.5,8.2-13.1,12.3-19.6
			c0.7-1.2,1.2-1.7,2.2-0.2c4.5,7.1,9.1,14.1,13.7,21.1c0.8,1.3,0.9,2-0.9,1.9c-0.2,0-0.4,0-0.7,0c-1.3,0.2-3.1-0.7-3.6,0.5
			c-0.5,1,1.1,2.2,1.8,3.3c3.2,5,6.4,9.9,9.7,14.8c0.8,1.2,0.5,1.5-0.8,1.5c-0.9,0-1.8,0-2.6,0c-0.8,0-1.8-0.4-2.3,0.3
			c-0.5,0.8,0.5,1.4,0.9,2.1c3.6,5.6,7.3,11.3,10.9,16.9c0.3,0.4,0.5,0.9,0.9,1.5c-2.1,0.6-4.1,0.2-6.1,0.3c-1.5,0-1.9,0.3-1,1.7
			c2.9,4.3,5.6,8.7,8.4,13c0.5,0.7,0.8,1.5,1.2,2.3c-7.1,0.3-14.3,0.6-21.4,1c-9.3,0.5-18.6,1.1-27.9,1.8
			C1139.7,338.5,1135.1,339.1,1130.4,338.9z"/>
		<path class="st107" d="M962.2,269.7c0.4-1.4,0.7-2.7,1.1-4.3c1.1,1.8,1,3.6,1.7,5.2c0.1,0.4,0.1,0.9,0.2,1.3
			c5.4,22.6,10.8,45.1,16.3,67.7c1.6,6.8,3.3,13.6,5,20.3c-15.5,0-31,0-46.6,0c0.2-0.6,0.4-1.3,0.6-1.9c4.7-18.8,9.3-37.6,14-56.5
			C957,291,959.6,280.4,962.2,269.7z"/>
		<path class="st99" d="M741.1,338.1c2.4-3.9,4.9-7.8,7.3-11.7c0.3-0.5,0.9-0.9,0.6-1.5c-0.3-0.6-1.1-0.3-1.6-0.4
			c-1.1-0.1-2.6,0.5-3.1-0.4c-0.5-1,0.8-2,1.4-3c2.2-3.5,4.5-7,6.7-10.5c0.3-0.5,0.9-0.9,0.6-1.5c-0.4-0.6-1.1-0.3-1.6-0.3
			c-0.2,0-0.4,0-0.7,0c-0.6-0.1-1.3,0.3-1.6-0.3c-0.3-0.6,0.3-1.1,0.6-1.5c2.3-3.6,4.6-7.3,6.9-10.9c0.3-0.5,1-1.1,0.7-1.8
			c-0.3-0.7-1.2-0.3-1.8-0.4c-0.7-0.1-1.6,0.4-2-0.4c-0.4-0.7,0.5-1.3,0.8-1.9c3-4.8,6-9.5,9-14.2c0.7-1.1,1-1.6,2-0.1
			c3.1,4.9,6.3,9.7,9.4,14.5c0.3,0.5,1,1.1,0.6,1.7c-0.4,0.6-1.2,0.3-1.8,0.4c-0.7,0.1-1.7-0.3-2.1,0.3c-0.5,0.8,0.5,1.4,0.9,2.1
			c2.3,3.6,4.6,7.1,6.9,10.6c0.9,1.4,0.7,1.9-1,1.9c-0.9,0-2.1-0.5-2.6,0.5c-0.3,0.7,0.7,1.5,1.2,2.2c2.5,3.8,4.9,7.6,7.4,11.4
			c0.8,1.2,0.8,1.7-0.9,1.7c-1.3,0-3.1-0.7-3.7,0.4c-0.5,1,1,2.2,1.7,3.3c2,3.3,4.4,6.4,6.1,9.8C772.1,338,756.6,339.3,741.1,338.1z
			"/>
		<path class="st108" d="M1043.7,339.9c-8.9-9.6-17.1-19.9-24.9-30.4c-9.6-13-18.5-26.5-26.4-40.6c1,0,1.5,0.8,2.2,1.3
			c18.6,15,37.2,29.9,55.7,44.9c10.3,8.3,20.6,16.7,31,25.1c-5.3,0.3-10.6-0.4-15.8-0.7c-6.2-0.4-12.5-0.1-18.7-0.1
			C1045.6,339.4,1044.6,339.4,1043.7,339.9z"/>
		<path class="st109" d="M986.4,359.9c-1.7-6.8-3.4-13.6-5-20.3c-5.4-22.6-10.9-45.1-16.3-67.7c-0.1-0.4-0.1-0.9-0.2-1.3
			c1,0.3,1.1,1.3,1.4,2.1c6.4,18.1,13.6,35.8,22.5,52.8c6,11.5,12.6,22.6,20.9,32.7c0.4,0.5,0.7,0.9,0.8,1.5
			c-6.6,0.1-13.2,0.1-19.7,0.2C989.3,359.9,987.9,359.9,986.4,359.9z"/>
		<path class="st109" d="M962.2,269.7c-2.6,10.6-5.2,21.2-7.8,31.8c-4.6,18.8-9.3,37.6-14,56.5c-0.2,0.6-0.4,1.3-0.6,1.9
			c-7.1,0-14.3,0-21.4,0c-0.9,0-1.7-0.1-2.6-0.2c1.4-3.2,4-5.6,6.1-8.5c9.4-13,16.8-27.1,23.6-41.5c5.9-12.6,11-25.5,15.7-38.6
			C961.4,270.6,961.5,270,962.2,269.7z"/>
		<path class="st110" d="M934.5,268.4c-7,12.4-14.7,24.3-23,35.9c-5.6,7.8-11.3,15.6-17.5,22.9c-2.7-5.1-6.2-9.7-9.1-14.6
			c-0.6-1.1-1.3-2.1-1.9-3.2c1-0.8,2-1.6,3.1-2.4c1.4,0,2.7,0.1,4.1,0c1-0.1,2.6,0.6,2.9-0.5c0.3-0.9-0.8-2-1.5-2.9
			c-0.2-0.2-0.4-0.4-0.7-0.5c6.8-5.5,13.6-10.9,20.5-16.4C919.1,280.6,926.8,274.5,934.5,268.4z"/>
		<path class="st111" d="M1081.2,340.2c-10.3-8.4-20.6-16.7-31-25.1c-18.6-15-37.2-29.9-55.7-44.9c-0.7-0.5-1.2-1.3-2.2-1.3
			c-0.5-0.7-0.9-1.4-1.1-2.2c4.2,2.7,8,6.1,11.9,9.3c27.3,21.9,54.5,43.9,81.8,65.8c0.4,0.3,0.7,1,1.4,0.6c0.6,1.1,0.6,2.9,2.6,2.7
			c0.2,0.3,0.2,0.7,0,1c-0.8,0.1-1.5-0.2-2.2-0.4C1085.4,343.2,1083.3,341.7,1081.2,340.2z"/>
		<path class="st111" d="M886,307c-1,0.8-2,1.6-3.1,2.4c-7.5,5.9-15.1,11.9-22.6,17.8c-6.1,4.8-12.2,9.7-18.3,14.5
			c-1.5,1.2-2.8,2.5-3.6,4.3c-0.7,0-1.5,0-2.2,0c-0.3-0.3-0.3-0.7-0.1-1c1.8,0.4,2.2-0.8,2.3-2.2c0.9,0.2,1.3-0.5,1.9-0.9
			c16.5-13.1,32.9-26.2,49.4-39.2c0.3-0.2,0.5-0.5,0.8-0.8c8.4-6.6,16.8-13.3,25.2-19.9c6.6-5.2,13.3-10.5,19.9-15.7
			c-0.4,0.7-0.8,1.4-1.2,2.1c-7.7,6.1-15.4,12.2-23.1,18.3c-6.8,5.4-13.6,10.9-20.5,16.4C889.3,304.4,887.7,305.7,886,307z"/>
		<path class="st106" d="M864.9,359.3c3.4-3,6.7-6,10-8.9c0.8,2.4,1.2,5.6,1.7,8.7c0.1,0.7-0.3,0.8-0.9,0.8c-3.5,0-6.9,0-10.4,0
			C865.2,359.7,865.1,359.5,864.9,359.3z"/>
		<path class="st101" d="M890.3,357c1.8-2,1.7,0.8,2.7,1c0.5-1.3,1-2.7,1.6-4.4c0.6,1.6,1.1,2.8,1.6,4c1-0.1,1.4-1.1,2.4-1.4
			c0.1,1.2,0.2,2.4,0.3,3.5c-0.2,0.9-1,1.2-1.8,1.4c-2.5,0.7-5,0.5-7.6,0.6c-0.6,0-1.1-0.3-1.3-0.9c-0.7-1.9-1.9-3.6-2.1-5.7l0,0
			c0.9,0.8,1.8,1.5,2.6,2.3C889.6,358.4,890,357.9,890.3,357z"/>
		<path class="st106" d="M1056,354.1c1.9,1.9,3.8,3.8,5.9,5.8c-1.7,0-3.5,0-5.2,0c-0.7,0-1.1-0.2-1-1
			C1055.9,357.2,1055.9,355.4,1056,354.1z"/>
		<path class="st104" d="M838.5,342.8c-0.1,1.4-0.5,2.6-2.3,2.2c0-0.9,0-1.9,0-2.8c0-0.9-0.1-1.9,1.1-1.9c1.2-0.1,1.2,0.9,1.2,1.8
			C838.5,342.4,838.5,342.6,838.5,342.8z"/>
		<path class="st104" d="M1088.9,345.1c-2,0.2-2-1.6-2.6-2.7c0-1.8,0.7-2.6,2.5-1.6c0,0.2,0,0.3,0.1,0.4
			C1088.9,342.5,1088.9,343.8,1088.9,345.1z"/>
		<path class="st104" d="M1086.6,345.6c0.7,0.2,1.4,0.5,2.2,0.4c0,1.2,0.1,2.3,0.1,3.5c-0.4,0.6-0.8,1.1-1.6,0.8
			c-0.8-0.3-0.8-1-0.8-1.6C1086.6,347.6,1086.6,346.6,1086.6,345.6z"/>
		<path class="st104" d="M836.2,346.1c0.7,0,1.5,0,2.2,0c0,1.1,0,2.2,0,3.2c0,0.7-0.4,1.1-1.1,1.1c-0.7,0-1.1-0.4-1.1-1.1
			C836.2,348.2,836.2,347.1,836.2,346.1z"/>
		<path class="st105" d="M1088.9,349.5c0-1.2-0.1-2.3-0.1-3.5c0.2-0.3,0.3-0.6,0-1c0-1.3,0.1-2.6,0.1-3.9c0.6,0.3,0.9,0.8,0.8,1.4
			C1089.3,344.9,1090.6,347.3,1088.9,349.5z"/>
		<polygon class="st101" points="886.1,355.2 886,355.1 886.1,355.2 		"/>
		<path class="st110" d="M967.9,219.5c-1.4-2.7-2.5-5.5-3.6-8.4c2.1,0,4.2-0.1,6.3,0c0.6,0,1.4-0.4,1.7,0.4c0.3,0.6-0.3,1.2-0.7,1.7
			C970.4,215.4,968.6,217.2,967.9,219.5z"/>
		<path class="st111" d="M991.2,266.7c-0.1-0.2-0.3-0.3-0.4-0.5C991,266.4,991.1,266.5,991.2,266.7z"/>
		<path class="st100" d="M886,307c1.6-1.3,3.3-2.6,4.9-3.9c0.2,0.2,0.5,0.3,0.7,0.5c0.7,0.9,1.8,2,1.5,2.9c-0.4,1.1-1.9,0.4-2.9,0.5
			C888.8,307.1,887.4,307,886,307z"/>
		<path class="st104" d="M599,100.2c-0.9-1.9,0.3-4.6-3.2-5.7c2.6-0.3,2.8-1.8,3.1-3.4c1.3,1,0.1,3.6,3,3.3
			C598.8,95.6,600,98.3,599,100.2z"/>
		<path class="st104" d="M578.4,285.4c-0.9-1.9,0.3-4.6-3.2-5.7c2.6-0.3,2.8-1.8,3.1-3.4c1.3,1,0.1,3.6,3,3.3
			C578.2,280.8,579.5,283.5,578.4,285.4z"/>
	</g>
</g>
<g>
	<path class="st100" d="M541,162.4c-1.8,0-3.6-0.2-5.3-0.7c-2.3-0.6-4.3-1.7-6.1-3.3c-1.4-1.2-2.6-2.7-3.5-4.5
		c-0.4,0.6-0.9,1.1-1.5,1.6c-1.7,1.6-3.8,2.8-6.4,3.6c-2,0.6-4.3,0.9-7,0.9h-21c-2.8,0-5.2-0.3-7.2-1c-2.5-0.9-4.6-2.2-6.3-4
		c-1.7-1.9-2.9-4.3-3.3-6.9c-0.2-1.3-0.3-2.6-0.3-4V82.4c0-7.7,3.3-11.8,6-13.9c3.2-2.4,6.9-3.6,11-3.6c1.8,0,3.6,0.2,5.3,0.7
		c2.4,0.7,4.4,1.8,6.2,3.4c1.7,1.6,3.1,3.6,4.1,5.9c0.9,2.2,1.4,4.7,1.4,7.5v45.9h4c2.8,0,5.2,0.3,7.3,1c2.2,0.7,4,1.7,5.5,3V81.5
		c0-7.7,3.3-11.8,6-13.9c3.2-2.4,6.9-3.6,11-3.6c1.8,0,3.6,0.2,5.3,0.7c2.4,0.7,4.4,1.8,6.2,3.4c1.7,1.6,3.1,3.6,4.1,5.9
		c0.9,2.2,1.4,4.7,1.4,7.5v12.9c1.3,0.2,2.5,0.4,3.6,0.8c2.4,0.8,4.5,2,6.1,3.6c1.9,1.8,3.2,4,3.9,6.4c0.5,1.6,0.7,3.2,0.7,4.8
		c0,1.8-0.2,3.5-0.7,5.1c-0.7,2.4-2,4.6-3.9,6.4c-1.7,1.6-3.8,2.8-6.4,3.6c-1,0.3-2.2,0.6-3.4,0.7v19c0,2.9-0.4,5.4-1.4,7.6
		c-1,2.4-2.3,4.4-4.1,5.9c-1.8,1.6-3.9,2.8-6.2,3.4C544.6,162.1,542.8,162.4,541,162.4z M512.5,147.4L512.5,147.4
		C512.5,147.4,512.5,147.4,512.5,147.4C512.5,147.4,512.5,147.4,512.5,147.4z M543.1,145.5L543.1,145.5L543.1,145.5z M539,145.4
		L539,145.4L539,145.4z M488.2,81.8L488.2,81.8L488.2,81.8z"/>
	<path class="st100" d="M624.2,163.5l-39.4,0c-4.1-0.1-7.8-0.8-10.9-2.1c-3.3-1.4-6.1-3.4-8.3-5.8c-2.2-2.4-3.7-5.3-4.7-8.4
		c-0.8-2.7-1.2-5.7-1.2-8.7c0-3,0.4-5.8,1.1-8.5c0.6-2.4,1.6-4.6,2.9-6.5c-0.6-0.6-1.1-1.2-1.6-1.8c-1.5-2-2.4-4.2-2.7-6.7
		c-0.2-1.3-0.3-2.6-0.3-4v-12c0-1.6,0.1-3.1,0.3-4.4c0.3-2.1,0.9-4.1,2-5.8c-0.6-1-1.2-2.1-1.5-3.3c-0.5-1.6-0.7-3.2-0.7-4.9
		c0-1.8,0.2-3.6,0.7-5.2c0.7-2.5,2.2-4.7,4.2-6.5c1.7-1.4,3.8-2.5,6.2-3.2c2-0.5,4.2-0.8,6.8-0.8H600c2.8,0,5.1,0.3,7.2,1
		c2.5,0.8,4.5,2.1,6.1,3.8c0.5,0.5,1,1.1,1.4,1.7c1-1.7,2.3-2.9,3.4-3.7c3.2-2.4,6.9-3.6,11-3.6c1.8,0,3.6,0.2,5.3,0.7
		c2.4,0.7,4.4,1.8,6.2,3.4c1.7,1.6,3.1,3.6,4.1,5.9c0.8,2,1.3,4.3,1.4,6.7c1.7,0.2,3.3,0.5,4.8,1c2.4,0.9,4.5,2.1,6.1,3.7
		c1.8,1.8,3,3.9,3.7,6.2c0.5,1.6,0.7,3.2,0.7,4.8c0,1.8-0.2,3.5-0.7,5.1c-0.7,2.5-2,4.7-3.9,6.5c-1.6,1.6-3.7,2.7-6.1,3.6
		c-1.4,0.5-2.9,0.8-4.5,0.9c-0.1,2.4-0.5,4.5-1.3,6.4c-0.3,0.6-0.6,1.3-0.9,1.9c0,0.1,0.1,0.1,0.1,0.2c2.1,2.5,3.6,5.5,4.5,8.8
		c0.7,2.7,1,5.5,1,8.5c0,3.1-0.4,6-1.2,8.7c-1,3.2-2.6,6.1-4.8,8.5c-2.2,2.4-4.9,4.3-8.2,5.7c-3.1,1.3-6.8,2.1-10.9,2.2L624.2,163.5
		z M626.9,112.2C626.9,112.2,626.9,112.2,626.9,112.2C626.9,112.2,626.9,112.2,626.9,112.2z M631,80.6L631,80.6L631,80.6z"/>
	<path class="st100" d="M752.1,163.3h-55.5c-2.7,0-5-0.3-6.9-0.9c-2.5-0.8-4.5-2-6.1-3.6c-1.9-1.9-3.2-4.4-3.6-7.1
		c-0.2-1.2-0.3-2.6-0.3-4.1v-12.6c0-1.4,0.2-2.8,0.5-4.2c0.2-0.9,0.5-1.7,0.9-2.5c-0.4-0.8-0.7-1.6-0.9-2.5
		c-0.3-1.3-0.5-2.8-0.5-4.4c0-1.4,0.2-2.7,0.5-4.1c0.1-0.3,0.1-0.5,0.2-0.8c-0.4-0.4-0.8-0.7-1.1-1.1c-1.7-1.9-2.9-4.3-3.3-6.9
		c-0.2-1.2-0.3-2.6-0.3-4V81.5c0-2.8,0.4-5.2,1.2-7.2c1-2.4,2.4-4.5,4.4-6c1.9-1.5,4.1-2.5,6.5-3c2.8-0.5,6-0.5,8.9,0
		c2.4,0.4,4.6,1.4,6.6,2.9c0.5,0.4,1,0.8,1.4,1.2c0.5-0.5,1-0.9,1.6-1.3c1.9-1.4,4.1-2.3,6.4-2.7c2.9-0.5,6.1-0.5,8.9,0
		c2.4,0.4,4.6,1.4,6.5,3c1.1,0.9,2,1.9,2.8,3c1.9-0.5,4-0.7,6.5-0.7h0.1c1.2-1.7,2.6-2.9,3.9-3.7c3-1.9,6.4-2.9,10-2.9
		c1.8,0,3.6,0.2,5.3,0.7c2.4,0.7,4.4,1.8,6.2,3.4c1.7,1.6,3.1,3.6,4.1,5.9c0.9,2.2,1.4,4.7,1.4,7.5v23.8c0,2.9-0.4,5.4-1.4,7.6
		c-0.2,0.4-0.3,0.8-0.5,1.1c0.6,1.1,1.1,2.3,1.4,3.5c0.3,1.4,0.5,2.8,0.5,4.1v13.1c0,1.6-0.2,3.1-0.5,4.4c-0.1,0.3-0.1,0.6-0.2,0.8
		c0.8,1,1.4,2.2,1.8,3.4c0.5,1.6,0.8,3.4,0.8,5.1c0,1.9-0.3,3.7-0.8,5.4c-0.8,2.5-2.4,4.7-4.6,6.3c-1.8,1.3-4,2.3-6.5,2.7
		C756.4,163.1,754.5,163.3,752.1,163.3z M753.2,106.2C753.2,106.2,753.2,106.2,753.2,106.2L753.2,106.2z M749.1,106L749.1,106
		L749.1,106z M749.1,80.9L749.1,80.9L749.1,80.9z M694.7,80.8L694.7,80.8L694.7,80.8z"/>
	<path class="st100" d="M843.1,161.2h-64.3c-2.8,0-5.2-0.3-7.3-1c-2.4-0.8-4.5-2-6.1-3.6c-1.9-1.8-3.2-4-3.9-6.4
		c-0.4-1.6-0.7-3.2-0.7-4.8c0-1.8,0.2-3.5,0.7-5.1c0.7-2.4,2-4.6,3.9-6.3c1.7-1.6,3.8-2.8,6.4-3.6c1.2-0.4,2.4-0.6,3.8-0.8
		c-1.9-0.9-3.5-2-4.8-3.5c-1.7-1.9-2.9-4.3-3.3-6.9c-0.2-1.2-0.3-2.6-0.3-4V82.4c0-7.6,3.2-11.7,5.8-13.8c3.1-2.5,6.9-3.7,11-3.7
		c1.8,0,3.6,0.2,5.3,0.7c2.3,0.6,4.3,1.7,6.1,3.2c1.9,1.6,3.4,3.7,4.5,6.2c0.5,1.1,0.8,2.4,1,3.7h19.8c0.2-1.3,0.6-2.5,1-3.7
		c1-2.5,2.5-4.6,4.5-6.2c1.8-1.5,3.9-2.6,6.1-3.2c3.5-0.9,7.3-0.9,10.7,0c2.3,0.7,4.3,1.8,6.1,3.4c1.8,1.6,3.2,3.7,4.1,6.1
		c0.8,2.1,1.2,4.6,1.2,7.3v32.9c0,1.4-0.1,2.8-0.3,4c-0.4,2.6-1.5,4.9-3.3,6.9c-1.3,1.4-2.9,2.6-4.7,3.4c1.4,0.1,2.7,0.4,3.9,0.8
		c2.5,0.8,4.7,2,6.4,3.6c1.8,1.7,3.2,3.9,3.8,6.4c0.5,1.6,0.7,3.3,0.7,5.1c0,1.6-0.2,3.2-0.7,4.8c-0.7,2.4-2,4.6-3.8,6.4
		c-1.6,1.6-3.7,2.8-6.1,3.6C848.3,160.9,845.9,161.2,843.1,161.2z M777.5,142.2C777.5,142.2,777.5,142.2,777.5,142.2L777.5,142.2
		C777.5,142.2,777.5,142.2,777.5,142.2z M839.5,81.8C839.5,81.8,839.5,81.8,839.5,81.8C839.5,81.8,839.5,81.8,839.5,81.8z"/>
	<path class="st100" d="M924.9,162.4c-1.8,0-3.6-0.2-5.3-0.7c-2.3-0.6-4.3-1.7-6.1-3.3c-1.9-1.6-3.3-3.8-4.3-6.3
		c-0.1-0.3-0.2-0.7-0.4-1c-0.7,1.7-1.8,3.2-3.2,4.5c-1.7,1.6-3.8,2.8-6.4,3.6c-2,0.6-4.3,0.9-7,0.9h-22.5c-2.8,0-5.2-0.3-7.2-1
		c-2.5-0.9-4.6-2.2-6.3-4c-1.7-1.9-2.9-4.3-3.3-6.9c-0.2-1.3-0.3-2.6-0.3-4v-32.9c0-1.4,0.1-2.7,0.3-4c0.4-2.4,1.3-4.7,2.8-6.7
		c1.6-2,3.7-3.6,6.2-4.6c0.3-0.1,0.5-0.2,0.8-0.3c-2.2-0.8-4.1-1.9-5.6-3.4c-1.8-1.7-3.2-3.9-3.8-6.4c-0.4-1.6-0.7-3.2-0.7-4.8
		c0-1.8,0.2-3.5,0.7-5.1c0.7-2.4,2-4.6,3.9-6.4c1.7-1.6,3.8-2.8,6.4-3.6c2-0.6,4.3-0.9,7-0.9h19.9c3,0,5.5,0.4,7.6,1.3
		c2.6,1.1,4.7,2.6,6.2,4.6c1.5,2,2.5,4.2,2.8,6.7c0.2,1.3,0.3,2.7,0.3,4v12.9c0.1,0,0.2,0,0.3,0V81.5c0-7.7,3.3-11.8,6-13.9
		c3.1-2.4,6.9-3.6,11-3.6c1.8,0,3.6,0.2,5.3,0.7c2.4,0.7,4.4,1.8,6.2,3.4c1.7,1.6,3.1,3.6,4.1,5.9c0.9,2.2,1.4,4.7,1.4,7.5v63.2
		c0,2.9-0.4,5.4-1.4,7.6c-1,2.4-2.3,4.3-4.1,5.9c-1.8,1.6-3.9,2.8-6.2,3.4C928.6,162.1,926.8,162.4,924.9,162.4z M893.6,147.4
		C893.6,147.4,893.6,147.4,893.6,147.4C893.6,147.4,893.6,147.4,893.6,147.4C893.6,147.4,893.6,147.4,893.6,147.4z M922.9,145.4
		L922.9,145.4L922.9,145.4z M886.8,128.3h5.5c2.8,0,5.2,0.3,7.3,1c2.4,0.8,4.5,2,6.1,3.6c0.9,0.8,1.7,1.8,2.3,2.8v-9.4
		c-2.3-0.1-4.3-0.4-6-1c-1-0.3-1.9-0.7-2.7-1.1c-2.7,1.4-5.9,2.1-9.5,2.1h-2.9V128.3z M907.8,113.6L907.8,113.6L907.8,113.6z
		 M927,80.6L927,80.6L927,80.6z M869.5,77.7C869.5,77.7,869.5,77.7,869.5,77.7C869.5,77.7,869.5,77.7,869.5,77.7z"/>
	<path class="st100" d="M1035.8,162.4c-1.8,0-3.6-0.2-5.3-0.7c-2.3-0.6-4.3-1.7-6.1-3.3c-1.9-1.7-3.3-3.8-4.3-6.3
		c-0.8-2.2-1.2-4.6-1.2-7.4v-8.2c-0.9,3.2-2.2,6.4-3.6,9.5c-1.9,4-4.4,7.4-7.3,10.1c-1.4,1.3-3.1,2.5-4.9,3.4
		c-2.1,1.1-4.4,1.8-6.7,1.9c-2.5,0.2-4.9-0.1-7.2-1c-2.4-0.9-4.6-2.4-6.6-4.5c-2.7-2.9-4.3-6.6-4.4-10.8c-0.1-4.1,1.2-8,3.8-11.3
		l0.1-0.1c1.3-1.6,2.3-3,3-4.3c0.6-1.3,1.1-2.5,1.5-3.8c0.4-1.4,0.6-3,0.7-4.5c0.1-1.9,0.2-4.1,0.2-6.4V96.8h-6.1
		c-2.7,0-5-0.3-7-0.9c-2.5-0.8-4.7-2-6.4-3.6c-1.8-1.7-3.2-3.9-3.8-6.4c-0.4-1.6-0.7-3.3-0.7-5.1c0-1.5,0.2-3,0.5-4.5
		c0.6-2.5,1.9-4.7,3.7-6.5c1.6-1.6,3.6-2.8,6-3.7c2.1-0.7,4.5-1.1,7.3-1.1h24.2c2.8,0,5.1,0.4,7.2,1.1c2.5,0.9,4.6,2.3,6.1,4.2
		c0.8,0.9,1.4,2,2,3.1c1.2-2.8,3-4.7,4.5-5.9c3.2-2.4,6.9-3.6,11-3.6c1.8,0,3.6,0.2,5.3,0.7c2.4,0.7,4.4,1.8,6.2,3.4
		c1.7,1.6,3.1,3.6,4.1,5.9c0.9,2.2,1.4,4.7,1.4,7.5v12.8c1.9,0.1,3.7,0.5,5.3,1.1c2.4,0.9,4.5,2.1,6.1,3.7c1.8,1.8,3,3.9,3.7,6.2
		c0.5,1.6,0.7,3.2,0.7,4.8c0,1.8-0.2,3.5-0.7,5.1c-0.7,2.5-2,4.7-3.9,6.5c-1.6,1.5-3.7,2.7-6.1,3.6c-1.5,0.5-3.2,0.8-5.1,1v18.4
		c0,2.9-0.4,5.4-1.4,7.6c-1,2.4-2.3,4.4-4.1,5.9c-1.8,1.6-3.9,2.8-6.2,3.4C1039.4,162.1,1037.6,162.4,1035.8,162.4z M1033.7,145.4
		L1033.7,145.4L1033.7,145.4z M1037.8,80.6L1037.8,80.6L1037.8,80.6z M979.7,77.7C979.7,77.7,979.7,77.7,979.7,77.7
		C979.7,77.7,979.7,77.7,979.7,77.7L979.7,77.7z"/>
	<path class="st100" d="M1130.1,162.4c-1.8,0-3.6-0.2-5.3-0.7c-2.3-0.6-4.3-1.7-6.1-3.3c-1.1-0.9-2-2-2.8-3.2
		c-1.2,1.2-2.5,2.2-3.9,3c-2.2,1.2-4.6,1.9-7.1,2l-0.5,0c-1.3,0-2.7-0.1-4.1-0.4c-2-0.4-3.9-1.3-5.7-2.5c-3-2-5.7-4.3-8-6.7
		c-2.5,2.6-5.3,5-8.3,6.9c-3.1,1.9-6.4,3-10.1,3.2c-2.4,0.1-4.9-0.3-7.3-1.2c-3.1-1.2-5.6-3.4-7.4-6.4c-2.7-4.4-3.3-9.3-1.7-13.8
		c1.3-3.6,3.8-6.7,7.3-9.3l0.1-0.1c1.9-1.3,3.5-2.7,4.7-4c1.1-1.2,2.1-2.5,2.8-3.8c0.6-1.2,1.1-2.4,1.4-3.7c0.3-1.6,0.5-3.4,0.5-5.3
		v-16c-2-0.1-3.8-0.4-5.4-1c-2.4-0.8-4.5-2-6.1-3.6c-1.8-1.7-3.2-3.9-3.8-6.4c-0.4-1.6-0.7-3.2-0.7-4.8c0-1.8,0.2-3.5,0.7-5.1
		c0.7-2.4,2-4.6,3.9-6.4c1.7-1.6,3.8-2.8,6.4-3.6c2-0.6,4.3-0.9,7-0.9h28.9c2.7,0,5,0.3,7,0.9c2.5,0.8,4.7,2,6.4,3.6
		c0.9,0.9,1.7,1.8,2.3,2.9c1.2-2.5,2.8-4.1,4.2-5.2c3.1-2.4,6.9-3.6,11-3.6c1.8,0,3.6,0.2,5.3,0.7c2.4,0.7,4.4,1.8,6.2,3.4
		c1.7,1.6,3.1,3.6,4.1,5.9c0.9,2.2,1.4,4.7,1.4,7.5v63.2c0,2.9-0.4,5.4-1.4,7.6c-1,2.4-2.3,4.3-4.1,5.9c-1.8,1.6-3.9,2.8-6.2,3.4
		C1133.7,162.1,1131.9,162.4,1130.1,162.4z M1128.1,145.4L1128.1,145.4L1128.1,145.4z M1101.9,145.3L1101.9,145.3L1101.9,145.3z
		 M1102.8,96.9v16.2c0,1.9,0.2,3.6,0.5,5.1c0.3,1.2,0.7,2.3,1.3,3.3c0.7,1.2,1.6,2.4,2.8,3.6c1.3,1.3,2.9,2.7,4.9,4l0.1,0.1
		c0.3,0.2,0.5,0.4,0.8,0.6V92c-0.2,0.2-0.3,0.4-0.5,0.5c-1.6,1.6-3.7,2.8-6.1,3.6C1105.3,96.5,1104.1,96.8,1102.8,96.9z
		 M1132.2,80.6L1132.2,80.6L1132.2,80.6z M1069,78.1C1069,78.1,1069,78.1,1069,78.1L1069,78.1C1069,78.1,1069,78.1,1069,78.1z"/>
	<path class="st100" d="M1233.6,164.7c-0.6,0-1.3,0-2.1-0.1c-0.7,0-1.8-0.1-3.4-0.1l0,0c-2.8-0.1-5.5-0.7-8-1.8
		c-1.4-0.6-2.8-1.4-4-2.4c-1.3,0.9-2.9,1.6-4.6,2.2c-2,0.6-4.3,0.9-7,0.9h-14.2c-2.8,0-5.1-0.3-7.2-1c-2.5-0.9-4.7-2.2-6.3-4
		c-1.7-1.9-2.9-4.3-3.3-6.9c-0.2-1.3-0.3-2.6-0.3-4v-19.3c0-5.3,1.5-8.9,3.4-11.3c-5.1-5-7.8-12.5-7.8-22.4c0-10,2.7-17.6,8-22.7
		c5.2-4.9,12.7-7.4,22.4-7.4c9.7,0,17.3,2.5,22.4,7.4c0.9,0.8,1.7,1.7,2.4,2.7c1.2-3.4,3.2-5.6,4.9-6.9c3.2-2.4,6.9-3.6,11-3.6
		c1.8,0,3.6,0.2,5.3,0.7c2.4,0.7,4.4,1.8,6.2,3.4c1.7,1.6,3.1,3.6,4.1,5.9c0.5,1.2,0.9,2.5,1.1,3.9c1.8,0.1,3.3,0.5,4.8,0.9
		c2.4,0.8,4.5,2,6.1,3.6c1.9,1.8,3.2,4,3.9,6.4c0.5,1.6,0.7,3.2,0.7,4.8c0,1.8-0.2,3.5-0.7,5.1c-0.7,2.4-2,4.6-3.9,6.4
		c-1.7,1.6-3.8,2.8-6.4,3.6c-1.5,0.4-3,0.7-4.8,0.8c-0.2,0.9-0.5,1.8-0.8,2.6c-0.1,0.3-0.3,0.7-0.4,1c1.6,2.4,2.4,5.3,2.4,8.5
		c0,0.1,0,0.2,0,0.3c1.1,0.6,2,1.4,2.9,2.4c2.4,2.7,3.7,6.1,3.7,9.9c0,3.3-1.1,6.4-3.1,9c-0.4,0.5-0.9,1-1.4,1.5
		c-0.6,6.8-3.6,11.1-6.1,13.5c-3.9,3.8-8.8,5.9-14.3,6.2l-0.2,0c-1.6,0.1-2.7,0.1-3.3,0.1C1234.8,164.7,1234.1,164.7,1233.6,164.7z
		 M1230.6,145.6c0.7,0,1.3,0.1,1.6,0.1c1,0,1.5,0,2.6,0c0.2,0,0.4,0,0.7,0l0.7-6.7v6.7c0.1,0,0.3,0,0.4,0c0.8-1,1.2-2.3,1.2-3.5
		c0-1.1-0.3-2.3-0.9-3.3h-6.6c-0.6,1-0.9,2.1-0.9,3.3C1229.4,143.3,1229.9,144.5,1230.6,145.6z M1206.8,123.9c0,0,0,0.1,0,0.1
		c0,0,0,0,0,0c0.1-0.1,0.1-0.1,0.2-0.2C1206.9,123.9,1206.8,123.9,1206.8,123.9z M1237.9,105.2L1237.9,105.2L1237.9,105.2z
		 M1203.1,97L1203.1,97L1203.1,97z M1197.2,94.4c0.8,0.7,1.5,1,2.1,1.2c0.5-0.1,1.3-0.5,2.1-1.2c-0.8-0.7-1.6-1-2.1-1.2
		C1198.8,93.4,1198,93.7,1197.2,94.4z M1203.1,91.9C1203.1,91.9,1203.1,91.9,1203.1,91.9S1203.1,91.9,1203.1,91.9z"/>
	<path class="st100" d="M1334,164.2h-54.3c-2.8,0-5.1-0.3-7.2-1c-2.6-0.9-4.8-2.3-6.4-4.3c-1.7-1.9-2.7-4.3-3.1-6.8
		c-0.2-1.2-0.3-2.6-0.3-3.9v-12.8c0-1.4,0.2-2.9,0.5-4.2c0.2-0.7,0.4-1.4,0.8-2.1c-1-2.1-1.6-4.4-1.6-7c0-0.5,0-1.1,0.1-1.6
		c-0.4-0.3-0.9-0.6-1.3-0.9c-1.9-1.5-5.1-4.9-5.1-11.1c0-4,1.6-7.7,4.6-10.4c0.7-0.6,1.5-1.2,2.3-1.7c-0.9-2.3-1.3-4.9-1.3-7.6v-2.5
		c0-6.4,2.8-12,8-16.1c4.7-3.6,11-5.4,19.3-5.4h33.5c8.2,0,14.6,1.7,19.5,5c5.7,4,8.8,9.8,8.8,16.4v2.5c0,2.7-0.4,5.2-1.3,7.5
		c0.9,0.5,1.7,1.1,2.4,1.7c3,2.7,4.6,6.4,4.6,10.4c0,6.2-3.2,9.6-5.1,11.1c-0.5,0.4-1,0.7-1.5,1c0.1,0.6,0.1,1.1,0.1,1.6v13.4
		c0,1.9-0.3,3.6-0.8,5.1c0.9,1.1,1.5,2.3,2,3.6c0.6,1.7,0.9,3.4,0.9,5.2c0,1.9-0.3,3.6-0.8,5.3c-0.9,2.6-2.5,4.8-4.8,6.4
		c-1.8,1.2-3.8,2-6.2,2.5C1338.3,164,1336.3,164.2,1334,164.2z"/>
	<path class="st100" d="M1423.6,162.4c-1.8,0-3.6-0.3-5.3-0.8c-1.8-0.6-3.5-1.5-4.9-2.7c-1.5,1.2-3.1,2.1-4.9,2.7
		c-3.5,1.1-7.1,1-10.5,0c-2.1-0.6-3.9-1.7-5.5-3.2c-0.6,0.3-1.3,0.5-2,0.7c-2,0.6-4.3,0.9-7,0.9h-20.2c-2.8,0-5.2-0.3-7.2-1
		c-2.5-0.9-4.6-2.2-6.3-4c-1.7-1.9-2.9-4.3-3.3-6.9c-0.2-1.3-0.3-2.6-0.3-4v-31c0-1.4,0.1-2.7,0.3-4c0.4-2.4,1.3-4.7,2.8-6.7
		c1.6-2,3.7-3.6,6.2-4.6c1.4-0.6,3-1,4.8-1.2c-1.2-0.2-2.4-0.4-3.4-0.8c-2.5-0.8-4.5-2-6.1-3.6c-1.8-1.7-3.2-3.9-3.8-6.4
		c-0.4-1.6-0.7-3.2-0.7-4.8c0-1.8,0.2-3.5,0.7-5.1c0.7-2.4,2-4.6,3.9-6.4c1.7-1.6,3.8-2.8,6.4-3.6c2-0.6,4.3-0.9,7-0.9h17.3
		c3,0,5.5,0.4,7.6,1.3c1.1,0.5,2.2,1,3.1,1.7c0,0,0.1-0.1,0.1-0.1c3.1-2.6,6.8-4,10.8-4c3.7,0,7.2,1.2,10.1,3.6
		c2.9-2.3,6.5-3.6,10.2-3.6c3.9,0,7.6,1.4,10.7,4c3.5,3,5.3,7.6,5.3,13.5v63.2c0,2.7-0.4,5-1.1,7.1c-0.8,2.3-2,4.3-3.5,5.9
		c-1.7,1.8-3.8,3.1-6.2,3.8C1427.1,162.1,1425.3,162.4,1423.6,162.4z M1384.7,147.3L1384.7,147.3
		C1384.7,147.4,1384.7,147.4,1384.7,147.3C1384.7,147.4,1384.7,147.4,1384.7,147.3z M1406.2,145.7L1406.2,145.7L1406.2,145.7z
		 M1426.6,145.7L1426.6,145.7L1426.6,145.7z M1420.5,145.7L1420.5,145.7L1420.5,145.7z M1379.3,128.3h4.1c1.3,0,2.6,0.1,3.7,0.2
		v-1.2c-2,0.6-4.2,0.9-6.6,0.9L1379.3,128.3L1379.3,128.3z M1406.2,80.4C1406.2,80.4,1406.2,80.4,1406.2,80.4
		S1406.2,80.4,1406.2,80.4z M1426.6,80.4C1426.6,80.4,1426.6,80.4,1426.6,80.4S1426.6,80.4,1426.6,80.4z M1362.9,77.7
		C1362.9,77.7,1362.9,77.7,1362.9,77.7C1362.9,77.7,1362.9,77.7,1362.9,77.7z"/>
	<path class="st100" d="M1462.1,158.3c-4.7,0-8.8-1.3-12.2-3.9c-4.1-3.1-6.4-7.9-6.4-13.5c0-4.1,1.2-7.8,3.6-10.7
		c-1-1.9-1.8-4.4-1.8-7.6c0-3,0.3-5.8,0.9-8.3c0.7-2.7,1.7-5.1,3-7.3c1.4-2.3,3.1-4.3,5.2-6.1c1.6-1.4,3.5-2.8,5.6-4
		c0.7-0.5,1.4-1,2-1.6c0.6-0.5,1.1-1,1.5-1.6c0,0,0,0,0,0c-0.8,0-1.2,0.1-1.2,0.1c-0.1,0-0.1,0-0.2,0.1c-0.6,0.7-1.2,1.2-1.8,1.7
		c-1.5,1.3-3.3,2.4-5.3,3.1c-1.8,0.7-3.6,1.1-5.4,1.3c-1.9,0.2-3.8,0.1-5.6-0.3c-2.2-0.5-4.3-1.4-6-2.6c-4.7-3.4-6.1-7.5-6.4-10.3
		c-0.4-3.9,0.7-7.7,3.3-10.8c1.3-1.6,2.9-3.1,4.7-4.5c1.9-1.4,4.1-2.7,6.5-3.8c2.4-1.1,5.2-1.9,8.1-2.5c2.9-0.6,6.1-0.9,9.7-0.9
		c5.3,0,10,0.7,14,2c4.2,1.4,7.9,3.4,10.8,5.8c3.1,2.7,5.5,5.8,7,9.4c1.5,3.4,2.2,7,2.2,10.7c0,3.6-0.7,7-1.9,10.1
		c-1.2,2.8-2.7,5.3-4.6,7.7c-1.7,2.1-3.7,4-5.9,5.8c-1.9,1.5-3.8,3-5.7,4.4c-0.4,0.3-0.7,0.5-0.9,0.7c0,0.7-0.1,1.4-0.1,2.3
		c0,1.6-0.3,3.3-0.9,4.9c-0.2,0.6-0.5,1.2-0.8,1.8c2.5,3,3.9,6.8,3.9,11.1c0,5.6-2.3,10.4-6.5,13.5
		C1470.9,157,1466.7,158.3,1462.1,158.3z M1461.8,140.9c0,0.2,0.1,0.4,0.3,0.7c0.2-0.3,0.3-0.5,0.3-0.7c0-0.2-0.1-0.4-0.3-0.7
		C1462,140.5,1461.9,140.7,1461.8,140.9z M1478.7,120.2C1478.7,120.2,1478.7,120.2,1478.7,120.2
		C1478.7,120.2,1478.7,120.2,1478.7,120.2z M1462.3,93.6C1462.3,93.6,1462.3,93.6,1462.3,93.6C1462.3,93.6,1462.3,93.6,1462.3,93.6z
		"/>
</g>
<g>
	<path class="st106" d="M497.7,137.8h13.5c1.7,0,3.1,0.2,4.3,0.6c1.1,0.4,2,0.8,2.6,1.4c0.6,0.6,1,1.3,1.2,2
		c0.2,0.8,0.3,1.5,0.3,2.3c0,0.9-0.1,1.8-0.3,2.5c-0.2,0.8-0.6,1.4-1.2,2c-0.6,0.6-1.5,1-2.6,1.4c-1.1,0.3-2.5,0.5-4.3,0.5h-21
		c-1.7,0-3.1-0.2-4.1-0.5c-1-0.3-1.7-0.8-2.3-1.4c-0.5-0.6-0.8-1.3-1-2c-0.1-0.8-0.2-1.6-0.2-2.5V82.4c0-3.1,0.8-5.2,2.3-6.3
		c1.5-1.1,3.3-1.7,5.2-1.7c1,0,1.9,0.1,2.8,0.4c0.9,0.2,1.7,0.7,2.4,1.3c0.7,0.6,1.2,1.5,1.7,2.5c0.4,1.1,0.6,2.3,0.6,3.9V137.8z
		 M533.5,81.5c0-3.1,0.8-5.2,2.3-6.3c1.5-1.1,3.3-1.7,5.2-1.7c1,0,1.9,0.1,2.8,0.4c0.9,0.2,1.7,0.7,2.4,1.3c0.7,0.6,1.2,1.5,1.7,2.5
		c0.4,1.1,0.6,2.3,0.6,3.9v22.2h5.8c1.7,0,3.1,0.2,4.3,0.6c1.1,0.4,2,0.8,2.6,1.4c0.6,0.6,1,1.3,1.3,2c0.2,0.8,0.3,1.5,0.3,2.3
		c0,0.9-0.1,1.8-0.3,2.5c-0.2,0.8-0.6,1.5-1.3,2c-0.6,0.6-1.5,1.1-2.6,1.4c-1.1,0.3-2.5,0.5-4.3,0.5h-5.8v28.2c0,1.6-0.2,2.9-0.6,4
		c-0.4,1-1,1.9-1.7,2.5c-0.7,0.6-1.5,1-2.4,1.3c-0.9,0.2-1.8,0.4-2.8,0.4s-1.9-0.1-2.8-0.4c-0.9-0.2-1.7-0.7-2.4-1.3
		c-0.7-0.6-1.3-1.5-1.7-2.5c-0.4-1.1-0.6-2.4-0.6-4V81.5z"/>
	<path class="st106" d="M583.5,106.4h19.1c1.7,0,3.1,0.2,4.3,0.5c1.1,0.3,2,0.7,2.6,1.2c0.6,0.5,1,1.1,1.3,1.8
		c0.2,0.7,0.3,1.4,0.3,2.2c0,0.9-0.1,1.8-0.3,2.5c-0.2,0.7-0.6,1.4-1.3,1.9c-0.6,0.6-1.5,1-2.6,1.3c-1.1,0.3-2.5,0.5-4.3,0.5H576
		c-1.7,0-3.1-0.2-4.1-0.6c-1-0.4-1.7-1-2.3-1.7c-0.5-0.7-0.8-1.5-1-2.4c-0.1-0.9-0.2-1.8-0.2-2.7v-12c0-1.2,0.1-2.3,0.2-3.2
		c0.1-1,0.4-1.8,1-2.5c0.5-0.7,1.3-1.2,2.3-1.6c1-0.4,2.3-0.6,4.1-0.6h16.5v-4.7h-15.6c-1.7,0-3.1-0.2-4.3-0.5
		c-1.1-0.3-2-0.7-2.6-1.2c-0.6-0.5-1-1.1-1.3-1.9c-0.2-0.7-0.3-1.4-0.3-2.2c0-0.9,0.1-1.8,0.3-2.5c0.2-0.7,0.6-1.4,1.3-1.9
		c0.6-0.5,1.5-0.9,2.6-1.3c1.1-0.3,2.5-0.5,4.3-0.5H600c1.7,0,3.1,0.2,4.1,0.5c1,0.3,1.7,0.8,2.3,1.3c0.5,0.6,0.8,1.2,1,2
		c0.1,0.8,0.2,1.6,0.2,2.5v13.4c0,1.2-0.1,2.2-0.2,3.2c-0.1,1-0.4,1.8-1,2.4c-0.5,0.6-1.3,1.1-2.3,1.5c-1,0.3-2.3,0.5-4.1,0.5h-16.5
		V106.4z M585,154c-2.9-0.1-5.4-0.5-7.4-1.4c-2-0.9-3.7-2-4.9-3.4c-1.2-1.4-2.1-3-2.7-4.9s-0.8-3.9-0.8-6c0-2.2,0.2-4.2,0.7-6.1
		c0.5-1.9,1.3-3.5,2.5-5c1.2-1.4,2.8-2.5,4.9-3.3c2.1-0.8,4.7-1.2,7.8-1.3h38.7c3.1,0,5.8,0.4,7.8,1.2c2.1,0.8,3.7,1.9,4.9,3.3
		c1.2,1.4,2.1,3.1,2.5,5c0.5,1.9,0.7,4,0.7,6.1c0,2.2-0.3,4.2-0.8,6c-0.6,1.9-1.5,3.5-2.7,4.9c-1.3,1.4-2.9,2.5-4.9,3.4
		c-2,0.9-4.5,1.3-7.4,1.4H585z M619.9,141.7c1.8,0,3.1-0.2,3.9-0.6c0.8-0.4,1.2-1.3,1.2-2.7c0-1.5-0.4-2.4-1.2-2.8
		c-0.8-0.4-2.1-0.6-3.9-0.6h-30.7c-1.8,0-3.1,0.2-3.9,0.6c-0.8,0.4-1.2,1.3-1.2,2.8c0,1.4,0.4,2.3,1.2,2.7c0.8,0.4,2.1,0.6,3.9,0.6
		H619.9z M621.5,81.5c0-3.1,0.8-5.2,2.3-6.3c1.5-1.1,3.3-1.7,5.2-1.7c1,0,1.9,0.1,2.8,0.4c0.9,0.2,1.7,0.7,2.4,1.3
		c0.7,0.6,1.2,1.5,1.7,2.5c0.4,1.1,0.6,2.3,0.6,3.9v8.6h6.8c1.7,0,3.1,0.2,4.3,0.6c1.1,0.4,2,0.9,2.6,1.5c0.6,0.6,1,1.3,1.3,2.1
		c0.2,0.8,0.3,1.5,0.3,2.3c0,0.9-0.1,1.8-0.3,2.6c-0.2,0.8-0.6,1.5-1.3,2.1c-0.6,0.6-1.5,1.1-2.6,1.4c-1.1,0.4-2.5,0.6-4.3,0.6h-6.8
		v8.2c0,1.6-0.2,2.9-0.6,4c-0.4,1-1,1.9-1.7,2.5c-0.7,0.6-1.5,1.1-2.4,1.3c-0.9,0.2-1.8,0.4-2.8,0.4s-1.9-0.1-2.8-0.4
		c-0.9-0.2-1.7-0.7-2.4-1.3c-0.7-0.6-1.3-1.4-1.7-2.5c-0.4-1-0.6-2.4-0.6-4V81.5z"/>
	<path class="st106" d="M699.7,83.8h9.8v-2.3c0-1.5,0.2-2.8,0.6-3.7c0.4-0.9,1-1.7,1.7-2.2c0.7-0.5,1.5-0.9,2.4-1
		c0.9-0.2,1.8-0.2,2.8-0.2c1,0,1.9,0.1,2.7,0.2c0.8,0.2,1.6,0.5,2.2,1c0.6,0.5,1.2,1.3,1.5,2.2s0.6,2.2,0.6,3.7v23.1
		c0,0.9-0.1,1.8-0.2,2.5c-0.1,0.8-0.4,1.5-1,2c-0.5,0.6-1.3,1.1-2.3,1.4c-1,0.3-2.3,0.5-4.1,0.5h-23.9c-1.7,0-3.1-0.2-4.1-0.5
		c-1-0.3-1.7-0.8-2.3-1.4c-0.5-0.6-0.8-1.3-1-2c-0.1-0.8-0.2-1.6-0.2-2.5V81.5c0-1.5,0.2-2.8,0.6-3.7s0.9-1.7,1.5-2.2
		c0.6-0.5,1.4-0.9,2.2-1c0.8-0.2,1.7-0.2,2.7-0.2c1,0,1.9,0.1,2.8,0.2c0.9,0.2,1.7,0.5,2.4,1c0.7,0.5,1.2,1.3,1.7,2.2
		c0.4,0.9,0.6,2.2,0.6,3.7V83.8z M704.1,139.8v3.3h48c1.7,0,3.1,0.1,4.3,0.4c1.1,0.3,2,0.6,2.6,1.1c0.6,0.5,1,1,1.3,1.7
		c0.2,0.6,0.3,1.3,0.3,2.1c0,0.9-0.1,1.7-0.3,2.4c-0.2,0.6-0.6,1.2-1.3,1.7c-0.6,0.5-1.5,0.8-2.6,1c-1.1,0.2-2.5,0.3-4.3,0.3h-55.5
		c-1.7,0-3.1-0.2-4.1-0.5c-1-0.3-1.7-0.7-2.3-1.2c-0.5-0.5-0.8-1.2-1-1.9c-0.1-0.7-0.2-1.6-0.2-2.5v-12.6c0-0.6,0.1-1.2,0.2-1.9
		c0.2-0.6,0.5-1.2,1-1.7c0.5-0.5,1.2-0.9,2.1-1.2c0.9-0.3,2.2-0.4,3.7-0.4h47.5v-3.3h-47.5c-1.5,0-2.8-0.1-3.7-0.4
		c-0.9-0.2-1.6-0.6-2.1-1c-0.5-0.4-0.8-1-1-1.6c-0.2-0.6-0.2-1.3-0.2-2.1c0-0.6,0.1-1.2,0.2-1.9c0.2-0.6,0.5-1.2,1-1.7
		c0.5-0.5,1.2-0.9,2.1-1.2c0.9-0.3,2.2-0.5,3.7-0.5h55.5c1.5,0,2.8,0.2,3.7,0.5c0.9,0.3,1.6,0.7,2.1,1.2c0.5,0.5,0.8,1.1,1,1.7
		c0.2,0.6,0.2,1.3,0.2,1.9v13.1c0,0.8-0.1,1.5-0.2,2.1c-0.2,0.6-0.5,1.2-1,1.6c-0.5,0.5-1.2,0.8-2.1,1.1c-0.9,0.2-2.2,0.4-3.7,0.4
		H704.1z M709.5,94.7h-9.8v5.6h9.8V94.7z M751.2,113.4c-1.8,0-3.4-0.5-4.9-1.4s-2.3-2.7-2.6-5.5h-6.5c-1.7,0-3.1-0.1-4.3-0.4
		c-1.1-0.3-2-0.7-2.6-1.2c-0.6-0.5-1-1.1-1.3-1.8c-0.2-0.7-0.3-1.4-0.3-2.3c0-0.7,0.1-1.4,0.3-2c0.2-0.7,0.6-1.3,1.3-1.8
		c0.6-0.5,1.5-0.9,2.6-1.3c1.1-0.3,2.5-0.5,4.3-0.5h6.5v-4h-6.5c-1.7,0-3.1-0.2-4.3-0.5c-1.1-0.3-2-0.7-2.6-1.2
		c-0.6-0.5-1-1.1-1.3-1.8c-0.2-0.7-0.3-1.5-0.3-2.3c0-0.7,0.1-1.4,0.3-2c0.2-0.7,0.6-1.3,1.3-1.8c0.6-0.5,1.5-0.9,2.6-1.2
		c1.1-0.3,2.5-0.5,4.3-0.5h6.5c0.3-2.5,1.2-4.3,2.6-5.2s3.1-1.4,4.9-1.4c1,0,1.9,0.1,2.8,0.4c0.9,0.2,1.7,0.7,2.4,1.3
		c0.7,0.6,1.2,1.5,1.7,2.5c0.4,1.1,0.6,2.3,0.6,3.9v23.8c0,1.6-0.2,2.9-0.6,4c-0.4,1.1-1,1.9-1.7,2.5c-0.7,0.6-1.5,1.1-2.4,1.3
		C753.1,113.3,752.2,113.4,751.2,113.4z"/>
	<path class="st106" d="M770.3,145.4c0-0.9,0.1-1.8,0.3-2.5c0.2-0.8,0.6-1.5,1.2-2c0.6-0.6,1.5-1.1,2.6-1.4c1.1-0.3,2.5-0.5,4.3-0.5
		h24.7v-17.2h-19.3c-1.7,0-3.1-0.2-4.1-0.5c-1-0.3-1.7-0.8-2.3-1.4c-0.5-0.6-0.8-1.3-1-2c-0.1-0.8-0.2-1.6-0.2-2.5V82.4
		c0-3.1,0.7-5.2,2.2-6.3c1.4-1.1,3.2-1.7,5.1-1.7c1,0,1.9,0.1,2.9,0.4c0.9,0.2,1.8,0.7,2.5,1.3c0.7,0.6,1.3,1.5,1.8,2.5
		c0.4,1.1,0.6,2.3,0.6,3.9V88H830v-5.6c0-1.5,0.2-2.8,0.6-3.9c0.4-1,1-1.9,1.8-2.5c0.7-0.6,1.6-1,2.5-1.3c0.9-0.2,1.9-0.4,2.9-0.4
		s1.9,0.1,2.8,0.4c0.9,0.2,1.6,0.7,2.3,1.3c0.7,0.6,1.2,1.5,1.6,2.5c0.4,1.1,0.6,2.3,0.6,3.9v32.9c0,0.9-0.1,1.8-0.2,2.5
		c-0.1,0.8-0.4,1.5-1,2c-0.5,0.6-1.3,1.1-2.3,1.4c-1,0.3-2.3,0.5-4.1,0.5h-19.1V139h24.6c1.7,0,3.1,0.2,4.3,0.5
		c1.1,0.3,2,0.8,2.6,1.4c0.6,0.6,1,1.3,1.3,2c0.2,0.8,0.3,1.6,0.3,2.5c0,0.7-0.1,1.5-0.3,2.3c-0.2,0.8-0.6,1.4-1.3,2
		c-0.6,0.6-1.5,1.1-2.6,1.4c-1.1,0.4-2.5,0.6-4.3,0.6h-64.3c-1.7,0-3.1-0.2-4.3-0.6c-1.1-0.4-2-0.8-2.6-1.4c-0.6-0.6-1-1.3-1.2-2
		C770.4,146.9,770.3,146.2,770.3,145.4z M830,100.3h-38.1v9.3H830V100.3z"/>
	<path class="st106" d="M877.3,137.8h15c1.7,0,3.1,0.2,4.3,0.6c1.1,0.4,2,0.8,2.6,1.4c0.6,0.6,1,1.3,1.3,2c0.2,0.8,0.3,1.5,0.3,2.3
		c0,0.9-0.1,1.8-0.3,2.5c-0.2,0.8-0.6,1.4-1.3,2c-0.6,0.6-1.5,1-2.6,1.4c-1.1,0.3-2.5,0.5-4.3,0.5h-22.5c-1.7,0-3.1-0.2-4.1-0.5
		c-1-0.3-1.7-0.8-2.3-1.4c-0.5-0.6-0.8-1.3-1-2c-0.1-0.8-0.2-1.6-0.2-2.5v-32.9c0-0.9,0.1-1.8,0.2-2.6c0.1-0.8,0.4-1.6,1-2.3
		c0.5-0.7,1.3-1.2,2.3-1.6c1-0.4,2.3-0.6,4.1-0.6h13.4V87.3h-12.4c-1.7,0-3.1-0.2-4.3-0.6c-1.1-0.4-2-0.8-2.6-1.4
		c-0.6-0.6-1-1.3-1.3-2c-0.2-0.8-0.3-1.5-0.3-2.3c0-0.9,0.1-1.8,0.3-2.5c0.2-0.8,0.6-1.4,1.3-2c0.6-0.6,1.5-1,2.6-1.4
		c1.1-0.3,2.5-0.5,4.3-0.5h19.9c1.7,0,3.1,0.2,4.1,0.6c1,0.4,1.7,0.9,2.3,1.6c0.5,0.7,0.8,1.4,1,2.3c0.1,0.8,0.2,1.7,0.2,2.6v27.9
		c0,2.6-0.8,4.5-2.3,5.6c-1.5,1.1-3.6,1.7-6.2,1.7h-12.4V137.8z M917.4,116.8H909c-1.7,0-3.1-0.2-4.2-0.5c-1-0.3-1.9-0.8-2.5-1.4
		c-0.6-0.6-1-1.3-1.2-2c-0.2-0.8-0.3-1.6-0.3-2.5c0-0.7,0.1-1.5,0.3-2.3c0.2-0.8,0.6-1.4,1.2-2c0.6-0.6,1.4-1.1,2.5-1.4
		c1-0.4,2.4-0.6,4.2-0.6h8.4V81.5c0-3.1,0.8-5.2,2.3-6.3c1.5-1.1,3.3-1.7,5.2-1.7c1,0,1.9,0.1,2.8,0.4c0.9,0.2,1.7,0.7,2.4,1.3
		c0.7,0.6,1.2,1.5,1.7,2.5c0.4,1.1,0.6,2.3,0.6,3.9v63.2c0,1.6-0.2,2.9-0.6,4c-0.4,1-1,1.9-1.7,2.5c-0.7,0.6-1.5,1-2.4,1.3
		c-0.9,0.2-1.8,0.4-2.8,0.4c-1,0-1.9-0.1-2.8-0.4c-0.9-0.2-1.7-0.7-2.4-1.3c-0.7-0.6-1.3-1.5-1.7-2.5c-0.4-1.1-0.6-2.4-0.6-4V116.8z
		"/>
	<path class="st106" d="M1005,74.5c1.7,0,3,0.2,3.9,0.5c0.9,0.3,1.6,0.8,2.1,1.4c0.5,0.6,0.8,1.3,0.9,2.2c0.1,0.9,0.2,1.9,0.2,3
		v36.1c0,1.6-0.2,3.8-0.5,6.6c-0.3,2.8-0.9,5.7-1.8,8.7c-0.8,3-1.9,6-3.3,8.9c-1.4,2.9-3.1,5.3-5.1,7.1c-0.9,0.8-1.8,1.5-2.8,2
		c-1,0.5-2.1,0.8-3.1,0.9c-1.1,0.1-2.1,0-3.1-0.4c-1-0.4-2-1.1-2.9-2c-1.2-1.2-1.8-2.8-1.9-4.6c-0.1-1.9,0.5-3.5,1.8-5.1
		c1.7-2.1,3.1-4.1,4.1-6c1-1.9,1.7-3.9,2.2-5.8c0.5-2,0.8-4,1-6.2c0.2-2.1,0.2-4.5,0.2-7.1V87.3h-15.6c-1.7,0-3.1-0.2-4.3-0.5
		c-1.1-0.3-2-0.8-2.6-1.4c-0.6-0.6-1-1.3-1.3-2c-0.2-0.8-0.3-1.6-0.3-2.5c0-0.7,0.1-1.5,0.3-2.3c0.2-0.8,0.6-1.4,1.2-2
		c0.6-0.6,1.4-1.1,2.5-1.4c1-0.4,2.4-0.6,4.2-0.6H1005z M1028.3,81.5c0-3.1,0.8-5.2,2.3-6.3c1.5-1.1,3.3-1.7,5.2-1.7
		c1,0,1.9,0.1,2.8,0.4c0.9,0.2,1.7,0.7,2.4,1.3c0.7,0.6,1.2,1.5,1.7,2.5c0.4,1.1,0.6,2.3,0.6,3.9v22.2h7.3c1.7,0,3.1,0.2,4.3,0.6
		c1.1,0.4,2,0.9,2.6,1.5c0.6,0.6,1,1.3,1.3,2.1c0.2,0.8,0.3,1.5,0.3,2.3c0,0.9-0.1,1.8-0.3,2.6c-0.2,0.8-0.6,1.5-1.3,2.1
		c-0.6,0.6-1.5,1.1-2.6,1.4c-1.1,0.4-2.5,0.6-4.3,0.6h-7.3v27.9c0,1.6-0.2,2.9-0.6,4c-0.4,1-1,1.9-1.7,2.5c-0.7,0.6-1.5,1-2.4,1.3
		c-0.9,0.2-1.8,0.4-2.8,0.4s-1.9-0.1-2.8-0.4c-0.9-0.2-1.7-0.7-2.4-1.3c-0.7-0.6-1.3-1.5-1.7-2.5c-0.4-1.1-0.6-2.4-0.6-4V81.5z"/>
	<path class="st106" d="M1061.9,81.4c0-0.9,0.1-1.8,0.3-2.5c0.2-0.8,0.6-1.4,1.3-2c0.6-0.6,1.5-1,2.6-1.4c1.1-0.3,2.5-0.5,4.3-0.5
		h28.9c1.7,0,3.1,0.2,4.3,0.5c1.1,0.3,2,0.8,2.6,1.4c0.6,0.6,1,1.3,1.3,2c0.2,0.8,0.3,1.6,0.3,2.5c0,0.7-0.1,1.5-0.3,2.3
		c-0.2,0.8-0.6,1.5-1.3,2c-0.6,0.6-1.5,1.1-2.6,1.4s-2.5,0.6-4.3,0.6h-5.8v25.5c0,2.6,0.2,5,0.7,7.1c0.5,2.2,1.2,4.2,2.3,6.1
		c1.1,1.9,2.5,3.7,4.2,5.5c1.7,1.8,3.8,3.5,6.2,5.2c2,1.4,3.3,3,3.9,4.8c0.6,1.8,0.4,3.7-0.9,5.6c-0.7,1-1.5,1.8-2.5,2.4
		c-1,0.5-2,0.8-3.1,0.9c-0.7,0-1.4-0.1-2.1-0.2c-0.7-0.2-1.5-0.5-2.1-1c-3-2-5.6-4.3-7.8-6.8c-2.3-2.5-4.2-5.1-6-7.8
		c-1.7,3-3.6,5.7-5.8,8.1c-2.2,2.5-4.6,4.6-7.4,6.3c-1.7,1-3.5,1.6-5.6,1.8c-1,0.1-2.1-0.1-3.2-0.6c-1.1-0.4-2-1.3-2.8-2.5
		c-1.2-2-1.5-3.9-0.9-5.6c0.6-1.8,2-3.4,3.9-4.8c2.5-1.7,4.6-3.5,6.2-5.3c1.7-1.8,3.1-3.7,4.2-5.7c1.1-2,1.9-4.1,2.3-6.3
		c0.5-2.2,0.7-4.6,0.7-7.2V87.7h-7.7c-1.7,0-3.1-0.2-4.3-0.6c-1.1-0.4-2-0.8-2.6-1.4c-0.6-0.6-1-1.3-1.3-2
		C1062,82.9,1061.9,82.1,1061.9,81.4z M1122.6,81.5c0-3.1,0.8-5.2,2.3-6.3c1.5-1.1,3.3-1.7,5.2-1.7c1,0,1.9,0.1,2.8,0.4
		c0.9,0.2,1.7,0.7,2.4,1.3c0.7,0.6,1.2,1.5,1.7,2.5c0.4,1.1,0.6,2.3,0.6,3.9v63.2c0,1.6-0.2,2.9-0.6,4c-0.4,1-1,1.9-1.7,2.5
		c-0.7,0.6-1.5,1-2.4,1.3c-0.9,0.2-1.8,0.4-2.8,0.4c-1,0-1.9-0.1-2.8-0.4c-0.9-0.2-1.7-0.7-2.4-1.3c-0.7-0.6-1.3-1.5-1.7-2.5
		c-0.4-1.1-0.6-2.4-0.6-4V81.5z"/>
	<path class="st106" d="M1178.3,94.4c0-7.3,1.7-12.6,5-15.8c3.4-3.2,8.7-4.8,15.9-4.8c7.2,0,12.5,1.6,15.9,4.8c3.4,3.2,5,8.5,5,15.8
		c0,3.9-0.4,7.1-1.3,9.8c-0.8,2.6-2.1,4.7-3.8,6.3c-1.7,1.6-3.9,2.7-6.5,3.4c-2.7,0.7-5.8,1-9.4,1c-7.2,0-12.5-1.6-15.9-4.7
		C1180,107,1178.3,101.8,1178.3,94.4z M1197.7,141.1h6.7c1.7,0,3.1,0.2,4.3,0.6c1.1,0.4,2,0.8,2.6,1.4c0.6,0.6,1,1.3,1.3,2
		c0.2,0.8,0.3,1.5,0.3,2.3c0,0.9-0.1,1.8-0.3,2.5c-0.2,0.8-0.6,1.4-1.3,2c-0.6,0.6-1.5,1-2.6,1.4c-1.1,0.3-2.5,0.5-4.3,0.5h-14.2
		c-1.7,0-3.1-0.2-4.1-0.5c-1-0.3-1.7-0.8-2.3-1.4c-0.5-0.6-0.8-1.3-1-2c-0.1-0.8-0.2-1.6-0.2-2.5v-19.3c0-3.1,0.8-5.2,2.3-6.3
		c1.5-1.1,3.3-1.7,5.2-1.7c1,0,1.9,0.1,2.8,0.4c0.9,0.2,1.7,0.7,2.4,1.3c0.7,0.6,1.2,1.5,1.7,2.5c0.4,1.1,0.6,2.3,0.6,3.9V141.1z
		 M1193.4,94.4c0,3.1,0.4,5.2,1.1,6.4c0.7,1.2,2.3,1.8,4.8,1.8c2.5,0,4.1-0.6,4.8-1.8c0.7-1.2,1.1-3.3,1.1-6.4
		c0-3.1-0.4-5.2-1.1-6.5c-0.7-1.2-2.3-1.9-4.8-1.9c-2.5,0-4.1,0.6-4.8,1.9C1193.8,89.2,1193.4,91.4,1193.4,94.4z M1228.3,155
		c-1.6-0.1-3.1-0.4-4.5-1c-1.4-0.6-2.6-1.5-3.6-2.5c-1-1.1-1.8-2.4-2.5-3.9c-0.6-1.5-0.9-3.3-0.9-5.3c0-1.3,0.1-2.4,0.4-3.3
		c-1.8-0.2-3.1-0.7-3.8-1.6c-0.7-0.9-1.1-1.9-1.1-3.1c0-1.4,0.4-2.6,1.3-3.5c0.9-0.9,2.5-1.4,4.9-1.4h30.2c2.3,0,3.9,0.5,4.8,1.4
		c0.8,0.9,1.3,2.1,1.3,3.5c0,1.2-0.4,2.2-1.1,3.1c-0.7,0.9-2,1.4-3.8,1.6c0.1,0.5,0.2,1,0.3,1.6c0.1,0.6,0.1,1.1,0.1,1.8
		c0,3.9-1.1,7-3.4,9.2c-2.3,2.2-5,3.4-8.2,3.6c-1.6,0.1-2.7,0.1-3.4,0.1c-0.7,0-1.2,0-1.7,0s-1,0-1.7,0
		C1231.2,155.1,1230,155,1228.3,155z M1218.9,121.6c0-1.4,0.4-2.6,1.1-3.5c0.7-0.9,2.2-1.4,4.5-1.4h18.1c2.3,0,3.8,0.5,4.5,1.4
		c0.7,0.9,1.1,2.1,1.1,3.5c0,1.2-0.3,2.3-1,3.2c-0.7,0.9-2.2,1.4-4.4,1.4h-18.2c-2.3,0-3.8-0.5-4.5-1.4
		C1219.2,123.9,1218.9,122.8,1218.9,121.6z M1235.8,144.9c1,0,1.7-0.3,2.3-0.8c0.5-0.6,0.8-1.2,0.8-2c0-1.9-0.9-3-2.7-3.1h-4.9
		c-1,0-1.7,0.3-2.2,0.9c-0.5,0.6-0.7,1.3-0.7,2.3c0,0.8,0.2,1.5,0.7,2c0.5,0.6,1.2,0.8,2.2,0.8H1235.8z M1232.5,81.5
		c0-3.1,0.8-5.2,2.3-6.3c1.5-1.1,3.3-1.7,5.2-1.7c1,0,1.9,0.1,2.8,0.4c0.9,0.2,1.7,0.7,2.4,1.3c0.7,0.6,1.2,1.5,1.7,2.5
		c0.4,1.1,0.6,2.3,0.6,3.9v5.8h6.8c1.7,0,3.1,0.2,4.3,0.6c1.1,0.4,2,0.8,2.6,1.4c0.6,0.6,1,1.3,1.3,2c0.2,0.8,0.3,1.5,0.3,2.3
		c0,0.9-0.1,1.8-0.3,2.5c-0.2,0.8-0.6,1.5-1.3,2c-0.6,0.6-1.5,1-2.6,1.4c-1.1,0.3-2.5,0.5-4.3,0.5h-6.8v4.4c0,1.6-0.2,2.9-0.6,4
		c-0.4,1.1-1,1.9-1.7,2.5c-0.7,0.6-1.5,1-2.4,1.3c-0.9,0.2-1.8,0.4-2.8,0.4s-1.9-0.1-2.8-0.4c-0.9-0.2-1.7-0.7-2.4-1.3
		c-0.7-0.6-1.3-1.4-1.7-2.5c-0.4-1-0.6-2.4-0.6-4V81.5z"/>
	<path class="st106" d="M1271.6,113.1c-2.2,0-3.7-0.4-4.7-1.1s-1.4-1.9-1.4-3.6c0-1.4,0.5-2.5,1.4-3.3c1-0.9,2.5-1.3,4.7-1.3h69.2
		c2.2,0,3.7,0.4,4.7,1.3c1,0.9,1.4,2,1.4,3.3c0,1.7-0.5,2.9-1.4,3.6c-1,0.7-2.5,1.1-4.7,1.1H1271.6z M1271.1,86.3
		c0-3.5,1.4-6.3,4.4-8.6c2.9-2.3,7.4-3.4,13.5-3.4h33.5c6.2,0,10.8,1.1,14,3.3c3.2,2.2,4.8,5.1,4.8,8.6v2.5c0,1.7-0.3,3.3-0.9,4.6
		c-0.6,1.4-1.6,2.5-2.9,3.5c-1.4,1-3.1,1.7-5.4,2.2c-2.2,0.5-5,0.7-8.2,0.7h-35.3c-3.3,0-6-0.2-8.2-0.7c-2.2-0.5-4-1.2-5.4-2.2
		c-1.4-1-2.4-2.1-3-3.5c-0.6-1.4-0.9-2.9-0.9-4.6V86.3z M1287.1,140.4v3.9h46.8c1.7,0,3.1,0.1,4.3,0.4c1.1,0.3,2,0.6,2.6,1.1
		c0.6,0.5,1,1,1.3,1.6c0.2,0.6,0.3,1.3,0.3,2c0,0.9-0.1,1.6-0.3,2.3c-0.2,0.6-0.6,1.2-1.3,1.6c-0.6,0.4-1.5,0.8-2.6,1
		c-1.1,0.2-2.5,0.3-4.3,0.3h-54.3c-1.7,0-3.1-0.2-4.1-0.5c-1-0.3-1.7-0.8-2.3-1.4c-0.5-0.6-0.8-1.3-1-2.1c-0.1-0.8-0.2-1.6-0.2-2.5
		v-12.8c0-0.6,0.1-1.2,0.2-1.8c0.2-0.6,0.5-1.1,1-1.6c0.5-0.5,1.2-0.8,2.1-1.1c0.9-0.3,2.2-0.4,3.7-0.4h46.2v-3.2h-47
		c-2.6,0-4.3-0.5-5.2-1.4c-0.9-1-1.3-2.2-1.3-3.7c0-1.2,0.4-2.4,1.3-3.5c0.9-1.1,2.6-1.6,5.2-1.6h55.1c1.5,0,2.7,0.2,3.6,0.5
		c0.9,0.3,1.6,0.8,2.1,1.3c0.5,0.5,0.8,1.1,1,1.7c0.2,0.6,0.2,1.2,0.2,1.9v13.4c0,1.5-0.4,2.7-1.3,3.5s-2.8,1.3-5.7,1.3H1287.1z
		 M1285.8,87.3c0,1,0.7,1.6,2,1.9c1.3,0.3,3.3,0.5,6.1,0.5h24.6c2.7,0,4.7-0.2,6.1-0.5c1.3-0.3,2-1,2-1.9v-0.5c0-1-0.7-1.7-2-2
		c-1.3-0.3-3.4-0.4-6.3-0.4h-24.1c-2.9,0-5,0.1-6.3,0.4c-1.3,0.3-2,0.9-2,2V87.3z"/>
	<path class="st106" d="M1369.8,137.8h13.6c1.7,0,3.1,0.2,4.3,0.6c1.1,0.4,2,0.8,2.6,1.4c0.6,0.6,1,1.3,1.3,2
		c0.2,0.8,0.3,1.5,0.3,2.3c0,0.9-0.1,1.8-0.3,2.5c-0.2,0.8-0.6,1.4-1.3,2c-0.6,0.6-1.5,1-2.6,1.4c-1.1,0.3-2.5,0.5-4.3,0.5h-20.2
		c-1.7,0-3.1-0.2-4.1-0.5c-1-0.3-1.7-0.8-2.3-1.4c-0.5-0.6-0.8-1.3-1-2c-0.1-0.8-0.2-1.6-0.2-2.5v-31c0-0.9,0.1-1.8,0.2-2.6
		c0.1-0.8,0.4-1.6,1-2.3c0.5-0.7,1.3-1.2,2.3-1.6c1-0.4,2.3-0.6,4.1-0.6h11.8V87.3h-10.7c-1.7,0-3.1-0.2-4.3-0.6
		c-1.1-0.4-2-0.8-2.6-1.4c-0.6-0.6-1-1.3-1.3-2c-0.2-0.8-0.3-1.5-0.3-2.3c0-0.9,0.1-1.8,0.3-2.5c0.2-0.8,0.6-1.4,1.3-2
		c0.6-0.6,1.5-1,2.6-1.4c1.1-0.3,2.5-0.5,4.3-0.5h17.3c1.7,0,3.1,0.2,4.1,0.6c1,0.4,1.7,0.9,2.3,1.6c0.5,0.7,0.8,1.4,1,2.3
		c0.1,0.8,0.2,1.7,0.2,2.6v29.7c0,2.6-0.8,4.5-2.3,5.6c-1.5,1.1-3.6,1.7-6.2,1.7h-10.7V137.8z M1396.6,81.5c0-3.1,0.7-5.2,2-6.3
		c1.3-1.1,2.9-1.7,4.6-1.7c1.7,0,3.2,0.6,4.5,1.7c1.3,1.1,2,3.3,2,6.3V105h7.3V81.5c0-3.1,0.7-5.2,2-6.3c1.3-1.1,2.9-1.7,4.6-1.7
		c1.7,0,3.2,0.6,4.5,1.7c1.3,1.1,2,3.3,2,6.3v63.2c0,1.6-0.2,2.9-0.6,4c-0.4,1-0.8,1.9-1.4,2.5c-0.6,0.6-1.3,1-2.1,1.3
		c-0.8,0.2-1.6,0.4-2.4,0.4c-0.9,0-1.7-0.1-2.5-0.4c-0.8-0.2-1.5-0.7-2.1-1.3c-0.6-0.6-1.1-1.5-1.4-2.5c-0.4-1.1-0.6-2.4-0.6-4
		v-26.9h-7.3v26.9c0,1.6-0.2,2.9-0.6,4c-0.4,1-0.8,1.9-1.4,2.5c-0.6,0.6-1.3,1-2.1,1.3c-0.8,0.2-1.6,0.4-2.4,0.4
		c-0.9,0-1.7-0.1-2.5-0.4c-0.8-0.2-1.5-0.7-2.1-1.3c-0.6-0.6-1.1-1.5-1.4-2.5c-0.4-1.1-0.6-2.4-0.6-4V81.5z"/>
	<path class="st106" d="M1488.3,92.1c0,2.3-0.4,4.5-1.2,6.4c-0.8,1.9-1.9,3.7-3.2,5.3c-1.3,1.6-2.9,3.1-4.6,4.5
		c-1.7,1.4-3.5,2.8-5.3,4.1c-1.1,0.8-2,1.6-2.7,2.3c-0.7,0.7-1.2,1.5-1.5,2.2c-0.3,0.8-0.5,1.7-0.6,2.7s-0.1,2.2-0.1,3.6
		c0,0.6-0.1,1.1-0.3,1.8c-0.2,0.6-0.6,1.2-1.1,1.8c-0.5,0.6-1.2,1-2.1,1.3c-0.9,0.3-2,0.5-3.4,0.5c-2.3,0-4.1-0.4-5.5-1.3
		c-1.4-0.9-2-2.4-2-4.6c0-2.3,0.2-4.3,0.6-6.1c0.4-1.8,1.1-3.3,1.9-4.7s1.9-2.6,3.2-3.7c1.3-1.1,2.8-2.2,4.5-3.2
		c1.1-0.7,2.2-1.5,3.1-2.4c1-0.9,1.9-1.8,2.7-2.8c0.8-1,1.4-2.1,1.9-3.2c0.5-1.2,0.7-2.5,0.7-3.9c0-1.2-0.2-2.4-0.5-3.4
		c-0.3-1-0.8-1.9-1.6-2.6s-1.8-1.3-3.1-1.7c-1.3-0.4-2.9-0.6-4.9-0.6c-1.5,0-2.8,0.2-3.8,0.5c-1,0.3-1.9,0.7-2.5,1.1
		c-0.7,0.4-1.2,0.9-1.7,1.3c-0.4,0.5-0.8,0.8-1.2,1.2c-0.8,0.7-1.7,1.2-2.6,1.6c-1,0.4-1.9,0.6-2.9,0.7c-1,0.1-1.9,0-2.8-0.1
		c-0.9-0.2-1.7-0.5-2.4-1c-1.5-1.1-2.4-2.3-2.5-3.7c-0.2-1.4,0.2-2.6,1.2-3.7c0.8-1,1.9-2,3.1-3c1.3-1,2.8-1.9,4.6-2.7
		c1.8-0.8,3.8-1.4,6.1-1.9c2.3-0.5,4.9-0.7,7.8-0.7c4.3,0,7.9,0.5,11,1.5c3.1,1,5.6,2.4,7.6,4.1c2,1.7,3.5,3.7,4.4,5.9
		C1487.8,87.4,1488.3,89.7,1488.3,92.1z M1452.9,140.9c0,2.6,0.9,4.6,2.6,5.9c1.8,1.3,3.9,2,6.5,2c2.6,0,4.8-0.7,6.6-2
		c1.8-1.3,2.7-3.3,2.7-5.9c0-2.6-0.9-4.6-2.7-5.9c-1.8-1.4-4-2-6.6-2c-2.6,0-4.8,0.7-6.5,2C1453.8,136.3,1452.9,138.3,1452.9,140.9z
		"/>
</g>
<g>
	<g>
		<path class="st105" d="M715.6,193v1.7h-15.9V193h6.9v-4.1h2v4.1H715.6z M714,189.2c-2.9-0.6-5.4-2.3-6.5-4.6
			c-1.2,2.3-3.7,4.1-6.5,4.6l-0.9-1.7c3.5-0.6,6.3-3.2,6.3-5.9v-1.3h2.1v1.3c0,2.7,2.8,5.3,6.3,5.9L714,189.2z"/>
		<path class="st100" d="M715.6,201.1h-15.9c-3.6,0-6.5-2.9-6.5-6.5V193c0-1.2,0.3-2.3,0.9-3.3c-0.6-1.7-0.5-3.5,0.3-5.1
			c0.9-1.9,2.7-3.1,4.7-3.5c0.4-0.1,0.7-0.2,0.9-0.3v-0.5c0-3.6,2.9-6.5,6.5-6.5h2.1c3.6,0,6.5,2.9,6.5,6.5v0.5
			c0.2,0.1,0.5,0.3,0.9,0.3c2,0.3,3.8,1.6,4.7,3.5c0.8,1.5,0.9,3.3,0.4,4.9c0.6,1,1,2.2,1,3.4v1.7
			C722.1,198.2,719.1,201.1,715.6,201.1z"/>
	</g>
	<g>
		<path class="st105" d="M726.5,188.9v1.6c3.2,0.2,5,1.3,5,3.1c0,2-2.3,3.1-6.1,3.1c-3.8,0-6-1.1-6-3.1c0-1.8,1.9-2.9,5.1-3.1v-1.6
			h-6.9v-1.6h15.9v1.6H726.5z M718.3,184.9c3.2-0.3,5.5-1.7,5.8-3.3H719V180h13v1.6h-5.1c0.3,1.6,2.5,2.9,5.8,3.3l-0.7,1.6
			c-3.1-0.3-5.5-1.6-6.4-3.4c-1,1.8-3.4,3.1-6.4,3.4L718.3,184.9z M725.4,192.1c-2.6,0-4,0.5-4,1.6c0,1,1.4,1.6,4,1.6
			c2.6,0,4-0.6,4-1.6C729.5,192.6,728,192.1,725.4,192.1z"/>
		<path class="st100" d="M725.4,203.3c-9.3,0-12.5-5.2-12.5-9.6c0-0.1,0-0.1,0-0.2c-1.2-1.2-1.9-2.8-1.9-4.6v-1.6
			c0-1.2,0.3-2.3,0.8-3.2c0.1-0.8,0.3-1.5,0.7-2.2c0-0.1,0-0.2,0-0.4V180c0-3.6,2.9-6.5,6.5-6.5h13c3.6,0,6.5,2.9,6.5,6.5v1.6
			c0,0.1,0,0.3,0,0.4c0.3,0.7,0.5,1.4,0.6,2.1c0.5,0.9,0.8,2,0.8,3.2v1.6c0,1.8-0.7,3.4-1.9,4.6c0,0,0,0.1,0,0.1
			C738,198.1,734.7,203.3,725.4,203.3z"/>
	</g>
	<g>
		<path class="st105" d="M745.8,182.8h-10.4v-1.6h4.2v-2h2v2h4.2V182.8z M740.6,190.3c-2.5,0-4.3-1.3-4.3-3.3c0-2,1.8-3.3,4.3-3.3
			c2.5,0,4.3,1.3,4.3,3.3C744.9,189,743.2,190.3,740.6,190.3z M740.1,194.8h9.8v1.6H738v-5.1h2V194.8z M740.6,188.7
			c1.4,0,2.4-0.7,2.4-1.8c0-1.1-1-1.8-2.4-1.8c-1.4,0-2.3,0.7-2.3,1.8C738.3,188.1,739.3,188.7,740.6,188.7z M751.7,184.8v1.7h-2.5
			v5.9h-2v-13.2h2v5.6H751.7z"/>
		<path class="st100" d="M749.9,203H738c-3.6,0-6.5-2.9-6.5-6.5v-4.1c-1.1-1.5-1.7-3.4-1.7-5.4c0-0.3,0-0.5,0-0.8
			c-0.6-1-0.9-2.1-0.9-3.4v-1.6c0-3.4,2.6-6.2,5.9-6.5c1.2-1.3,2.9-2,4.7-2h2c1,0,1.9,0.2,2.8,0.6c0.8-0.4,1.8-0.6,2.7-0.6h2
			c3.6,0,6.5,2.9,6.5,6.5v0.5c1.5,1.2,2.5,3,2.5,5.1v1.7c0,2.1-1,3.9-2.5,5.1v0.3c0.4,0.9,0.7,1.9,0.7,2.9v1.6
			C756.4,200,753.5,203,749.9,203z"/>
	</g>
	<g>
		<path class="st105" d="M768.7,189.9c-2-0.6-3.5-1.9-4.3-3.6c-0.8,1.8-2.3,3.2-4.4,3.9l-1-1.6c2.7-0.9,4.3-3,4.3-5.3V183h-3.8v-1.6
			h3.8v-2.1h2v2.1h3.8v1.6h-3.8v0.3c0,2.2,1.6,4.2,4.3,5L768.7,189.9z M773.8,194.8v1.6h-12V191h2v3.9H773.8z M773.3,192.2h-2v-12.9
			h2V192.2z"/>
		<path class="st100" d="M773.8,203h-12c-3.6,0-6.5-2.9-6.5-6.5v-1.8c-0.3-0.3-0.6-0.7-0.8-1l-1-1.6c-1.1-1.7-1.3-3.8-0.6-5.7
			c0.1-0.4,0.3-0.7,0.5-1c-0.3-0.7-0.4-1.5-0.4-2.3v-1.6c0-3.2,2.3-5.9,5.4-6.4c1.2-1.4,2.9-2.2,4.9-2.2h2c1,0,2,0.2,2.9,0.7
			c0.9-0.5,1.9-0.7,3-0.7h2c3.6,0,6.5,2.9,6.5,6.5v12.9c0,0,0,0.1,0,0.1c0.3,0.8,0.5,1.6,0.5,2.5v1.6C780.3,200,777.4,203,773.8,203
			z M757.2,182.3L757.2,182.3L757.2,182.3z"/>
	</g>
	<g>
		<path class="st105" d="M792.6,189.5h-7v7.3h-2v-7.3h-6.9v-1.7h11.4c0.5-2.5,0.5-4.3,0.5-5.9h-10v-1.6h12v1.5c0,1.7,0,3.5-0.4,6
			h2.5V189.5z"/>
		<path class="st100" d="M785.6,203.3h-2c-3.6,0-6.5-2.9-6.5-6.5V196h-0.4c-3.6,0-6.5-2.9-6.5-6.5v-1.7c0-1.9,0.8-3.5,2-4.7
			c-0.1-0.4-0.1-0.8-0.1-1.2v-1.6c0-3.6,2.9-6.5,6.5-6.5h12c3.6,0,6.5,2.9,6.5,6.5v1.5c0,0.4,0,0.8,0,1.3c1.2,1.2,2,2.9,2,4.7v1.7
			c0,3.6-2.9,6.5-6.5,6.5h-0.5v0.8C792.1,200.4,789.2,203.3,785.6,203.3z"/>
	</g>
	<g>
		<path class="st105" d="M804.2,179.6h1.9V196h-1.9v-8.4h-1.9c-0.2,3.4-1.6,5.5-3.8,5.5c-2.3,0-3.8-2.4-3.8-6.2
			c0-3.9,1.5-6.2,3.8-6.2c2.1,0,3.5,2,3.7,5.3h1.9V179.6z M800.5,186.8c0-2.8-0.7-4.3-1.9-4.3s-1.9,1.6-1.9,4.3s0.7,4.4,1.9,4.4
			S800.5,189.6,800.5,186.8z M809.6,179.2v17.5h-1.9v-17.5H809.6z"/>
		<path class="st100" d="M809.6,203.3h-1.9c-1.1,0-2.2-0.3-3.2-0.8h-0.4c-2.3,0-4.2-1.2-5.4-2.9c-0.1,0-0.1,0-0.2,0
			c-4.9,0-10.3-4-10.3-12.7c0-8.7,5.3-12.7,10.3-12.7c0.6,0,1.2,0.1,1.8,0.2c1.1-0.8,2.4-1.2,3.8-1.2h1.5c0.6-0.2,1.3-0.3,2.1-0.3
			h1.9c3.6,0,6.5,2.9,6.5,6.5v17.5C816.1,200.4,813.2,203.3,809.6,203.3z"/>
	</g>
	<g>
		<path class="st105" d="M821.9,179.7h1.9V196h-1.9v-8.1h-3.2c-1,2-2.7,3.8-5.1,5.3l-1.1-1.4c3.7-2.2,5.4-5.1,5.7-8.7h-4.8v-1.6h6.8
			c0,1.7-0.2,3.3-0.7,4.8h2.6V179.7z M827.5,179.2v17.6h-1.9v-17.6H827.5z"/>
		<path class="st100" d="M827.5,203.3h-1.9c-1.2,0-2.3-0.3-3.2-0.8h-0.5c-2.5,0-4.6-1.4-5.7-3.4c-2.7,1.2-5.8,0.5-7.7-1.9l-1.1-1.4
			c-1.2-1.5-1.7-3.4-1.3-5.2c0.3-1.4,1-2.7,2-3.7c-0.8-1.1-1.3-2.4-1.3-3.9v-1.6c0-3.6,2.9-6.5,6.5-6.5h4.3c1.2-1.1,2.7-1.7,4.4-1.7
			h1.4c0.7-0.3,1.5-0.4,2.3-0.4h1.9c3.6,0,6.5,2.9,6.5,6.5v17.6C834,200.4,831.1,203.3,827.5,203.3z"/>
	</g>
	<g>
		<path class="st105" d="M843.6,180.4c0,4.4-1.9,7.6-6.8,9.6l-1-1.5c2.3-0.9,3.8-2.1,4.7-3.5l-4.3,0.5l-0.3-1.6l5.3-0.3
			c0.2-0.5,0.3-1,0.3-1.6h-4.9v-1.6H843.6z M839,190.3h11.7v6.3H839V190.3z M841,195h7.7v-3.1H841V195z M850.7,179.2v10.3h-1.9v-4.4
			h-1.9v4.3H845v-9.9h1.9v3.9h1.9v-4.3H850.7z"/>
		<path class="st100" d="M850.7,203.1H839c-3.6,0-6.5-2.9-6.5-6.5v-1.8c-0.4-0.4-0.8-0.8-1.1-1.3l-1-1.5c-1.1-1.6-1.3-3.7-0.8-5.5
			c0-0.1,0-0.1,0.1-0.2l-0.2-1.3c-0.3-1.5,0-3,0.7-4.3v-0.4c0-3.6,2.9-6.5,6.5-6.5h5.1c0.9-0.5,2-0.8,3.2-0.8h1.7
			c0.7-0.2,1.4-0.3,2.1-0.3h1.9c3.6,0,6.5,2.9,6.5,6.5v10.3c0,0.1,0,0.3,0,0.4c0,0.1,0,0.3,0,0.4v6.3
			C857.2,200.2,854.3,203.1,850.7,203.1z"/>
	</g>
	<g>
		<path class="st105" d="M860.7,180.7h2v12h-8.3v-12h2v4.5h4.4V180.7z M860.7,186.7h-4.4v4.3h4.4V186.7z M870.1,187.6h-2.7v9.2h-2
			v-17.6h2v6.8h2.7V187.6z"/>
		<path class="st100" d="M867.4,203.3h-2c-2.8,0-5.1-1.7-6.1-4.2h-4.9c-3.6,0-6.5-2.9-6.5-6.5v-12c0-3.6,2.9-6.5,6.5-6.5h2
			c0.8,0,1.5,0.1,2.2,0.4c0.7-0.2,1.4-0.4,2.2-0.4h0.5c1.1-0.9,2.5-1.4,4.1-1.4h2c3.6,0,6.5,2.9,6.5,6.5v1.4
			c1.7,1.2,2.7,3.1,2.7,5.3v1.7c0,2.2-1.1,4.1-2.7,5.3v3.9C873.9,200.4,870.9,203.3,867.4,203.3z"/>
	</g>
	<g>
		<path class="st105" d="M876.7,189.2c-2.6,0-4.7-1.8-4.7-4.4c0-2.6,2-4.4,4.7-4.4s4.6,1.8,4.6,4.4
			C881.3,187.3,879.3,189.2,876.7,189.2z M876.7,187.5c1.5,0,2.7-1.1,2.7-2.7c0-1.6-1.2-2.7-2.7-2.7c-1.6,0-2.7,1.1-2.7,2.7
			C874,186.4,875.1,187.5,876.7,187.5z M886.6,194.8v1.6h-12v-5.8h2v4.1H886.6z M886.1,192h-2v-12.8h2V192z"/>
		<path class="st100" d="M886.6,203h-12c-3.6,0-6.5-2.9-6.5-6.5v-4.5c-1.7-1.9-2.7-4.4-2.7-7.1c0-6.1,4.9-10.9,11.2-10.9
			c1.1,0,2.2,0.2,3.2,0.4c1.1-1,2.6-1.6,4.3-1.6h2c3.6,0,6.5,2.9,6.5,6.5V192c0,0.1,0,0.2,0,0.3c0.3,0.8,0.5,1.6,0.5,2.5v1.6
			C893.1,200,890.2,203,886.6,203z M874.9,184.2h1.8c0.3,0,0.6,0,1,0.1v-1.2c-0.3-0.2-0.7-0.4-1-0.4
			C876,182.7,875.2,183.3,874.9,184.2z"/>
	</g>
	<g>
		<path class="st105" d="M905.5,186.6v1.6h-15.9v-1.6H905.5z M891.2,182.5c0-2,2.3-3,6.3-3c3.9,0,6.3,1.1,6.3,3c0,1.9-2.3,3-6.3,3
			C893.6,185.5,891.2,184.5,891.2,182.5z M893.5,195.1H904v1.5h-12.5v-4.4h10V191h-10.1v-1.5h12v4.2h-10V195.1z M893.3,182.5
			c0,1,1.5,1.5,4.2,1.5s4.2-0.5,4.2-1.5c0-1-1.5-1.5-4.2-1.5S893.3,181.5,893.3,182.5z"/>
		<path class="st100" d="M904,203.1h-12.5c-3.6,0-6.5-2.9-6.5-6.5v-3.8c-1.2-1.2-1.9-2.8-1.9-4.6v-1.6c0-1.7,0.6-3.2,1.7-4.4
			c0.1-2.1,1.3-9.2,12.8-9.2c11.5,0,12.6,7.3,12.8,9.2c1.1,1.2,1.7,2.7,1.7,4.4v1.6c0,1.8-0.7,3.4-1.9,4.6c0.3,0.7,0.4,1.5,0.4,2.3
			v1.5C910.5,200.2,907.6,203.1,904,203.1z"/>
	</g>
	<g>
		<path class="st105" d="M928.8,193v1.7h-15.9V193h6.9v-4.1h2v4.1H928.8z M927.3,189.2c-2.9-0.6-5.4-2.3-6.5-4.6
			c-1.2,2.3-3.7,4.1-6.5,4.6l-0.9-1.7c3.5-0.6,6.3-3.2,6.3-5.9v-1.3h2.1v1.3c0,2.7,2.8,5.3,6.3,5.9L927.3,189.2z"/>
		<path class="st100" d="M928.8,201.1h-15.9c-3.6,0-6.5-2.9-6.5-6.5V193c0-1.2,0.3-2.3,0.9-3.3c-0.6-1.7-0.5-3.5,0.3-5.1
			c0.9-1.9,2.7-3.1,4.7-3.5c0.4-0.1,0.7-0.2,0.9-0.3v-0.5c0-3.6,2.9-6.5,6.5-6.5h2.1c3.6,0,6.5,2.9,6.5,6.5v0.5
			c0.2,0.1,0.5,0.3,0.9,0.3c2,0.3,3.8,1.6,4.7,3.5c0.8,1.5,0.9,3.3,0.4,4.9c0.6,1,1,2.2,1,3.4v1.7
			C935.3,198.2,932.4,201.1,928.8,201.1z"/>
	</g>
	<g>
		<path class="st105" d="M938.4,181.4c0,4.7-1.5,8.8-6.5,11.7l-1.2-1.4c3.8-2.2,5.4-5.1,5.7-8.6h-4.9v-1.6H938.4z M945.8,179.2v17.6
			h-1.9v-9.1h-2v8.2H940v-16.3h1.9v6.4h2v-6.9H945.8z"/>
		<path class="st100" d="M945.8,203.3h-1.9c-1.1,0-2.2-0.3-3.2-0.8H940c-2.4,0-4.6-1.3-5.7-3.3c-2.6,1-5.6,0.3-7.4-1.9l-1.2-1.4
			c-1.2-1.5-1.7-3.4-1.4-5.3c0.2-1.4,0.9-2.6,1.9-3.6c-0.8-1.1-1.3-2.4-1.3-3.9v-1.6c0-3.6,2.9-6.5,6.5-6.5h4.1
			c1.2-1.1,2.7-1.8,4.4-1.8h1.5c0.7-0.3,1.6-0.5,2.4-0.5h1.9c3.6,0,6.5,2.9,6.5,6.5v17.6C952.3,200.4,949.4,203.3,945.8,203.3z"/>
	</g>
	<g>
		<path class="st105" d="M954,182.1h3.3v1.6h-8.6v-1.6h3.3v-2.4h2V182.1z M956.8,188.8c0,2.4-1.6,4.1-3.8,4.1s-3.8-1.7-3.8-4.1
			c0-2.4,1.6-4.1,3.8-4.1S956.8,186.3,956.8,188.8z M955,188.8c0-1.5-0.8-2.4-2-2.4s-2,1-2,2.4s0.8,2.4,2,2.4S955,190.2,955,188.8z
			 M963.7,179.2v17.6h-1.9v-8.6h-1.9v7.8H958v-16.4h1.9v6.9h1.9v-7.3H963.7z"/>
		<path class="st100" d="M963.7,203.3h-1.9c-1.1,0-2.2-0.3-3.2-0.8H958c-2.4,0-4.4-1.3-5.6-3.1c-5.5-0.3-9.8-4.8-9.8-10.6
			c0-0.7,0.1-1.5,0.2-2.1c-0.4-0.9-0.7-1.9-0.7-2.9v-1.6c0-2.9,1.9-5.4,4.6-6.2c1.2-1.6,3.1-2.6,5.2-2.6h2c0.6,0,1.2,0.1,1.8,0.3
			c0.7-0.3,1.4-0.4,2.2-0.4h1.6c0.7-0.2,1.4-0.4,2.2-0.4h1.9c3.6,0,6.5,2.9,6.5,6.5v17.6C970.2,200.4,967.3,203.3,963.7,203.3z
			 M950.9,190.2c0.2,0.2,0.4,0.4,0.6,0.5v-0.5H950.9z"/>
	</g>
	<g>
		<path class="st105" d="M982.5,190.7h-7v6.1h-2v-6.1h-6.9v-1.6h15.9L982.5,190.7z M967.5,186.2c3.3-0.4,5.8-2.4,5.9-4.4h-5.4v-1.6
			H981v1.6h-5.3c0.1,2,2.6,4,5.9,4.4l-0.7,1.6c-2.9-0.4-5.3-1.9-6.4-3.8c-1.1,1.9-3.4,3.4-6.3,3.8L967.5,186.2z"/>
		<path class="st100" d="M975.5,203.3h-2c-3.5,0-6.3-2.7-6.5-6.1h-0.4c-3.6,0-6.5-2.9-6.5-6.5v-1.6c0-1.2,0.3-2.3,0.9-3.3
			c0.1-0.9,0.3-1.8,0.7-2.6c-0.1-0.5-0.2-0.9-0.2-1.4v-1.6c0-3.6,2.9-6.5,6.5-6.5H981c3.6,0,6.5,2.9,6.5,6.5v1.6
			c0,0.5,0,0.9-0.1,1.4c0.4,0.8,0.7,1.7,0.8,2.6c0.6,1,0.9,2.2,0.9,3.4l0,1.6c0,3.6-2.9,6.4-6.5,6.4H982
			C981.8,200.6,979,203.3,975.5,203.3z"/>
	</g>
	<g>
		<path class="st105" d="M989.9,183.9c0,2.8,1.1,5.8,3.4,7.3l-1.1,1.6c-1.6-1-2.6-2.7-3.2-4.6c-0.6,2.2-1.8,4-3.5,5l-1.2-1.5
			c2.5-1.5,3.7-4.6,3.7-7.6v-3.2h1.9V183.9z M994,179.6h1.9V196H994v-9h-2.6v-1.6h2.6V179.6z M999.5,179.2v17.6h-1.9v-17.6H999.5z"
			/>
		<path class="st100" d="M999.5,203.3h-1.9c-1.1,0-2.2-0.3-3.2-0.8H994c-2.5,0-4.7-1.4-5.7-3.5c-2.7,1.3-5.9,0.6-7.9-1.8l-1.2-1.5
			c-1.2-1.5-1.7-3.4-1.3-5.2s1.5-3.5,3.1-4.4c0.1-0.1,0.5-1,0.5-2v-3.2c0-3.6,2.9-6.5,6.5-6.5h1.9c0.1,0,0.2,0,0.2,0
			c1.1-0.8,2.4-1.3,3.9-1.3h1.5c0.6-0.2,1.3-0.3,2.1-0.3h1.9c3.6,0,6.5,2.9,6.5,6.5v17.6C1006,200.4,1003.1,203.3,999.5,203.3z"/>
	</g>
	<g>
		<path class="st105" d="M1018.3,193v1.6h-15.9V193h3.7v-4.6c-1.4-0.8-2.2-2-2.2-3.6c0-2.8,2.7-4.6,6.5-4.6c3.7,0,6.5,1.8,6.5,4.6
			c0,1.6-0.8,2.8-2.2,3.6v4.6H1018.3z M1005.9,184.8c0,1.9,1.8,3,4.5,3c2.6,0,4.5-1.2,4.5-3c0-1.8-1.8-3-4.5-3
			C1007.7,181.8,1005.9,183,1005.9,184.8z M1008.1,193h4.4v-3.8c-0.7,0.2-1.4,0.3-2.2,0.3s-1.5-0.1-2.2-0.2V193z"/>
		<path class="st100" d="M1018.3,201.1h-15.9c-3.6,0-6.5-2.9-6.5-6.5V193c0-1.9,0.8-3.6,2.1-4.7c-0.4-1.1-0.6-2.2-0.6-3.4
			c0-6.4,5.5-11.1,13-11.1s13,4.7,13,11.1c0,1.2-0.2,2.3-0.6,3.4c1.3,1.2,2.1,2.9,2.1,4.8v1.6
			C1024.8,198.2,1021.9,201.1,1018.3,201.1z"/>
	</g>
	<g>
		<path class="st105" d="M1020.7,194c0-0.9,0.7-1.6,1.5-1.6c0.8,0,1.5,0.7,1.5,1.6c0,0.9-0.7,1.6-1.5,1.6
			C1021.4,195.5,1020.7,194.9,1020.7,194z"/>
		<path class="st100" d="M1022.2,202c-4.5,0-8-3.5-8-8.1c0-4.5,3.6-8.1,8-8.1s8,3.6,8,8.1C1030.2,198.5,1026.7,202,1022.2,202z
			 M1022.2,189c-2.7,0-5,2.3-5,4.9c0,2.7,2.2,4.9,5,4.9s5-2.2,5-4.9C1027.2,191.3,1024.9,189,1022.2,189z"/>
	</g>
	<g>
		<path class="st105" d="M1040.1,189.3c-2-0.7-3.4-2.2-4.2-4c-0.8,2-2.3,3.6-4.3,4.3l-1-1.6c2.8-1,4.3-3.5,4.3-6.1v-1.8h2v1.8
			c0,2.5,1.5,4.8,4.2,5.8L1040.1,189.3z M1045.5,194.8v1.6h-12v-5.6h2v3.9H1045.5z M1045,192.1h-2v-12.8h2V192.1z"/>
		<path class="st100" d="M1045.5,203h-12c-3.6,0-6.5-2.9-6.5-6.5v-2.2c-0.3-0.3-0.6-0.7-0.9-1.1l-1-1.6c-1.1-1.7-1.3-3.7-0.7-5.6
			c0.6-1.9,2.1-3.3,3.9-4l0-1.7c0-3.6,2.9-6.5,6.5-6.5h2c0.8,0,1.5,0.1,2.1,0.4c1.1-0.8,2.4-1.3,3.9-1.3h2c3.6,0,6.5,2.9,6.5,6.5
			v12.8c0,0.1,0,0.1,0,0.2c0.3,0.8,0.5,1.6,0.5,2.5v1.6C1052,200,1049.1,203,1045.5,203z"/>
	</g>
	<g>
		<path class="st105" d="M1064.3,189.5h-4v7.3h-2v-7.3h-4v7.3h-2v-7.3h-3.9v-1.7h11.2c0.5-2.6,0.5-4.5,0.5-6h-9.8v-1.6h11.8v1.2
			c0,1.5,0,3.6-0.5,6.4h2.6V189.5z"/>
		<path class="st100" d="M1060.3,203.3h-2c-0.7,0-1.4-0.1-2-0.3c-0.6,0.2-1.3,0.3-2,0.3h-2c-3.6,0-6.5-2.9-6.5-6.5v-1.3
			c-2.3-1-3.9-3.3-3.9-5.9v-1.7c0-1.9,0.8-3.6,2.1-4.7c-0.1-0.4-0.1-0.8-0.1-1.2v-1.6c0-3.6,2.9-6.5,6.5-6.5h11.8
			c3.6,0,6.5,2.9,6.5,6.5v1.2c0,0.5,0,1,0,1.6c1.3,1.2,2.1,2.9,2.1,4.8v1.7c0,2.7-1.6,5-4,6v1.3
			C1066.8,200.4,1063.9,203.3,1060.3,203.3z"/>
	</g>
	<g>
		<path class="st105" d="M1078.5,191.9c1.6-0.1,3.2-0.2,4.7-0.4l0.1,1.5c-3.9,0.7-8,0.7-11.2,0.7l-0.3-1.7c1.4,0,3,0,4.7-0.1v-1.7
			c-2-0.3-3.3-1.5-3.3-3.2c0-2,1.8-3.3,4.3-3.3c2.5,0,4.3,1.3,4.3,3.3c0,1.7-1.3,2.9-3.3,3.2V191.9z M1082.8,182.9h-10.6v-1.6h4.3
			v-2h2v2h4.3V182.9z M1077.5,188.8c1.4,0,2.4-0.7,2.4-1.8c0-1.1-1-1.7-2.4-1.7c-1.4,0-2.4,0.7-2.4,1.7
			C1075.1,188.1,1076.1,188.8,1077.5,188.8z M1086.2,179.2v17.6h-2v-17.6H1086.2z"/>
		<path class="st100" d="M1086.2,203.3h-2c-2.4,0-4.6-1.3-5.7-3.3c-2.2,0.1-4.4,0.2-6.4,0.2c-3.2,0-5.9-2.3-6.4-5.5l-0.3-1.7
			c-0.3-1.8,0.2-3.6,1.4-5c0-0.3,0-0.6,0-0.9c0-0.2,0-0.4,0-0.6c-0.7-1-1-2.2-1-3.5v-1.6c0-3.5,2.7-6.3,6.1-6.5c1.2-1.3,2.9-2,4.7-2
			h2c1,0,1.9,0.2,2.8,0.6c0.9-0.4,1.8-0.7,2.9-0.7h2c3.6,0,6.5,2.9,6.5,6.5v17.6C1092.7,200.4,1089.8,203.3,1086.2,203.3z"/>
	</g>
	<g>
		<path class="st105" d="M1094.5,188.7c-1.7,0.1-3.3,0.1-4.7,0.1l-0.3-1.6c3.2,0,7.5-0.1,11.3-0.5l0.2,1.4c-1.5,0.3-3,0.4-4.5,0.5
			v3.4h-2V188.7z M1090.9,183c0-1.9,1.8-3.1,4.4-3.1c2.6,0,4.3,1.2,4.3,3.1c0,1.9-1.8,3.1-4.3,3.1
			C1092.7,186.1,1090.9,184.8,1090.9,183z M1104.6,194.8v1.6h-12.7v-5.2h2v3.6H1104.6z M1092.8,183c0,1,1,1.6,2.5,1.6
			c1.4,0,2.4-0.6,2.4-1.6s-1-1.6-2.4-1.6C1093.8,181.4,1092.8,182,1092.8,183z M1102.2,189.5v-10.3h2v13.4h-2v-1.6h-3.4v-1.4H1102.2
			z"/>
		<path class="st100" d="M1104.6,203h-12.7c-3.6,0-6.5-2.9-6.5-6.5v-2.8c-1.1-1-1.8-2.3-2-3.8l-0.3-1.6c-0.3-1.8,0.2-3.5,1.3-5
			c0-0.1,0-0.2,0-0.3c0-5.6,4.6-9.6,10.9-9.6c1.2,0,2.3,0.1,3.3,0.4c1-0.7,2.3-1.1,3.6-1.1h2c3.6,0,6.5,2.9,6.5,6.5v13.4
			c0.3,0.7,0.4,1.5,0.4,2.3v1.6C1111.1,200,1108.2,203,1104.6,203z M1095.3,179.6c-0.4,0.1-0.9,0.5-1.3,1c0.6,0,1.2,0,1.8-0.1v-0.8
			C1095.6,179.7,1095.4,179.6,1095.3,179.6z M1095.4,179.6L1095.4,179.6z M1095.1,179.6L1095.1,179.6L1095.1,179.6z"/>
	</g>
	<g>
		<path class="st105" d="M1116.6,181.1c0,5.1-2.2,9.6-7.9,12.5l-1.1-1.5c4.3-2.2,6.6-5.3,7-9.3h-6.1v-1.6H1116.6z M1123.8,187.8
			h-2.7v8.9h-2v-17.6h2v6.9h2.7V187.8z"/>
		<path class="st100" d="M1121.2,203.3h-2c-2.9,0-5.4-1.9-6.2-4.6c-0.4,0.3-0.9,0.5-1.4,0.7c-2.9,1.4-6.3,0.6-8.2-2l-1.1-1.5
			c-1.1-1.5-1.5-3.5-1-5.3c0.3-1.4,1.2-2.7,2.3-3.6c-1-1.1-1.6-2.6-1.6-4.2v-1.6c0-3.6,2.9-6.5,6.5-6.5h6.2c1.2-1.2,2.8-1.9,4.6-1.9
			h2c3.6,0,6.5,2.9,6.5,6.5v1.7c1.6,1.2,2.7,3.1,2.7,5.2v1.7c0,2.2-1,4.1-2.7,5.2v3.7C1127.7,200.4,1124.8,203.3,1121.2,203.3z"/>
	</g>
	<g>
		<path class="st105" d="M1135.1,184.1c0,2.4-2,4.1-4.6,4.1s-4.7-1.7-4.7-4.1s2-4.1,4.7-4.1S1135.1,181.7,1135.1,184.1z
			 M1127.8,184.1c0,1.5,1.1,2.4,2.7,2.4c1.6,0,2.7-1,2.7-2.4c0-1.5-1.1-2.4-2.7-2.4C1128.9,181.7,1127.8,182.6,1127.8,184.1z
			 M1130.5,189.5v1.9h7.5v-1.9h2v7.1h-11.5v-7.1H1130.5z M1130.5,195h7.5v-2h-7.5V195z M1139.9,179.2v9.4h-2v-9.4H1139.9z"/>
		<path class="st100" d="M1139.9,203.1h-11.5c-3.6,0-6.5-2.9-6.5-6.5v-5.5c-1.7-1.8-2.7-4.3-2.7-7c0-6,4.8-10.6,11.2-10.6
			c1.3,0,2.5,0.2,3.6,0.5c1.1-0.8,2.4-1.3,3.9-1.3h2c3.6,0,6.5,2.9,6.5,6.5v9.4c0,0.1,0,0.3,0,0.4c0,0.1,0,0.3,0,0.4v7.1
			C1146.4,200.2,1143.5,203.1,1139.9,203.1z M1128.9,183h1.6c0.3,0,0.7,0,1,0.1v-0.9c-0.3-0.3-0.7-0.5-1-0.5
			C1130,181.7,1129.3,182.2,1128.9,183z"/>
	</g>
	<g>
		<path class="st105" d="M1158.5,186.7c0,3.8-1.9,6.2-4.5,6.2c-2.6,0-4.5-2.4-4.5-6.2c0-3.8,1.9-6.2,4.5-6.2
			C1156.5,180.5,1158.5,182.9,1158.5,186.7z M1151.3,186.7c0,2.8,1.1,4.4,2.6,4.4c1.5,0,2.6-1.7,2.6-4.4c0-2.7-1.1-4.4-2.6-4.4
			C1152.4,182.3,1151.3,184,1151.3,186.7z M1163.3,179.2v17.6h-2v-17.6H1163.3z"/>
		<path class="st100" d="M1163.3,203.3h-2c-2.7,0-5-1.7-6-4c-0.4,0.1-0.9,0.1-1.3,0.1c-6.4,0-11-5.3-11-12.7c0-7.4,4.6-12.7,11-12.7
			c1,0,2,0.1,2.9,0.4c1.2-1.1,2.7-1.7,4.4-1.7h2c3.6,0,6.5,2.9,6.5,6.5v17.6C1169.8,200.4,1166.9,203.3,1163.3,203.3z M1151.9,187.5
			L1151.9,187.5L1151.9,187.5z M1152.7,186.7c0.6,0.3,1.4,0.4,2,0.2v-0.3C1154.1,186.3,1153.3,186.4,1152.7,186.7z"/>
	</g>
	<g>
		<path class="st105" d="M1174.3,189.3h-6.9v-8.7h1.9v2.8h3.1v-2.8h1.9v3.6h2v-4.7h1.9V192h-1.9v-6.2h-2V189.3z M1172.4,185h-3.1
			v2.7h3.1V185z M1182.1,194.8v1.6H1170v-5.7h2v4H1182.1z M1181.6,192.5h-1.9v-13.3h1.9V192.5z"/>
		<path class="st100" d="M1182.1,203H1170c-3.6,0-6.5-2.9-6.5-6.5v-2c-1.5-1.2-2.5-3.1-2.5-5.2v-8.7c0-3.6,2.9-6.5,6.5-6.5h1.9
			c0.5,0,1.1,0.1,1.6,0.2c0.5-0.1,1-0.2,1.6-0.2h0.3c1-0.7,2.2-1.1,3.5-1.1h1.4c0.6-0.2,1.3-0.3,2.1-0.3h1.9c3.6,0,6.5,2.9,6.5,6.5
			v13.1c0.3,0.8,0.5,1.6,0.5,2.5v1.6C1188.6,200,1185.7,203,1182.1,203z"/>
	</g>
	<g>
		<path class="st105" d="M1200.6,193v1.6h-15.9V193H1200.6z M1198.8,190.1h-12.2v-9.5h12v1.6h-10v2.3h9.6v1.6h-9.6v2.4h10.1V190.1z"
			/>
		<path class="st100" d="M1200.6,201.1h-15.9c-3.6,0-6.5-2.9-6.5-6.5V193c0-1.8,0.8-3.5,2-4.7v-7.7c0-3.6,2.9-6.5,6.5-6.5h12
			c3.6,0,6.5,2.9,6.5,6.5v1.6c0,0.8-0.1,1.5-0.4,2.2c0,0,0,0,0,0v1.4c0.3,0.8,0.5,1.7,0.5,2.6v0c1.1,1.2,1.8,2.7,1.8,4.5v1.6
			C1207.1,198.2,1204.2,201.1,1200.6,201.1z"/>
	</g>
	<g>
		<path class="st105" d="M1203.4,194c0-0.9,0.6-1.6,1.5-1.6c0.9,0,1.5,0.7,1.5,1.6c0,0.9-0.7,1.6-1.5,1.6
			C1204,195.5,1203.4,194.9,1203.4,194z M1203.8,182.9l-0.1-2.3h2.3l-0.1,2.3l-0.3,7.8h-1.5L1203.8,182.9z"/>
		<path class="st100" d="M1204.9,202c-4.5,0-8-3.5-8-8.1c0-1.2,0.3-2.4,0.7-3.4l-0.3-7.4c0,0,0-0.1,0-0.1l-0.1-2.3
			c0-1.8,0.6-3.4,1.8-4.7s2.9-2,4.7-2h2.3c1.8,0,3.4,0.7,4.7,2s1.9,3,1.8,4.7l-0.4,9.7c0.5,1,0.7,2.2,0.7,3.4
			C1212.9,198.5,1209.4,202,1204.9,202z M1200.3,196c0.8,1.7,2.5,2.9,4.6,2.9c2,0,3.8-1.2,4.6-2.9c-1.1,0.8-2.4,1.2-3.8,1.2h-1.5
			C1202.7,197.2,1201.4,196.8,1200.3,196z"/>
	</g>
</g>
<g>
	<path class="st103" d="M715.6,193v1.7h-15.9V193h6.9v-4.1h2v4.1H715.6z M714,189.2c-2.9-0.6-5.4-2.3-6.5-4.6
		c-1.2,2.3-3.7,4.1-6.5,4.6l-0.9-1.7c3.5-0.6,6.3-3.2,6.3-5.9v-1.3h2.1v1.3c0,2.7,2.8,5.3,6.3,5.9L714,189.2z"/>
	<path class="st103" d="M726.5,188.9v1.6c3.2,0.2,5,1.3,5,3.1c0,2-2.3,3.1-6.1,3.1c-3.8,0-6-1.1-6-3.1c0-1.8,1.9-2.9,5.1-3.1v-1.6
		h-6.9v-1.6h15.9v1.6H726.5z M718.3,184.9c3.2-0.3,5.5-1.7,5.8-3.3H719V180h13v1.6h-5.1c0.3,1.6,2.5,2.9,5.8,3.3l-0.7,1.6
		c-3.1-0.3-5.5-1.6-6.4-3.4c-1,1.8-3.4,3.1-6.4,3.4L718.3,184.9z M725.4,192.1c-2.6,0-4,0.5-4,1.6c0,1,1.4,1.6,4,1.6
		c2.6,0,4-0.6,4-1.6C729.5,192.6,728,192.1,725.4,192.1z"/>
	<path class="st103" d="M745.8,182.8h-10.4v-1.6h4.2v-2h2v2h4.2V182.8z M740.6,190.3c-2.5,0-4.3-1.3-4.3-3.3c0-2,1.8-3.3,4.3-3.3
		c2.5,0,4.3,1.3,4.3,3.3C744.9,189,743.2,190.3,740.6,190.3z M740.1,194.8h9.8v1.6H738v-5.1h2V194.8z M740.6,188.7
		c1.4,0,2.4-0.7,2.4-1.8c0-1.1-1-1.8-2.4-1.8c-1.4,0-2.3,0.7-2.3,1.8C738.3,188.1,739.3,188.7,740.6,188.7z M751.7,184.8v1.7h-2.5
		v5.9h-2v-13.2h2v5.6H751.7z"/>
	<path class="st103" d="M768.7,189.9c-2-0.6-3.5-1.9-4.3-3.6c-0.8,1.8-2.3,3.2-4.4,3.9l-1-1.6c2.7-0.9,4.3-3,4.3-5.3V183h-3.8v-1.6
		h3.8v-2.1h2v2.1h3.8v1.6h-3.8v0.3c0,2.2,1.6,4.2,4.3,5L768.7,189.9z M773.8,194.8v1.6h-12V191h2v3.9H773.8z M773.3,192.2h-2v-12.9
		h2V192.2z"/>
	<path class="st103" d="M792.6,189.5h-7v7.3h-2v-7.3h-6.9v-1.7h11.4c0.5-2.5,0.5-4.3,0.5-5.9h-10v-1.6h12v1.5c0,1.7,0,3.5-0.4,6h2.5
		V189.5z"/>
	<path class="st103" d="M804.2,179.6h1.9V196h-1.9v-8.4h-1.9c-0.2,3.4-1.6,5.5-3.8,5.5c-2.3,0-3.8-2.4-3.8-6.2
		c0-3.9,1.5-6.2,3.8-6.2c2.1,0,3.5,2,3.7,5.3h1.9V179.6z M800.5,186.8c0-2.8-0.7-4.3-1.9-4.3s-1.9,1.6-1.9,4.3s0.7,4.4,1.9,4.4
		S800.5,189.6,800.5,186.8z M809.6,179.2v17.5h-1.9v-17.5H809.6z"/>
	<path class="st103" d="M821.9,179.7h1.9V196h-1.9v-8.1h-3.2c-1,2-2.7,3.8-5.1,5.3l-1.1-1.4c3.7-2.2,5.4-5.1,5.7-8.7h-4.8v-1.6h6.8
		c0,1.7-0.2,3.3-0.7,4.8h2.6V179.7z M827.5,179.2v17.6h-1.9v-17.6H827.5z"/>
	<path class="st103" d="M843.6,180.4c0,4.4-1.9,7.6-6.8,9.6l-1-1.5c2.3-0.9,3.8-2.1,4.7-3.5l-4.3,0.5l-0.3-1.6l5.3-0.3
		c0.2-0.5,0.3-1,0.3-1.6h-4.9v-1.6H843.6z M839,190.3h11.7v6.3H839V190.3z M841,195h7.7v-3.1H841V195z M850.7,179.2v10.3h-1.9v-4.4
		h-1.9v4.3H845v-9.9h1.9v3.9h1.9v-4.3H850.7z"/>
	<path class="st103" d="M860.7,180.7h2v12h-8.3v-12h2v4.5h4.4V180.7z M860.7,186.7h-4.4v4.3h4.4V186.7z M870.1,187.6h-2.7v9.2h-2
		v-17.6h2v6.8h2.7V187.6z"/>
	<path class="st103" d="M876.7,189.2c-2.6,0-4.7-1.8-4.7-4.4c0-2.6,2-4.4,4.7-4.4s4.6,1.8,4.6,4.4
		C881.3,187.3,879.3,189.2,876.7,189.2z M876.7,187.5c1.5,0,2.7-1.1,2.7-2.7c0-1.6-1.2-2.7-2.7-2.7c-1.6,0-2.7,1.1-2.7,2.7
		C874,186.4,875.1,187.5,876.7,187.5z M886.6,194.8v1.6h-12v-5.8h2v4.1H886.6z M886.1,192h-2v-12.8h2V192z"/>
	<path class="st103" d="M905.5,186.6v1.6h-15.9v-1.6H905.5z M891.2,182.5c0-2,2.3-3,6.3-3c3.9,0,6.3,1.1,6.3,3c0,1.9-2.3,3-6.3,3
		C893.6,185.5,891.2,184.5,891.2,182.5z M893.5,195.1H904v1.5h-12.5v-4.4h10V191h-10.1v-1.5h12v4.2h-10V195.1z M893.3,182.5
		c0,1,1.5,1.5,4.2,1.5s4.2-0.5,4.2-1.5c0-1-1.5-1.5-4.2-1.5S893.3,181.5,893.3,182.5z"/>
	<path class="st103" d="M928.8,193v1.7h-15.9V193h6.9v-4.1h2v4.1H928.8z M927.3,189.2c-2.9-0.6-5.4-2.3-6.5-4.6
		c-1.2,2.3-3.7,4.1-6.5,4.6l-0.9-1.7c3.5-0.6,6.3-3.2,6.3-5.9v-1.3h2.1v1.3c0,2.7,2.8,5.3,6.3,5.9L927.3,189.2z"/>
	<path class="st103" d="M938.4,181.4c0,4.7-1.5,8.8-6.5,11.7l-1.2-1.4c3.8-2.2,5.4-5.1,5.7-8.6h-4.9v-1.6H938.4z M945.8,179.2v17.6
		h-1.9v-9.1h-2v8.2H940v-16.3h1.9v6.4h2v-6.9H945.8z"/>
	<path class="st103" d="M954,182.1h3.3v1.6h-8.6v-1.6h3.3v-2.4h2V182.1z M956.8,188.8c0,2.4-1.6,4.1-3.8,4.1s-3.8-1.7-3.8-4.1
		c0-2.4,1.6-4.1,3.8-4.1S956.8,186.3,956.8,188.8z M955,188.8c0-1.5-0.8-2.4-2-2.4s-2,1-2,2.4s0.8,2.4,2,2.4S955,190.2,955,188.8z
		 M963.7,179.2v17.6h-1.9v-8.6h-1.9v7.8H958v-16.4h1.9v6.9h1.9v-7.3H963.7z"/>
	<path class="st103" d="M982.5,190.7h-7v6.1h-2v-6.1h-6.9v-1.6h15.9L982.5,190.7z M967.5,186.2c3.3-0.4,5.8-2.4,5.9-4.4h-5.4v-1.6
		H981v1.6h-5.3c0.1,2,2.6,4,5.9,4.4l-0.7,1.6c-2.9-0.4-5.3-1.9-6.4-3.8c-1.1,1.9-3.4,3.4-6.3,3.8L967.5,186.2z"/>
	<path class="st103" d="M989.9,183.9c0,2.8,1.1,5.8,3.4,7.3l-1.1,1.6c-1.6-1-2.6-2.7-3.2-4.6c-0.6,2.2-1.8,4-3.5,5l-1.2-1.5
		c2.5-1.5,3.7-4.6,3.7-7.6v-3.2h1.9V183.9z M994,179.6h1.9V196H994v-9h-2.6v-1.6h2.6V179.6z M999.5,179.2v17.6h-1.9v-17.6H999.5z"/>
	<path class="st103" d="M1018.3,193v1.6h-15.9V193h3.7v-4.6c-1.4-0.8-2.2-2-2.2-3.6c0-2.8,2.7-4.6,6.5-4.6c3.7,0,6.5,1.8,6.5,4.6
		c0,1.6-0.8,2.8-2.2,3.6v4.6H1018.3z M1005.9,184.8c0,1.9,1.8,3,4.5,3c2.6,0,4.5-1.2,4.5-3c0-1.8-1.8-3-4.5-3
		C1007.7,181.8,1005.9,183,1005.9,184.8z M1008.1,193h4.4v-3.8c-0.7,0.2-1.4,0.3-2.2,0.3s-1.5-0.1-2.2-0.2V193z"/>
	<path class="st103" d="M1020.7,194c0-0.9,0.7-1.6,1.5-1.6c0.8,0,1.5,0.7,1.5,1.6c0,0.9-0.7,1.6-1.5,1.6
		C1021.4,195.5,1020.7,194.9,1020.7,194z"/>
	<path class="st103" d="M1040.1,189.3c-2-0.7-3.4-2.2-4.2-4c-0.8,2-2.3,3.6-4.3,4.3l-1-1.6c2.8-1,4.3-3.5,4.3-6.1v-1.8h2v1.8
		c0,2.5,1.5,4.8,4.2,5.8L1040.1,189.3z M1045.5,194.8v1.6h-12v-5.6h2v3.9H1045.5z M1045,192.1h-2v-12.8h2V192.1z"/>
	<path class="st103" d="M1064.3,189.5h-4v7.3h-2v-7.3h-4v7.3h-2v-7.3h-3.9v-1.7h11.2c0.5-2.6,0.5-4.5,0.5-6h-9.8v-1.6h11.8v1.2
		c0,1.5,0,3.6-0.5,6.4h2.6V189.5z"/>
	<path class="st103" d="M1078.5,191.9c1.6-0.1,3.2-0.2,4.7-0.4l0.1,1.5c-3.9,0.7-8,0.7-11.2,0.7l-0.3-1.7c1.4,0,3,0,4.7-0.1v-1.7
		c-2-0.3-3.3-1.5-3.3-3.2c0-2,1.8-3.3,4.3-3.3c2.5,0,4.3,1.3,4.3,3.3c0,1.7-1.3,2.9-3.3,3.2V191.9z M1082.8,182.9h-10.6v-1.6h4.3v-2
		h2v2h4.3V182.9z M1077.5,188.8c1.4,0,2.4-0.7,2.4-1.8c0-1.1-1-1.7-2.4-1.7c-1.4,0-2.4,0.7-2.4,1.7
		C1075.1,188.1,1076.1,188.8,1077.5,188.8z M1086.2,179.2v17.6h-2v-17.6H1086.2z"/>
	<path class="st103" d="M1094.5,188.7c-1.7,0.1-3.3,0.1-4.7,0.1l-0.3-1.6c3.2,0,7.5-0.1,11.3-0.5l0.2,1.4c-1.5,0.3-3,0.4-4.5,0.5
		v3.4h-2V188.7z M1090.9,183c0-1.9,1.8-3.1,4.4-3.1c2.6,0,4.3,1.2,4.3,3.1c0,1.9-1.8,3.1-4.3,3.1
		C1092.7,186.1,1090.9,184.8,1090.9,183z M1104.6,194.8v1.6h-12.7v-5.2h2v3.6H1104.6z M1092.8,183c0,1,1,1.6,2.5,1.6
		c1.4,0,2.4-0.6,2.4-1.6s-1-1.6-2.4-1.6C1093.8,181.4,1092.8,182,1092.8,183z M1102.2,189.5v-10.3h2v13.4h-2v-1.6h-3.4v-1.4H1102.2z
		"/>
	<path class="st103" d="M1116.6,181.1c0,5.1-2.2,9.6-7.9,12.5l-1.1-1.5c4.3-2.2,6.6-5.3,7-9.3h-6.1v-1.6H1116.6z M1123.8,187.8h-2.7
		v8.9h-2v-17.6h2v6.9h2.7V187.8z"/>
	<path class="st103" d="M1135.1,184.1c0,2.4-2,4.1-4.6,4.1s-4.7-1.7-4.7-4.1s2-4.1,4.7-4.1S1135.1,181.7,1135.1,184.1z
		 M1127.8,184.1c0,1.5,1.1,2.4,2.7,2.4c1.6,0,2.7-1,2.7-2.4c0-1.5-1.1-2.4-2.7-2.4C1128.9,181.7,1127.8,182.6,1127.8,184.1z
		 M1130.5,189.5v1.9h7.5v-1.9h2v7.1h-11.5v-7.1H1130.5z M1130.5,195h7.5v-2h-7.5V195z M1139.9,179.2v9.4h-2v-9.4H1139.9z"/>
	<path class="st103" d="M1158.5,186.7c0,3.8-1.9,6.2-4.5,6.2c-2.6,0-4.5-2.4-4.5-6.2c0-3.8,1.9-6.2,4.5-6.2
		C1156.5,180.5,1158.5,182.9,1158.5,186.7z M1151.3,186.7c0,2.8,1.1,4.4,2.6,4.4c1.5,0,2.6-1.7,2.6-4.4c0-2.7-1.1-4.4-2.6-4.4
		C1152.4,182.3,1151.3,184,1151.3,186.7z M1163.3,179.2v17.6h-2v-17.6H1163.3z"/>
	<path class="st103" d="M1174.3,189.3h-6.9v-8.7h1.9v2.8h3.1v-2.8h1.9v3.6h2v-4.7h1.9V192h-1.9v-6.2h-2V189.3z M1172.4,185h-3.1v2.7
		h3.1V185z M1182.1,194.8v1.6H1170v-5.7h2v4H1182.1z M1181.6,192.5h-1.9v-13.3h1.9V192.5z"/>
	<path class="st103" d="M1200.6,193v1.6h-15.9V193H1200.6z M1198.8,190.1h-12.2v-9.5h12v1.6h-10v2.3h9.6v1.6h-9.6v2.4h10.1V190.1z"
		/>
	<path class="st103" d="M1203.4,194c0-0.9,0.6-1.6,1.5-1.6c0.9,0,1.5,0.7,1.5,1.6c0,0.9-0.7,1.6-1.5,1.6
		C1204,195.5,1203.4,194.9,1203.4,194z M1203.8,182.9l-0.1-2.3h2.3l-0.1,2.3l-0.3,7.8h-1.5L1203.8,182.9z"/>
</g>
</svg>
