<?xml version="1.0" encoding="utf-8"?>
<!-- Generator: Adobe Illustrator 24.2.3, SVG Export Plug-In . SVG Version: 6.00 Build 0)  -->
<svg version="1.1" id="Layer_1" xmlns="http://www.w3.org/2000/svg" xmlns:xlink="http://www.w3.org/1999/xlink" x="0px" y="0px"
	 viewBox="0 0 1920 400" style="enable-background:new 0 0 1920 400;" xml:space="preserve">
<style type="text/css">
	.st0{opacity:0.32;clip-path:url(#SVGID_2_);}
	.st1{stroke:#878EFF;stroke-miterlimit:10;}
	.st2{fill:#FFFFFF;}
	.st3{fill:#FFFFFF;stroke:#000000;stroke-miterlimit:10;}
	.st4{fill:none;stroke:#000000;stroke-miterlimit:10;}
	.st5{fill:none;stroke:#000000;stroke-width:2;stroke-miterlimit:10;}
	.st6{fill:#FEFEFE;}
	.st7{fill:#FE7501;}
	.st8{fill:#105BA6;}
	.st9{fill:#EFA459;}
	.st10{fill:#C0D67E;}
	.st11{fill:#EFA458;}
	.st12{fill:#165BA5;}
	.st13{fill:none;}
	.st14{fill:#636DA5;}
	.st15{fill:#A36262;}
	.st16{fill:#62A386;}
	.st17{fill:#628DA3;}
	.st18{fill:#FCBD88;}
	.st19{fill:#DD8E47;}
	.st20{fill:#F4D037;}
	.st21{fill:#3B5998;}
	.st22{fill:url(#SVGID_3_);}
	.st23{opacity:0.1;fill:#2B0C00;}
	.st24{fill:#A53A3A;}
	.st25{fill:#FF0000;}
	.st26{fill:#D88E4C;}
	.st27{fill:#EFEFEF;}
	.st28{opacity:0.99;fill:#EFEFEF;}
	.st29{fill:#D3D3D3;}
	.st30{fill:none;stroke:#FFE382;stroke-width:0.1;stroke-miterlimit:10;}
	.st31{fill:#08365B;}
	.st32{opacity:0.44;fill:#D8D8D8;}
	.st33{fill:#F7D0AD;}
	.st34{fill:#939597;}
	.st35{fill:#D8D8D8;}
	.st36{fill:#FFFFFF;stroke:#939597;stroke-width:0.25;stroke-miterlimit:10;}
	.st37{fill:#282828;}
	.st38{fill:none;stroke:#282828;stroke-width:2;stroke-miterlimit:10;}
	.st39{fill:none;stroke:#EFA459;stroke-width:2;stroke-miterlimit:10;}
	.st40{opacity:0.1;fill:#FFFFFF;stroke:#FFFFFF;stroke-miterlimit:10;}
	.st41{fill:none;stroke:#FFFFFF;stroke-miterlimit:10;}
	.st42{fill:none;stroke:#05FF71;stroke-width:3;stroke-miterlimit:10;}
	.st43{fill:none;stroke:#9EEA00;stroke-miterlimit:10;}
	.st44{fill:none;stroke:#000000;stroke-width:6;stroke-miterlimit:10;}
	.st45{fill:#CC7627;}
	.st46{fill:#5A5B51;}
	.st47{fill:#424337;}
	.st48{fill:#7A7A7A;}
	.st49{fill:#8AA7CC;}
	.st50{fill:#FDFDFD;}
	.st51{fill:#7898BA;}
	.st52{fill:#9BB9D7;}
	.st53{fill:#DBDBDB;}
	.st54{fill:#656768;}
	.st55{fill:#7795B3;}
	.st56{fill:#FCFCFB;}
	.st57{fill:#D2D2D1;}
	.st58{fill:#FC9477;}
	.st59{fill:#595A50;}
	.st60{fill:none;stroke:#2BFF22;stroke-miterlimit:10;}
	.st61{clip-path:url(#SVGID_7_);}
	.st62{clip-path:url(#SVGID_11_);}
	.st63{clip-path:url(#SVGID_15_);}
	.st64{clip-path:url(#SVGID_19_);}
	.st65{clip-path:url(#SVGID_23_);}
	.st66{clip-path:url(#SVGID_27_);}
	.st67{clip-path:url(#SVGID_31_);}
	.st68{clip-path:url(#SVGID_35_);}
	.st69{clip-path:url(#SVGID_39_);}
	.st70{clip-path:url(#SVGID_43_);}
	.st71{clip-path:url(#SVGID_49_);}
	.st72{clip-path:url(#SVGID_53_);}
	.st73{clip-path:url(#SVGID_57_);}
	.st74{clip-path:url(#SVGID_61_);}
	.st75{clip-path:url(#SVGID_65_);}
	.st76{clip-path:url(#SVGID_69_);}
	.st77{clip-path:url(#SVGID_73_);}
	.st78{clip-path:url(#SVGID_77_);}
	.st79{clip-path:url(#SVGID_81_);}
	.st80{clip-path:url(#SVGID_85_);}
	.st81{clip-path:url(#SVGID_91_);}
	.st82{clip-path:url(#SVGID_95_);}
	.st83{clip-path:url(#SVGID_99_);}
	.st84{clip-path:url(#SVGID_103_);}
	.st85{clip-path:url(#SVGID_107_);}
	.st86{clip-path:url(#SVGID_111_);}
	.st87{clip-path:url(#SVGID_115_);}
	.st88{clip-path:url(#SVGID_119_);}
	.st89{clip-path:url(#SVGID_123_);}
	.st90{clip-path:url(#SVGID_127_);}
	.st91{fill:#FFC053;}
	.st92{fill:#6DD5FF;}
	.st93{fill:#41FF47;}
	.st94{fill:#FFD1B6;}
	.st95{fill:#935300;}
	.st96{fill:none;stroke:#002EED;stroke-width:10;stroke-miterlimit:10;}
	.st97{fill:#FFE6FD;}
	.st98{clip-path:url(#SVGID_131_);}
	.st99{fill:#003D47;}
	.st100{fill:#023035;}
	.st101{fill:#1E5663;}
	.st102{fill:#6B9FA4;}
	.st103{fill:#B5DFE9;}
	.st104{fill:#B3DDE7;}
	.st105{fill:#02292B;}
	.st106{fill:#E88E23;}
	.st107{fill:#1B1E1E;}
	.st108{fill:#03292B;}
	.st109{fill:#BC6E29;}
	.st110{fill:#013D47;}
	.st111{fill:#6F7070;}
	.st112{fill:#0A1347;}
	.st113{opacity:0.5;}
	.st114{fill:#2C41BD;}
	.st115{opacity:0.5;fill:#0A1347;}
	.st116{fill:#D15B3C;}
	.st117{opacity:0.5;fill:#F1775A;}
	.st118{fill:#FFC96E;}
	.st119{opacity:0.5;fill:#FFC96E;}
	.st120{fill:#D68E2B;}
	.st121{opacity:0.5;fill:#D15B3C;}
	.st122{fill:#B0F0FF;}
	.st123{opacity:0.5;fill:#B0F0FF;}
	.st124{fill:#111E5F;}
	.st125{fill:#F99678;}
	.st126{opacity:0.5;fill:#F18666;}
	.st127{fill:#FF6C71;}
	.st128{opacity:0.5;fill:#FF6C71;}
	.st129{fill:#FFA4A8;}
	.st130{fill:#812D00;}
	.st131{fill:#BF4700;}
	.st132{opacity:0.5;fill:#812D00;}
	.st133{fill:#F98764;}
	.st134{fill:#F18666;}
	.st135{opacity:0.5;fill:#F99678;}
	.st136{fill:#F0BB83;}
	.st137{fill:#E2F9FF;}
	.st138{fill:#5B4152;}
	.st139{fill:#C080C4;}
	.st140{fill:#EA872D;}
	.st141{fill:none;stroke:#D81400;stroke-width:16;stroke-miterlimit:10;}
</style>
<rect y="0" class="st97" width="1920" height="400"/>
<g>
	<defs>
		<rect id="SVGID_130_" y="-451" width="1920" height="400"/>
	</defs>
	<clipPath id="SVGID_2_">
		<use xlink:href="#SVGID_130_"  style="overflow:visible;"/>
	</clipPath>
	<g style="clip-path:url(#SVGID_2_);">
		<path class="st100" d="M2134.4-116.3c0,15.2,61.8,49,61.9,64.3c0,1.6-475,79.3-920.8,59.5c-134,0-280.3-24-414.4-24
			c-51.5,0-120.6-13-172.1-12.9c-1.7,0-1178,1.5-1178-0.1c0.1-15.5,75.5-44.2,75.5-59.8c4.8-0.7,711.6-15.1,716.4-15.7
			c6.9-0.9,179.7-0.9,186.7,0c5.9,0.8,164.3-15.1,170.3-15.3c15.5,1.2,112.1,7.3,127.6,7.3c3.8,0.4,7.7,0.9,11.5,1.3
			c1.3,0.1,2.6,0.3,3.5-1.2c6.2-9.9,12.4-19.7,18.7-29.6c1-1.6,0.2-1.6-1.1-1.6c-2.7,0-5.4,0-8.1,0c-1.5,0-1.7-0.4-0.9-1.6
			c1.8-2.7,3.5-5.5,5.3-8.3c4.2-6.6,8.4-13.2,12.6-19.7c0.3-0.5,1-0.9,0.5-1.5c-0.4-0.5-1.1-0.3-1.6-0.3c-1.7,0-3.5,0-5.3,0
			c-0.7,0-1.6,0.4-2-0.4c-0.3-0.7,0.4-1.4,0.7-2c1.4-2.2,2.8-4.4,4.2-6.6c4-6.3,8.1-12.7,12.1-19c0.3-0.4,0.8-0.8,0.6-1.3
			c-0.3-0.7-1-0.4-1.6-0.4c-1.8,0-3.6,0-5.5,0c-0.7,0-1.7,0.4-2-0.3c-0.3-0.7,0.4-1.3,0.8-1.9c6.8-10.8,13.7-21.5,20.5-32.3
			c0.9-1.5,1.5-1.2,2.3,0.1c1.5,2.4,3,4.8,4.7,7.1c1.1,1.6,1.7,3.6,3.6,4.6c0.3,2.1,1.8,3.6,2.9,5.3c3.1,5,6.4,9.9,9.7,14.8
			c0.5,0.7,1.4,1.4,0.9,2.3c-0.4,0.8-1.5,0.3-2.2,0.3c-1.7,0.1-3.5,0-5.2,0c-0.6,0-1.3-0.2-1.6,0.4c-0.4,0.7,0.2,1.2,0.6,1.7
			c2.4,3.7,4.8,7.3,7.2,11c3.2,4.9,6.4,9.9,9.6,14.9c0.3,0.5,0.9,0.9,0.5,1.5c-0.4,0.5-1.1,0.3-1.6,0.3c-1.8,0-3.6,0-5.5,0
			c-0.8,0-1.8-0.4-2.2,0.5c-0.3,0.7,0.4,1.3,0.8,1.9c5.2,8,10.4,16,15.6,24c-0.3,0.3-0.5,0.5-0.8,0.8
			c-16.5,13.1-32.9,26.2-49.4,39.2c-0.5,0.4-1,1.1-1.9,0.9c0-0.2,0-0.4,0-0.6c0-0.9,0-1.9-1.2-1.8c-1.2,0.1-1.1,1.1-1.1,1.9
			c0,0.9,0,1.9,0,2.8c-0.2,0.4-0.2,0.7,0.1,1c0,1.1-0.1,2.2,0,3.2c0,0.7,0.5,1,1.1,1.1c0.7,0,1.1-0.4,1.1-1.1c0-1.1,0-2.2,0-3.2
			c0.7-1.8,2-3.1,3.6-4.3c6.1-4.8,12.2-9.7,18.3-14.5c7.5-6,15.1-11.9,22.6-17.8c0.6,1.1,1.2,2.1,1.9,3.2c3,4.9,6.5,9.5,9.1,14.6
			c-4.6,6.1-9.8,11.8-14.9,17.5c-3.6,4-3.6,4-0.2,8.3c0.1,0.2,0.3,0.3,0.6,0.5c1.1-2.9,2.1-5.7,3.2-8.6c0.2,0,0.3,0.1,0.5,0.1
			c0,2.8,0,5.6,0,8.8c2.8-2.2,5.1-4.4,5.5-7.9c0.9,3.7,1.4,7.4,1.8,11.1c-0.4,0.8-0.8,1.4-1.7,0.5c-0.8-0.8-1.7-1.5-2.6-2.3
			c0,0-0.1-0.1-0.1-0.1l0.1,0.1c0.3,2.1,1.5,3.8,2.1,5.7c0.2,0.6,0.7,0.9,1.3,0.9c2.5,0,5.1,0.2,7.6-0.6c0.8-0.2,1.6-0.5,1.8-1.4
			c5.6,0.1,11.2,0.2,16.9,0c0.9,0.1,1.7,0.2,2.6,0.2c7.1,0,14.3,0,21.4,0c15.5,0,31,0,46.6,0c1.4,0,2.9,0,4.3,0
			c6.6-0.1,13.2-0.1,19.7-0.2c6.8,0,13.5,0.1,20.3,0.1c1.5,0,3.5,0.7,4.3-0.4c0.6-0.7-0.4-2.7-0.7-4.1c-0.5-2.4-1.2-4.8-0.5-7.7
			c1,2,2.1,3.4,3.5,4.7c0.8,0.8,1.2,0.7,1.6-0.5c0.6-2.4,1.4-4.7,2.2-7.4c1.5,2.7,2.7,5,4,7.5c1.4-1.3,2.3-2.7,3.4-4.3
			c1.2,2.7,2.2,5.1,3.2,7.6c2.8-3.3,2.7-3.4,0.1-6.2c-2.8-3-5.5-6-8.2-9c0.9-0.5,2-0.5,3-0.5c6.2,0,12.5-0.2,18.7,0.1
			c5.3,0.3,10.5,1,15.8,0.7c2.1,1.5,4.2,3,5.4,5.4c0,1,0,2,0,3.1c0,0.7,0,1.4,0.8,1.6c0.8,0.3,1.2-0.2,1.6-0.8
			c1.7-2.1,0.4-4.6,0.8-6.9c0.1-0.6-0.1-1.2-0.8-1.4c-0.1-0.1-0.1-0.2-0.1-0.4c0.9-0.5,1.8-0.5,2.8-0.5c8.5-0.2,16.9,0.4,25.4-0.5
			c4.5,0.1,9-0.2,13.4-0.9c4.7,0.2,9.3-0.4,13.9-0.8c9.3-0.7,18.6-1.3,27.9-1.8c7.1-0.4,14.2-0.6,21.4-1c5.4,0.4,10.9,0.3,16.3,1.5
			c9.1,2,487.9,17,497.1,17.2C1710.7-96.9,2130.6-116.3,2134.4-116.3z M864.9-91.7c0.1,0.2,0.2,0.4,0.3,0.6c3.5,0,6.9,0,10.4,0
			c0.6,0,1-0.1,0.9-0.8c-0.5-3.1-0.9-6.3-1.7-8.7C871.7-97.7,868.3-94.7,864.9-91.7z M1056-96.9c-0.1,1.4-0.2,3.1-0.4,4.8
			c-0.1,0.8,0.3,1,1,1c1.8,0,3.6,0,5.2,0C1059.9-93.1,1057.9-95.1,1056-96.9z"/>
	</g>
</g>
<g>
	<g>
		<g>
			<path class="st112" d="M799.3,400c-0.6-4.2-2.7-14.6-10.5-26l-17.7-0.3h-34c-0.1,0-0.9,0-1,0c-1.7,2.8-8.1,14.9-9.9,26.3H799.3z"
				/>
			<g class="st113">
				<path class="st114" d="M756.3,375c0.1,1.1,0.1,2.1,0.2,3.2c0.1,1.1,0.1,2.1,0.1,3.2c0,1.1,0.1,2.1,0.1,3.2l0,3.2l-0.4-0.4
					c1.7,0,3.4,0,5.2,0l-0.4,0.4c0-2.1,0-4.3,0.1-6.4c0-1.1,0-2.1,0.1-3.2c0-1.1,0.1-2.1,0.2-3.2c0.1,1.1,0.1,2.1,0.2,3.2
					c0.1,1.1,0.1,2.1,0.1,3.2c0.1,2.1,0.1,4.3,0.1,6.4c0,0.2-0.2,0.4-0.4,0.4l0,0c-1.7,0-3.4,0-5.2,0l0,0c-0.2,0-0.4-0.2-0.4-0.4v0
					l0-3.2c0-1.1,0.1-2.1,0.1-3.2c0-1.1,0-2.1,0.1-3.2C756.2,377.2,756.2,376.1,756.3,375z"/>
				<path class="st114" d="M766.2,377.8c0,0.7-0.5,1.4-1.4,1.5c-0.4,0.1-0.9-0.1-1.2-0.4c-0.3-0.3-0.5-0.7-0.5-1.2
					c0-0.5,0.2-0.9,0.5-1.2c0.3-0.3,0.8-0.4,1.2-0.4C765.7,376.4,766.2,377.1,766.2,377.8z M766.2,377.8c0-0.4-0.2-0.7-0.4-0.9
					c-0.3-0.2-0.6-0.3-0.9-0.2c-0.6,0.1-1,0.7-1,1.2c0,0.5,0.4,1.1,1,1.2c0.3,0.1,0.7,0,0.9-0.2C766,378.5,766.2,378.2,766.2,377.8z
					"/>
			</g>
			<path class="st115" d="M775.5,400c-0.3-0.1-0.6-0.1-0.9-0.2c-6.2-1.5-12.3-3.5-17.7-6.8c-5.4-3.4-10-8.2-12.3-14.2
				c-0.6-1.7-1.1-3.4-1.3-5.1h-6.1c-0.1,0-0.9,0-1,0c-1.7,2.8-8.1,14.9-9.9,26.3H775.5z"/>
		</g>
		<g>
			<g>
				<g>
					<path class="st116" d="M749.4,288.7c-1,0.8-2.3,1.5-3.7,2.1c0.4,0.8,0.9,1.5,1.2,2c1.3,2.3,2.8,4.6,4.6,6.6
						c4.2,4.7,9.6,6.6,15.9,6c9-0.9,14.4-6.2,17.9-13.2c-4.3-0.4-7.4-1.9-9.6-3.6c-0.3-1.3-0.7-3-1-4.7c-0.5-2.9-0.9-6.1-0.6-8.6v0
						c0.1-1.2,0.4-2.3,0.8-3.1l-12.2-6.2l-12.9,4.1c0.3,0.5,0.7,2.2,0.9,3.6c0.2,2.7,0.1,7.5-0.4,10.2
						C750.1,285.6,749.8,287.3,749.4,288.7z"/>
					<path class="st117" d="M750.8,273.1c0,0,8.3,5.9,23.7,0.5C774.4,273.6,762.4,291.1,750.8,273.1z"/>
				</g>
				<g>
					<g>
						<g>
							<path class="st118" d="M812,339.1l-12.7,2.6l-5.8,1.2l-0.3,2.5l-0.9,7.1l-1.3,10.7l-0.4,3.2l-0.5,3.7l-0.6,4.9l-13.8,0
								l-27.3,0h-12.9l-0.2-4.3l-0.4-6.5l-0.6-10.5l-0.4-6.6l-0.2-2.6l-7.3-1.3l-13.5-2.4c0,0,0.3-2.4,1-6c0.7-3.7,1.7-8.8,3-14.1
								c0.5-2.3,1.2-4.6,1.8-6.9c0.4-1.5,0.9-3,1.4-4.4c1.4-4.2,3-7.9,4.7-10.5c0.3-0.5,0.6-0.9,0.9-1.3c0,0,1.4-1.5,3.6-3
								c1.7-1.1,3.8-2.3,6.1-2.8c0.1,0,0.1,0,0.2,0c2.1-0.5,4.2-0.7,6.1-0.8c2.7-0.2,4.8-0.3,5.7-0.8c0,0,2.4,10.6,10.2,11.3
								c7.8,0.7,17.1-5,18.3-12.5c0,0,3,2.6,7,2.7c0.4,0,0.7,0,1.1,0c2.6,0.1,5.1,0.5,6.3,0.7c0.5,0.1,0.8,0.1,0.8,0.1
								s3.4,0.8,6.7,3.5c1.4,1.1,2.7,2.5,3.7,4.3c0.1,0.1,0.2,0.3,0.2,0.5c1.3,2.5,2.9,8,4.5,14.1c0.6,2.3,1.2,4.6,1.7,6.9
								c1,4.3,2,8.5,2.7,11.7C811.5,336.7,812,339.1,812,339.1z"/>
							<path class="st119" d="M790.6,366.3l-0.5,3.7l-0.6,4.9l-13.8,0l-27.3,0h-12.9l-0.2-4.3l-0.4-6.5l-0.6-10.5l-0.4-6.6l-0.2-2.6
								l-7.3-1.3l-13.5-2.4c0,0,0.3-2.4,1-6c0.7-3.7,1.7-8.8,3-14.1c0.5-2.3,1.2-4.6,1.8-6.9c0.4-1.5,0.9-3,1.4-4.4
								c0.2,1.1,0.5,2.3,0.8,3.4c0.9,3.6,1.8,7.3,3.7,10.5c1.9,3.2,4.9,5.9,8.6,6.6c1.8,7.4,3.9,14.5,9,20.2c1.7,2,3.8,3.8,5.8,5.5
								c3.2,2.7,6.4,5.5,10.1,7.4c5.3,2.8,11.3,3.8,17.2,4.1C780.6,367.2,785.6,367,790.6,366.3z"/>
							<g class="st113">
								<g>
									<path class="st118" d="M790.4,292.1c-8.9,15.9-18.3,23.9-27.8,23.9c-0.3,0-0.7,0-1,0c-13.7-0.8-22.8-18-25.8-24.5
										c2.1-0.4,4.2-0.6,6.1-0.8c1.5,3,3.6,6.7,6.1,10c3.8,4.9,8.6,9.2,13.9,9.5c7,0.4,14.6-6.1,22.1-18.8
										C786.7,291.6,789.2,291.9,790.4,292.1z"/>
								</g>
								<g>
									<path class="st118" d="M801.9,300.5c-6.1,10-19.9,28.4-39.6,28.4c-21,0-32.8-20.8-37.1-30.3c0.3-0.5,0.6-0.9,0.9-1.3
										c0,0,1.4-1.5,3.6-3c3,7.1,13.7,28.7,32.6,28.7c17.8,0,30.8-18.9,35.7-27.3c1.4,1.1,2.7,2.5,3.7,4.3
										C801.7,300.2,801.8,300.3,801.9,300.5z"/>
								</g>
								<g>
									<path class="st118" d="M808.1,321.5c-8.5,9.2-25,23.6-45.2,23.8h-0.4c-20.4,0-37-15.2-45.3-24.7c0.5-2.3,1.2-4.6,1.8-6.9
										c6.4,7.9,23.2,25.8,43.5,25.8h0.3c20.2-0.2,36.9-17,43.6-24.8C806.9,316.8,807.5,319.2,808.1,321.5z"/>
								</g>
								<g>
									<path class="st118" d="M714.1,334.6c2.9,2.3,7.2,5.4,12.5,8.5l-13.5-2.4C713.1,340.7,713.5,338.3,714.1,334.6z"/>
									<path class="st118" d="M763.5,354.1c11-0.3,21.2-4.2,29.7-8.8l-0.9,7.1c-8.3,4.1-18.1,7.2-28.6,7.5c-0.5,0-1,0-1.6,0
										c-9.9,0-19.4-2.7-27.7-6.3l-0.4-6.6c8.3,3.9,18,7.1,28.1,7.1C762.6,354.1,763.1,354.1,763.5,354.1z"/>
									<path class="st118" d="M812,339.1l-12.7,2.6c4.9-3.1,8.8-6.2,11.4-8.5C811.5,336.7,812,339.1,812,339.1z"/>
								</g>
								<g>
									<path class="st118" d="M791,363.1l-0.8,6.9c-4.4,2-9.3,3.8-14.4,5l-27.3,0c-4.6-1-9-2.5-13.1-4.3l-0.4-6.5
										c8.5,3.9,18.3,6.9,28.5,6.6C773.6,370.4,783,367.1,791,363.1z"/>
								</g>
							</g>
						</g>
						<g>
							<path class="st112" d="M749.3,288.6c0,0,3.1,9.8,12,9.9s14.4-10.5,14.4-10.5l4.2,2.4c0,0-3.8,13.2-18.3,13.8
								c-13.3,0.6-15.5-14.3-15.5-14.3L749.3,288.6z"/>
							<g>
								<polygon class="st112" points="811.9,336.6 813.5,342.5 793.1,346.7 793.8,340.2 								"/>
								<polygon class="st112" points="713.1,336.2 712,342.1 734.1,346.7 733.4,340.2 								"/>
							</g>
						</g>
					</g>
					<g>
						<path class="st120" d="M733.2,339.8c-0.2-0.9-0.3-1.8-0.5-2.8c-0.1-0.9-0.1-1.9-0.1-2.8c0-1.9,0.3-3.8,0.7-5.6
							c0.4-1.8,1-3.6,1.8-5.3c0.4-0.9,0.8-1.7,1.3-2.5c0.5-0.8,1-1.6,1.5-2.4c-0.8,1.7-1.6,3.3-2.3,5.1c-0.7,1.7-1.2,3.5-1.6,5.3
							c-0.4,1.8-0.7,3.6-0.8,5.5C733.1,336.1,733.1,337.9,733.2,339.8z"/>
						<path class="st120" d="M794,339.8c0.1-1.9,0.1-3.7,0-5.6c-0.2-1.8-0.4-3.7-0.8-5.5c-0.4-1.8-0.9-3.6-1.6-5.3
							c-0.6-1.7-1.4-3.4-2.3-5.1c0.5,0.8,1.1,1.5,1.5,2.4c0.4,0.8,0.9,1.6,1.3,2.5c0.8,1.7,1.3,3.5,1.8,5.3c0.4,1.8,0.6,3.7,0.7,5.6
							c0,0.9,0,1.9-0.1,2.8C794.4,337.9,794.3,338.9,794,339.8z"/>
						<path class="st120" d="M783,300.7c0.4-1.7,1.2-3.3,2.1-4.8c0.5-0.7,0.9-1.5,1.5-2.1c0.5-0.7,1.2-1.4,2.1-1.6
							c-0.7,0.5-1.2,1.2-1.6,1.9l-1.3,2.2C784.9,297.8,784,299.3,783,300.7z"/>
						<path class="st120" d="M739.2,300.7c-1-1.4-1.8-2.9-2.7-4.4l-1.3-2.2c-0.4-0.7-0.9-1.4-1.6-1.9c0.9,0.2,1.6,0.9,2.1,1.6
							c0.5,0.7,1,1.4,1.5,2.1C738,297.5,738.7,299,739.2,300.7z"/>
					</g>
				</g>
			</g>
			<g>
				<path class="st116" d="M726.1,400c1.6-10.5,7.2-21.6,9.4-25.5l-0.2-3.8l-0.4-6.5l-0.6-10.5l-0.4-6.6l0-0.3l-20.7-4.4
					c-0.2,1.1-0.4,2.2-0.6,3.3c-2.8,15.8-5.1,34.7-4.7,54.3H726.1z"/>
				<path class="st121" d="M725.6,364.8c1.7,6.5,1.5,13.4,0.2,20c-1,5.2-2.7,10.2-4.7,15.2h5c1.6-10.5,7.2-21.6,9.4-25.5l-0.2-3.8
					l-0.4-6.5l-0.6-10.5l-0.4-6.6l0-0.3l-20.7-4.4c-0.2,1.1-0.4,2.2-0.6,3.3C719,350.4,723.6,357.2,725.6,364.8z"/>
			</g>
			<g>
				<path class="st116" d="M789.5,375c7.2,11,9.2,20.9,9.8,25h17.8c0.3-18.7-1.7-36.7-4.3-52.1c-0.3-1.7-0.6-3.4-0.9-5.1l-18.8,4
					l0.4-3.9l-0.1,0l-0.3,2.5l-0.9,7.1l-1.3,10.7l-0.8,6.9L789.5,375L789.5,375C789.5,375,789.5,375,789.5,375
					C789.5,375,789.5,375,789.5,375z"/>
				<path class="st121" d="M789.5,375c7.2,11,9.2,20.9,9.8,25h7.7c-2-4.9-3.7-10-4.7-15.2c-1.3-6.6-1.5-13.5,0.2-20
					c1.7-6.5,5.3-12.4,10.3-16.9c-0.3-1.7-0.6-3.4-0.9-5.1l-18.8,4l0.4-3.9l-0.1,0l-0.3,2.5l-0.9,7.1l-1.3,10.7l-0.8,6.9L789.5,375
					L789.5,375C789.5,375,789.5,375,789.5,375C789.5,375,789.5,375,789.5,375z"/>
			</g>
		</g>
		<g>
			<g>
				<path class="st116" d="M790.2,248c-0.7-2.3-3.2-4.1-5.6-3.5c1.1-31.9-25.5-27.6-25.5-27.6c-16.7,1.4-18.6,19.2-18.5,28.2
					c-0.5-0.3-1-0.5-1.3-0.6c-2.4-0.6-4.9,1.2-5.6,3.5c-0.6,1.8-0.2,3.9,0.9,5.5c0.9,1.3,2.3,2.6,3.8,3.2c0.3,0.1,1.8,0.4,2.9,0.3
					c2.6,20.8,21.5,18.8,21.5,18.8c16.4,0.8,20.6-10.6,21.6-18.9c0.6-0.1,1.1-0.2,1.3-0.3c1.5-0.6,2.9-1.8,3.8-3.2
					C790.4,251.9,790.7,249.8,790.2,248z"/>
				<g>
					<g>
						<path class="st117" d="M770.6,256c0,2.9,2.4,5.3,5.3,5.3c2.9,0,5.3-2.4,5.3-5.3c0-2.9-2.4-5.3-5.3-5.3
							C773,250.6,770.6,253,770.6,256z"/>
						<path class="st117" d="M744,256c0,2.9,2.4,5.3,5.3,5.3c2.9,0,5.3-2.4,5.3-5.3c0-2.9-2.4-5.3-5.3-5.3
							C746.4,250.6,744,253,744,256z"/>
					</g>
					<g>
						<g>
							<g>
								<path class="st112" d="M767.8,245.6c0,1.7,0.7,3.2,1.5,3.2c0.9,0,1.5-1.4,1.5-3.2c0-1.7-0.7-3.2-1.5-3.2
									C768.5,242.5,767.8,243.9,767.8,245.6z"/>
								<path class="st112" d="M772.5,241.5c-0.3,0.5-0.6,1-1,1.3c-0.4,0.4-1,0.7-1.6,0.8l0,0c-0.3,0.1-0.6-0.1-0.7-0.4
									c-0.1-0.3,0.1-0.6,0.4-0.7c0,0,0.1,0,0.2,0c0.9,0,1.8-0.5,2.5-1.3l0,0c0.1-0.1,0.2-0.1,0.3,0
									C772.5,241.3,772.5,241.4,772.5,241.5z"/>
							</g>
							<g>
								<ellipse class="st112" cx="756" cy="245.6" rx="1.5" ry="3.2"/>
								<path class="st112" d="M753.1,241.3c0.7,0.8,1.6,1.3,2.5,1.3c0.3,0,0.6,0.2,0.6,0.5s-0.2,0.6-0.5,0.6c-0.1,0-0.1,0-0.1,0
									l0,0c-0.6-0.1-1.2-0.4-1.6-0.8c-0.4-0.4-0.8-0.8-1-1.3c0-0.1,0-0.2,0.1-0.2C753,241.2,753.1,241.2,753.1,241.3L753.1,241.3z
									"/>
							</g>
						</g>
					</g>
					<g>
						<g>
							<path class="st112" d="M768.4,255.2c-0.5,1-1.3,1.9-2.3,2.6c-1,0.7-2.2,1.2-3.5,1.1c-1.2,0-2.5-0.5-3.4-1.2
								c-0.5-0.3-0.9-0.8-1.3-1.2c-0.4-0.5-0.7-0.9-1-1.4c0.5,0.3,0.9,0.7,1.3,1.1c0.5,0.3,0.9,0.7,1.4,0.9c1,0.5,2,0.8,3,0.9
								c1,0,2.1-0.3,3.1-0.8C766.7,256.7,767.6,256,768.4,255.2z"/>
							<path class="st112" d="M764.3,260.8c-0.4,0.4-1,0.5-1.6,0.6c-0.6,0-1.2-0.2-1.6-0.6c0.6,0.1,1.1,0.2,1.6,0.2
								C763.2,261,763.7,260.9,764.3,260.8z"/>
						</g>
					</g>
					<g>
						<g>
							<path class="st112" d="M758.8,234.7c-0.7-0.6-1.5-0.8-2.4-0.9c-0.8,0-1.7,0.1-2.5,0.4c-0.8,0.3-1.6,0.7-2.2,1.3
								c-0.7,0.5-1.1,1.3-1.5,2c-0.2,0.4-0.1,0.8,0.3,1c0.3,0.2,0.6,0.1,0.9-0.1l0.1-0.1c0.5-0.5,1-0.9,1.5-1.2
								c0.5-0.3,1.1-0.5,1.7-0.7c0.6-0.1,1.2-0.2,1.8-0.2c0.6,0,1.3,0.1,1.9-0.1l0.2,0c0.4-0.1,0.7-0.5,0.6-0.9
								C759,234.9,758.9,234.8,758.8,234.7z"/>
							<path class="st112" d="M766.5,234.7c0.7-0.6,1.5-0.8,2.4-0.9c0.8,0,1.7,0.1,2.5,0.4c0.8,0.3,1.6,0.7,2.2,1.3
								c0.7,0.5,1.1,1.3,1.5,2c0.2,0.4,0.1,0.8-0.3,1c-0.3,0.2-0.6,0.1-0.9-0.1l-0.1-0.1c-0.5-0.5-1-0.9-1.5-1.2
								c-0.5-0.3-1.1-0.5-1.7-0.7c-0.6-0.1-1.2-0.2-1.8-0.2c-0.6,0-1.3,0.1-1.9-0.1l-0.2,0c-0.4-0.1-0.7-0.5-0.6-0.9
								C766.3,234.9,766.4,234.8,766.5,234.7z"/>
						</g>
					</g>
					<path class="st112" d="M763,240.8c0.3,1.2,0.5,2.4,0.7,3.5c0.2,1.2,0.4,2.3,0.8,3.4c0.1,0.3,0.2,0.6,0.3,0.8
						c0.1,0.2,0.3,0.6,0.3,1c0,0.8-0.5,1.6-1.1,1.9c-0.7,0.4-1.4,0.3-2,0.1c-0.6-0.2-1.1-0.5-1.6-1c1.1,0.4,2.4,0.7,3.2,0.2
						c0.4-0.3,0.6-0.7,0.5-1.1c0-0.2-0.1-0.4-0.2-0.7c-0.1-0.3-0.2-0.6-0.3-0.9c-0.3-1.2-0.5-2.4-0.6-3.6
						C762.8,243.2,762.8,242,763,240.8z"/>
					<path class="st112" d="M735.6,249.7c0-0.7,0.2-1.5,0.8-2.1c0.7-0.6,1.6-0.5,2.4-0.2c0.8,0.3,1.4,0.8,1.9,1.4
						c0.5,0.6,0.9,1.3,1.2,2c0.1,0.3,0,0.6-0.3,0.7c-0.2,0.1-0.4,0-0.6-0.1l0,0c-0.5-0.5-1.2-1.1-1.8-1.3c-0.3-0.1-0.5-0.1-0.7,0.1
						c-0.2,0.2-0.4,0.5-0.5,0.8c-0.3,0.7-0.4,1.5,0.2,1.8c0.6,0.4,1.5,0.3,2.3,0.2c-0.8,0.3-1.6,0.6-2.6,0.3
						c-0.5-0.2-0.9-0.7-0.9-1.2c0-0.5,0-1,0.1-1.4c0.1-0.4,0.3-0.9,0.7-1.3c0.4-0.4,1.1-0.5,1.6-0.3c1,0.3,1.7,0.9,2.3,1.5l-0.9,0.5
						c-0.5-1.2-1.3-2.5-2.4-3c-0.6-0.3-1.3-0.4-1.8-0.1C736.1,248.3,735.8,249,735.6,249.7z"/>
					<path class="st112" d="M788.9,249.7c0-0.7-0.2-1.5-0.8-2.1c-0.7-0.6-1.6-0.5-2.4-0.2c-0.8,0.3-1.4,0.8-1.9,1.4
						c-0.5,0.6-0.9,1.3-1.2,2c-0.1,0.3,0,0.6,0.3,0.7c0.2,0.1,0.4,0,0.6-0.1l0,0c0.5-0.5,1.2-1.1,1.8-1.3c0.3-0.1,0.5-0.1,0.7,0.1
						c0.2,0.2,0.4,0.5,0.5,0.8c0.3,0.7,0.4,1.5-0.2,1.8c-0.6,0.4-1.5,0.3-2.3,0.2c0.8,0.3,1.6,0.6,2.6,0.3c0.5-0.2,0.9-0.7,0.9-1.2
						c0-0.5,0-1-0.1-1.4c-0.1-0.4-0.3-0.9-0.7-1.3c-0.4-0.4-1.1-0.5-1.6-0.3c-1,0.3-1.7,0.9-2.3,1.5l0.9,0.5c0.5-1.2,1.3-2.5,2.4-3
						c0.6-0.3,1.3-0.4,1.8-0.1C788.4,248.3,788.7,249,788.9,249.7z"/>
				</g>
			</g>
			<g>
				<g>
					<path class="st2" d="M778,254.7c0.9-1.9,2.1-3.7,3.3-5.4c1.2-1.7,2.5-3.4,4-4.9c-0.9,1.9-2.1,3.7-3.3,5.4
						C780.7,251.5,779.4,253.2,778,254.7z"/>
					<path class="st2" d="M777.6,267.7c0.9-0.7,1.7-1.4,2.4-2.2c0.7-0.8,1.4-1.7,1.9-2.6c0.5-0.9,1-1.9,1.4-2.9c0.4-1,0.7-2,1-3.1
						c0,0.6,0,1.1-0.1,1.7c-0.1,0.5-0.1,1.1-0.3,1.6c-0.3,1.1-0.7,2.1-1.3,3.1c-0.6,1-1.3,1.8-2.2,2.6
						C779.6,266.7,778.6,267.4,777.6,267.7z"/>
				</g>
				<g>
					<path class="st2" d="M746.7,254.7c-0.8-2-1.9-3.8-3-5.6c-1.1-1.8-2.3-3.5-3.7-5.1c0.8,2,1.9,3.8,3,5.6
						C744.1,251.4,745.3,253.1,746.7,254.7z"/>
					<path class="st2" d="M748.3,267.8c-0.9-0.7-2.1-1.5-2.9-2.3c-0.7-0.8-1.4-1.7-1.9-2.6c-0.5-0.9-1-1.9-1.4-2.9
						c-0.4-1-0.7-2-1-3.1c0,0.6,0,1.1,0.1,1.7c0.1,0.5,0.1,1.1,0.3,1.6c0.3,1.1,0.7,2.1,1.3,3.1c0.6,1,1.3,1.8,2.2,2.6
						C745.8,266.7,747.2,267.4,748.3,267.8z"/>
				</g>
				<g>
					<path class="st122" d="M778.4,254.4l-0.7,11.2l-0.1,2.2c0,0-15,19-29.5-0.1l-1.8-13.3c0,0,1.9-1.5,5.2-3
						C757.3,248.9,767.4,246.7,778.4,254.4z"/>
					<path class="st123" d="M777.7,265.6l-0.1,2.2c0,0-15,19-29.5-0.1l-1.8-13.3c0,0,1.9-1.5,5.2-3c-0.3,1.5-0.2,3.2,0.1,4.7
						c0.4,2,1.2,3.8,2.1,5.6c0.6,1.3,1.2,2.6,2.1,3.7c0.9,1.1,2,1.9,3.2,2.6c3,1.7,6.6,2.4,10,1.9
						C772.2,269.5,775.4,267.9,777.7,265.6z"/>
					<g>
						<path class="st123" d="M751.1,257.7c1.6-0.9,3.3-1.5,5.1-2c1.8-0.4,3.6-0.7,5.4-0.8c1.8-0.1,3.7,0.1,5.5,0.5
							c1.8,0.4,3.5,1.2,5,2.2c-1.8-0.3-3.5-0.5-5.2-0.6c-1.7-0.1-3.4-0.1-5.2-0.1c-1.7,0.1-3.5,0.2-5.2,0.3
							C754.7,257.4,752.9,257.6,751.1,257.7z"/>
						<path class="st123" d="M772,266.6c-1.6,0.9-3.3,1.5-5.1,2c-1.8,0.4-3.6,0.7-5.4,0.8c-1.8,0.1-3.7-0.1-5.5-0.5
							c-1.8-0.4-3.5-1.2-5-2.2c1.8,0.3,3.5,0.5,5.2,0.6c1.7,0.1,3.4,0.1,5.2,0.1c1.7-0.1,3.5-0.2,5.2-0.3
							C768.4,266.9,770.2,266.7,772,266.6z"/>
						<path class="st123" d="M752.5,262.2c1.5-0.3,3.1-0.5,4.6-0.6c1.5-0.1,3.1-0.1,4.6-0.2c1.5,0,3.1,0,4.6,0.2
							c1.5,0.1,3.1,0.3,4.6,0.6c-1.5,0.3-3.1,0.5-4.6,0.6c-1.5,0.1-3.1,0.1-4.6,0.2c-1.5,0-3.1,0-4.6-0.2
							C755.6,262.7,754.1,262.5,752.5,262.2z"/>
					</g>
				</g>
			</g>
			<g>
				<path class="st112" d="M790.6,236.6c-2-7.3-4.5-14.5-11.1-18.8c-3.8-2.5-8.3-3.8-12.8-4.4c-4.5-0.6-9-0.4-13.4,0.5
					c-4.2,0.9-6,3.3-8.8,6.2c-5.2,5.1-9,11.5-11,18.4c-0.7,2.6-1.2,5.3-1.6,7.9c-0.6,4.5-1,9.1-0.1,13.6c1,5.6,3.9,10.7,8,14.7
					c3.1,3,6.9,5.4,11.1,6.8c0.2-2.6,0.2-5.9,0.1-7.9c0-0.1,0-0.3-0.1-0.4c-4.3-2.5-8.5-7.2-9.6-16.2c-1.2,0-2.6-0.2-2.9-0.3
					c-1.5-0.6-2.9-1.8-3.8-3.2c-1-1.6-1.4-3.7-0.9-5.5c0.7-2.3,3.2-4.1,5.6-3.5c0.3,0.1,0.8,0.3,1.3,0.6c0,0,0,0,0,0
					c0.4,0.4,0.7,0.7,1.2,1c0.6,0.5,1.5,0.4,2.2,0.8c0-1.8,0.1-3.9,0.1-5.6c4.8-3.3,8.8-8.4,10.5-14c1.1,2.5,3.4,4.1,5.7,5.4
					c6,3.5,12.9,5.5,19.9,6c1.2,3,1.2,6.3,1.2,9.5c1.3-0.7,2.7-1.7,3.6-3c0.1-0.2,0.3-0.5,0.4-0.7c2.2-0.1,4.3,1.6,4.9,3.6
					c0.6,1.8,0.2,3.9-0.9,5.5c-0.9,1.3-2.3,2.6-3.8,3.2c-0.2,0.1-0.7,0.2-1.3,0.3c-0.7,5.8-2.9,13-9.8,16.7
					c-0.1,0.5-0.2,1.1-0.3,1.7c-0.2,2.4,0.1,5.5,0.5,8.3c2.4-0.8,4.8-1.4,7-2.6c3.3-1.8,5.9-4.9,7.6-8.3c1.7-3.4,2.6-7.2,3-11
					C793.4,253.3,792.8,244.7,790.6,236.6z"/>
				<path class="st115" d="M737.6,239.7c2.2,1.3,4.2,2.7,6.4,4c0-0.8,0-1.7,0-2.4c4.8-3.3,8.8-8.4,10.5-14c1.1,2.5,3.4,4.1,5.7,5.4
					c6,3.5,12.9,5.5,19.9,6c0.2,0.6,0.4,1.2,0.6,1.9c2,0.4,3.8,1.1,5.7,2c1.5,0.8,3.7,1.9,5.9,2.8c-0.4-2.9-1-5.8-1.7-8.7
					c-0.7-2.4-1.4-4.9-2.3-7.2c-2.3,1.3-4.8,2.2-7.5,2.5c-3.9,0.4-7.5-0.6-10.6-2.9c-2.9-2-6.1-7-9.9-6.8c-2.3,0.1-4.5,1.7-6.5,2.6
					c-2,0.9-4.1,1.7-6.3,2c-2.6,0.4-5.5,0.2-7.9-0.9c-2.6,3.8-4.7,8-6,12.4C734.9,238.5,736.3,238.9,737.6,239.7z"/>
				<path class="st124" d="M750.3,216.9c0.8,1.2,1.4,2.4,1.9,3.7c0.5,1.3,1,2.6,1.2,4c-0.8-1.2-1.4-2.4-1.9-3.7
					C751.1,219.6,750.6,218.3,750.3,216.9z"/>
			</g>
		</g>
	</g>
	<g>
		<g>
			<g>
				<path class="st125" d="M875.2,295.1c2.3,2.8,4.6,5.4,7.3,7.7c5.5,4.5,12.5,7.8,19.7,6.4c9.1-1.7,15.5-9.2,19.2-17.5
					c-1.5-0.5-3.1-0.8-4.7-0.9c-2.2-0.1-4.1-0.4-5.7-0.9c-1.5-1.8-2.7-4.1-3.7-7.7c-0.4-2.5-0.6-5-0.4-7.1v0
					c0.1-1.2,0.4-2.3,0.8-3.1l-12.2-6.2l-12.9,4.1c0.3,0.5,0.7,2.2,0.9,3.6c0.2,2.2,0.1,6-0.2,8.8c-1,3.5-2.2,5.8-3.7,7.6
					c-1.7,0.5-3.6,0.9-5.7,0.9c-0.7,0-1.3,0.1-2,0.2C872.9,292.5,874.2,293.9,875.2,295.1z"/>
				<path class="st125" d="M883.8,275.1l-0.1-1C883.8,274.5,883.8,274.8,883.8,275.1z"/>
				<path class="st126" d="M883.6,273c0,0,8.3,5.9,23.7,0.5C907.2,273.4,895.2,290.9,883.6,273z"/>
			</g>
			<g>
				<path class="st127" d="M937.5,399.9L937.5,399.9l-8.3,0.1l-2-16.6h-63.9l-2,16.6H853l-0.1-0.1c-5.2-4.3-8.5-10.3-9.5-16.7
					c-0.4-2.5-0.4-5-0.1-7.5c0-0.1,0-0.1,0-0.2c2.5-18.2,8.9-62.2,12.5-71.4c4.6-11.6,12.9-15,12.9-15c2.1-2.9,5.1-5.1,8-6.6
					c3.7-2,6.9-2.9,6.9-2.9v0c0,0,0,0,0,0l1.6,11.4l0.2,1.5c0,0,6.8,8,9.8,10.1c2.9-2.1,9.8-10.1,9.8-10.1l0.1-0.8c0,0,0,0,0,0
					l1.7-12.1c0,0,0,0,0,0l0,0c0,0,3,0.9,6.5,2.7c0,0,0,0,0,0c2.9,1.5,6.2,3.8,8.3,6.8c0,0,8.3,3.3,12.9,15
					c3.6,9.2,9.9,53.2,12.5,71.4l0,0.2c0,0.3,0.1,0.7,0.1,1C948,385.5,944.3,394.2,937.5,399.9z"/>
				<g>
					<g>
						<path class="st128" d="M937.5,399.9L937.5,399.9l-8.3,0.1l-2-16.6h-63.9l-2,16.6H853l-0.1-0.1c-5.2-4.3-8.5-10.3-9.5-16.7
							c2.5-2.5,4.8-5.4,6.9-8.3c2-2.6,3.9-5.2,5.6-8c8.9-14.2,11.3-31.5,13.5-48.1c0,7.2,0.1,14.3,0.2,21.5c0,3,0,6.1,0.8,9
							c0.7,2.5,1.9,4.8,3.1,7c1.9,3.5,3.8,7.1,6.4,10.1c2,2.3,4.3,4.2,6.7,6.1c2.4,1.9,4.8,3.9,7.5,5.2c3.1,1.5,6.5,2.1,10,2.5
							c7.2,0.9,14.8,0.9,21.5-1.7l-5.2-60.1c0.3,1.8,9,61.4,26.7,58.2C948,385.5,944.3,394.2,937.5,399.9z"/>
						<path class="st128" d="M881.5,295c0,0,6.4,17.4,12.9,18.5c6.6,1.1,14.7-18.8,14.7-18.8s-9.7,11.6-13.9,11.7
							C891,306.6,881.5,295,881.5,295z"/>
						<path class="st128" d="M883.6,279.6l1.6,11.4c-1.5-2-3.3-3.7-5.1-5.4c-1.1-1.1-2.2-2.1-3.4-3
							C880.4,280.6,883.6,279.6,883.6,279.6L883.6,279.6C883.6,279.6,883.6,279.6,883.6,279.6z"/>
						<path class="st128" d="M913.3,282.4c-1.1,1.1-2.2,2.4-3.1,3.6c-1.6,2-3.5,3.8-5.1,5.8l1.7-12.1c0,0,0,0,0,0l0,0
							C906.8,279.6,909.8,280.5,913.3,282.4z"/>
					</g>
					<path class="st129" d="M868.6,289.2c2,1.2,3.6,3.2,4.8,5.2c1.2,2.1,2,4.3,2.5,6.6c-1.1-2.1-2-4.2-3.2-6.3
						C871.6,292.7,870.3,290.8,868.6,289.2z M919.3,291.2c-0.5,0.7-0.9,1.4-1.3,2.2c-0.8,1.5-1.3,3.1-1.6,4.8c0.8-1.5,1.5-3,2.3-4.5
						l1.1-2.2c0.4-0.7,0.7-1.5,1.4-1.9C920.4,289.7,919.8,290.5,919.3,291.2z M884.3,298.7c1,1.2,2.1,2.3,3.2,3.4
						c1.1,1.1,2.3,2.1,3.4,3.1c0.6,0.5,1.2,1,1.9,1.4c0.7,0.4,1.6,0.6,2.5,0.5c0.9-0.1,1.6-0.5,2.3-1c0.7-0.5,1.2-1,1.8-1.5
						c1.1-1,2.3-2.1,3.4-3.2c1.1-1.1,2.2-2.2,3.3-3.3c1.1-1.1,2.1-2.3,3.1-3.4c-2.2,2.1-4.5,4.3-6.8,6.3l-3.4,3.1
						c-1.1,1-2.3,2.1-3.7,2.3c-0.7,0.1-1.4-0.1-2-0.4c-0.6-0.3-1.2-0.8-1.8-1.3c-1.2-1-2.3-2-3.5-3c-2.3-2.1-4.4-4.3-6.4-6.6
						C882.4,296.3,883.3,297.5,884.3,298.7z M886.9,305.5c-0.5,0.9-0.8,1.9-0.8,3c0,1.1,0.4,2.1,1,2.9c0.5,0.9,1.2,1.6,1.6,2.5
						c1,1.7,1.5,3.6,1.6,5.5c0,1,0,1.9-0.2,2.9c-0.2,1-0.5,1.9-0.9,2.8c0.6-0.8,1-1.7,1.3-2.7c0.3-1,0.4-2,0.5-3
						c0.1-2-0.5-4.1-1.5-5.9c-0.5-0.9-1.2-1.7-1.7-2.5c-0.6-0.8-0.9-1.7-1-2.6c-0.1-0.9,0.1-1.9,0.5-2.8c0.4-0.9,1.1-1.6,1.9-2.2
						C888.2,303.9,887.5,304.6,886.9,305.5z M901.3,305c0.4,0.5,0.9,1,1.3,1.5c0.8,1,1.4,2.2,1.8,3.5c0.9,2.5,1,5.2,1.4,7.9
						c0.2-2.7,0.2-5.5-0.7-8.1c-0.5-1.3-1.1-2.6-2.1-3.6c-0.5-0.5-1-0.9-1.5-1.4c-0.5-0.4-0.9-1-1.1-1.6
						C900.5,303.8,900.9,304.5,901.3,305z M865.2,366.9l1.8-16.4l1.6-16.4l0.7-8.2l0.7-8.2l-1,8.2l-0.9,8.2l-1.8,16.4l-1.6,16.4
						c-0.5,5.5-1,11-1.4,16.4C864,377.9,864.6,372.4,865.2,366.9z M925.5,366.9l-1.6-16.4l-1.8-16.4l-0.9-8.2l-1-8.2l0.7,8.2
						l0.7,8.2l1.6,16.4l1.8,16.4c0.6,5.5,1.3,10.9,2,16.4C926.4,377.8,926,372.3,925.5,366.9z M928.9,355.1l-0.4-0.1
						c0.2,0.3,0.3,0.8,0.2,1.2c-0.1,0.4-0.4,0.9-0.7,1.3l-1,1.3c-0.3,0.4-0.7,0.9-1,1.3c0.4-0.3,0.8-0.7,1.2-1.1
						c0.4-0.4,0.8-0.7,1.2-1.1c0.4-0.4,0.7-0.9,0.9-1.5c0.2-0.6,0.2-1.3-0.3-1.9c-0.1-0.1-0.3-0.2-0.4-0.1c-2,0.6-3.8,2.3-4.4,4.2
						C925.4,356.9,927.1,355.6,928.9,355.1z M927.9,361.8c0.3-0.3,0.5-0.5,0.6-1c-0.5,0-0.8,0.2-1.1,0.4c-0.3,0.3-0.5,0.6-0.5,1.1
						C927.3,362.2,927.6,362,927.9,361.8z M863.7,354.4c-0.5-0.2-0.9-0.5-1.4-0.7c-0.5-0.2-1.1-0.3-1.7,0c-0.3,0.1-0.6,0.4-0.7,0.7
						c-0.2,0.3-0.2,0.7,0,1c0.3,0.6,0.8,0.9,1.3,1.1c0.9,0.4,1.9,0.7,2.9,1c-0.8-0.6-1.7-1.1-2.6-1.5c-0.4-0.2-0.8-0.5-0.9-0.9
						c-0.1-0.3,0-0.6,0.4-0.8c0.7-0.3,1.6,0.2,2.6,0.6c0.9,0.4,1.8,0.8,2.5,1.5C865.5,355.5,864.6,354.9,863.7,354.4z M861.4,359.4
						c0.4,0.1,0.8,0.2,1.4,0.2c-0.3-0.5-0.7-0.8-1.2-0.9c-0.5-0.1-1-0.2-1.5,0.1C860.5,359.1,860.9,359.3,861.4,359.4z M890.5,350.5
						c1.5,1.6,3.1,3,4.9,4.4c1.7,1.3,3.6,2.5,5.5,3.6l1.5,0.8l1.5,0.7c1,0.4,2,0.8,3,1.2c-0.5-0.3-1-0.5-1.5-0.7l-1.4-0.8l-1.4-0.8
						l-1.4-0.8c-1.8-1.1-3.6-2.4-5.3-3.7c-1.7-1.3-3.3-2.7-4.9-4.2c-1.6-1.5-3.1-3.1-4.5-4.7C887.6,347.2,889,348.9,890.5,350.5z
						 M897.4,361.6c1.7,1.3,3.6,2.3,5.7,2.8c-1.8-1.1-3.6-2.2-5.3-3.4c-1.7-1.2-3.2-2.6-4.8-4.1
						C894.1,358.8,895.7,360.3,897.4,361.6z"/>
				</g>
			</g>
		</g>
		<g>
			<path class="st112" d="M932.8,400c-0.9-4.2-2.6-10.1-5.9-16.8H863c-2,4.7-4.3,10.7-5.7,16.8H932.8z"/>
			<g>
				<path class="st114" d="M917.2,383.9c1,1.8,2,3.5,3.2,5c1.2,1.6,2.6,2.9,4.1,4.3c-1.8-0.8-3.4-2.2-4.7-3.8
					C918.6,387.8,917.6,386,917.2,383.9z"/>
				<path class="st114" d="M862.6,391.7c1.6-1.1,3.2-2.3,4.6-3.6c1.4-1.3,2.8-2.7,4.1-4.2c-0.9,1.8-2.1,3.4-3.6,4.8
					C866.2,390.1,864.5,391.1,862.6,391.7z"/>
			</g>
		</g>
		<g>
			<g>
				<path class="st125" d="M922.9,247.8c-0.7-2.3-3.2-4.1-5.6-3.5c1.1-31.9-25.5-27.6-25.5-27.6c-16.7,1.4-18.6,19.2-18.5,28.2
					c-0.5-0.3-1-0.5-1.3-0.6c-2.4-0.6-4.9,1.2-5.6,3.5c-0.6,1.8-0.2,3.9,0.9,5.5c0.9,1.3,2.3,2.6,3.8,3.2c0.3,0.1,1.8,0.4,2.9,0.3
					c2.6,20.8,21.5,18.8,21.5,18.8c16.4,0.8,20.6-10.6,21.6-18.9c0.6-0.1,1.1-0.2,1.3-0.3c1.5-0.6,2.9-1.8,3.8-3.2
					C923.1,251.7,923.5,249.7,922.9,247.8z"/>
				<g>
					<g>
						<g>
							<g>
								<path class="st112" d="M900.6,245.4c0,1.7,0.7,3.2,1.5,3.2c0.9,0,1.5-1.4,1.5-3.2c0-1.7-0.7-3.2-1.5-3.2
									C901.2,242.3,900.6,243.7,900.6,245.4z"/>
							</g>
							<g>
								<path class="st112" d="M890.3,245.4c0,1.7-0.7,3.2-1.5,3.2s-1.5-1.4-1.5-3.2c0-1.7,0.7-3.2,1.5-3.2S890.3,243.7,890.3,245.4
									z"/>
							</g>
						</g>
					</g>
					<g>
						<g>
							<path class="st112" d="M901.2,255c-0.5,1-1.3,1.9-2.3,2.6c-1,0.7-2.2,1.2-3.5,1.1c-1.2,0-2.5-0.5-3.4-1.2
								c-0.5-0.3-0.9-0.8-1.3-1.2c-0.4-0.5-0.7-0.9-1-1.4c0.5,0.3,0.9,0.7,1.3,1.1c0.5,0.3,0.9,0.7,1.4,0.9c1,0.5,2,0.8,3,0.9
								c1,0,2.1-0.3,3.1-0.8C899.5,256.5,900.4,255.8,901.2,255z"/>
							<path class="st112" d="M897,260.6c-0.4,0.4-1,0.5-1.6,0.6c-0.6,0-1.2-0.2-1.6-0.6c0.6,0.1,1.1,0.2,1.6,0.2
								C896,260.8,896.5,260.7,897,260.6z"/>
						</g>
					</g>
					<g>
						<path class="st130" d="M891.6,234.5c-0.7-0.6-1.5-0.8-2.4-0.9c-0.8,0-1.7,0.1-2.5,0.4c-0.8,0.3-1.6,0.7-2.2,1.3
							c-0.7,0.5-1.1,1.3-1.5,2c-0.2,0.4-0.1,0.8,0.3,1c0.3,0.2,0.6,0.1,0.9-0.1l0.1-0.1c0.5-0.5,1-0.9,1.5-1.2
							c0.5-0.3,1.1-0.5,1.7-0.7c0.6-0.1,1.2-0.2,1.8-0.2c0.6,0,1.3,0.1,1.9-0.1l0.2,0c0.4-0.1,0.7-0.5,0.6-0.9
							C891.8,234.7,891.7,234.6,891.6,234.5z"/>
						<path class="st130" d="M899.3,234.5c0.7-0.6,1.5-0.8,2.4-0.9c0.8,0,1.7,0.1,2.5,0.4c0.8,0.3,1.6,0.7,2.2,1.3
							c0.7,0.5,1.1,1.3,1.5,2c0.2,0.4,0.1,0.8-0.3,1c-0.3,0.2-0.6,0.1-0.9-0.1l-0.1-0.1c-0.5-0.5-1-0.9-1.5-1.2
							c-0.5-0.3-1.1-0.5-1.7-0.7c-0.6-0.1-1.2-0.2-1.8-0.2c-0.6,0-1.3,0.1-1.9-0.1l-0.2,0c-0.4-0.1-0.7-0.5-0.6-0.9
							C899.1,234.7,899.2,234.6,899.3,234.5z"/>
					</g>
					<path class="st112" d="M895.8,240.6c0.3,1.2,0.5,2.4,0.7,3.5c0.2,1.2,0.4,2.3,0.8,3.4c0.1,0.3,0.2,0.6,0.3,0.8
						c0.1,0.2,0.3,0.6,0.3,1c0,0.8-0.5,1.6-1.1,1.9c-0.7,0.4-1.4,0.3-2,0.1c-0.6-0.2-1.1-0.5-1.6-1c1.1,0.4,2.4,0.7,3.2,0.2
						c0.4-0.3,0.6-0.7,0.5-1.1c0-0.2-0.1-0.4-0.2-0.7c-0.1-0.3-0.2-0.6-0.3-0.9c-0.3-1.2-0.5-2.4-0.6-3.6
						C895.6,243,895.6,241.8,895.8,240.6z"/>
					<path class="st112" d="M868.3,249.5c0-0.7,0.2-1.5,0.8-2.1c0.7-0.6,1.6-0.5,2.4-0.2c0.8,0.3,1.4,0.8,1.9,1.4
						c0.5,0.6,0.9,1.3,1.2,2c0.1,0.3,0,0.6-0.3,0.7c-0.2,0.1-0.4,0-0.6-0.1l0,0c-0.5-0.5-1.2-1.1-1.8-1.3c-0.3-0.1-0.5-0.1-0.7,0.1
						c-0.2,0.2-0.4,0.5-0.5,0.8c-0.3,0.7-0.4,1.5,0.2,1.8c0.6,0.4,1.5,0.3,2.3,0.2c-0.8,0.3-1.6,0.6-2.6,0.3
						c-0.5-0.2-0.9-0.7-0.9-1.2c0-0.5,0-1,0.1-1.4c0.1-0.4,0.3-0.9,0.7-1.3c0.4-0.4,1.1-0.5,1.6-0.3c1,0.3,1.7,0.9,2.3,1.5l-0.9,0.5
						c-0.5-1.2-1.3-2.5-2.4-3c-0.6-0.3-1.3-0.4-1.8-0.1C868.9,248.1,868.5,248.8,868.3,249.5z"/>
					<path class="st112" d="M921.7,249.5c0-0.7-0.2-1.5-0.8-2.1c-0.7-0.6-1.6-0.5-2.4-0.2c-0.8,0.3-1.4,0.8-1.9,1.4
						c-0.5,0.6-0.9,1.3-1.2,2c-0.1,0.3,0,0.6,0.3,0.7c0.2,0.1,0.4,0,0.6-0.1l0,0c0.5-0.5,1.2-1.1,1.8-1.3c0.3-0.1,0.5-0.1,0.7,0.1
						c0.2,0.2,0.4,0.5,0.5,0.8c0.3,0.7,0.4,1.5-0.2,1.8c-0.6,0.4-1.5,0.3-2.3,0.2c0.8,0.3,1.6,0.6,2.6,0.3c0.5-0.2,0.9-0.7,0.9-1.2
						c0-0.5,0-1-0.1-1.4c-0.1-0.4-0.3-0.9-0.7-1.3c-0.4-0.4-1.1-0.5-1.6-0.3c-1,0.3-1.7,0.9-2.3,1.5l0.9,0.5c0.5-1.2,1.3-2.5,2.4-3
						c0.6-0.3,1.3-0.4,1.8-0.1C921.2,248.1,921.5,248.8,921.7,249.5z"/>
				</g>
			</g>
			<g>
				<g>
					<path class="st2" d="M910.8,254.7c0.9-1.9,2.1-3.7,3.3-5.4c1.2-1.7,2.5-3.4,4-4.9c-0.9,1.9-2.1,3.7-3.3,5.4
						C913.5,251.5,912.3,253.2,910.8,254.7z"/>
					<path class="st2" d="M910.4,267.8c0.9-0.7,1.7-1.4,2.4-2.2c0.7-0.8,1.4-1.7,1.9-2.6c0.5-0.9,1-1.9,1.4-2.9c0.4-1,0.7-2,1-3.1
						c0,0.6,0,1.1-0.1,1.7c-0.1,0.5-0.1,1.1-0.3,1.6c-0.3,1.1-0.7,2.1-1.3,3.1c-0.6,1-1.3,1.8-2.2,2.6
						C912.4,266.7,911.4,267.4,910.4,267.8z"/>
				</g>
				<g>
					<path class="st2" d="M879.5,254.7c-0.8-2-1.9-3.8-3-5.6c-1.1-1.8-2.3-3.5-3.7-5.1c0.8,2,1.9,3.8,3,5.6
						C876.9,251.4,878.1,253.1,879.5,254.7z"/>
					<path class="st2" d="M881.1,267.8c-0.9-0.7-2.1-1.5-2.9-2.3c-0.7-0.8-1.4-1.7-1.9-2.6c-0.5-0.9-1-1.9-1.4-2.9
						c-0.4-1-0.7-2-1-3.1c0,0.6,0,1.1,0.1,1.7c0.1,0.5,0.1,1.1,0.3,1.6c0.3,1.1,0.7,2.1,1.3,3.1c0.6,1,1.3,1.8,2.2,2.6
						C878.6,266.7,880.1,267.4,881.1,267.8z"/>
				</g>
				<g>
					<path class="st122" d="M911.2,254.4l-0.7,11.2l-0.1,2.2c0,0-15,19-29.5-0.1l-1.8-13.3c0,0,1.9-1.5,5.2-3
						C890.1,248.9,900.2,246.7,911.2,254.4z"/>
					<path class="st123" d="M910.5,265.6l-0.1,2.2c0,0-15,19-29.5-0.1l-1.8-13.3c0,0,1.9-1.5,5.2-3c-0.3,1.5-0.2,3.2,0.1,4.7
						c0.4,2,1.2,3.8,2.1,5.6c0.6,1.3,1.2,2.6,2.1,3.7c0.9,1.1,2,1.9,3.2,2.6c3,1.7,6.6,2.4,10,1.9
						C905.1,269.5,908.2,268,910.5,265.6z"/>
					<g>
						<path class="st123" d="M883.9,257.7c1.6-0.9,3.3-1.5,5.1-2c1.8-0.4,3.6-0.7,5.4-0.8c1.8-0.1,3.7,0.1,5.5,0.5
							c1.8,0.4,3.5,1.2,5,2.2c-1.8-0.3-3.5-0.5-5.2-0.6c-1.7-0.1-3.4-0.1-5.2-0.1c-1.7,0.1-3.5,0.2-5.2,0.3
							C887.5,257.4,885.7,257.6,883.9,257.7z"/>
						<path class="st123" d="M904.8,266.6c-1.6,0.9-3.3,1.5-5.1,2c-1.8,0.4-3.6,0.7-5.4,0.8c-1.8,0.1-3.7-0.1-5.5-0.5
							c-1.8-0.4-3.5-1.2-5-2.2c1.8,0.3,3.5,0.5,5.2,0.6c1.7,0.1,3.4,0.1,5.2,0.1c1.7-0.1,3.5-0.2,5.2-0.3
							C901.2,266.9,903,266.7,904.8,266.6z"/>
						<path class="st123" d="M885.4,262.2c1.5-0.3,3.1-0.5,4.6-0.6c1.5-0.1,3.1-0.1,4.6-0.2c1.5,0,3.1,0,4.6,0.2
							c1.5,0.1,3.1,0.3,4.6,0.6c-1.5,0.3-3.1,0.5-4.6,0.6c-1.5,0.1-3.1,0.1-4.6,0.2c-1.5,0-3.1,0-4.6-0.2
							C888.4,262.7,886.9,262.5,885.4,262.2z"/>
					</g>
				</g>
			</g>
			<g>
				<path class="st130" d="M918.6,223.1c0.8-1.8,1-3.9,0.6-5.8c-0.4-1.9-1.4-3.9-3.2-4.7c-2-1-4.4-0.3-6.7-0.4c-2.6,0-5.1-1-7.6-1.7
					c-3.8-1-7.8-1.5-11.7-1.3c-2.9,0.1-5.9,0.6-8.6,1.9c-2.7,1.3-4.9,3.5-6,6.3c-1.8-0.1-3.5,1.3-4.3,2.9c-1.7,3.5-1.4,8.6-1.1,12.4
					c0.3,4,1,8,2.3,11.8c0.2,0.1,0.5,0.2,0.7,0.4c0.9,0.9,1.7,2.1,2,3.4c0.9-0.4,1.1-1.4,1.6-2.2c3-5,4.5-10.9,4.2-16.8
					c6.4,2.6,13.6,3.4,20.3,2.1c1.9-0.4,4-1,5.2-2.6c4.3,5.2,6.7,11.9,6.8,18.6c1.8-0.1,3.5-1.5,4.3-3.1c0.1,0,0.1,0,0.2,0
					c0.2-0.6,0.3-1.3,0.5-1.9c0.8-3.2,1.7-6.4,2-9.7C920.6,229.3,920,226.2,918.6,223.1z"/>
				<path class="st131" d="M875.9,217.5c1,1.7,1.7,3.6,2.4,5.5c0.2,0.5,0.3,0.9,0.5,1.4l0.4,1.4c0.3,0.9,0.6,1.9,1,2.8
					c-0.6-0.8-1.1-1.7-1.5-2.6c-0.4-0.9-0.7-1.9-1.1-2.8C877,221.4,876.3,219.5,875.9,217.5z"/>
				<g>
					<path class="st132" d="M872.9,234.8c-1-0.8-2-1.8-2.8-2.7c0,0.2,0,0.4,0,0.6c0.3,4,1,8,2.3,11.8c0.2,0.1,0.5,0.2,0.7,0.4
						c0.9,0.9,1.7,2.1,2,3.4c0.9-0.4,1.1-1.4,1.6-2.2c1.3-2.1,2.2-4.3,3-6.6C877.6,237.7,875,236.5,872.9,234.8z"/>
					<path class="st132" d="M901.9,231.2c0.9-3.2,2.1-6.2,4.5-8.8c2.3-2.5,7.6-5.4,11.1-8.8c-0.4-0.4-0.9-0.8-1.5-1.1
						c-2-1-4.4-0.3-6.7-0.4c-2.6,0-5.1-1-7.6-1.7c-3.8-1-7.8-1.5-11.7-1.3c-0.5,0-1,0.1-1.4,0.1c1,1.7,2.3,3.3,3.2,5
						c1.8,3.4,2.4,6.9,2.1,10.7c-0.2,1.9-0.6,4.3-1,6.8c2.8,0.1,5.7,0,8.4-0.6C901.6,231.3,901.7,231.3,901.9,231.2z"/>
				</g>
			</g>
		</g>
	</g>
	<g>
		<g>
			<g>
				<path class="st125" d="M1055.4,246.7c-0.7-2.3-3.2-4.1-5.6-3.5c1.1-31.9-25.5-27.6-25.5-27.6c-16.7,1.4-18.6,19.2-18.5,28.2
					c-0.5-0.3-1-0.5-1.3-0.6c-2.4-0.6-4.9,1.2-5.6,3.5c-0.6,1.8-0.2,3.9,0.9,5.5c0.9,1.3,2.3,2.6,3.8,3.2c0.3,0.1,1.8,0.4,2.9,0.3
					c2.6,20.8,21.5,18.8,21.5,18.8c16.4,0.8,20.6-10.6,21.6-18.9c0.6-0.1,1.1-0.2,1.3-0.3c1.5-0.6,2.9-1.8,3.8-3.2
					C1055.6,250.6,1056,248.5,1055.4,246.7z"/>
				<g>
					<g>
						<circle class="st133" cx="1041.2" cy="254.6" r="5.3"/>
						<path class="st133" d="M1009.3,254.6c0,2.9,2.4,5.3,5.3,5.3c2.9,0,5.3-2.4,5.3-5.3c0-2.9-2.4-5.3-5.3-5.3
							C1011.7,249.3,1009.3,251.7,1009.3,254.6z"/>
					</g>
					<g>
						<g>
							<g>
								<path class="st112" d="M1033,244.3c0,1.7,0.7,3.2,1.5,3.2c0.9,0,1.5-1.4,1.5-3.2c0-1.7-0.7-3.2-1.5-3.2
									C1033.7,241.1,1033,242.5,1033,244.3z"/>
								<path class="st112" d="M1037.7,240.1c-0.3,0.5-0.6,1-1,1.3c-0.4,0.4-1,0.7-1.6,0.8l0,0c-0.3,0.1-0.6-0.1-0.7-0.4
									c-0.1-0.3,0.1-0.6,0.4-0.7c0,0,0.1,0,0.2,0c0.9,0,1.8-0.5,2.5-1.3l0,0c0.1-0.1,0.2-0.1,0.3,0
									C1037.8,240,1037.8,240.1,1037.7,240.1z"/>
							</g>
							<g>
								<path class="st112" d="M1022.8,244.3c0,1.7-0.7,3.2-1.5,3.2c-0.9,0-1.5-1.4-1.5-3.2c0-1.7,0.7-3.2,1.5-3.2
									C1022.1,241.1,1022.8,242.5,1022.8,244.3z"/>
								<path class="st112" d="M1018.4,239.9c0.7,0.8,1.6,1.3,2.5,1.3c0.3,0,0.6,0.2,0.6,0.5c0,0.3-0.2,0.6-0.5,0.6
									c-0.1,0-0.1,0-0.1,0l0,0c-0.6-0.1-1.2-0.4-1.6-0.8c-0.4-0.4-0.8-0.8-1-1.3c0-0.1,0-0.2,0.1-0.2
									C1018.2,239.8,1018.3,239.9,1018.4,239.9L1018.4,239.9z"/>
							</g>
						</g>
					</g>
					<g>
						<g>
							<path class="st112" d="M1033.7,253.8c-0.5,1-1.3,1.9-2.3,2.6c-1,0.7-2.2,1.2-3.5,1.1c-1.2,0-2.5-0.5-3.4-1.2
								c-0.5-0.3-0.9-0.8-1.3-1.2c-0.4-0.5-0.7-0.9-1-1.4c0.5,0.3,0.9,0.7,1.3,1.1c0.5,0.3,0.9,0.7,1.4,0.9c1,0.5,2,0.8,3,0.9
								c1,0,2.1-0.3,3.1-0.8C1031.9,255.3,1032.9,254.6,1033.7,253.8z"/>
							<path class="st112" d="M1029.5,259.4c-0.4,0.4-1,0.5-1.6,0.6c-0.6,0-1.2-0.2-1.6-0.6c0.6,0.1,1.1,0.2,1.6,0.2
								C1028.4,259.6,1029,259.5,1029.5,259.4z"/>
						</g>
					</g>
					<g>
						<g>
							<path class="st112" d="M1024.1,233.3c-0.7-0.6-1.5-0.8-2.4-0.9c-0.8,0-1.7,0.1-2.5,0.4c-0.8,0.3-1.6,0.7-2.2,1.3
								c-0.7,0.5-1.1,1.3-1.5,2c-0.2,0.4-0.1,0.8,0.3,1c0.3,0.2,0.6,0.1,0.9-0.1l0.1-0.1c0.5-0.5,1-0.9,1.5-1.2
								c0.5-0.3,1.1-0.5,1.7-0.7c0.6-0.1,1.2-0.2,1.8-0.2c0.6,0,1.3,0.1,1.9-0.1l0.2,0c0.4-0.1,0.7-0.5,0.6-0.9
								C1024.3,233.6,1024.2,233.4,1024.1,233.3z"/>
							<path class="st112" d="M1031.8,233.3c0.7-0.6,1.5-0.8,2.4-0.9c0.8,0,1.7,0.1,2.5,0.4c0.8,0.3,1.6,0.7,2.2,1.3
								c0.7,0.5,1.1,1.3,1.5,2c0.2,0.4,0.1,0.8-0.3,1c-0.3,0.2-0.6,0.1-0.9-0.1l-0.1-0.1c-0.5-0.5-1-0.9-1.5-1.2
								c-0.5-0.3-1.1-0.5-1.7-0.7c-0.6-0.1-1.2-0.2-1.8-0.2c-0.6,0-1.3,0.1-1.9-0.1l-0.2,0c-0.4-0.1-0.7-0.5-0.6-0.9
								C1031.6,233.6,1031.6,233.4,1031.8,233.3z"/>
						</g>
					</g>
					<path class="st112" d="M1028.3,239.5c0.3,1.2,0.5,2.4,0.7,3.5c0.2,1.2,0.4,2.3,0.8,3.4c0.1,0.3,0.2,0.6,0.3,0.8
						c0.1,0.2,0.3,0.6,0.3,1c0,0.8-0.5,1.6-1.1,1.9c-0.7,0.4-1.4,0.3-2,0.1c-0.6-0.2-1.1-0.5-1.6-1c1.1,0.4,2.4,0.7,3.2,0.2
						c0.4-0.3,0.6-0.7,0.5-1.1c0-0.2-0.1-0.4-0.2-0.7c-0.1-0.3-0.2-0.6-0.3-0.9c-0.3-1.2-0.5-2.4-0.6-3.6
						C1028.1,241.9,1028.1,240.7,1028.3,239.5z"/>
					<path class="st112" d="M1000.8,248.4c0-0.7,0.2-1.5,0.8-2.1c0.7-0.6,1.6-0.5,2.4-0.2c0.8,0.3,1.4,0.8,1.9,1.4
						c0.5,0.6,0.9,1.3,1.2,2c0.1,0.3,0,0.6-0.3,0.7c-0.2,0.1-0.4,0-0.6-0.1l0,0c-0.5-0.5-1.2-1.1-1.8-1.3c-0.3-0.1-0.5-0.1-0.7,0.1
						c-0.2,0.2-0.4,0.5-0.5,0.8c-0.3,0.7-0.4,1.5,0.2,1.8c0.6,0.4,1.5,0.3,2.3,0.2c-0.8,0.3-1.6,0.6-2.6,0.3
						c-0.5-0.2-0.9-0.7-0.9-1.2c0-0.5,0-1,0.1-1.4c0.1-0.4,0.3-0.9,0.7-1.3c0.4-0.4,1.1-0.5,1.6-0.3c1,0.3,1.7,0.9,2.3,1.5l-0.9,0.5
						c-0.5-1.2-1.3-2.5-2.4-3c-0.6-0.3-1.3-0.4-1.8-0.1C1001.4,247,1001,247.7,1000.8,248.4z"/>
					<path class="st112" d="M1054.2,248.4c0-0.7-0.2-1.5-0.8-2.1c-0.7-0.6-1.6-0.5-2.4-0.2c-0.8,0.3-1.4,0.8-1.9,1.4
						c-0.5,0.6-0.9,1.3-1.2,2c-0.1,0.3,0,0.6,0.3,0.7c0.2,0.1,0.4,0,0.6-0.1l0,0c0.5-0.5,1.2-1.1,1.8-1.3c0.3-0.1,0.5-0.1,0.7,0.1
						c0.2,0.2,0.4,0.5,0.5,0.8c0.3,0.7,0.4,1.5-0.2,1.8c-0.6,0.4-1.5,0.3-2.3,0.2c0.8,0.3,1.6,0.6,2.6,0.3c0.5-0.2,0.9-0.7,0.9-1.2
						c0-0.5,0-1-0.1-1.4c-0.1-0.4-0.3-0.9-0.7-1.3c-0.4-0.4-1.1-0.5-1.6-0.3c-1,0.3-1.7,0.9-2.3,1.5l0.9,0.5c0.5-1.2,1.3-2.5,2.4-3
						c0.6-0.3,1.3-0.4,1.8-0.1C1053.6,247,1054,247.7,1054.2,248.4z"/>
				</g>
			</g>
			<g>
				<g>
					<path class="st2" d="M1043.2,253c0.9-1.9,2.1-3.7,3.3-5.4c1.2-1.7,2.5-3.4,4-4.9c-0.9,1.9-2.1,3.7-3.3,5.4
						C1045.9,249.8,1044.6,251.4,1043.2,253z"/>
					<path class="st2" d="M1042.8,266c0.9-0.7,1.7-1.4,2.4-2.2c0.7-0.8,1.4-1.7,1.9-2.6c0.5-0.9,1-1.9,1.4-2.9c0.4-1,0.7-2,1-3.1
						c0,0.6,0,1.1-0.1,1.7c-0.1,0.5-0.1,1.1-0.3,1.6c-0.3,1.1-0.7,2.1-1.3,3.1c-0.6,1-1.3,1.8-2.2,2.6
						C1044.8,265,1043.8,265.6,1042.8,266z"/>
				</g>
				<g>
					<path class="st2" d="M1011.9,253c-0.8-2-1.9-3.8-3-5.6c-1.1-1.8-2.3-3.5-3.7-5.1c0.8,2,1.9,3.8,3,5.6
						C1009.3,249.6,1010.5,251.4,1011.9,253z"/>
					<path class="st2" d="M1013.5,266c-0.9-0.7-2.1-1.5-2.9-2.3c-0.7-0.8-1.4-1.7-1.9-2.6c-0.5-0.9-1-1.9-1.4-2.9
						c-0.4-1-0.7-2-1-3.1c0,0.6,0,1.1,0.1,1.7c0.1,0.5,0.1,1.1,0.3,1.6c0.3,1.1,0.7,2.1,1.3,3.1c0.6,1,1.3,1.8,2.2,2.6
						C1011,265,1012.4,265.6,1013.5,266z"/>
				</g>
				<g>
					<path class="st122" d="M1043.6,252.6l-0.7,11.2l-0.1,2.2c0,0-15,19-29.5-0.1l-1.8-13.3c0,0,1.9-1.5,5.2-3
						C1022.5,247.1,1032.6,245,1043.6,252.6z"/>
					<path class="st123" d="M1042.9,263.8l-0.1,2.2c0,0-15,19-29.5-0.1l-1.8-13.3c0,0,1.9-1.5,5.2-3c-0.3,1.5-0.2,3.2,0.1,4.7
						c0.4,2,1.2,3.8,2.1,5.6c0.6,1.3,1.2,2.6,2.1,3.7c0.9,1.1,2,1.9,3.2,2.6c3,1.7,6.6,2.4,10,1.9
						C1037.4,267.7,1040.6,266.2,1042.9,263.8z"/>
					<g>
						<path class="st123" d="M1016.3,255.9c1.6-0.9,3.3-1.5,5.1-2c1.8-0.4,3.6-0.7,5.4-0.8c1.8-0.1,3.7,0.1,5.5,0.5
							c1.8,0.4,3.5,1.2,5,2.2c-1.8-0.3-3.5-0.5-5.2-0.6c-1.7-0.1-3.4-0.1-5.2-0.1c-1.7,0.1-3.5,0.2-5.2,0.3
							C1019.9,255.7,1018.1,255.8,1016.3,255.9z"/>
						<path class="st123" d="M1037.2,264.9c-1.6,0.9-3.3,1.5-5.1,2c-1.8,0.4-3.6,0.7-5.4,0.8c-1.8,0.1-3.7-0.1-5.5-0.5
							c-1.8-0.4-3.5-1.2-5-2.2c1.8,0.3,3.5,0.5,5.2,0.6c1.7,0.1,3.4,0.1,5.2,0.1c1.7-0.1,3.5-0.2,5.2-0.3
							C1033.6,265.1,1035.4,265,1037.2,264.9z"/>
						<path class="st123" d="M1017.7,260.4c1.5-0.3,3.1-0.5,4.6-0.6c1.5-0.1,3.1-0.1,4.6-0.2c1.5,0,3.1,0,4.6,0.2
							c1.5,0.1,3.1,0.3,4.6,0.6c-1.5,0.3-3.1,0.5-4.6,0.6c-1.5,0.1-3.1,0.1-4.6,0.2c-1.5,0-3.1,0-4.6-0.2
							C1020.8,260.9,1019.3,260.8,1017.7,260.4z"/>
					</g>
				</g>
			</g>
			<g>
				<path class="st118" d="M1058.4,233.9c-0.1-2.6,0.9-5.3,0.5-7.9c-0.7-4.4-5.2-7.3-9.5-8.5c-4.3-1.3-9-1.7-12.8-4.1
					c-1.5-1-2.8-2.2-4.5-3c-2.3-1-5-0.8-7.6-0.4c-5.5,1-10.7,3.4-15.2,6.7c-2.7,2-4.3,5.1-4.9,8.4c-0.4,2.1-1.4,4.1-2.8,5.6
					c-1.7,1.9-4.1,3.1-5.7,5.1c-2.7,3.2-3,7.9-2.1,12c0.2,1.2,0.6,2.3,0.7,3.5c0.2,2.9-1,5.7-2.5,8.2c-1.4,2.5-3.1,5-3.8,7.8
					c-0.5,2.1-0.5,4.2-0.3,6.4c0.8,7.1,4,13.9,8.9,19c2-1.1,4.4-1.7,6.7-1.8c5-0.2,8.6-1.7,11-3.6c0.3-1.3,0.7-3,1-4.8
					c0.5-2.7,0.6-7.5,0.4-10.1c0,0,0,0,0,0c0-0.2,0-0.3-0.1-0.5c-4.3-2.5-8.5-7.2-9.6-16.2c-1.1,0-2.6-0.2-2.9-0.3
					c-1.5-0.6-2.9-1.8-3.8-3.2c-1-1.6-1.4-3.7-0.9-5.5c0.7-2.3,3.2-4.1,5.6-3.5c0.3,0.1,0.8,0.3,1.3,0.6c0,0,0,0,0,0
					c0.5,0.4,1.1,0.8,1.7,1.1c1,0.6,1.9,1.1,2.9,1.7c-1.2-5.8-1.2-11.6,0-17.4c0.1,2.4,0.4,4.8,1,7.2c0.3,1.1,1.8,1,2.9,1.1
					s2.2-0.2,3.2-0.7c1.4-0.6,2.7-1.5,4.2-1.7c2.1-0.3,4.2,0.7,6.2,1.6c2,0.9,4.2,1.7,6.2,0.9c0.6-0.2,1.1-0.6,1.7-0.8
					c2.2-0.9,4.6,0,6.7,0.9c1-2.5,1.3-5.4,1.1-8.1c1.3,2.4,1.5,5.5,1.7,8.3c0.2,2.7,0.1,5.5,0.6,8.2c1.2-0.2,2.2-1.1,3-1.9
					c0.4-0.4,0.7-0.8,1-1.2c2.3-0.4,4.6,1.4,5.3,3.6c0.6,1.8,0.2,3.9-0.9,5.5c-0.9,1.3-2.3,2.6-3.8,3.2c-0.2,0.1-0.7,0.2-1.3,0.3
					c-0.7,5.8-2.9,13-9.8,16.7c-0.1,0.5-0.2,1.1-0.3,1.7v0c-0.2,2.5,0.1,5.7,0.6,8.6c0.3,1.8,0.7,3.4,1,4.7c2.5,1.9,6,3.5,11.1,3.7
					c2.3,0.1,4.5,0.6,6.5,1.7c3.2-4.2,6-8.8,6.8-14c0.3-2.3,0.2-4.7-0.3-7c-0.6-2.4-1.6-4.7-1.5-7.1c0.2-3.8,3-7,3.4-10.7
					C1067.6,246.5,1058.7,241.3,1058.4,233.9z"/>
				<path class="st119" d="M1006.5,240.8c1.2,0.9,2.3,1.5,3.3,1.8c-0.5-4.5-0.3-8.9,0.6-13.4c0.1,2.4,0.4,4.8,1,7.2
					c0.3,1.1,1.8,1,2.9,1.1c1.1,0.1,2.2-0.2,3.2-0.7c1.4-0.6,2.7-1.5,4.2-1.7c1.4-0.2,2.8,0.2,4.2,0.7c1.8-1,3.7-1.9,5.7-2.6
					c3.9-1.3,8.2-1.4,12,0.1c0.1-1.2,0.2-2.4,0.1-3.6c0.7,1.3,1.1,2.7,1.3,4.2c0.1,0,0.2,0.1,0.2,0.1c3.6,1.9,6.1,5.3,9.6,7.4
					c2.5,1.5,5.2,2.2,8,2.3c-2.2-3.1-4.4-6.2-4.6-9.9c-0.1-2.6,0.9-5.3,0.5-7.9c0-0.2-0.1-0.4-0.1-0.6c-1.3-0.6-2.5-1.2-3.8-1.8
					c-7.2-3.5-15.4-6.2-23.4-4.8c-7.7,1.4-14.8,4-22.4,0.8c-0.6-0.2-1.2-0.5-1.8-0.8c-1.5,1.8-2.4,4-2.9,6.4
					c-0.4,2.1-1.4,4.1-2.8,5.6c-1.3,1.5-3.1,2.6-4.5,3.9C1000.5,236.2,1003.8,238.7,1006.5,240.8z"/>
			</g>
		</g>
		<g>
			<g>
				<g>
					<path class="st125" d="M1041.8,290.4h-27.9c0,0,1.1-3.6,1.8-7.8c0.5-2.7,0.6-7.5,0.4-10.1c0,0,0,0,0,0c0-0.2,0-0.4,0-0.5
						c0,0,8.3,5.9,23.6,0.5c-0.1,0.5-0.2,1.1-0.3,1.7v0c-0.3,2.5,0.1,5.7,0.6,8.6C1040.8,286.7,1041.8,290.4,1041.8,290.4z"/>
					<path class="st134" d="M1039.7,272.3c0,0-12,17.5-23.6-0.5C1016.1,271.8,1024.4,277.7,1039.7,272.3z"/>
				</g>
				<g>
					<path class="st112" d="M1054.4,368.1l0.8,8.4h-53.9l0.8-8.4H974c0,0,0.2-2,0.5-5.3c1.5-14.6,6.4-55.1,15.7-65.1
						c11.4-12.2,22.2-11.2,22.2-11.2s1.2-5.4,0.4-8c-0.8-2.6-2.4-6.1-0.7-6.2c1.1-0.1,7.6,3.7,16.2,4c8.6-0.2,15-4.1,16.2-4
						c1.7,0.1,0.1,3.6-0.7,6.2c-0.8,2.6,0.4,8,0.4,8s10.8-1,22.2,11.2c8.5,9.1,13.4,44.2,15.3,61.1c0.6,5.6,0.9,9.2,0.9,9.2H1054.4z
						"/>
					<path class="st115" d="M1054.4,368.1l0.8,8.4h-53.9l0.8-8.4H974c0,0,0.2-2,0.5-5.3c7-4.1,13-9.8,17.5-16.5
						c2.4-3.6,4.3-7.5,6.3-11.4c3.4-6.9,6.6-12.4,10-19.3c0,3.7,0,7.5,0,11.2c0,6.5,0,13.1,1.6,19.3c1.6,6.3,5.1,12.4,10.6,15.8
						c5,3.1,11.2,3.7,17.1,4.2c5.3,0.4,11,0.7,15.8-1.5l-7.2-47.8c0,0,19.1,38,35.3,42c0.6,5.6,0.9,9.2,0.9,9.2H1054.4z"/>
					<g>
						<path class="st114" d="M1002.2,367.7c0.3-4.3,0.7-8.6,1.2-12.9c0.4-4.3,0.9-8.6,1.4-12.9c0.5-4.3,1-8.6,1.5-12.8l0.8-6.4
							c0.3-2.1,0.6-4.3,0.9-6.4c-0.2,2.2-0.4,4.3-0.5,6.4l-0.6,6.4c-0.4,4.3-0.9,8.6-1.4,12.9c-0.5,4.3-1,8.6-1.5,12.8
							C1003.3,359.2,1002.8,363.4,1002.2,367.7z"/>
						<path class="st114" d="M1004.8,316.9c0.6,1.6,0.9,3.2,1.2,4.8c0.3,1.6,0.5,3.3,0.5,4.9c-0.6-1.6-0.9-3.2-1.2-4.8
							C1005,320.2,1004.8,318.6,1004.8,316.9z"/>
						<path class="st114" d="M1054.5,368.3c-0.8-4.3-1.6-8.5-2.3-12.8c-0.7-4.3-1.4-8.6-2.1-12.8c-0.7-4.3-1.3-8.6-2-12.9l-0.9-6.4
							c-0.3-2.2-0.6-4.3-0.8-6.5c0.4,2.1,0.8,4.3,1.2,6.4l1.1,6.4c0.7,4.3,1.4,8.6,2.1,12.8c0.7,4.3,1.3,8.6,2,12.9
							C1053.3,359.7,1053.9,364,1054.5,368.3z"/>
						<path class="st114" d="M1050.9,316.9c-0.3,1.5-0.7,2.9-1.2,4.4c-0.5,1.4-1.1,2.8-1.9,4.1c0.3-1.5,0.7-2.9,1.2-4.4
							C1049.5,319.6,1050.1,318.2,1050.9,316.9z"/>
						<path class="st114" d="M1002.8,359.4c-0.4-0.4-0.8-0.9-1.3-1.4c-0.4-0.5-0.9-0.9-1.3-1.3c-0.4-0.4-0.9-0.9-1.3-1.2
							c-0.5-0.3-1-0.6-1.5-0.6l0.4-0.2c-0.4,0.9,0.1,2.1,0.8,2.8c0.4,0.4,0.9,0.7,1.3,1c0.5,0.3,1,0.5,1.6,0.8
							c-0.6-0.1-1.1-0.3-1.7-0.5c-0.6-0.2-1.1-0.5-1.6-0.9c-0.5-0.4-0.9-0.9-1.1-1.5c-0.2-0.6-0.3-1.3,0-2c0.1-0.2,0.2-0.2,0.4-0.2
							c0.7,0,1.4,0.3,1.9,0.7c0.5,0.4,1,0.9,1.4,1.4c0.4,0.5,0.8,1,1.1,1.5C1002.1,358.3,1002.5,358.9,1002.8,359.4z"/>
						<path class="st114" d="M1053.3,358.5c0-0.7,0.1-1.3,0.4-1.9c0.3-0.6,0.6-1.2,1.1-1.7c0.9-1,2.3-1.6,3.7-1.6l0,0
							c0.2,0,0.4,0.1,0.4,0.3c0.1,0.6,0,1.3-0.2,1.8c-0.2,0.6-0.5,1.1-0.8,1.6c-0.3,0.5-0.7,0.9-1.2,1.3c-0.4,0.4-0.9,0.8-1.3,1.1
							c0.7-0.9,1.5-1.8,2-2.7c0.6-0.9,0.9-2,0.8-3l0.4,0.3c-1.2,0-2.4,0.5-3.3,1.3c-0.5,0.4-0.9,0.9-1.2,1.4
							C1053.6,357.3,1053.4,357.9,1053.3,358.5z"/>
						<path class="st114" d="M1056,361.4c0.2-0.6,0.6-0.9,1-1.2c0.5-0.3,1-0.4,1.5-0.4c-0.4,0.5-0.7,0.7-1.2,1
							C1057,361,1056.6,361.3,1056,361.4z"/>
						<path class="st114" d="M996.9,359.8c0.5-0.3,1-0.3,1.5-0.1c0.5,0.1,0.9,0.4,1.2,0.9c-0.5,0-1-0.1-1.4-0.2
							C997.7,360.3,997.3,360.1,996.9,359.8z"/>
						<path class="st114" d="M1020.1,328.2c1.3,1.5,2.6,2.9,4,4.2c1.4,1.3,2.9,2.6,4.4,3.8c1.5,1.2,3.2,2.2,4.8,3.2l1.3,0.7l1.3,0.7
							l1.3,0.7c0.4,0.2,0.9,0.4,1.3,0.6c-0.9-0.3-1.9-0.6-2.8-0.9l-1.3-0.6l-1.3-0.6c-1.8-0.9-3.4-2-5-3.1c-1.6-1.2-3-2.5-4.4-3.9
							C1022.4,331.4,1021.1,329.8,1020.1,328.2z"/>
						<path class="st114" d="M1013.4,278.8c1.2,1.3,2.4,2.5,3.7,3.5c1.3,1,2.8,1.8,4.4,2.6c-1.7-0.2-3.4-1-4.8-2
							C1015.3,281.8,1014.1,280.4,1013.4,278.8z"/>
						<path class="st114" d="M1014.9,283.9c0.6,0.1,1,0.3,1.4,0.6c0.4,0.3,0.7,0.7,0.9,1.2c-0.6-0.1-1-0.3-1.4-0.6
							C1015.4,284.8,1015.1,284.4,1014.9,283.9z"/>
						<path class="st114" d="M1036.3,283.8c1.2-0.8,2.3-1.5,3.4-2.3c1.1-0.8,2.1-1.7,3.1-2.7c-0.6,1.3-1.6,2.4-2.7,3.3
							C1039,282.9,1037.7,283.6,1036.3,283.8z"/>
					</g>
				</g>
			</g>
			<g>
				<path class="st125" d="M1002.1,368.1l-0.4,4.2h-0.1c-1.8,2.9-8.6,15.9-10.1,27.6h-18.2c-0.2-9.7,0.2-19.2,1-28.2
					c0.1-1.2,0.2-2.4,0.3-3.6H1002.1z"/>
				<path class="st135" d="M1002.1,368.1l-0.4,4.2h-0.1c-1.8,2.9-8.6,15.9-10.1,27.6h-5.2c1.6-10.5,11.7-28.2,11.7-28.2h-23.7
					c0.1-1.2,0.2-2.4,0.3-3.6H1002.1z"/>
			</g>
			<g>
				<path class="st125" d="M1082.3,400h-17.3c-0.2-2.8-1.4-14.4-10.2-27.3h0l-0.5-4.5h26.6c0.1,1.2,0.2,2.4,0.3,3.6
					C1082.2,380.8,1082.6,390.3,1082.3,400z"/>
				<path class="st135" d="M1064,371.8c0,0,10.1,17.7,11.7,28.2h-10.6c-0.2-2.8-1.4-14.4-10.2-27.3h0l-0.5-4.5h26.6
					c0.1,1.2,0.2,2.4,0.3,3.6H1064z"/>
			</g>
		</g>
		<g>
			<path class="st118" d="M1065.1,400c-0.2-2.8-1.4-14.4-10.2-27.3l-18.2-0.3h-34c-0.1,0-0.9,0-1,0c-1.8,2.9-8.6,15.9-10.1,27.6
				H1065.1z"/>
			<path class="st120" d="M1026,373c0.2,2.2,0.2,4.5,0.3,6.7c0.1,2.2,0.1,4.5,0.1,6.7l-0.6-0.3c1-1,2-2,3-2.9l-0.1,0.2
				c0-1.6,0.1-3.2,0.1-4.8c0-1.6,0.1-3.2,0.2-4.8c0.1,1.6,0.2,3.2,0.2,4.8c0.1,1.6,0.1,3.2,0.1,4.8c0,0.1,0,0.2-0.1,0.2l0,0
				c-1,1-1.9,2-2.9,3c-0.1,0.1-0.4,0.1-0.5,0c-0.1-0.1-0.1-0.2-0.1-0.3c0-2.2,0-4.5,0.1-6.7C1025.7,377.4,1025.8,375.2,1026,373z"/>
		</g>
	</g>
	<g>
		<path class="st127" d="M1127,376.5c-2.9,6.3-6.2,15-7.1,23.1h81.2c0,0-0.5-10.1-7.2-23.1H1127z"/>
		<g>
			<g>
				<path class="st136" d="M1144.9,283.2c-1.3,0.4-2.7,0.7-4.4,0.8c0.7,2.2,1.6,4.3,2.3,6.2c1.8,4.8,3.2,9.9,5.7,14.4
					c2.8,5,8.5,11.6,15,10.3c5.1-1,8.9-6.2,11.5-10.3c3.9-6.2,7-13.1,9.2-20.3c-0.8-0.1-1.5-0.2-2.3-0.3c-2.2-0.1-4.1-0.4-5.7-0.9
					c-1.5-1.8-2.7-4.1-3.7-7.7c-0.4-2.5-0.6-5-0.4-7.1v0c0.1-1.2,0.4-2.3,0.8-3.1l-12.2-6.2l-12.9,4.1c0.3,0.5,0.7,2.2,0.9,3.6
					c0.2,2.2,0.1,6-0.2,8.8C1147.6,279.1,1146.4,281.5,1144.9,283.2z"/>
				<path class="st136" d="M1149,268.4l-0.1-1C1148.9,267.9,1149,268.2,1149,268.4z"/>
				<path class="st134" d="M1148.7,266.3c0,0,8.3,5.9,23.7,0.5C1172.4,266.8,1160.4,284.2,1148.7,266.3z"/>
			</g>
			<g>
				<path class="st122" d="M1212,400h-12l-5.7-19.9h-67.6L1121,400h-12c0,0-0.2-17.5,2-40.6c1.9-19.7,5.6-43.4,12.7-64.1
					c1.5-4.3,3.5-9,7.7-10.7c4.1-1.7,9.8,0.4,13.7-1.7l15.3,22.1l9.3-13.4l6.1-10.2c0,0,5,1.7,9.2,2.5c1.1,0,2.1,0.1,3.1,0.3h0v0
					c0.4,0.1,0.9,0.2,1.3,0.4c4.2,1.8,6.2,6.4,7.7,10.7c8.4,24.5,12.1,53.4,13.6,74.6C1212.2,387.6,1212,400,1212,400z"/>
				<path class="st123" d="M1212,400h-12l-5.7-19.9h-67.6L1121,400h-12c0,0-0.2-17.5,2-40.6c0.2,0,0.5-0.1,0.8-0.1
					c2.4-0.5,4.2-2.4,5.9-4.3c8.1-9.1,16.4-18.4,20.9-29.8c0.8,13.7,6.3,26.9,16.3,36.3c10,9.4,24.9,13.8,38.1,9.9l-8.4-49.9
					c0,0,14.9,36.9,26.4,48.4C1212.2,387.6,1212,400,1212,400z"/>
				<g>
					<path class="st137" d="M1143,286.1c2.6,3.7,5.2,7.4,7.7,11.1c2.6,3.7,5.1,7.5,7.6,11.2l-0.3-0.2c2.1,0,4.1,0,6.2,0l-0.3,0.2
						c2.3-4.1,4.6-8.2,7-12.2c2.4-4.1,4.7-8.1,7.2-12.2c-2.2,4.2-4.4,8.3-6.7,12.4c-2.2,4.1-4.6,8.2-6.9,12.3
						c-0.1,0.1-0.2,0.2-0.3,0.2h0c-2.1,0-4.1,0-6.2,0h0c-0.1,0-0.2-0.1-0.3-0.2c-2.5-3.8-5-7.5-7.4-11.3
						C1147.8,293.7,1145.4,289.9,1143,286.1z"/>
					<path class="st137" d="M1194.2,380.2c-1-5.3-2-10.7-2.9-16l-2.7-16.1L1186,332l-1.2-8.1l-1.1-8.1l1.5,8l1.4,8l2.7,16.1
						l2.5,16.1C1192.7,369.5,1193.5,374.8,1194.2,380.2z"/>
					<path class="st137" d="M1126.7,380c1-5.4,2.1-10.7,3.2-16.1l3.4-16.1l3.6-16l1.8-8l1.9-8l-1.6,8.1l-1.6,8L1134,348l-3.6,16
						C1129.2,369.4,1128,374.7,1126.7,380z"/>
					<path class="st137" d="M1157.8,330c0.1,1,0.4,1.9,0.9,2.8c0.4,0.9,1,1.7,1.5,2.5c1.1,1.6,2.3,3.2,3.6,4.7
						c1.3,1.5,2.7,2.9,4.1,4.3c0.7,0.7,1.5,1.3,2.2,2c0.7,0.7,1.5,1.3,2.3,1.9c-1.7-1-3.4-2.2-4.9-3.4c-1.5-1.3-3-2.7-4.3-4.2
						c-1.3-1.5-2.5-3.2-3.5-4.9c-0.5-0.9-1-1.7-1.4-2.7C1157.9,332,1157.7,331,1157.8,330z"/>
					<path class="st137" d="M1156.4,335.4c0.3,2.6,0.8,5.1,1.6,7.5c0.8,2.4,1.9,4.8,3.1,7c1.2,2.2,2.6,4.4,4,6.5
						c0.7,1.1,1.5,2.1,2.3,3.1l1.2,1.5c0.4,0.5,0.8,1,1.2,1.5c-0.9-0.9-1.8-1.9-2.6-2.9c-0.8-1-1.6-2-2.4-3c-1.6-2.1-3-4.2-4.2-6.5
						c-1.2-2.3-2.3-4.7-3-7.2l-0.5-1.9l-0.4-1.9l-0.2-1.9C1156.4,336.7,1156.4,336,1156.4,335.4z"/>
					<path class="st137" d="M1129.2,367.1c-0.6-1.2-1.3-2.3-2.2-3.3c-0.9-0.9-1.9-1.8-3.1-2.3c-0.5-0.3-1.1-0.4-1.5-0.1
						c-0.2,0.1-0.3,0.3-0.3,0.5c0,0.2,0.2,0.5,0.4,0.8c0.7,1.1,1.5,2.2,2.3,3.2c-1.1-0.8-2-1.8-2.8-2.9c-0.2-0.3-0.4-0.6-0.5-1
						c-0.1-0.4,0.1-1,0.5-1.2c0.3-0.3,0.8-0.4,1.2-0.3c0.4,0,0.8,0.2,1.1,0.3c1.2,0.7,2.3,1.5,3.2,2.6
						C1128.3,364.5,1128.9,365.8,1129.2,367.1z"/>
					<path class="st137" d="M1124.4,369.2c0.6,0,1.1,0.2,1.5,0.4c0.4,0.3,0.8,0.5,1.1,1.1c-0.6,0-1.1-0.2-1.5-0.4
						C1125.1,370,1124.7,369.7,1124.4,369.2z"/>
					<path class="st137" d="M1191.2,362c1.3-2.8,3.9-4.9,6.9-5.7c0.2-0.1,0.4,0.1,0.5,0.2c0.3,0.9,0,1.8-0.4,2.5
						c-0.4,0.7-1,1.3-1.5,1.9c-0.5,0.6-1.1,1.1-1.6,1.7c-0.6,0.5-1.1,1.1-1.7,1.6c0.5-0.6,0.9-1.2,1.4-1.9c0.5-0.6,1-1.2,1.5-1.8
						c0.5-0.6,1-1.2,1.3-1.8c0.4-0.6,0.5-1.3,0.3-1.9l0.5,0.2C1195.5,357.8,1193,359.6,1191.2,362z"/>
					<path class="st137" d="M1194,366.5c0.5-0.3,0.8-0.4,1.2-0.6c0.4-0.2,0.7-0.3,1.2-0.5c0,0.6-0.4,1-0.9,1.2
						C1195,366.8,1194.5,366.8,1194,366.5z"/>
					<path class="st137" d="M1182.1,291.9c-0.2-1.4,0.1-2.9,0.7-4.2c0.6-1.3,1.5-2.5,2.7-3.3c-0.8,1.2-1.5,2.4-2,3.6
						C1182.9,289.2,1182.5,290.5,1182.1,291.9z"/>
					<path class="st137" d="M1136.4,284.2c0.8,1.3,1.3,2.8,1.7,4.3c0.4,1.5,0.6,3,0.5,4.5c-0.5-1.5-0.9-2.9-1.2-4.4
						C1137,287.2,1136.6,285.7,1136.4,284.2z"/>
				</g>
			</g>
		</g>
		<g>
			<g>
				<path class="st136" d="M1188,241.2c-0.7-2.3-3.2-4.1-5.6-3.5c1.1-31.9-25.5-27.6-25.5-27.6c-16.7,1.4-18.6,19.2-18.5,28.2
					c-0.5-0.3-1-0.5-1.3-0.6c-2.4-0.6-4.9,1.2-5.6,3.5c-0.6,1.8-0.2,3.9,0.9,5.5c0.9,1.3,2.3,2.6,3.8,3.2c0.3,0.1,1.8,0.4,2.9,0.3
					c2.6,20.8,21.5,18.8,21.5,18.8c16.4,0.8,20.6-10.6,21.6-18.9c0.6-0.1,1.1-0.2,1.3-0.3c1.5-0.6,2.9-1.8,3.8-3.2
					C1188.1,245.1,1188.5,243,1188,241.2z"/>
				<g>
					<g>
						<g>
							<g>
								<path class="st112" d="M1165.6,238.8c0,1.7,0.7,3.2,1.5,3.2c0.9,0,1.5-1.4,1.5-3.2c0-1.7-0.7-3.2-1.5-3.2
									C1166.3,235.6,1165.6,237,1165.6,238.8z"/>
							</g>
							<g>
								<path class="st112" d="M1155.3,238.8c0,1.7-0.7,3.2-1.5,3.2c-0.9,0-1.5-1.4-1.5-3.2c0-1.7,0.7-3.2,1.5-3.2
									C1154.6,235.6,1155.3,237,1155.3,238.8z"/>
							</g>
						</g>
					</g>
					<g>
						<g>
							<path class="st112" d="M1166.2,248.3c-0.5,1-1.3,1.9-2.3,2.6c-1,0.7-2.2,1.2-3.5,1.1c-1.2,0-2.5-0.5-3.4-1.2
								c-0.5-0.3-0.9-0.8-1.3-1.2c-0.4-0.5-0.7-0.9-1-1.4c0.5,0.3,0.9,0.7,1.3,1.1c0.5,0.3,0.9,0.7,1.4,0.9c1,0.5,2,0.8,3,0.9
								c1,0,2.1-0.3,3.1-0.8C1164.5,249.8,1165.4,249.1,1166.2,248.3z"/>
							<path class="st112" d="M1162.1,253.9c-0.4,0.4-1,0.5-1.6,0.6c-0.6,0-1.2-0.2-1.6-0.6c0.6,0.1,1.1,0.2,1.6,0.2
								C1161,254.1,1161.5,254,1162.1,253.9z"/>
						</g>
					</g>
					<g>
						<g>
							<path class="st112" d="M1156.6,227.8c-0.7-0.6-1.5-0.8-2.4-0.9c-0.8,0-1.7,0.1-2.5,0.4c-0.8,0.3-1.6,0.7-2.2,1.3
								c-0.7,0.5-1.1,1.3-1.5,2c-0.2,0.4-0.1,0.8,0.3,1c0.3,0.2,0.6,0.1,0.9-0.1l0.1-0.1c0.5-0.5,1-0.9,1.5-1.2
								c0.5-0.3,1.1-0.5,1.7-0.7c0.6-0.1,1.2-0.2,1.8-0.2c0.6,0,1.3,0.1,1.9-0.1l0.2,0c0.4-0.1,0.7-0.5,0.6-0.9
								C1156.8,228.1,1156.7,227.9,1156.6,227.8z"/>
							<path class="st112" d="M1164.3,227.8c0.7-0.6,1.5-0.8,2.4-0.9c0.8,0,1.7,0.1,2.5,0.4c0.8,0.3,1.6,0.7,2.2,1.3
								c0.7,0.5,1.1,1.3,1.5,2c0.2,0.4,0.1,0.8-0.3,1c-0.3,0.2-0.6,0.1-0.9-0.1l-0.1-0.1c-0.5-0.5-1-0.9-1.5-1.2
								c-0.5-0.3-1.1-0.5-1.7-0.7c-0.6-0.1-1.2-0.2-1.8-0.2c-0.6,0-1.3,0.1-1.9-0.1l-0.2,0c-0.4-0.1-0.7-0.5-0.6-0.9
								C1164.1,228.1,1164.2,227.9,1164.3,227.8z"/>
						</g>
					</g>
					<path class="st112" d="M1160.8,234c0.3,1.2,0.5,2.4,0.7,3.5c0.2,1.2,0.4,2.3,0.8,3.4c0.1,0.3,0.2,0.6,0.3,0.8
						c0.1,0.2,0.3,0.6,0.3,1c0,0.8-0.5,1.6-1.1,1.9c-0.7,0.4-1.4,0.3-2,0.1c-0.6-0.2-1.1-0.5-1.6-1c1.1,0.4,2.4,0.7,3.2,0.2
						c0.4-0.3,0.6-0.7,0.5-1.1c0-0.2-0.1-0.4-0.2-0.7c-0.1-0.3-0.2-0.6-0.3-0.9c-0.3-1.2-0.5-2.4-0.6-3.6
						C1160.6,236.4,1160.6,235.2,1160.8,234z"/>
					<path class="st112" d="M1133.4,242.9c0-0.7,0.2-1.5,0.8-2.1c0.7-0.6,1.6-0.5,2.4-0.2c0.8,0.3,1.4,0.8,1.9,1.4
						c0.5,0.6,0.9,1.3,1.2,2c0.1,0.3,0,0.6-0.3,0.7c-0.2,0.1-0.4,0-0.6-0.1l0,0c-0.5-0.5-1.2-1.1-1.8-1.3c-0.3-0.1-0.5-0.1-0.7,0.1
						c-0.2,0.2-0.4,0.5-0.5,0.8c-0.3,0.7-0.4,1.5,0.2,1.8c0.6,0.4,1.5,0.3,2.3,0.2c-0.8,0.3-1.6,0.6-2.6,0.3
						c-0.5-0.2-0.9-0.7-0.9-1.2c0-0.5,0-1,0.1-1.4c0.1-0.4,0.3-0.9,0.7-1.3c0.4-0.4,1.1-0.5,1.6-0.3c1,0.3,1.7,0.9,2.3,1.5l-0.9,0.5
						c-0.5-1.2-1.3-2.5-2.4-3c-0.6-0.3-1.3-0.4-1.8-0.1C1133.9,241.5,1133.6,242.2,1133.4,242.9z"/>
					<path class="st112" d="M1186.7,242.9c0-0.7-0.2-1.5-0.8-2.1c-0.7-0.6-1.6-0.5-2.4-0.2c-0.8,0.3-1.4,0.8-1.9,1.4
						c-0.5,0.6-0.9,1.3-1.2,2c-0.1,0.3,0,0.6,0.3,0.7c0.2,0.1,0.4,0,0.6-0.1l0,0c0.5-0.5,1.2-1.1,1.8-1.3c0.3-0.1,0.5-0.1,0.7,0.1
						c0.2,0.2,0.4,0.5,0.5,0.8c0.3,0.7,0.4,1.5-0.2,1.8c-0.6,0.4-1.5,0.3-2.3,0.2c0.8,0.3,1.6,0.6,2.6,0.3c0.5-0.2,0.9-0.7,0.9-1.2
						c0-0.5,0-1-0.1-1.4c-0.1-0.4-0.3-0.9-0.7-1.3c-0.4-0.4-1.1-0.5-1.6-0.3c-1,0.3-1.7,0.9-2.3,1.5l0.9,0.5c0.5-1.2,1.3-2.5,2.4-3
						c0.6-0.3,1.3-0.4,1.8-0.1C1186.2,241.5,1186.5,242.2,1186.7,242.9z"/>
				</g>
			</g>
			<g>
				<g>
					<path class="st2" d="M1175.5,247.7c0.9-1.9,2.1-3.7,3.3-5.4c1.2-1.7,2.5-3.4,4-4.9c-0.9,1.9-2.1,3.7-3.3,5.4
						C1178.2,244.5,1177,246.2,1175.5,247.7z"/>
					<path class="st2" d="M1175.1,260.7c0.9-0.7,1.7-1.4,2.4-2.2c0.7-0.8,1.4-1.7,1.9-2.6c0.5-0.9,1-1.9,1.4-2.9c0.4-1,0.7-2,1-3.1
						c0,0.6,0,1.1-0.1,1.7c-0.1,0.5-0.1,1.1-0.3,1.6c-0.3,1.1-0.7,2.1-1.3,3.1c-0.6,1-1.3,1.8-2.2,2.6
						C1177.1,259.7,1176.1,260.3,1175.1,260.7z"/>
				</g>
				<g>
					<path class="st2" d="M1144.2,247.7c-0.8-2-1.9-3.8-3-5.6c-1.1-1.8-2.3-3.5-3.7-5.1c0.8,2,1.9,3.8,3,5.6
						C1141.6,244.3,1142.8,246.1,1144.2,247.7z"/>
					<path class="st2" d="M1145.8,260.8c-0.9-0.7-2.1-1.5-2.9-2.3c-0.7-0.8-1.4-1.7-1.9-2.6c-0.5-0.9-1-1.9-1.4-2.9
						c-0.4-1-0.7-2-1-3.1c0,0.6,0,1.1,0.1,1.7c0.1,0.5,0.1,1.1,0.3,1.6c0.3,1.1,0.7,2.1,1.3,3.1c0.6,1,1.3,1.8,2.2,2.6
						C1143.3,259.7,1144.8,260.4,1145.8,260.8z"/>
				</g>
				<g>
					<path class="st122" d="M1175.9,247.4l-0.7,11.2l-0.1,2.2c0,0-15,19-29.5-0.1l-1.8-13.3c0,0,1.9-1.5,5.2-3
						C1154.8,241.9,1164.9,239.7,1175.9,247.4z"/>
					<path class="st123" d="M1175.2,258.6l-0.1,2.2c0,0-15,19-29.5-0.1l-1.8-13.3c0,0,1.9-1.5,5.2-3c-0.3,1.5-0.2,3.2,0.1,4.7
						c0.4,2,1.2,3.8,2.1,5.6c0.6,1.3,1.2,2.6,2.1,3.7c0.9,1.1,2,1.9,3.2,2.6c3,1.7,6.6,2.4,10,1.9
						C1169.8,262.5,1172.9,260.9,1175.2,258.6z"/>
					<g>
						<path class="st123" d="M1148.6,250.7c1.6-0.9,3.3-1.5,5.1-2c1.8-0.4,3.6-0.7,5.4-0.8c1.8-0.1,3.7,0.1,5.5,0.5
							c1.8,0.4,3.5,1.2,5,2.2c-1.8-0.3-3.5-0.5-5.2-0.6c-1.7-0.1-3.4-0.1-5.2-0.1c-1.7,0.1-3.5,0.2-5.2,0.3
							C1152.2,250.4,1150.4,250.6,1148.6,250.7z"/>
						<path class="st123" d="M1169.5,259.6c-1.6,0.9-3.3,1.5-5.1,2c-1.8,0.4-3.6,0.7-5.4,0.8c-1.8,0.1-3.7-0.1-5.5-0.5
							c-1.8-0.4-3.5-1.2-5-2.2c1.8,0.3,3.5,0.5,5.2,0.6c1.7,0.1,3.4,0.1,5.2,0.1c1.7-0.1,3.5-0.2,5.2-0.3
							C1166,259.9,1167.7,259.7,1169.5,259.6z"/>
						<path class="st123" d="M1150.1,255.2c1.5-0.3,3.1-0.5,4.6-0.6c1.5-0.1,3.1-0.1,4.6-0.2c1.5,0,3.1,0,4.6,0.2
							c1.5,0.1,3.1,0.3,4.6,0.6c-1.5,0.3-3.1,0.5-4.6,0.6c-1.5,0.1-3.1,0.1-4.6,0.2c-1.5,0-3.1,0-4.6-0.2
							C1153.2,255.7,1151.6,255.5,1150.1,255.2z"/>
					</g>
				</g>
			</g>
			<g>
				<path class="st112" d="M1181.5,219.3c-0.5-1.2-1.1-2.3-1.9-3.4c-0.7-0.9-1.6-1.7-2.5-2.4c-1-0.9-2.1-1.7-3.2-2.5
					c-6.4-4.3-14.9-5.3-22.1-2.5c-7.2,2.8-12.8,9.3-14.6,16.8c-0.4,1.8-0.6,3.6-0.8,5.4c-0.2,2.3-0.2,4.5,0.1,6.8
					c0.1,0,0.3,0,0.4,0.1c0.3,0.1,0.7,0.3,1.2,0.5c0.7,0.4,1.9,0.9,2.5,1.2c2.4-5.2,4.9-10.4,5.8-16.1c0.2-1.1,0.3-2.2,0.7-3.2
					s1.1-1.9,2.2-2.3c6.4,4.2,15.2,4.2,21.6,0.1c1.1,0.2,2,0.8,2.5,1.7c0.5,0.9,0.7,2,0.9,3.1c0.2,1.4,0.3,2.8,0.4,4.2
					c0.1,1.2,0.1,2.4,0.3,3.6c0.6,3.4,2.6,6.4,4.6,9.2c1-0.6,2-1.2,2.7-2.1c0.6-0.1,1.1-0.1,1.7,0
					C1184.8,231.4,1184,225.1,1181.5,219.3z"/>
				<g>
					<path class="st115" d="M1147,220.6c0-0.2,0.1-0.3,0.1-0.5c0.4-1,1.1-1.9,2.2-2.3c1.4,0.9,2.8,1.6,4.4,2.1c2-0.3,4-0.7,5.6-1
						c7.3-1.4,14.8-3.3,22-0.2c-0.4-1-0.9-1.9-1.6-2.7c-0.7-0.9-1.6-1.7-2.5-2.4c-0.6-0.5-1.3-1.1-2-1.6c-0.3-0.2-0.6-0.3-1-0.5
						c-6.4-3.1-12.8-0.7-19.6-0.8c-1.6,0-4-0.1-6.5-0.3c-3.7,2.3-6.8,5.6-8.8,9.5C1141.7,220.5,1144.4,220.6,1147,220.6z"/>
				</g>
			</g>
		</g>
	</g>
</g>
<g>
	<path class="st138" d="M734.5,78.1c-0.3,0.2-0.6,0.4-0.9,0.5c-0.3,0.1-0.7,0.2-1.3,0.2h-9.1l-9.6,0.3c-2.7,0.1-5.1,0.2-7.1,0.4
		s-3.5,0.4-4.4,0.5c-1.4,0.3-2.3,0.5-2.8,0.8c-0.5,0.2-0.9,0.4-1,0.4c-0.1,0-0.6-0.1-1.3-0.4c-0.7-0.3-1.5-0.7-2.3-1.1
		c-0.8-0.4-1.5-0.8-2.2-1.2c-0.6-0.4-1-0.8-1-1c0-0.1,0.1-0.2,0.4-0.3c0.3,0,0.4-0.1,0.5-0.1c0.1,0,0.2,0,0.3,0
		c0.1,0,0.3,0.1,0.7,0.1c0.3,0.1,0.8,0.1,1.3,0.2c0.5,0.1,1.1,0.1,1.8,0.2s1.3,0.1,2,0.1c0.2,0,0.4,0,0.6,0s0.4,0,0.6,0l9.1-0.3V71
		c0-0.4,0-0.7-0.1-1c0-0.3-0.2-0.6-0.5-0.8c-0.3-0.3-0.7-0.6-1.3-0.8c-0.6-0.3-1.4-0.6-2.5-1c0-0.3,0.3-0.5,0.8-0.6
		c0.5-0.2,1.2-0.2,1.9-0.2c0.5,0,1.1,0,1.7,0.1c1.5,0.2,2.6,0.3,3.4,0.4c0.8,0.1,1.3,0.3,1.7,0.4c0.3,0.1,0.5,0.3,0.5,0.4
		s0,0.4,0,0.6c0,0.4,0,0.7-0.1,1c0,0.3-0.1,0.5-0.1,0.8v6.9l5.9-0.1c1.6-0.1,2.9-0.2,3.8-0.4c0.9-0.2,1.6-0.5,2-0.7
		c0.5-0.2,0.8-0.5,1-0.7c0.2-0.2,0.4-0.3,0.5-0.3c2.1,0,3.9,0.1,5.2,0.3s2,0.8,2,1.8C734.9,77.5,734.8,77.9,734.5,78.1z M709.3,63.3
		c-1.2,0.2-2.1,0.4-2.8,0.6s-1.3,0.4-1.7,0.6c-0.4,0.2-0.7,0.4-0.9,0.5c-0.2,0.1-0.3,0.2-0.4,0.2c-0.2,0-0.6-0.1-1.2-0.4
		c-0.6-0.3-1.3-0.6-2-1c-0.7-0.4-1.4-0.7-1.9-1.1c-0.6-0.4-0.8-0.7-0.8-0.9c0-0.2,0.1-0.3,0.4-0.3c0.3,0,0.4-0.1,0.4-0.1
		c0,0,0,0,0.1,0.1c0.1,0,0.3,0.1,0.5,0.1c0.3,0,0.7,0.1,1.2,0.1c0.5,0,1.3,0,2.2,0c0.8,0,1.7,0,2.6-0.1l16.9-1.3
		c0.1-1.4,0.2-2.7,0.3-4c0-1.2,0.1-2.3,0.1-3.4l-12.1,0.3c-1.2,0-2.1,0.1-2.8,0.3s-1.3,0.4-1.7,0.6s-0.7,0.4-0.9,0.6
		c-0.2,0.2-0.3,0.2-0.4,0.2c-0.2,0-0.6-0.1-1.2-0.4c-0.6-0.3-1.3-0.6-2-1c-0.7-0.4-1.4-0.8-1.9-1.1c-0.6-0.4-0.8-0.7-0.8-1
		c0-0.2,0.1-0.3,0.4-0.3c0.3-0.1,0.4-0.1,0.4-0.1c0.1,0,0.2,0,0.2,0c0,0,0.2,0,0.5,0.1c0.3,0.1,0.7,0.1,1.1,0.2
		c0.5,0.1,1,0.1,1.6,0.2c0.6,0,1.3,0.1,1.9,0.1c0.2,0,0.4,0,0.6,0c0.2,0,0.4,0,0.6,0l14.6-0.5c0.7,0,1.3-0.1,1.6-0.3
		s0.6-0.3,0.7-0.5c0.1-0.2,0.2-0.3,0.3-0.5c0-0.1,0.2-0.2,0.4-0.2c2.2,0,3.8,0.1,4.9,0.3c1.1,0.2,1.7,0.8,1.7,1.7
		c0,0.2-0.1,0.3-0.2,0.5c-0.1,0.2-0.3,0.4-0.5,0.6c-0.2,0.2-0.4,0.4-0.5,0.6c-0.2,0.2-0.2,0.4-0.2,0.5c-0.4,3-1,5.9-1.8,8.8
		c-0.8,2.9-1.9,5.7-3.3,8.5c-0.6,1.1-1.3,1.7-2.2,1.7c-0.5,0-0.8-0.2-0.8-0.7c0,0,0-0.1,0-0.1c0,0,0-0.1,0-0.1
		c0.7-3.2,1.2-6.6,1.5-10L709.3,63.3z"/>
	<path class="st138" d="M778.3,78.9c-0.3,0.2-0.6,0.4-0.9,0.5c-0.4,0.1-0.8,0.2-1.3,0.2H767l-9.6,0.2c-3.4,0.1-6.2,0.3-8.2,0.5
		c-2,0.2-3.5,0.5-4.5,0.7c-1,0.2-1.7,0.4-2,0.6c-0.3,0.2-0.5,0.3-0.7,0.3c-0.2,0-0.7-0.2-1.4-0.5s-1.5-0.7-2.2-1.1
		c-0.8-0.4-1.5-0.8-2.1-1.3c-0.6-0.4-0.9-0.7-0.9-0.9c0-0.1,0-0.1,0.1-0.2c0.1-0.1,0.3-0.1,0.6-0.1c0.3,0,0.6,0,0.9,0.1
		c0.3,0.1,0.8,0.1,1.3,0.2c0.5,0.1,1.1,0.1,1.8,0.2c0.7,0.1,1.6,0.1,2.7,0.1h0.7l11.9-0.3V73c0-0.4,0-0.7,0-1c0-0.3-0.2-0.5-0.4-0.7
		s-0.6-0.4-1-0.6c-0.5-0.2-1.1-0.5-1.9-0.8l-3.2,0c-0.4,0-0.9-0.1-1.3-0.2c-0.4-0.1-0.9-0.2-1.2-0.4c-0.4-0.2-0.7-0.4-0.9-0.7
		c-0.2-0.3-0.4-0.6-0.4-1V61c-1-0.5-1.9-1-2.6-1.5c-0.7-0.5-1.1-0.8-1.1-1.1c0-0.1,0.1-0.2,0.4-0.3l0.4-0.1c-0.2,0,0.1,0.1,0.8,0.3
		c0.7,0.2,2.1,0.3,4.1,0.3c0.3,0,0.5,0,0.8,0c0.3,0,0.6,0,0.9,0l14.7-0.4l0.5-6.6l-6.5,0.2c-2.2,0.1-3.9,0.2-5.1,0.4
		c-1.2,0.2-2.1,0.4-2.7,0.6s-1,0.4-1.2,0.5c-0.2,0.1-0.4,0.2-0.5,0.2s-0.6-0.1-1.2-0.4c-0.6-0.3-1.3-0.6-2-1
		c-0.7-0.4-1.4-0.8-1.9-1.1c-0.6-0.4-0.8-0.7-0.8-1c0-0.2,0.1-0.3,0.3-0.3c0.2-0.1,0.3-0.1,0.4-0.1c0.2,0,0.4,0,0.7,0.1
		s0.6,0.1,1,0.2c0.4,0.1,0.9,0.1,1.5,0.2s1.3,0.1,2.2,0.1c0.2,0,0.4,0,0.6,0c0.2,0,0.4,0,0.7,0l12.5-0.3c0.7,0,1.2-0.1,1.5-0.2
		c0.3-0.2,0.6-0.3,0.8-0.5c0.2-0.2,0.3-0.4,0.3-0.5c0-0.1,0.1-0.2,0.2-0.2c2.5,0,4.2,0.1,5.1,0.4c1,0.2,1.4,0.8,1.4,1.7
		c0,0.2,0,0.4-0.1,0.5c-0.1,0.1-0.2,0.3-0.4,0.4c-0.1,0.1-0.3,0.3-0.5,0.5c-0.2,0.2-0.3,0.4-0.4,0.7l-2,4.7c1.8,0.1,2.7,0.6,2.7,1.5
		c0,0.8-0.7,1.2-2.2,1.2h-5.1l-5.9,0.2c-1.5,0.1-2.8,0.2-4,0.3c-1.2,0.1-2.2,0.3-3,0.4l0,6.6c0,0.1,0.1,0.2,0.2,0.3
		c0.1,0.1,0.3,0.2,0.5,0.2l7-0.1c1.7,0,2.9-0.2,3.8-0.4c0.9-0.2,1.6-0.5,2-0.7c0.4-0.3,0.8-0.5,0.9-0.7s0.3-0.3,0.5-0.3
		c2.3,0,4.1,0.1,5.4,0.3c1.3,0.2,1.9,0.8,1.9,1.7c0,1.2-1,1.8-2.9,1.8l-10.2,0c0.6,0.1,1,0.3,1.2,0.4c0.2,0.1,0.3,0.4,0.3,0.6
		c0,0.2,0,0.5-0.1,0.8c-0.1,0.3-0.1,0.7-0.1,1.2v5.3l3.2-0.1c1.6,0,2.8-0.2,3.7-0.4c0.9-0.2,1.6-0.4,2-0.7c0.5-0.2,0.8-0.5,1-0.7
		c0.2-0.2,0.4-0.3,0.5-0.3c2.1,0,3.9,0.1,5.2,0.3s2,0.8,2,1.7C778.7,78.3,778.5,78.6,778.3,78.9z"/>
	<path class="st138" d="M788.8,78.1c-0.4,0-0.7,0-1.1-0.1c-0.3-0.1-0.7-0.3-0.9-0.8c-0.3-0.4-0.5-1.1-0.7-2.1
		c-0.2-0.9-0.3-2.3-0.3-4V55c0-0.4,0-0.7-0.1-1c0-0.3-0.2-0.5-0.5-0.7c-0.3-0.2-0.8-0.5-1.5-0.8c-0.7-0.3-1.7-0.7-3-1.1
		c0-0.3,0.3-0.5,0.9-0.6s1.4-0.2,2.5-0.2c0.3,0,0.5,0,0.8,0c0.3,0,0.6,0,0.9,0.1l0.6,0.1c1.2,0.2,2.2,0.3,2.9,0.4
		c0.7,0.1,1.2,0.2,1.5,0.3c0.3,0.1,0.5,0.3,0.6,0.4c0,0.2,0.1,0.4,0.1,0.6c0,0.4,0,0.7-0.1,1c0,0.3-0.1,0.6-0.1,0.8l0,18.8
		c0,0.1,0.1,0.3,0.2,0.4s0.3,0.2,0.5,0.2c3.9,0,9.4-1.1,16.5-3.4l1.1-0.3V50c0-0.4,0-0.7-0.1-1c-0.1-0.3-0.3-0.6-0.7-1
		c-0.4-0.3-0.9-0.7-1.6-1.2c-0.7-0.4-1.7-1-3-1.6c0-0.2,0.2-0.4,0.6-0.5c0.4-0.1,1-0.2,1.6-0.2c0.5,0,1,0,1.5,0.1
		c0.5,0,1.1,0.2,1.7,0.3c1.2,0.3,2.1,0.6,2.9,0.8c0.8,0.2,1.4,0.4,1.8,0.6s0.8,0.4,0.9,0.5c0.2,0.2,0.3,0.3,0.3,0.5
		c0,0.1-0.1,0.4-0.2,1c-0.2,0.6-0.2,1.1-0.2,1.5v14.6c0.7-0.1,1.2-0.2,1.5-0.4c0.3-0.2,0.6-0.4,0.7-0.6c0.1-0.2,0.3-0.4,0.3-0.5
		c0.1-0.2,0.2-0.2,0.4-0.2c1.8,0,3,0.1,3.9,0.4c0.8,0.3,1.2,0.9,1.2,1.8c0,0.4-0.2,0.6-0.5,0.8c-0.3,0.2-0.7,0.3-1,0.4
		c-0.4,0.1-0.9,0.2-1.4,0.2h-5.1v9.9l-0.1,2.7c-0.1,0.9-0.2,1.8-0.4,2.7c-0.2,0.9-0.4,1.8-0.7,2.7c-0.3,0.8-0.6,1.5-1,2
		c-0.4,0.5-0.8,0.8-1.3,0.8c-1.2,0-1.8-3.6-1.8-10.9v-5.6c-0.1,0-0.2,0.1-0.3,0.2C800.9,75.7,794.1,78.1,788.8,78.1z"/>
	<path class="st138" d="M830.8,79.6c-0.5,0-0.8-0.3-1-1c-0.2-0.7-0.4-1.4-0.5-2.2c-0.1-0.9-0.2-2-0.2-3.2V57.6c0-0.4,0-0.7-0.1-1
		c0-0.3-0.2-0.6-0.6-0.9c-0.3-0.3-0.8-0.6-1.5-1c-0.7-0.3-1.7-0.7-2.9-1.1c0-0.3,0.3-0.5,0.8-0.6c0.5-0.2,1.3-0.2,2.2-0.2
		c0.6,0,1.3,0,2.1,0.1c1.2,0.2,2.1,0.3,2.9,0.4s1.3,0.2,1.7,0.3s0.7,0.3,0.8,0.4c0.1,0.2,0.2,0.4,0.2,0.8c0,0.3,0,0.6,0,0.9
		c-0.1,0.3-0.1,0.7-0.1,1.1v3h7.7v-5.6c0-0.4,0-0.8-0.1-1.1c-0.1-0.3-0.2-0.6-0.5-0.9c-0.3-0.3-0.7-0.6-1.3-0.9
		c-0.6-0.3-1.4-0.7-2.4-1.1c0-0.2,0.2-0.4,0.6-0.5c0.4-0.1,0.9-0.2,1.5-0.2c0.3,0,0.7,0,1.1,0c0.4,0,0.8,0.1,1.2,0.1
		c2.2,0.4,3.6,0.7,4.3,1c0.7,0.3,1.1,0.6,1.1,0.9c0,0.2,0,0.5-0.1,1c-0.1,0.5-0.1,1-0.1,1.4v13.9l-0.1,2.6c0,0.8-0.1,1.6-0.3,2.5
		c-0.1,0.9-0.4,1.7-0.6,2.5c-0.3,0.8-0.6,1.4-1,1.9c-0.4,0.5-0.8,0.8-1.3,0.8c-0.9,0-1.5-1.2-1.7-3.6l-8,0.2
		C833.5,78.1,832.4,79.6,830.8,79.6z M834.4,73h7.7V61.9h-7.7V73z M858.8,78.9c-0.1,0.9-0.2,1.8-0.4,2.7c-0.2,0.9-0.4,1.8-0.7,2.7
		c-0.3,0.8-0.6,1.5-1,2c-0.4,0.5-0.8,0.8-1.3,0.8c-1.2,0-1.8-3.6-1.8-10.9V50c0-0.4,0-0.7-0.1-1c-0.1-0.3-0.3-0.6-0.7-1
		c-0.4-0.3-0.9-0.7-1.6-1.2c-0.7-0.4-1.7-1-3-1.6c0-0.2,0.2-0.4,0.6-0.5c0.4-0.1,1-0.2,1.6-0.2c0.5,0,1,0,1.5,0.1
		c0.5,0,1.1,0.2,1.7,0.3c1.2,0.3,2.1,0.6,2.9,0.8c0.8,0.2,1.4,0.4,1.8,0.6s0.8,0.4,0.9,0.5c0.2,0.2,0.3,0.3,0.3,0.5
		c0,0.1-0.1,0.4-0.2,1c-0.2,0.6-0.2,1.1-0.2,1.5v14.5c0.4-0.1,0.8-0.2,1.2-0.4c0.3-0.2,0.6-0.4,0.9-0.5c0.2-0.2,0.4-0.3,0.6-0.5
		c0.1-0.1,0.2-0.2,0.3-0.2c1.8,0,3,0.1,3.9,0.4c0.8,0.3,1.2,0.9,1.2,1.8c0,0.4-0.2,0.6-0.5,0.8c-0.3,0.2-0.7,0.3-1,0.4
		c-0.4,0.1-0.9,0.2-1.4,0.2h-5.1v9.9L858.8,78.9z"/>
	<path class="st138" d="M884.3,52.7c1.3,0.7,2.5,1.6,3.5,2.7c1,1.1,1.7,2.4,2.3,3.9c0.6,1.4,0.8,3,0.8,4.6c0,1.6-0.3,3.1-0.8,4.5
		c-0.5,1.5-1.3,2.8-2.3,3.9c-1,1.1-2.1,2-3.5,2.7c-1.3,0.7-2.8,1-4.4,1c-1.6,0-3.1-0.3-4.4-1c-1.3-0.7-2.5-1.5-3.5-2.7
		c-1-1.1-1.7-2.4-2.3-3.9c-0.5-1.5-0.8-3-0.8-4.6c0-1.6,0.3-3.2,0.8-4.6c0.6-1.5,1.3-2.7,2.3-3.9c1-1.1,2.2-2,3.5-2.6s2.8-1,4.3-1
		C881.6,51.7,883,52,884.3,52.7z M885.3,60.6c-0.2-1.1-0.5-2.2-0.9-3.2c-0.4-1-1-1.8-1.7-2.5s-1.6-1-2.6-1c-1.1,0-2,0.3-2.7,1
		c-0.7,0.7-1.3,1.5-1.7,2.5c-0.4,1-0.7,2.1-0.9,3.2s-0.2,2.2-0.2,3.2c0,0.9,0.1,1.8,0.2,3s0.5,2.1,0.9,3.1c0.4,1,1,1.8,1.7,2.4
		s1.6,1,2.7,1c1.1,0,1.9-0.3,2.7-1s1.3-1.5,1.7-2.4c0.4-1,0.7-2,0.9-3.1s0.2-2.1,0.2-3C885.5,62.8,885.4,61.8,885.3,60.6z
		 M903.1,78.9c-0.1,0.9-0.2,1.8-0.4,2.7c-0.2,1-0.4,1.8-0.7,2.7c-0.3,0.8-0.6,1.5-1,2c-0.4,0.5-0.8,0.8-1.3,0.8
		c-1.2,0-1.8-3.7-1.8-11V49.9c0-0.4,0-0.7-0.1-1c-0.1-0.3-0.3-0.6-0.7-1c-0.4-0.3-0.9-0.7-1.6-1.2c-0.7-0.4-1.7-1-3-1.6
		c0-0.2,0.2-0.4,0.6-0.5c0.4-0.1,1-0.2,1.6-0.2c0.5,0,1,0,1.5,0.1s1.1,0.2,1.7,0.3c1.2,0.3,2.2,0.6,3,0.8c0.8,0.2,1.4,0.4,1.8,0.6
		c0.4,0.2,0.7,0.4,0.9,0.6s0.2,0.4,0.2,0.6c0,0.3-0.1,0.6-0.2,1s-0.2,0.9-0.2,1.4v26.3L903.1,78.9z"/>
	<path class="st138" d="M919.4,79.6c-0.4,0-0.8-0.1-1.1-0.2c-0.4-0.1-0.7-0.4-0.9-0.9c-0.3-0.5-0.5-1.2-0.6-2.1
		c-0.1-0.9-0.2-2.2-0.2-3.9v-8c-0.4-0.2-0.9-0.4-1.3-0.7c-0.4-0.3-0.8-0.5-1.2-0.8c-0.3-0.2-0.6-0.5-0.9-0.7
		c-0.2-0.2-0.3-0.4-0.3-0.6c0-0.1,0-0.1,0.1-0.2s0.2-0.1,0.5-0.1c0.2,0,0.5,0,0.8,0.1c0.3,0.1,0.6,0.1,1.1,0.2
		c0.4,0.1,1,0.2,1.7,0.2s1.5,0.1,2.6,0.1h0.7l6.5-0.2l0.8-9.2l-2.2,0c-1.3,0-2.2,0.1-2.9,0.3c-0.7,0.2-1.2,0.4-1.6,0.6
		c-0.4,0.2-0.6,0.4-0.8,0.5s-0.3,0.2-0.5,0.2c-0.1,0-0.5-0.1-1.1-0.4c-0.6-0.3-1.3-0.6-2-1c-0.7-0.4-1.4-0.8-1.9-1.1
		c-0.6-0.4-0.8-0.7-0.8-1c0-0.1,0.1-0.2,0.2-0.3c0.1-0.1,0.3-0.1,0.4-0.1c0.2,0,0.4,0,0.6,0.1c0.2,0.1,0.6,0.1,1,0.2
		c0.4,0.1,1,0.2,1.6,0.2c0.6,0.1,1.4,0.1,2.4,0.1c0.2,0,0.3,0,0.5,0s0.4,0,0.6,0l4.4-0.1c0.7,0,1.3-0.1,1.6-0.3
		c0.3-0.2,0.5-0.3,0.6-0.5c0.1-0.2,0.2-0.3,0.3-0.5c0.1-0.1,0.2-0.2,0.4-0.2h0.6c2,0,3.5,0.1,4.5,0.3c1,0.2,1.5,0.8,1.5,1.7
		c0,0.2-0.1,0.4-0.2,0.6c-0.1,0.2-0.3,0.4-0.4,0.6c-0.2,0.2-0.3,0.4-0.5,0.5c-0.2,0.2-0.3,0.3-0.3,0.5l-2.3,7.2
		c1.5,0.2,2.3,0.8,2.3,1.7c0,0.2-0.1,0.4-0.2,0.6c0.2,0,0.4,0,0.8,0c0.1,0,0.3,0,0.4,0c0.1,0,0.3,0,0.5,0l6.8-0.5V49.9
		c0-0.4,0-0.7-0.1-1c-0.1-0.3-0.3-0.6-0.7-1c-0.4-0.3-0.9-0.7-1.6-1.2c-0.7-0.4-1.7-1-3-1.6c0-0.2,0.2-0.4,0.6-0.5
		c0.4-0.1,1-0.2,1.6-0.2c0.5,0,1,0,1.5,0.1s1.1,0.2,1.7,0.3c1.2,0.3,2.2,0.6,3,0.8c0.8,0.2,1.4,0.4,1.8,0.6c0.4,0.2,0.7,0.4,0.9,0.6
		s0.2,0.4,0.2,0.6c0,0.3-0.1,0.6-0.2,1s-0.2,0.9-0.2,1.4v26.3l-0.2,2.7c-0.1,0.9-0.2,1.8-0.4,2.7c-0.2,1-0.4,1.8-0.7,2.7
		c-0.3,0.8-0.6,1.5-1,2c-0.4,0.5-0.8,0.8-1.3,0.8c-1.2,0-1.8-3.7-1.8-11V64.5l-3.1,0.3c-0.8,0.1-1.5,0.3-2,0.6
		c-0.5,0.3-0.8,0.5-1,0.5c-0.1,0-0.4-0.1-0.8-0.2c-0.4-0.2-0.9-0.4-1.3-0.6c-0.5-0.2-1-0.5-1.4-0.8c-0.5-0.3-0.8-0.5-1.1-0.7l-6.3,0
		c-0.6,0-1.1,0-1.5,0.1c-0.4,0.1-0.8,0.1-1,0.1l0,10.5c0,0.1,0.1,0.3,0.2,0.4c0.1,0.1,0.3,0.2,0.5,0.2c1.5,0,3.4-0.2,5.8-0.8
		s5.2-1.5,8.5-2.6c0.6-0.2,1-0.3,1.3-0.3c0.2,0,0.3,0.1,0.3,0.2c0,0.2-0.3,0.5-0.9,0.8C929.2,77.2,923.1,79.6,919.4,79.6z"/>
	<path class="st138" d="M997.1,77.4c-0.3,0.2-0.6,0.4-0.9,0.5c-0.3,0.1-0.7,0.2-1.3,0.2h-9.1l-9.6,0.3c-3.3,0.1-5.9,0.3-7.9,0.5
		c-1.9,0.2-3.4,0.5-4.5,0.7c-1,0.2-1.8,0.5-2.1,0.6c-0.4,0.2-0.7,0.3-0.8,0.3c-0.1,0-0.6-0.1-1.3-0.4c-0.7-0.3-1.5-0.7-2.3-1.1
		c-0.8-0.4-1.5-0.8-2.2-1.3c-0.6-0.4-1-0.8-1-1c0-0.1,0.1-0.2,0.4-0.3c0.3,0,0.4-0.1,0.5-0.1c0.1,0,0.2,0,0.3,0
		c0.1,0,0.3,0.1,0.7,0.1c0.3,0.1,0.8,0.1,1.3,0.2c0.5,0.1,1.1,0.1,1.8,0.2c0.7,0,1.3,0.1,2,0.1c0.2,0,0.4,0,0.6,0s0.4,0,0.6,0
		l20.5-0.6c1.6,0,2.8-0.2,3.7-0.4c0.9-0.2,1.6-0.5,2.1-0.7c0.5-0.3,0.8-0.5,1-0.7c0.2-0.2,0.4-0.3,0.5-0.3c2.1,0,3.9,0.1,5.2,0.3
		s2,0.8,2,1.8C997.5,76.8,997.4,77.2,997.1,77.4z M978.6,55.9c-0.5,0.8-1.1,1.6-1.8,2.3c2.1,0.3,4.1,0.7,6.1,1.1
		c2,0.4,3.8,1,5.3,1.6c1.6,0.6,2.8,1.4,3.8,2.3c0.9,0.9,1.4,1.9,1.4,3c0,0.7-0.3,1.2-0.8,1.5s-1.1,0.5-1.7,0.5
		c-1.5,0-3.2-0.8-5.2-2.4c-0.6-0.5-1.3-1.1-1.9-1.7s-1.3-1.3-2-2c-0.7-0.7-1.5-1.3-2.4-1.9c-0.9-0.6-1.9-1.2-3.1-1.7
		c-4.2,4.6-10.1,7.7-17.7,9.5c-0.5,0.1-0.9,0.2-1.2,0.2c-0.3,0-0.5-0.1-0.5-0.2c0-0.2,0.3-0.4,1-0.7c2.2-1,4.2-2.1,5.9-3.3
		c1.7-1.2,3.2-2.4,4.4-3.6c1.2-1.2,2.2-2.3,3-3.3c0.8-1,1.4-1.9,1.7-2.6l0.8-1.4c0.3-0.4,0.4-0.8,0.4-1.2c0-0.4-0.2-0.8-0.7-1.3
		c-0.5-0.5-1.5-1.2-3-2.2c0-0.4,0.7-0.6,2-0.6c1.1,0,2.1,0.2,3,0.5c1.1,0.4,2,0.7,2.8,1s1.3,0.5,1.7,0.7c0.4,0.2,0.7,0.4,0.8,0.6
		c0.1,0.2,0.2,0.4,0.2,0.6c0,0.2-0.1,0.5-0.3,0.9c-0.2,0.4-0.5,0.8-0.7,1.2C979.6,54.4,979.1,55.2,978.6,55.9z"/>
	<path class="st138" d="M1016.4,69.3c-0.4,0-0.7-0.2-0.9-0.5c-0.2-0.4-0.4-0.8-0.5-1.3c-0.1-0.5-0.2-1-0.3-1.5c0-0.5-0.1-0.8-0.1-1
		v-0.4v-9.9c0-0.3,0-0.7-0.1-1c0-0.3-0.2-0.6-0.6-0.9c-0.3-0.3-0.8-0.6-1.5-1c-0.7-0.3-1.7-0.7-3-1.1c0-0.3,0.3-0.5,0.9-0.6
		s1.4-0.2,2.3-0.2c0.6,0,1.2,0,1.9,0.1c1.1,0.2,2,0.4,2.7,0.5c0.7,0.1,1.2,0.3,1.6,0.4c0.4,0.1,0.6,0.3,0.7,0.5s0.2,0.4,0.2,0.7
		c0,0.2,0,0.5,0,0.9c0,0.4,0,0.8,0,1v1.2h8.8v-2.7v-0.4c0-0.3,0-0.6-0.1-0.8c-0.1-0.2-0.3-0.5-0.6-0.7c-0.3-0.2-0.7-0.5-1.3-0.8
		c-0.6-0.3-1.4-0.7-2.4-1.1c0-0.5,0.6-0.7,1.7-0.7c0.4,0,0.8,0,1.2,0.1s0.9,0.1,1.5,0.2c2.1,0.4,3.6,0.7,4.3,0.9
		c0.7,0.3,1.1,0.6,1.1,0.9c0,0.2,0,0.5-0.1,1.1s-0.1,1-0.1,1.4v7.8l-0.1,1.8c0,0.6-0.1,1.2-0.3,1.8c-0.1,0.6-0.4,1.2-0.6,1.8
		c-0.3,0.5-0.6,1-1,1.4c-0.4,0.4-0.8,0.5-1.3,0.5c-0.7,0-1.3-0.5-1.6-1.4l-9.3,0.2C1018.9,68.3,1017.9,69.3,1016.4,69.3z
		 M1019.7,64.2h8.8v-7.1h-8.8V64.2z M1043.9,81.5c-0.6,1-1.5,1.9-2.6,2.7c-1.1,0.7-2.3,1.3-3.6,1.7c-1.4,0.4-2.8,0.6-4.2,0.6
		c-1.4,0-2.8-0.2-4.1-0.6c-1.4-0.4-2.6-1-3.7-1.7c-1.1-0.7-1.9-1.6-2.6-2.6c-0.6-1-1-2.2-1-3.4c0-1.3,0.3-2.5,1-3.5s1.5-1.9,2.6-2.6
		c1.1-0.7,2.3-1.3,3.7-1.7c1.4-0.4,2.7-0.6,4.1-0.6c1.4,0,2.8,0.2,4.2,0.6c1.4,0.4,2.6,1,3.6,1.7c1,0.7,1.9,1.6,2.5,2.6s1,2.2,1,3.5
		C1044.9,79.3,1044.6,80.5,1043.9,81.5z M1038.9,75.7c-0.3-0.8-0.7-1.5-1.3-2.1c-0.5-0.6-1.2-1.1-1.9-1.5c-0.7-0.4-1.5-0.6-2.3-0.6
		c-0.8,0-1.6,0.2-2.3,0.6c-0.7,0.4-1.3,0.9-1.9,1.5c-0.5,0.6-0.9,1.3-1.2,2.1c-0.3,0.8-0.4,1.6-0.4,2.4c0,0.8,0.2,1.5,0.5,2.3
		s0.7,1.4,1.3,2c0.5,0.6,1.2,1.1,1.9,1.4c0.7,0.4,1.4,0.5,2.2,0.5s1.5-0.2,2.2-0.5s1.3-0.8,1.9-1.4c0.5-0.6,1-1.2,1.3-2
		c0.3-0.7,0.5-1.5,0.5-2.3C1039.4,77.3,1039.2,76.5,1038.9,75.7z M1045.1,63.2c-0.1,1-0.3,2-0.5,3c-0.2,1-0.6,1.8-1,2.5
		c-0.4,0.7-0.9,1-1.6,1c-0.4,0-0.8-0.3-1-0.8c-0.3-0.5-0.5-1.4-0.6-2.5l-0.2-3.1V50c0-0.3,0-0.7-0.1-1c0-0.3-0.2-0.7-0.5-1
		c-0.3-0.4-0.8-0.8-1.5-1.2c-0.7-0.4-1.7-1-2.9-1.6c0-0.5,0.8-0.7,2.4-0.7c0.4,0,0.9,0,1.3,0.1c0.4,0.1,0.9,0.1,1.4,0.2
		c2.2,0.5,3.6,0.9,4.5,1.2c0.8,0.3,1.2,0.6,1.2,0.9c-0.1,0.3-0.2,0.5-0.3,0.8c-0.2,0.6-0.2,1.2-0.2,1.8v9c0.4-0.1,0.8-0.2,1.1-0.4
		c0.3-0.2,0.6-0.4,0.9-0.6c0.2-0.2,0.4-0.4,0.6-0.5c0.1-0.1,0.3-0.2,0.3-0.2c0.6,0,1.2,0,1.8,0c0.6,0,1.2,0.1,1.7,0.2
		c0.5,0.1,0.9,0.3,1.2,0.6c0.3,0.3,0.5,0.7,0.5,1.3c0,1-1,1.5-2.9,1.5l-5.1,0C1045.2,61.3,1045.2,62.2,1045.1,63.2z"/>
	<path class="st138" d="M1072.9,66.2c-1.7,0.8-3.5,1.2-5.4,1.2c-1.5,0-2.9-0.2-4.2-0.7c-1.3-0.5-2.5-1.1-3.5-1.9
		c-1-0.8-1.8-1.8-2.4-3c-0.6-1.2-0.9-2.5-0.9-3.9c0-1.4,0.3-2.7,0.9-3.9c0.6-1.2,1.4-2.2,2.4-3c1-0.8,2.2-1.5,3.5-1.9
		c1.3-0.5,2.7-0.7,4.1-0.7c1,0,2,0.1,3.1,0.4c1,0.3,1.9,0.6,2.8,1.1c0.9,0.5,1.6,1,2.3,1.7s1.3,1.4,1.7,2.2c0.2,0,0.4,0.1,0.5,0.1
		c0.2,0,0.3,0,0.5,0c0.1,0,0.1,0,0.2,0c0,0,0.1,0,0.2,0l5.8-0.3V50c0-0.3,0-0.7-0.1-1s-0.2-0.7-0.6-1s-0.8-0.8-1.5-1.2
		c-0.7-0.4-1.7-1-3-1.6c0-0.5,0.8-0.7,2.5-0.7c0.4,0,0.9,0,1.3,0.1c0.4,0.1,0.9,0.1,1.3,0.2c2.2,0.5,3.6,0.9,4.5,1.2
		c0.8,0.3,1.2,0.6,1.2,0.9c-0.1,0.3-0.2,0.5-0.3,0.8c-0.2,0.6-0.2,1.2-0.2,1.8v9.8l-0.1,2.6c0,0.8-0.1,1.6-0.3,2.5
		c-0.1,0.9-0.4,1.7-0.6,2.5c-0.3,0.8-0.6,1.4-1,1.9c-0.4,0.5-0.8,0.8-1.3,0.8c-1.1,0-1.7-2.4-1.8-7.2l-2.2,0.2
		c-1.2,0.1-2,0.3-2.6,0.6c-0.6,0.3-0.9,0.4-1,0.4c-0.4,0-1-0.3-1.9-0.9C1075.9,64.3,1074.6,65.4,1072.9,66.2z M1088.8,73
		c-0.4,0.4-0.5,0.8-0.5,1.2v5l-0.2,2c-0.1,0.6-0.2,1.2-0.4,1.9c-0.2,0.7-0.4,1.3-0.7,1.9c-0.3,0.6-0.6,1.1-1,1.5
		c-0.4,0.4-0.8,0.6-1.3,0.6c-1.2,0-1.8-2.7-1.8-8v-6.5l-10.6,0.3c-1.2,0-2.2,0.1-2.9,0.3c-0.7,0.2-1.3,0.4-1.7,0.6
		c-0.4,0.2-0.7,0.4-0.9,0.6c-0.2,0.2-0.3,0.2-0.4,0.2s-0.5-0.1-1.1-0.4c-0.6-0.3-1.3-0.6-2-1s-1.4-0.8-1.9-1.1
		c-0.6-0.4-0.8-0.7-0.8-1c0-0.1,0.1-0.2,0.4-0.3c0.3-0.1,0.4-0.1,0.4-0.1c0.1,0,0.1,0,0.1,0c0,0,0.2,0,0.5,0.1
		c0.3,0.1,0.7,0.1,1.1,0.2c0.5,0.1,1,0.1,1.6,0.2c0.6,0,1.2,0.1,1.9,0.1c0.2,0,0.4,0,0.6,0c0.2,0,0.4,0,0.6,0l12.2-0.4
		c0.6,0,1.1-0.1,1.5-0.3c0.3-0.1,0.6-0.3,0.8-0.5s0.3-0.3,0.4-0.4c0.1-0.1,0.1-0.2,0.2-0.2c2.1,0,3.7,0.1,4.9,0.4
		c1.2,0.3,1.7,0.9,1.7,1.9C1089.4,72.2,1089.2,72.6,1088.8,73z M1072.5,55.2c-0.3-0.9-0.6-1.7-1.1-2.4c-0.5-0.7-1.1-1.3-1.8-1.7
		c-0.7-0.4-1.5-0.6-2.3-0.6c-0.9,0-1.6,0.2-2.3,0.6c-0.7,0.4-1.3,1-1.7,1.6c-0.5,0.7-0.8,1.4-1,2.3c-0.2,0.9-0.3,1.8-0.3,2.7
		c0,1,0.1,1.9,0.4,2.7c0.2,0.8,0.6,1.6,1.1,2.2c0.5,0.6,1.1,1.2,1.7,1.5c0.7,0.4,1.4,0.5,2.3,0.5c0.8,0,1.5-0.2,2.2-0.6
		c0.7-0.4,1.3-0.9,1.7-1.6c0.5-0.6,0.9-1.4,1.1-2.2c0.3-0.8,0.4-1.7,0.4-2.6C1072.9,57,1072.8,56.1,1072.5,55.2z M1077.8,61.2
		c0.1,0,0.3,0,0.5,0c0.2,0,0.4,0,0.5,0l5.8-0.2v-5.8l-2.2,0.2c-1.2,0.1-2,0.3-2.6,0.6c-0.6,0.3-0.9,0.4-1,0.4c-0.1,0-0.3,0-0.5-0.1
		c0.1,0.5,0.1,1,0.1,1.6C1078.4,59.2,1078.2,60.3,1077.8,61.2z"/>
	<path class="st138" d="M1121.7,78.9c0,0.9-0.1,1.8-0.3,2.7c-0.2,0.9-0.4,1.8-0.7,2.7c-0.3,0.8-0.7,1.5-1.1,2
		c-0.4,0.5-0.9,0.8-1.5,0.8c-0.7,0-1.1-0.5-1.3-1.4c-0.2-1-0.3-2.6-0.5-4.9v-4.2v-6.5c-2,0.1-3.6,0.2-4.9,0.3
		c-1.3,0.1-2.5,0.3-3.4,0.4s-1.6,0.3-2.1,0.4c-0.5,0.1-0.9,0.3-1.2,0.4c-0.3,0.1-0.5,0.2-0.7,0.3c-0.2,0.1-0.4,0.1-0.5,0.1
		c-0.2,0-0.7-0.2-1.4-0.5c-0.7-0.3-1.5-0.7-2.2-1.1c-0.8-0.4-1.5-0.8-2.1-1.3s-0.9-0.7-0.9-0.9c0-0.1,0.1-0.2,0.2-0.3
		c0.2-0.1,0.3-0.1,0.5-0.1c0.4,0,1.1,0.1,2.1,0.3c0.9,0.2,2.3,0.3,4.2,0.3c0.2,0,0.3,0,0.5,0c0.2,0,0.4,0,0.6,0l20.6-0.6
		c1.7,0,2.9-0.2,3.9-0.4c0.9-0.2,1.6-0.5,2-0.7c0.4-0.3,0.7-0.5,0.9-0.7c0.1-0.2,0.3-0.3,0.5-0.3c1,0,2,0,2.9,0
		c0.9,0,1.7,0.1,2.4,0.3s1.3,0.4,1.7,0.7c0.4,0.3,0.6,0.7,0.6,1.3c0,0.4-0.1,0.7-0.4,0.9c-0.3,0.2-0.6,0.4-0.9,0.5
		c-0.3,0.1-0.7,0.2-1,0.2s-0.5,0-0.6,0l-9.1,0.2h-6.7v6.2L1121.7,78.9z M1119.9,55.7c2.1,0,4.1,0.1,5.9,0.4c1.8,0.3,3.6,0.6,5.2,1.1
		c0.5,0.2,0.9,0.4,1.4,0.7c0.5,0.3,1,0.6,1.4,1c0.4,0.4,0.8,0.8,1,1.2c0.3,0.4,0.4,0.8,0.4,1.2c0,0.7-0.3,1.2-0.8,1.6
		c-0.5,0.3-1.1,0.5-1.7,0.5s-1.3-0.1-2.1-0.4c-0.8-0.3-1.7-0.7-2.6-1.3c-0.6-0.4-1.3-0.9-1.9-1.4c-0.6-0.5-1.3-1-2-1.5
		c-0.7-0.5-1.4-1-2.2-1.4c-0.8-0.4-1.7-0.8-2.7-1.1c-4.4,3.7-10.4,6.2-17.9,7.5c-0.3,0.1-0.5,0.1-0.7,0.1c-0.2,0-0.4,0-0.5,0
		c-0.4,0-0.5,0-0.5-0.1c0-0.1,0.3-0.3,1-0.6s1.4-0.7,2.3-1.1c0.9-0.4,1.9-0.9,2.8-1.4c1-0.5,1.8-1,2.5-1.5c1.8-1.2,3.3-2.3,4.4-3.2
		c1.1-0.9,1.9-1.7,2.5-2.3c0.6-0.6,1-1.2,1.1-1.6c0.2-0.4,0.2-0.7,0.2-0.9c0-0.4-0.2-0.8-0.7-1.2c-0.5-0.5-1.4-1.2-2.7-2.1
		c0-0.4,0.7-0.6,2-0.6c0.5,0,1,0,1.5,0.1c0.5,0.1,1,0.2,1.5,0.4c2.2,0.7,3.8,1.3,4.6,1.7s1.3,0.8,1.3,1c0,0.5-0.5,1.3-1.4,2.3
		C1121.7,53.9,1120.8,54.8,1119.9,55.7z"/>
	<path class="st138" d="M1158.5,57.7c-0.4,0.8-0.7,1.5-1.1,2c2.2,0.5,4,1,5.4,1.6s2.5,1.1,3.3,1.7s1.3,1.2,1.6,1.8
		c0.3,0.6,0.4,1.2,0.4,1.8c0,0.6-0.2,1.1-0.6,1.5c-0.4,0.4-0.9,0.6-1.5,0.6c-0.3,0-0.5,0-0.8-0.1c-0.9-0.3-1.7-0.8-2.2-1.5
		c-0.6-0.6-1.1-1.4-1.6-2.2c-0.5-0.8-1.1-1.6-1.7-2.5c-0.6-0.8-1.5-1.6-2.5-2.3c-3.1,4.8-7.6,8.2-13.5,10.2
		c-0.7,0.2-1.1,0.3-1.4,0.3c-0.2,0-0.3,0-0.3-0.1c0-0.2,0.3-0.5,0.9-0.9c5.4-3.7,9.1-8.6,11.1-14.8c-0.9,0.1-1.6,0.2-2.1,0.3
		c-0.5,0.2-1,0.3-1.3,0.5c-0.3,0.2-0.6,0.3-0.7,0.5s-0.3,0.2-0.4,0.2c-0.1,0-0.5-0.1-1.1-0.4c-0.6-0.3-1.3-0.6-2-1
		c-0.7-0.4-1.4-0.8-1.9-1.1c-0.6-0.4-0.8-0.7-0.8-1c0-0.1,0.1-0.2,0.2-0.3c0.1-0.1,0.3-0.1,0.5-0.1s0.4,0,0.7,0.1
		c0.3,0.1,0.7,0.1,1.1,0.2c0.5,0.1,1,0.1,1.7,0.2s1.5,0.1,2.4,0.1h0.8l4.3-0.1c1.2,0,2.1-0.1,2.8-0.3c0.7-0.2,1.3-0.4,1.7-0.6
		c0.4-0.2,0.7-0.4,0.9-0.5s0.3-0.2,0.4-0.2h0.2h1.3c0.5,0,1.1,0,1.6,0c0.5,0,1,0.1,1.4,0.3c0.4,0.1,0.7,0.4,0.9,0.6
		c0.2,0.3,0.3,0.7,0.3,1.2c0,0.5-0.3,0.8-0.8,1c-0.5,0.2-1.1,0.3-1.6,0.3c-0.2,0-0.4,0-0.5,0l-4.4,0.1
		C1159.3,56,1158.9,56.9,1158.5,57.7z M1176.4,73c-0.4,0.4-0.5,0.8-0.5,1.2v5l-0.2,2c-0.1,0.6-0.2,1.2-0.4,1.9
		c-0.2,0.7-0.4,1.3-0.7,1.9c-0.3,0.6-0.6,1.1-1,1.5c-0.4,0.4-0.8,0.6-1.3,0.6c-1.2,0-1.8-2.7-1.8-8v-6.5l-10.6,0.3
		c-1.2,0-2.2,0.1-2.9,0.3c-0.7,0.2-1.3,0.4-1.7,0.6c-0.4,0.2-0.7,0.4-0.9,0.6c-0.2,0.2-0.3,0.2-0.4,0.2s-0.5-0.1-1.1-0.4
		c-0.6-0.3-1.3-0.6-2-1s-1.4-0.8-1.9-1.1c-0.6-0.4-0.8-0.7-0.8-1c0-0.1,0.1-0.2,0.4-0.3c0.3-0.1,0.4-0.1,0.4-0.1c0.1,0,0.1,0,0.1,0
		c0,0,0.2,0,0.5,0.1c0.3,0.1,0.7,0.1,1.1,0.2c0.5,0.1,1,0.1,1.6,0.2c0.6,0,1.2,0.1,1.9,0.1c0.2,0,0.4,0,0.6,0c0.2,0,0.4,0,0.6,0
		l12.2-0.4c0.6,0,1.1-0.1,1.5-0.3c0.3-0.1,0.6-0.3,0.8-0.5s0.3-0.3,0.4-0.4c0.1-0.1,0.1-0.2,0.2-0.2c2.1,0,3.7,0.1,4.9,0.4
		c1.2,0.3,1.7,0.9,1.7,1.9C1176.9,72.2,1176.8,72.6,1176.4,73z M1157.5,50.6h-4.4c-0.2,0-0.5-0.1-0.9-0.4c-0.4-0.2-0.8-0.5-1.2-0.8
		c-0.4-0.3-0.8-0.6-1.1-1c-0.3-0.3-0.5-0.6-0.5-0.7c0-0.4,0.1-0.6,0.4-0.6c0.2,0,0.4,0,0.8,0.1c0.8,0.2,1.5,0.3,2.3,0.4
		c0.8,0.1,1.6,0.1,2.4,0.1l2.9,0c0.5,0,0.9,0.1,1.4,0.4c0.5,0.3,0.7,0.6,0.7,1C1160.5,50.1,1159.5,50.6,1157.5,50.6z M1177.2,62
		c0,0.8-0.1,1.6-0.3,2.5c-0.1,0.9-0.4,1.7-0.6,2.5c-0.3,0.8-0.6,1.4-1,1.9c-0.4,0.5-0.8,0.8-1.3,0.8c-0.4,0-0.8-0.3-1-0.8
		c-0.3-0.5-0.5-1.4-0.6-2.5l-0.2-3.1V50c0-0.3,0-0.7-0.1-1s-0.2-0.7-0.6-1s-0.8-0.8-1.5-1.2c-0.7-0.4-1.7-1-3-1.6
		c0-0.5,0.8-0.7,2.5-0.7c0.4,0,0.9,0,1.3,0.1c0.4,0.1,0.9,0.1,1.3,0.2c2.2,0.5,3.6,0.9,4.5,1.2c0.8,0.3,1.2,0.6,1.2,0.9
		c-0.1,0.3-0.2,0.5-0.3,0.8c-0.2,0.6-0.2,1.2-0.2,1.8v9.8L1177.2,62z"/>
	<path class="st138" d="M1224.7,66.5h-8l-10.3,0.3c-3.5,0.1-6.3,0.3-8.3,0.5c-2.1,0.2-3.6,0.4-4.8,0.6c-1.1,0.2-1.9,0.4-2.3,0.5
		c-0.4,0.1-0.7,0.2-0.8,0.2c-0.1,0-0.5-0.1-1.1-0.4c-0.6-0.3-1.3-0.6-2-1c-0.7-0.4-1.4-0.7-1.9-1.1c-0.6-0.4-0.8-0.7-0.8-0.9
		c0-0.1,0.1-0.2,0.2-0.2c0.1-0.1,0.3-0.1,0.5-0.1c0.2,0,0.5,0,0.8,0.1c0.3,0,0.8,0.1,1.4,0.2c0.6,0.1,1.3,0.1,2.2,0.2s2,0.1,3.3,0.1
		c0.5,0,1,0,1.6,0s1.1,0,1.8,0l16.9-0.5c1.6,0,2.8-0.1,3.7-0.3c0.9-0.2,1.6-0.4,2.1-0.6c0.5-0.2,0.8-0.4,1-0.6s0.4-0.2,0.5-0.2
		c1.1,0,2,0,2.9,0c0.9,0,1.7,0.1,2.3,0.2c0.6,0.1,1.2,0.3,1.5,0.6c0.4,0.3,0.5,0.6,0.5,1.1C1227.7,66,1226.7,66.5,1224.7,66.5z
		 M1221,85.4c-0.5,0.1-1,0.2-1.5,0.2h-0.6h-7.3l-11.7,0.3h-0.5c-1.2,0-2.1-0.1-2.7-0.4c-0.6-0.3-1.1-0.6-1.4-0.9
		c-0.3-0.3-0.5-0.7-0.6-1.2v-3.9c-0.4-0.2-0.9-0.3-1.3-0.5c-0.4-0.2-0.8-0.4-1.2-0.5c-0.3-0.2-0.6-0.4-0.9-0.5
		c-0.2-0.2-0.3-0.3-0.3-0.4c0-0.1,0.1-0.2,0.3-0.3s0.4-0.1,0.6-0.1c0.3,0,0.8,0.1,1.7,0.2c0.8,0.1,2.1,0.2,3.8,0.2h1l14.2-0.3
		l0.4-4.4l-9.5,0.2c-1.2,0-2.1,0.1-2.8,0.3c-0.7,0.2-1.3,0.3-1.7,0.5c-0.4,0.2-0.7,0.3-0.9,0.5c-0.2,0.1-0.3,0.2-0.4,0.2
		c-0.2,0-0.6-0.1-1.2-0.4c-0.6-0.2-1.3-0.5-2-0.9c-0.7-0.3-1.4-0.7-1.9-1c-0.6-0.3-0.8-0.6-0.8-0.9c0-0.1,0.1-0.2,0.3-0.3
		c0.2-0.1,0.4-0.1,0.5-0.1c0.3,0,0.9,0.1,1.8,0.2s2.2,0.2,4.1,0.2h0.8l11.8-0.3c0.7,0,1.2-0.1,1.5-0.2c0.3-0.1,0.6-0.3,0.7-0.4
		s0.2-0.3,0.3-0.4c0-0.1,0.2-0.2,0.3-0.2c4.4,0,6.6,0.5,6.6,1.4c0,0.3-0.1,0.5-0.2,0.8c-0.1,0.2-0.3,0.5-0.4,0.7s-0.3,0.4-0.5,0.6
		c-0.2,0.2-0.3,0.3-0.3,0.4l-1.2,2.5c1.8,0.2,2.7,0.7,2.7,1.5c0,0.2-0.1,0.4-0.3,0.5c-0.2,0.1-0.5,0.2-0.8,0.2c-0.3,0-0.7,0.1-1,0.1
		c-0.3,0-0.6,0-0.8,0l-7.2,0l-7.4,0.2c-0.6,0-1.1,0.1-1.5,0.1c-0.4,0-0.8,0.1-1,0.1l0,4.8c0,0.1,0.1,0.2,0.2,0.3s0.3,0.1,0.5,0.1
		l5.5-0.1c1.7,0,3.1-0.1,4.1-0.3c1-0.2,1.9-0.4,2.4-0.6c0.6-0.2,1-0.4,1.2-0.6s0.3-0.2,0.4-0.2h0.5c2.1,0,3.7,0.1,4.9,0.3
		c1.2,0.2,1.8,0.7,1.8,1.7C1221.8,84.9,1221.5,85.3,1221,85.4z M1217.7,57.8c-0.7,1-1.7,1.8-2.9,2.5c-1.2,0.6-2.5,1.1-4,1.4
		c-1.5,0.3-2.9,0.4-4.4,0.4c-1.4,0-2.9-0.1-4.4-0.4c-1.5-0.3-2.8-0.8-4-1.4c-1.2-0.6-2.2-1.5-2.9-2.5c-0.8-1-1.1-2.2-1.1-3.7
		c0-1.4,0.4-2.6,1.1-3.7s1.7-1.8,2.9-2.5c1.2-0.6,2.5-1.1,4-1.4c1.5-0.3,2.9-0.4,4.4-0.4c1.4,0,2.9,0.1,4.4,0.4
		c1.5,0.3,2.8,0.7,4,1.4s2.2,1.5,2.9,2.5s1.1,2.2,1.1,3.7C1218.9,55.6,1218.5,56.8,1217.7,57.8z M1212.8,51.7
		c-0.4-0.7-0.9-1.4-1.5-1.9c-0.6-0.5-1.4-1-2.2-1.3c-0.8-0.3-1.7-0.4-2.7-0.4c-0.9,0-1.8,0.1-2.6,0.4c-0.8,0.3-1.6,0.7-2.2,1.2
		c-0.6,0.5-1.2,1.1-1.5,1.9c-0.4,0.7-0.6,1.5-0.6,2.4c0,0.9,0.2,1.7,0.6,2.4c0.4,0.7,0.9,1.3,1.5,1.9s1.4,0.9,2.2,1.2
		c0.8,0.3,1.7,0.4,2.7,0.4s1.8-0.1,2.6-0.4c0.8-0.3,1.6-0.7,2.2-1.2c0.6-0.5,1.1-1.1,1.5-1.8s0.6-1.5,0.6-2.3
		C1213.4,53.3,1213.2,52.5,1212.8,51.7z"/>
	<path class="st138" d="M874.6,133.3c0,0.6-0.1,1.2-0.3,1.8c-0.2,0.6-0.4,1.2-0.7,1.7c-0.3,0.5-0.7,1-1.1,1.3
		c-0.4,0.4-0.9,0.5-1.5,0.5c-1.2,0-1.7-2.3-1.7-6.9v-5c-3.1,0.1-5.5,0.3-7.4,0.5s-3.3,0.4-4.3,0.6c-1,0.2-1.7,0.4-2.2,0.5
		c-0.4,0.1-0.7,0.2-0.8,0.2c-0.1,0-0.5-0.1-1.1-0.4c-0.6-0.3-1.3-0.6-2-1c-0.7-0.4-1.4-0.8-1.9-1.1c-0.6-0.4-0.8-0.7-0.8-1
		c0-0.1,0.1-0.2,0.2-0.3c0.1-0.1,0.3-0.1,0.4-0.1c0.2,0,0.5,0,0.8,0.1c0.3,0,0.8,0.1,1.4,0.2c0.6,0.1,1.4,0.1,2.3,0.2
		c0.9,0,2,0.1,3.4,0.1c0.5,0,1,0,1.5,0c0.5,0,1.1,0,1.7,0l16.9-0.5c1.6,0,2.8-0.1,3.7-0.3c0.9-0.2,1.6-0.4,2.1-0.6
		c0.5-0.2,0.8-0.4,1-0.6s0.4-0.2,0.5-0.2c1.1,0,2,0,2.9,0c0.9,0,1.7,0.1,2.3,0.2c0.6,0.1,1.2,0.3,1.5,0.6s0.5,0.6,0.5,1
		c0,1-1,1.5-3,1.5l-8,0.2h-6.3v4.9L874.6,133.3z M874.1,111.4c-0.2,0.2-0.4,0.5-0.6,0.8c-0.2,0.3-0.5,0.6-0.7,1
		c-0.3,0.4-0.6,0.7-0.8,1c2,0.1,3.8,0.2,5.5,0.5c1.7,0.3,3.3,0.6,4.8,1.1c0.5,0.2,0.9,0.4,1.4,0.7c0.5,0.3,0.9,0.6,1.3,1
		c0.4,0.4,0.7,0.8,0.9,1.2c0.2,0.4,0.4,0.8,0.4,1.2c0,0.6-0.3,1.1-0.8,1.4c-0.5,0.3-1.1,0.5-1.6,0.5c-0.6,0-1.3-0.2-2-0.5
		c-0.8-0.3-1.6-0.7-2.4-1.3c-0.5-0.4-1.1-0.8-1.6-1.3c-0.5-0.5-1.1-1-1.7-1.5c-0.6-0.5-1.3-1-2-1.5c-0.7-0.5-1.6-0.8-2.5-1.1
		c-4,4.3-9.7,7.2-17,8.5c-0.5,0.1-0.9,0.1-1.2,0.1c-0.3,0-0.5,0-0.5-0.1c0-0.2,0.3-0.4,1-0.7c2.1-0.9,4-2,5.6-3.2
		c1.6-1.2,3-2.4,4.2-3.5c1.1-1.1,2.1-2.2,2.7-3.1c0.7-0.9,1.1-1.6,1.3-2l0.3-0.6c-1.3,0.1-2.3,0.2-3,0.4c-0.7,0.2-1.3,0.4-1.7,0.6
		c-0.4,0.2-0.7,0.4-0.9,0.5c-0.2,0.1-0.3,0.2-0.5,0.2c-0.1,0-0.5-0.1-1.2-0.4s-1.3-0.6-2-1c-0.7-0.4-1.4-0.8-1.9-1.1
		c-0.6-0.4-0.9-0.7-0.9-0.9c0-0.1,0.1-0.2,0.4-0.3c0.1,0,0.3-0.1,0.4-0.1h0.1c0.1,0,0.6,0.1,1.5,0.3c0.9,0.1,2,0.2,3.2,0.2
		c0.3,0,0.5,0,0.8,0c0.3,0,0.6,0,0.9,0l9.9-0.3c1.3,0,2.3-0.1,3-0.3c0.7-0.2,1.3-0.4,1.6-0.6s0.6-0.4,0.8-0.6s0.3-0.3,0.5-0.3
		c0.8,0,1.5,0,2.2,0c0.7,0,1.3,0.1,1.9,0.2c0.5,0.1,1,0.3,1.3,0.6c0.3,0.3,0.5,0.6,0.5,1c0,1.1-1,1.6-2.9,1.6l-7.2,0l-0.8,1.2
		C874.3,111,874.2,111.2,874.1,111.4z M885.6,144.1c-0.3,0.2-0.7,0.4-1,0.5c-0.4,0.1-0.7,0.1-1,0.1s-0.4,0-0.3,0h-8l-12.3,0.3
		c-0.4,0-0.8-0.1-1.3-0.2c-0.5-0.1-0.9-0.2-1.2-0.4s-0.7-0.4-0.9-0.7c-0.2-0.3-0.4-0.6-0.4-1v-5.9c0-0.4,0-0.7-0.1-1
		s-0.2-0.5-0.5-0.7c-0.3-0.2-0.7-0.5-1.3-0.7s-1.5-0.6-2.6-1c0-0.5,0.9-0.7,2.6-0.7c1.9,0,3.4,0,4.4,0.1c1,0.1,1.8,0.2,2.2,0.3
		c0.4,0.1,0.7,0.3,0.7,0.5c0,0.2,0.1,0.4,0.1,0.6c0,0.3,0,0.6-0.1,0.9c0,0.3-0.1,0.5-0.1,0.7l0,7.1c0,0.1,0.1,0.2,0.2,0.3
		s0.3,0.2,0.5,0.2l6.2-0.1c1.6,0,2.8-0.2,3.7-0.4c0.9-0.2,1.6-0.5,2.1-0.7c0.5-0.3,0.8-0.5,1-0.7c0.2-0.2,0.4-0.3,0.5-0.3
		c0.9,0,1.8,0,2.7,0c0.9,0,1.7,0.1,2.3,0.2c0.7,0.1,1.2,0.3,1.7,0.6c0.4,0.3,0.6,0.7,0.6,1.3C886.1,143.5,885.9,143.9,885.6,144.1z"
		/>
	<path class="st138" d="M917.3,138.6c0,0.9-0.1,1.8-0.3,2.7c-0.2,0.9-0.4,1.8-0.7,2.7c-0.3,0.8-0.7,1.5-1.1,2
		c-0.4,0.5-0.9,0.8-1.5,0.8c-0.7,0-1.1-0.5-1.3-1.4c-0.2-1-0.3-2.6-0.5-4.9v-4.2v-6.5c-2,0.1-3.6,0.2-4.9,0.3
		c-1.3,0.1-2.5,0.3-3.4,0.4s-1.6,0.3-2.1,0.4c-0.5,0.1-0.9,0.3-1.2,0.4c-0.3,0.1-0.5,0.2-0.7,0.3c-0.2,0.1-0.4,0.1-0.5,0.1
		c-0.2,0-0.7-0.2-1.4-0.5c-0.7-0.3-1.5-0.7-2.2-1.1c-0.8-0.4-1.5-0.8-2.1-1.3s-0.9-0.7-0.9-0.9c0-0.1,0.1-0.2,0.2-0.3
		c0.2-0.1,0.3-0.1,0.5-0.1c0.4,0,1.1,0.1,2.1,0.3c0.9,0.2,2.3,0.3,4.2,0.3c0.2,0,0.3,0,0.5,0c0.2,0,0.4,0,0.6,0l20.6-0.6
		c1.7,0,2.9-0.2,3.9-0.4c0.9-0.2,1.6-0.5,2-0.7c0.4-0.3,0.7-0.5,0.9-0.7c0.1-0.2,0.3-0.3,0.5-0.3c1,0,2,0,2.9,0
		c0.9,0,1.7,0.1,2.4,0.3s1.3,0.4,1.7,0.7c0.4,0.3,0.6,0.7,0.6,1.3c0,0.4-0.1,0.7-0.4,0.9c-0.3,0.2-0.6,0.4-0.9,0.5
		c-0.3,0.1-0.7,0.2-1,0.2s-0.5,0-0.6,0l-9.1,0.2h-6.7v6.2L917.3,138.6z M915.5,115.4c2.1,0,4.1,0.1,5.9,0.4c1.8,0.3,3.6,0.6,5.2,1.1
		c0.5,0.2,0.9,0.4,1.4,0.7c0.5,0.3,1,0.6,1.4,1c0.4,0.4,0.8,0.8,1,1.2c0.3,0.4,0.4,0.8,0.4,1.2c0,0.7-0.3,1.2-0.8,1.6
		c-0.5,0.3-1.1,0.5-1.7,0.5s-1.3-0.1-2.1-0.4c-0.8-0.3-1.7-0.7-2.6-1.3c-0.6-0.4-1.3-0.9-1.9-1.4c-0.6-0.5-1.3-1-2-1.5
		c-0.7-0.5-1.4-1-2.2-1.4c-0.8-0.4-1.7-0.8-2.7-1.1c-4.4,3.7-10.4,6.2-17.9,7.5c-0.3,0.1-0.5,0.1-0.7,0.1c-0.2,0-0.4,0-0.5,0
		c-0.4,0-0.5,0-0.5-0.1c0-0.1,0.3-0.3,1-0.6s1.4-0.7,2.3-1.1c0.9-0.4,1.9-0.9,2.8-1.4c1-0.5,1.8-1,2.5-1.5c1.8-1.2,3.3-2.3,4.4-3.2
		c1.1-0.9,1.9-1.7,2.5-2.3c0.6-0.6,1-1.2,1.1-1.6c0.2-0.4,0.2-0.7,0.2-0.9c0-0.4-0.2-0.8-0.7-1.2c-0.5-0.5-1.4-1.2-2.7-2.1
		c0-0.4,0.7-0.6,2-0.6c0.5,0,1,0,1.5,0.1c0.5,0.1,1,0.2,1.5,0.4c2.2,0.7,3.8,1.3,4.6,1.7s1.3,0.8,1.3,1c0,0.5-0.5,1.3-1.4,2.3
		C917.3,113.6,916.4,114.5,915.5,115.4z"/>
	<path class="st138" d="M960.7,114.3l-11.9,0.3c-1.3,0-2.2,0.1-3,0.3c-0.7,0.2-1.3,0.3-1.6,0.5s-0.6,0.3-0.8,0.5
		c-0.2,0.1-0.3,0.2-0.5,0.2c-0.1,0-0.5-0.1-1.1-0.4c-0.6-0.3-1.3-0.6-2-0.9c-0.7-0.4-1.4-0.7-1.9-1.1c-0.6-0.4-0.8-0.7-0.8-1
		c0-0.2,0.1-0.3,0.3-0.3c0.2,0,0.4-0.1,0.4-0.1c0.1,0,0.2,0,0.2,0c0,0,0.2,0.1,0.5,0.1c0.3,0.1,0.8,0.1,1.3,0.2
		c0.5,0.1,1.1,0.1,1.7,0.2c0.6,0,1.3,0.1,2.1,0.1h0.8l7.3-0.1c1.3,0,2.2-0.1,2.9-0.3s1.2-0.4,1.6-0.6c0.4-0.2,0.6-0.4,0.8-0.5
		s0.3-0.2,0.5-0.2c2.2,0,3.7,0.1,4.6,0.3c0.8,0.2,1.2,0.7,1.2,1.5C963.4,113.8,962.5,114.3,960.7,114.3z M950.9,128.5
		c-1.1,0-2.2-0.1-3.3-0.4c-1.1-0.3-2.1-0.7-2.9-1.3c-0.9-0.5-1.6-1.2-2.1-2c-0.5-0.8-0.8-1.7-0.8-2.8c0-1,0.3-2,0.8-2.8
		c0.5-0.8,1.2-1.5,2.1-2.1c0.9-0.6,1.8-1,2.9-1.3c1.1-0.3,2.2-0.4,3.3-0.4s2.2,0.2,3.4,0.5c1.1,0.3,2.1,0.8,2.9,1.3
		c0.8,0.6,1.5,1.3,2.1,2.1c0.5,0.8,0.8,1.7,0.8,2.8c0,2-0.9,3.6-2.8,4.8C955.4,128,953.3,128.5,950.9,128.5z M953.1,110.2H948
		c-0.1,0-0.4-0.1-0.8-0.4c-0.4-0.2-0.8-0.5-1.2-0.9c-0.4-0.3-0.8-0.7-1.2-1.1c-0.3-0.4-0.5-0.7-0.5-1c0-0.2,0.1-0.3,0.2-0.4
		c0.1-0.1,0.3-0.1,0.4-0.1c0.2,0,0.4,0,0.7,0.1c0.3,0.1,0.6,0.2,1.1,0.3c0.4,0.1,1,0.2,1.7,0.3s1.6,0.1,2.6,0.1l2.9,0
		c0.5,0,0.9,0.1,1.4,0.4c0.5,0.3,0.7,0.6,0.7,1C956,109.8,955.1,110.2,953.1,110.2z M951.7,147c-0.4,0-0.7-0.2-0.9-0.5
		c-0.2-0.3-0.4-0.7-0.6-1.1c-0.1-0.4-0.2-0.9-0.3-1.3c0-0.5-0.1-0.8-0.1-1.1v-0.3v-8.2c0-0.4,0-0.7-0.1-1c0-0.3-0.2-0.6-0.5-0.9
		c-0.3-0.3-0.8-0.6-1.5-0.9c-0.7-0.3-1.7-0.7-3-1.1c0-0.3,0.3-0.5,0.8-0.6c0.5-0.2,1.3-0.2,2.2-0.2c0.3,0,0.7,0,1,0
		c0.3,0,0.7,0.1,1.1,0.1c1.3,0.1,2.3,0.2,3,0.3s1.2,0.2,1.6,0.3c0.3,0.1,0.5,0.3,0.6,0.4c0,0.2,0.1,0.4,0.1,0.6c0,0.3,0,0.7,0,1
		c0,0.3,0,0.6,0,0.8v0h11.3v-0.9v-0.4c0-0.3,0-0.6-0.1-0.8c-0.1-0.2-0.3-0.5-0.6-0.7c-0.3-0.2-0.7-0.5-1.3-0.8
		c-0.6-0.3-1.4-0.7-2.4-1.1c0-0.5,0.6-0.7,1.7-0.7c0.4,0,0.8,0,1.2,0s0.9,0.1,1.5,0.2l1.3,0.2c-0.4-1.2-0.6-4.2-0.6-9.1v-9.5
		c0-0.3,0-0.7-0.1-1c0-0.3-0.2-0.7-0.5-1c-0.3-0.4-0.8-0.8-1.5-1.2c-0.7-0.4-1.7-1-2.9-1.6c0-0.5,0.8-0.7,2.4-0.7
		c0.4,0,0.9,0,1.3,0.1c0.4,0.1,0.9,0.1,1.4,0.2c2.2,0.5,3.6,0.9,4.5,1.2c0.8,0.3,1.2,0.6,1.2,0.9c-0.1,0.3-0.2,0.5-0.3,0.8
		c-0.2,0.6-0.2,1.2-0.2,1.8v9c0.4-0.1,0.8-0.2,1.1-0.4c0.3-0.2,0.6-0.4,0.9-0.6c0.2-0.2,0.4-0.4,0.6-0.5c0.1-0.1,0.3-0.2,0.3-0.2
		c0.6,0,1.2,0,1.8,0c0.6,0,1.2,0.1,1.7,0.2c0.5,0.1,0.9,0.3,1.2,0.6c0.3,0.3,0.5,0.7,0.5,1.3c0,1-1,1.5-2.9,1.5l-5.1,0
		c-0.2,4.4-0.9,7.2-2,8.4c0.6,0.2,1,0.4,1.2,0.6c0.2,0.2,0.3,0.4,0.3,0.6c0,0.2,0,0.5-0.1,1s-0.1,0.9-0.1,1.3v6.3l-0.1,1.8
		c0,0.6-0.1,1.2-0.3,1.8c-0.1,0.6-0.4,1.2-0.6,1.8c-0.3,0.5-0.6,1-1,1.4c-0.4,0.4-0.8,0.5-1.3,0.5c-1,0-1.6-0.7-1.8-2.1l-11.6,0.3
		C954.3,146,953.3,147,951.7,147z M954.7,120.2c-0.2-0.6-0.5-1.1-0.8-1.5c-0.4-0.5-0.8-0.8-1.3-1.1c-0.5-0.3-1-0.4-1.6-0.4
		c-0.6,0-1.1,0.1-1.6,0.4c-0.5,0.3-0.9,0.6-1.3,1.1c-0.4,0.4-0.7,0.9-0.9,1.5c-0.2,0.5-0.3,1.1-0.3,1.7c0,0.6,0.1,1.1,0.3,1.7
		c0.2,0.5,0.5,1,0.9,1.5c0.4,0.4,0.8,0.8,1.3,1c0.5,0.2,1,0.4,1.6,0.4c0.5,0,1-0.1,1.5-0.4c0.5-0.2,0.9-0.6,1.2-1
		c0.3-0.4,0.6-0.9,0.9-1.4c0.2-0.5,0.4-1.1,0.4-1.6C955,121.4,954.9,120.8,954.7,120.2z M955,141.9h11.3v-6.6H955V141.9z"/>
	<path class="st138" d="M995.3,123.7c1.2,0.6,2.5,1.3,3.8,2.2c1.3,0.8,2.5,1.8,3.6,2.8c1.1,1,2,2.1,2.7,3.2c0.7,1.1,1,2.3,1,3.5
		c0,0.9-0.2,1.5-0.6,1.9c-0.4,0.4-0.9,0.6-1.5,0.6c-1.2,0-2.2-0.5-2.8-1.4c-0.7-0.9-1.3-2-1.8-3.4c-0.6-1.4-1.2-2.8-1.9-4.4
		c-0.7-1.6-1.6-3-2.8-4.2c-1.7,3.5-3.7,6.5-5.9,8.9s-4.8,4.2-7.5,5.6c-0.4,0.2-0.7,0.4-0.9,0.5c-0.2,0.1-0.4,0.2-0.6,0.2
		c-0.1,0-0.2,0-0.2-0.1c0-0.3,0.3-0.7,1-1.2c1.9-1.7,3.4-3.6,4.8-5.7c1.3-2.1,2.4-4.2,3.3-6.3c0.9-2.1,1.6-4.1,2.1-5.9
		s0.9-3.4,1.2-4.7l0.2-1.2c0-0.2,0.1-0.3,0.1-0.4c0-0.1,0-0.3,0-0.4c0-0.5-0.2-1-0.7-1.5c-0.5-0.5-1.5-1.2-3.1-2
		c0-0.3,0.2-0.5,0.5-0.6s0.8-0.2,1.4-0.2c0.4,0,0.8,0,1.2,0.1c0.4,0,0.9,0.1,1.3,0.3c1.2,0.4,2.2,0.7,3,1c0.7,0.3,1.3,0.6,1.7,0.8
		s0.7,0.5,0.8,0.7c0.1,0.2,0.2,0.5,0.2,0.7c0,0.1,0,0.2-0.1,0.3c-0.1,0.2-0.1,0.4-0.2,0.6c-0.1,0.2-0.1,0.5-0.2,0.7
		c-0.1,0.2-0.1,0.4-0.1,0.5C997.4,118.4,996.4,121.3,995.3,123.7z M1016.3,138.6c-0.1,0.9-0.2,1.8-0.4,2.7c-0.2,1-0.4,1.8-0.7,2.7
		c-0.3,0.8-0.6,1.5-1,2c-0.4,0.5-0.8,0.8-1.3,0.8c-1.2,0-1.8-3.7-1.8-11v-26.3c0-0.4,0-0.7-0.1-1c-0.1-0.3-0.3-0.6-0.7-1
		c-0.4-0.3-0.9-0.7-1.6-1.2c-0.7-0.4-1.7-1-3-1.6c0-0.2,0.2-0.4,0.6-0.5c0.4-0.1,1-0.2,1.6-0.2c0.5,0,1,0,1.5,0.1s1.1,0.2,1.7,0.3
		c1.2,0.3,2.2,0.6,3,0.8c0.8,0.2,1.4,0.4,1.8,0.6c0.4,0.2,0.7,0.4,0.9,0.6s0.2,0.4,0.2,0.6c0,0.3-0.1,0.6-0.2,1s-0.2,0.9-0.2,1.4
		v26.3L1016.3,138.6z"/>
	<path class="st138" d="M1033.3,137.8c-0.4,0-0.7,0-1.1-0.1c-0.3-0.1-0.7-0.3-0.9-0.8c-0.3-0.4-0.5-1.1-0.7-2.1
		c-0.2-0.9-0.3-2.3-0.3-4v-15.6c-0.4-0.1-0.8-0.4-1.4-0.7c-0.6-0.3-1.2-0.7-1.7-1s-1-0.7-1.4-1c-0.4-0.3-0.6-0.5-0.6-0.6
		c0-0.2,0.2-0.2,0.5-0.2c0.2,0,0.5,0,0.7,0.1c0.3,0.1,0.6,0.1,1,0.2c0.4,0.1,0.9,0.2,1.5,0.2s1.3,0.1,2.2,0.1c0.2,0,0.5,0,0.7,0
		c0.2,0,0.5,0,0.7,0l3.6-0.1c1.2,0,2.2-0.1,2.9-0.3s1.3-0.4,1.7-0.5c0.4-0.2,0.7-0.3,0.9-0.5c0.2-0.1,0.3-0.2,0.4-0.2
		c1.8,0,3.2,0.1,4.2,0.3c1,0.2,1.6,0.7,1.6,1.5c0,0.6-0.2,1-0.7,1.2c-0.5,0.2-1,0.4-1.6,0.4c-0.2,0-0.4,0-0.5,0h-4.4l-3.7,0.1
		c-0.1,0-0.3,0-0.6,0c-0.3,0-0.5,0-0.6,0.1l0,18.7c0,0.1,0.1,0.3,0.2,0.4s0.3,0.2,0.5,0.2c3.9,0,9.4-1.1,16.5-3.4l1.1-0.3v-19.9
		c0-0.4,0-0.7-0.1-1c-0.1-0.3-0.3-0.6-0.7-1c-0.4-0.3-0.9-0.7-1.6-1.2c-0.7-0.4-1.7-1-3-1.6c0-0.2,0.2-0.4,0.6-0.5
		c0.4-0.1,1-0.2,1.6-0.2c0.5,0,1,0,1.5,0.1c0.5,0,1.1,0.2,1.7,0.3c1.2,0.3,2.1,0.6,2.9,0.8c0.8,0.2,1.4,0.4,1.8,0.6s0.8,0.4,0.9,0.5
		c0.2,0.2,0.3,0.3,0.3,0.5c0,0.1-0.1,0.4-0.2,1c-0.2,0.6-0.2,1.1-0.2,1.5v14.6c0.7-0.1,1.2-0.2,1.5-0.4c0.3-0.2,0.6-0.4,0.7-0.6
		c0.1-0.2,0.3-0.4,0.3-0.5c0.1-0.2,0.2-0.2,0.4-0.2c1.8,0,3,0.1,3.9,0.4c0.8,0.3,1.2,0.9,1.2,1.8c0,0.4-0.2,0.6-0.5,0.8
		c-0.3,0.2-0.7,0.3-1,0.4c-0.4,0.1-0.9,0.2-1.4,0.2h-5.1v9.9l-0.1,2.7c-0.1,0.9-0.2,1.8-0.4,2.7c-0.2,0.9-0.4,1.8-0.7,2.7
		c-0.3,0.8-0.6,1.5-1,2c-0.4,0.5-0.8,0.8-1.3,0.8c-1.2,0-1.8-3.6-1.8-10.9v-5.6c-0.1,0-0.2,0.1-0.3,0.2
		C1045.4,135.4,1038.6,137.8,1033.3,137.8z"/>
	<path class="st138" d="M1075.1,144.3c-1.1,0-2-0.4-2.7-1.1c-0.8-0.8-1.1-1.7-1.1-2.7c0-1.1,0.4-2,1.1-2.7c0.8-0.8,1.7-1.1,2.7-1.1
		c1.1,0,2,0.4,2.7,1.1s1.1,1.7,1.1,2.7c0,1.1-0.4,2-1.1,2.7C1077.1,143.9,1076.2,144.3,1075.1,144.3z"/>
</g>
<g>
	<path class="st139" d="M835.4,183.3h-1.7v-1.5h1.9l0.4-3h-1.8v-1.5h2l0.5-3.9h1.4l-0.5,3.9h2.7l0.5-3.9h1.4l-0.5,3.9h1.8v1.5h-1.9
		l-0.4,3h1.8v1.5h-2l-0.5,4.4H839l0.5-4.4h-2.7l-0.5,4.4h-1.4L835.4,183.3z M839.7,181.8l0.4-3h-2.7l-0.4,3H839.7z"/>
	<path class="st139" d="M860.9,185.3v1.7H845v-1.7h5.9v-4.4h2v4.4H860.9z M857.1,177.4c0-1,0-1.8,0-2.6h-10.3v-1.6h12.3v1.6
		c0,2.1,0,4.6-0.8,8.3l-2-0.2c0.3-1.5,0.5-2.7,0.6-3.9l-10.4,0.6l-0.3-1.7L857.1,177.4z"/>
	<path class="st139" d="M878.9,185.4v1.7h-15.9v-1.7h6.9v-3h-5v-5.7H875v-2.4h-10.2v-1.6H877v5.6h-10.1v2.5h10.5v1.6h-5.5v3H878.9z"
		/>
	<path class="st139" d="M883.4,183.1c2.4,0,4.9-0.2,7.6-0.8l0.2,1.7c-3,0.6-5.7,0.8-8.3,0.8h-1.5v-11.5h2V183.1z M897.1,180h-2.7
		v9.1h-2v-17.6h2v6.8h2.7V180z"/>
	<path class="st139" d="M903.6,181.5c-2.6,0-4.7-1.8-4.7-4.4s2-4.4,4.7-4.4c2.7,0,4.7,1.8,4.7,4.4S906.3,181.5,903.6,181.5z
		 M903.6,179.8c1.5,0,2.7-1,2.7-2.7c0-1.6-1.2-2.6-2.7-2.6c-1.5,0-2.7,1.1-2.7,2.6C900.9,178.7,902.1,179.8,903.6,179.8z
		 M903.4,187.1h9.8v1.6h-11.8v-5.7h2V187.1z M914.9,176.8v1.7h-2.5v6h-2v-12.9h2v5.2H914.9z"/>
	<path class="st139" d="M926.9,180.6c-2.5,0.5-4.7,0.6-7.8,0.6h-1.4v-8.7h2v7.1c2.7,0,4.7-0.2,7-0.6L926.9,180.6z M931.3,185.8
		c0,2.1-2.3,3.4-5.9,3.4c-3.7,0-5.9-1.2-5.9-3.4c0-2.1,2.3-3.4,5.9-3.4C929,182.4,931.3,183.6,931.3,185.8z M929.3,185.8
		c0-1.1-1.4-1.8-3.9-1.8s-3.9,0.6-3.9,1.8c0,1.1,1.4,1.8,3.9,1.8S929.3,186.9,929.3,185.8z M929.2,178h-4.6v-1.6h4.6v-1.5h-4.6v-1.5
		h4.6v-1.8h2v10.7h-2V178z"/>
	<path class="st139" d="M940.4,183.3h-1.7v-1.5h1.9l0.4-3h-1.8v-1.5h2l0.5-3.9h1.4l-0.5,3.9h2.7l0.5-3.9h1.4l-0.5,3.9h1.8v1.5h-1.9
		l-0.4,3h1.8v1.5h-2l-0.5,4.4H944l0.5-4.4h-2.7l-0.5,4.4h-1.4L940.4,183.3z M944.7,181.8l0.4-3h-2.7l-0.4,3H944.7z"/>
	<path class="st139" d="M965.9,183.1h-7v6h-2v-6H950v-1.7h15.9V183.1z M951.7,176.1c0-2.4,2.5-3.9,6.2-3.9c3.7,0,6.2,1.5,6.2,3.9
		c0,2.4-2.5,3.9-6.2,3.9C954.2,180,951.7,178.5,951.7,176.1z M953.8,176.1c0,1.4,1.7,2.3,4.2,2.3c2.5,0,4.2-0.9,4.2-2.3
		c0-1.4-1.7-2.3-4.2-2.3C955.4,173.8,953.8,174.7,953.8,176.1z"/>
	<path class="st139" d="M970.9,183.3c2.8,0,5.2-0.2,8-0.6l0.2,1.6c-3,0.5-5.6,0.6-8.7,0.6h-1.5v-7h6.1v-3.3h-6.2v-1.6h8.2v6.5h-6.1
		V183.3z M982.4,171.5v17.6h-2v-17.6H982.4z"/>
	<path class="st139" d="M1001.7,185.3v1.6h-15.9v-1.6h6.9v-4h-5.2v-8.4h12.3v8.4h-5.1v4H1001.7z M989.6,179.7h8.4v-5.2h-8.4V179.7z"
		/>
	<path class="st139" d="M1019.6,183.2h-7v5.8h-2v-5.8h-6.9v-1.7h16V183.2z M1017.7,179.6h-11.9v-7h11.7v1.6h-9.6v3.8h9.8V179.6z"/>
	<path class="st139" d="M1032.5,174.9h-10.6v-1.6h4.3v-1.9h2v1.9h4.3V174.9z M1027.2,181.9c-2.6,0-4.3-1.2-4.3-3.2
		c0-1.9,1.7-3.2,4.3-3.2c2.6,0,4.3,1.2,4.3,3.2C1031.5,180.6,1029.8,181.9,1027.2,181.9z M1024.6,183h11.5v5.9h-11.5V183z
		 M1027.2,180.4c1.5,0,2.4-0.6,2.4-1.7c0-1-1-1.7-2.4-1.7s-2.4,0.6-2.4,1.7C1024.7,179.8,1025.7,180.4,1027.2,180.4z M1026.6,187.3
		h7.6v-2.7h-7.6V187.3z M1036.1,171.5v10.6h-2v-10.6H1036.1z"/>
	<path class="st139" d="M1042.3,183c1.6,0,3.2-0.2,5.2-0.5l0.2,1.7c-2.4,0.4-4.4,0.5-6.2,0.5h-1.2v-11.1h2V183z M1054.5,171.5v17.6
		h-1.9v-8.9h-2.1v8.1h-1.9v-16.3h1.9v6.6h2.1v-7H1054.5z"/>
	<path class="st139" d="M1073.3,185.3v1.6h-15.9v-1.6h3.7v-4.6c-1.4-0.8-2.2-2-2.2-3.6c0-2.8,2.7-4.6,6.5-4.6c3.7,0,6.5,1.8,6.5,4.6
		c0,1.6-0.8,2.8-2.2,3.6v4.6H1073.3z M1060.9,177.1c0,1.9,1.8,3,4.5,3c2.6,0,4.5-1.2,4.5-3c0-1.8-1.8-3-4.5-3
		C1062.7,174.1,1060.9,175.3,1060.9,177.1z M1063.2,185.3h4.4v-3.8c-0.7,0.2-1.4,0.3-2.2,0.3s-1.5-0.1-2.2-0.2V185.3z"/>
	<path class="st139" d="M1075.7,178.7c0-0.9,0.7-1.6,1.5-1.6c0.8,0,1.5,0.7,1.5,1.6c0,0.9-0.7,1.6-1.5,1.6
		C1076.4,180.2,1075.7,179.6,1075.7,178.7z M1075.7,186.3c0-0.9,0.7-1.6,1.5-1.6c0.8,0,1.5,0.7,1.5,1.6c0,0.9-0.7,1.6-1.5,1.6
		C1076.4,187.9,1075.7,187.2,1075.7,186.3z"/>
	<path class="st139" d="M1081,190.9c1.7-2.8,2.5-6.1,2.5-9.3c0-3.2-0.8-6.5-2.5-9.3l1.4-0.6c1.8,2.9,2.9,6.1,2.9,9.9
		c0,3.9-1.1,7-2.9,10L1081,190.9z"/>
</g>
</svg>
