<?xml version="1.0" encoding="utf-8"?>
<!-- Generator: Adobe Illustrator 24.2.3, SVG Export Plug-In . SVG Version: 6.00 Build 0)  -->
<svg version="1.1" id="Layer_1" xmlns="http://www.w3.org/2000/svg" xmlns:xlink="http://www.w3.org/1999/xlink" x="0px" y="0px"
	 viewBox="0 0 190 60" style="enable-background:new 0 0 190 60;" xml:space="preserve">
<style type="text/css">
	.st0{fill:#FFFFFF;}
	.st1{fill:#EFA458;}
	.st2{fill:#165BA5;}
	.st3{fill:#D88E4C;}
</style>
<path class="st0" d="M66.7,32.1H70c0,2.4-0.6,4.2-1.8,5.5c-1.2,1.3-2.9,1.9-5,1.9c-4.8,0-7.2-2.8-7.2-8.4v-1.6
	c0-4.4,1.2-7.2,3.7-8.3c1-0.5,2.1-0.7,3.5-0.7c2,0,3.6,0.5,4.9,1.6c1.3,1.1,1.9,2.7,1.9,4.7h-3.4c-0.2-1-0.5-1.8-1-2.3
	c-0.5-0.5-1.3-0.8-2.3-0.8c-1.2,0-2.1,0.4-2.7,1.2c-0.4,0.5-0.7,1.5-0.7,2.8c0,0.4-0.1,1-0.1,1.7V31c0,2,0.3,3.4,0.8,4.1
	c0.6,0.7,1.5,1.1,2.7,1.1c1.2,0,2.1-0.3,2.5-1C66.2,34.6,66.5,33.5,66.7,32.1z"/>
<path class="st1" d="M79.4,25.6l-4.3,13.7h-3.8l6-17.1c0.3-0.6,0.6-1,0.9-1.2c0.3-0.2,0.7-0.3,1.2-0.3c0.5,0,0.9,0.1,1.1,0.3
	c0.3,0.2,0.5,0.6,0.8,1.3l6,17.1h-3.8L79.4,25.6z"/>
<path class="st0" d="M103.7,28.2l-3.4,7.1c-0.5,0.9-1.1,1.4-1.8,1.4c-0.7,0-1.3-0.5-1.8-1.5l-3.4-7v11.2h-3.6V20.7h3.6l5.3,10.8
	l5.2-10.8h3.6v18.7h-3.6V28.2z"/>
<path class="st0" d="M124.7,34c0,1.7-0.5,3.1-1.4,4c-0.9,0.9-2.2,1.4-3.9,1.4h-2.5c-2.1,0-3.5-0.4-4.4-1.1c-0.9-0.7-1.3-2-1.3-3.7
	V20.7h7.9c1.8,0,3.1,0.4,4,1.3c0.9,0.9,1.4,2.2,1.4,3.8c0,0.9-0.2,1.7-0.7,2.4c-0.5,0.7-1,1.1-1.6,1.4
	C123.8,30.4,124.7,31.9,124.7,34z M118.8,28c1.3,0,2-0.7,2-2c0-1.3-0.7-2-2-2h-4v4H118.8z M121.1,33.8c0-0.8-0.1-1.5-0.4-1.9
	c-0.3-0.4-0.8-0.6-1.6-0.6h-4.2v2.9c0,0.7,0.2,1.2,0.5,1.5c0.4,0.3,0.9,0.4,1.8,0.4h1.9C120.4,36.1,121.1,35.3,121.1,33.8z"/>
<path class="st0" d="M132.1,39.3h-3.6V20.7h3.6V39.3z"/>
<path class="st0" d="M151,20.6v16.8c0,0.6-0.2,1.1-0.5,1.5c-0.4,0.4-0.8,0.6-1.2,0.6c-1.2,0-2.2-0.7-3-2.1l-6.5-10.1v12h-3.6V20.6
	h3.5l7.7,12.2V20.6H151z"/>
<path class="st0" d="M167.1,39.3h-6.6c-2.1,0-3.6-0.4-4.4-1.1c-0.8-0.7-1.3-2-1.3-3.8V20.7h12.3v3.3h-8.7v4.4h6.1l-0.3,3.3h-5.8v2.6
	c0,0.7,0.2,1.2,0.5,1.5c0.3,0.3,0.9,0.4,1.8,0.4h6.3V39.3z"/>
<path class="st0" d="M184.7,29.9l0,2c-0.1,1.3-0.2,2.4-0.5,3.2c-0.2,0.9-0.7,1.7-1.4,2.4c-1.2,1.2-2.9,1.8-5.2,1.8
	c-2.7,0-4.5-0.4-5.5-1.1c-1-0.7-1.5-2-1.5-3.8V20.7h7.3c2.1,0,3.7,0.6,4.9,1.8c1,1,1.5,2.1,1.7,3.5
	C184.7,26.9,184.7,28.3,184.7,29.9z M180.9,33.3c0.1-0.7,0.1-1.8,0.1-3.3c0-1.5,0-2.6-0.1-3.3c-0.1-0.7-0.3-1.2-0.6-1.6
	c-0.6-0.8-1.5-1.2-2.7-1.2h-3.3v10.3c0,0.7,0.2,1.2,0.7,1.4c0.5,0.3,1.3,0.4,2.5,0.4c1.2,0,2.1-0.4,2.8-1.2
	C180.6,34.5,180.8,34,180.9,33.3z"/>
<path class="st3" d="M31.4,28.8c-0.1-0.3-0.2-0.6-0.3-0.9c0-0.1-0.1-0.2-0.1-0.3l-0.1-0.1l-0.2,0.1c0,0,0,0,0,0l0.2-0.2l-0.1-0.2
	c-0.2-0.4-0.5-0.8-0.8-1.2c-0.4-0.6-0.9-1.2-1.4-1.7c-0.2-0.2-0.3-0.4-0.5-0.6c-0.3-0.4-0.5-0.8-0.6-1.3c0-0.3,0-0.5,0.2-0.7
	c0.1-0.2,0.4-0.3,0.6-0.3c0.1,0,0.2,0,0.3-0.1c0-0.1,0.1-0.1,0.1-0.2c0-0.1,0-0.1-0.1-0.2c-0.5-0.3-1.1-0.5-1.7-0.5
	c-0.5,0-1,0.2-1.5,0.4c-0.5,0.3-0.8,0.7-1.1,1.2c-0.1,0.1-0.1,0.2-0.1,0.3c-0.1,0.2-0.1,0.4-0.2,0.6C24,23.3,24,23.6,24,24
	c0,0,0,0.1,0,0.1c0,0,0,0.1,0,0.1c0,0.1,0.1,0.3,0.1,0.4c0,0,0,0.1,0,0.1c-0.2,0-0.3,0-0.5,0c-0.6,0-1.1,0.2-1.6,0.6
	C22,25.5,22,25.6,22,25.7c0,0.1,0.1,0.2,0.2,0.2l0.1,0c0.1,0,0.2,0,0.2,0.1c0.5,0.2,0.7,0.7,0.5,1.3c0,0,0,0.1,0,0.1
	c0,0,0,0.1-0.1,0.1l0.2,0.1l0,0l-0.2-0.1c-0.1,0.1-0.1,0.2-0.2,0.3l-0.2,0.2c-0.1,0.1-0.2,0.2-0.2,0.3c-0.6,0.9-0.8,1.8-0.6,2.7
	c0.3,1.7,1.3,2.9,2.9,3.5c0.1,0,0.3,0.1,0.5,0.1c0,0,0.1,0,0.1,0c0,0,0.1,0,0.1,0c0.1,0,0.2-0.1,0.2-0.2c0-0.1,0-0.2-0.1-0.3
	l-0.1-0.1c-0.6-0.5-1-1.1-1-1.9c0-0.6,0.2-1.1,0.6-1.7c0.2-0.2,0.3-0.4,0.5-0.5c0.2-0.2,0.4-0.4,0.6-0.7c0.3-0.4,0.5-0.8,0.6-1.2
	l0-0.1c0,0,0-0.1,0-0.1c0-0.1,0-0.1,0-0.2l0-0.1c0,0,0-0.1,0-0.1c0.1,0.1,0.2,0.2,0.3,0.3l0.1,0.1c0,0,0,0.1,0.1,0.1l0.2-0.1
	c0,0,0,0,0,0l-0.2,0.2c0,0,0,0.1,0,0.1l0,0.1c0,0,0,0.1,0.1,0.1c0.3,0.8,0.3,1.9-0.5,2.5c-0.1,0-0.1,0.1-0.1,0.2
	c0,0.1,0,0.2,0.1,0.3c0.2,0.1,0.4,0.1,0.5,0.1c0.1,0,0.2,0,0.4,0c0.6-0.1,1-0.3,1.2-0.8c0.2,0.3,0.2,0.6,0.2,1c0,0.8-0.4,1.5-1,2.1
	c-0.1,0.1-0.2,0.2-0.3,0.3l-0.2,0.1c0,0-0.1,0-0.1,0c-0.1,0.1-0.1,0.2-0.1,0.3c0,0.1,0.2,0.2,0.3,0.1c0,0,0.1,0,0.1,0
	c1.3-0.3,2.3-1.1,3-2.2C31.5,31.3,31.7,30,31.4,28.8z M26.4,28L26.4,28L26.4,28L26.4,28z M26.4,27.9L26.4,27.9L26.4,27.9L26.4,27.9
	L26.4,27.9z M28.8,30.5C28.7,30.5,28.7,30.5,28.8,30.5C28.7,30.5,28.7,30.5,28.8,30.5l0-0.1L28.8,30.5L28.8,30.5z M28.9,30.3
	L28.9,30.3L28.9,30.3L28.9,30.3L28.9,30.3z"/>
<path class="st0" d="M47.8,24.4c0-0.1,0-0.2,0-0.3c0-0.1,0-0.2,0-0.3C47.4,12.5,38.1,3.3,26.7,3.3C15,3.3,5.5,12.8,5.5,24.5
	c0,1.5,0.2,3.1,0.6,4.6c0,0.1,0,0.2,0.1,0.2c0,0,0,0.1,0,0.1c0,0.1,0.1,0.2,0.1,0.3c0,0,0,0.1,0,0.1c0.1,0.5,0.3,0.9,0.4,1.4
	c0,0,0,0.1,0,0.1c0,0.1,0.1,0.2,0.1,0.3c0.9,2.3,2.1,4.5,3.8,6.7c3.2,4.2,14.7,17.7,14.8,17.9l0,0c0.3,0.3,0.7,0.5,1.2,0.5
	c0.4,0,0.8-0.2,1.2-0.5l0,0c0.1-0.1,11.7-14,14.8-17.8c1.1-1.4,2.1-2.9,2.8-4.4c0-0.1,0.1-0.1,0.1-0.2c0-0.1,0.1-0.1,0.1-0.2
	c0.9-1.9,1.5-3.9,1.9-5.9l0,0l0,0c0.1-0.9,0.2-1.7,0.2-2.6C47.8,24.8,47.8,24.7,47.8,24.4C47.8,24.5,47.8,24.5,47.8,24.4
	C47.8,24.4,47.8,24.4,47.8,24.4z M32,38.9l-4.8-1.4l2.5-0.7l2.7,0.8L32,38.9z M29.7,36.5l-0.3,0.1l-0.3,0.1l-2.5,0.7l-0.3,0.1
	l-0.3,0.1l-4.8,1.4l-0.4-1.3l2.7-0.8l0.3-0.1l0.3-0.1l2.5-0.7l0.3-0.1l0.3-0.1l4.8-1.4l0.4,1.3L29.7,36.5z M22.7,25.7
	c-0.1,0-0.3-0.1-0.4-0.1c0.5-0.4,0.9-0.6,1.5-0.6c0.2,0,0.5,0,0.8,0.1c0,0,0.1,0,0.1,0c-0.1-0.2-0.2-0.4-0.2-0.6
	c0-0.1-0.1-0.3-0.1-0.4c0,0,0-0.1,0-0.1c0-0.1,0-0.1,0-0.2c0-0.3,0-0.6,0-1c0-0.2,0.1-0.4,0.2-0.6c0-0.1,0.1-0.2,0.1-0.3
	c0.2-0.5,0.6-0.9,1-1.1c0.4-0.3,0.9-0.4,1.3-0.4c0.5,0,1.1,0.1,1.5,0.5c0,0.1-0.1,0-0.2,0c-0.7,0.1-1.1,0.6-1,1.3
	c0.1,0.5,0.3,1,0.6,1.4c0.6,0.7,1.3,1.4,1.9,2.2c0.3,0.4,0.5,0.8,0.7,1.2c0,0,0,0.1,0.1,0.1c0,0,0,0,0,0c0,0,0,0.1,0.1,0.1
	c0,0,0,0.1,0.1,0.1c0,0.1,0.1,0.2,0.1,0.3c0.1,0.3,0.2,0.6,0.3,0.9c0.6,2.5-0.9,5-3.3,5.6c0,0-0.1,0-0.1,0c0,0,0,0,0,0
	c0.2-0.1,0.4-0.3,0.5-0.4c0.7-0.6,1.1-1.4,1.1-2.3c0-0.5-0.1-0.9-0.4-1.3c0-0.1-0.1-0.1-0.2-0.1c0,0,0,0,0,0c0,0,0,0.1,0,0.1
	c-0.2,0.5-0.6,0.7-1.1,0.8c-0.1,0-0.2,0-0.3,0c-0.2,0-0.3,0-0.4-0.1c0,0,0,0,0,0c0.9-0.6,0.9-1.9,0.6-2.8c0-0.1-0.1-0.1-0.1-0.2
	c0,0,0-0.1,0-0.1c0,0,0-0.1,0-0.1c0-0.1-0.1-0.1-0.1-0.2c0,0,0-0.1-0.1-0.1c-0.1-0.1-0.2-0.2-0.3-0.3c-0.2-0.2-0.3-0.3-0.5-0.5
	c0,0,0,0.1,0,0.1c0,0.1,0,0.2,0.1,0.4c0,0,0,0,0,0c0,0.1,0,0.2,0,0.3c0,0,0,0.1,0,0.1c0,0.1,0,0.1,0,0.2c0,0,0,0,0,0.1
	c0,0,0,0.1,0,0.1c-0.1,0.4-0.3,0.8-0.5,1.1c-0.3,0.4-0.8,0.8-1.1,1.2c-0.5,0.5-0.7,1.1-0.7,1.9c0.1,0.8,0.4,1.5,1.1,2.1
	c0,0,0.1,0.1,0.1,0.1c-0.1,0-0.1,0-0.2,0c-0.1,0-0.3,0-0.4-0.1c-1.6-0.5-2.5-1.6-2.8-3.3c-0.2-0.9,0.1-1.8,0.6-2.5
	c0.1-0.2,0.3-0.4,0.4-0.6c0.1-0.1,0.1-0.2,0.2-0.3c0,0,0,0,0-0.1c0,0,0.1-0.1,0.1-0.1c0,0,0,0,0,0c0,0,0-0.1,0-0.1c0,0,0,0,0,0
	C23.5,26.6,23.3,25.9,22.7,25.7z M26.1,35.8l-2.5,0.7l-2.7-0.8l0.4-1.3L26.1,35.8z M38.9,31.9c-0.2-0.2-1.9-1.6-4-3.9
	c-0.1-0.1-0.2-0.2-0.3-0.3c-0.1-0.1-0.2-0.2-0.3-0.3c-0.4-0.4-0.7-0.8-1.1-1.3c0,0-0.1-0.1-0.1-0.1c0,0-0.1-0.1-0.1-0.1
	c-2.2-2.5-4.6-5.6-6.4-8.9c-0.7,1.3-1.5,2.5-2.4,3.7c0,0.1-0.1,0.1-0.2,0.2c-0.1,0.1-0.2,0.2-0.2,0.3c-0.7,1-1.4,1.9-2.1,2.8
	c0,0.1-0.1,0.1-0.1,0.2c-0.1,0.2-0.3,0.3-0.4,0.5c-0.3,0.3-0.6,0.7-0.8,1c0,0-0.1,0.1-0.1,0.1c0,0-0.1,0.1-0.1,0.1
	c-0.5,0.5-0.9,1-1.3,1.5c-0.1,0.1-0.2,0.2-0.3,0.3c-0.1,0.1-0.2,0.2-0.3,0.3c-2.2,2.3-3.9,3.8-4,3.9l-2.3-0.9l0.8-0.7
	c0,0,1-0.9,2.4-2.2c0.1-0.1,0.2-0.2,0.3-0.3c0.1-0.1,0.2-0.2,0.3-0.3c0.8-0.8,1.6-1.7,2.5-2.7c0.1-0.1,0.2-0.2,0.2-0.3
	c0,0,0.1-0.1,0.1-0.1c0,0,0.1-0.1,0.1-0.1c0,0,0,0,0,0c0,0,0.1-0.1,0.1-0.2c1.3-1.5,2.7-3.3,4-5.1c0.1-0.1,0.2-0.2,0.2-0.4
	c0-0.1,0.1-0.1,0.1-0.2c0.8-1.2,1.6-2.5,2.2-3.8c-0.4-0.9-0.8-1.8-1.1-2.7l-0.3-1.1l2.1-0.7l0.3,1.1c0.1,0.2,0.1,0.3,0.2,0.5
	c0.1-0.2,0.1-0.3,0.2-0.5L27,10l2.1,0.7l-0.3,1.1c-0.3,0.9-0.7,1.8-1.1,2.7c1.8,3.7,4.5,7.2,7,9.9c0,0,0.1,0.1,0.1,0.1
	c0,0,0.1,0.1,0.1,0.1c0.9,1,1.7,1.9,2.5,2.7c0.1,0.1,0.2,0.2,0.3,0.3c0.1,0.1,0.2,0.2,0.3,0.3c1.4,1.4,2.3,2.2,2.4,2.2l0.8,0.7
	L38.9,31.9z"/>
</svg>
